<?xml version="1.0" encoding="utf-8"?>
<!-- Generator: Adobe Illustrator 29.6.1, SVG Export Plug-In . SVG Version: 9.03 Build 0)  -->
<svg version="1.1" id="레이어_1" xmlns="http://www.w3.org/2000/svg" xmlns:xlink="http://www.w3.org/1999/xlink" x="0px"
	 y="0px" viewBox="0 0 423.32 128.17" style="enable-background:new 0 0 423.32 128.17;" xml:space="preserve">
<style type="text/css">
	.st0{fill:none;}
	.st1{fill:#607F95;}
	.st2{fill:#BE7047;}
	.st3{fill:#25272D;}
</style>
<g>
	<rect x="1408.34" y="730.77" class="st0" width="2.04" height="0"/>
</g>
<g>
	<polygon class="st1" points="122.43,4.09 148.11,51.59 172.59,4.14 204.26,3.59 161.96,76.84 161.96,123.09 133.26,123.09 
		133.02,77.57 91.7,6.61 90.96,4.09 	"/>
	<path class="st2" d="M30.95,81.98c0.51,9.42,2.85,17.04,13.87,16.52c12.35-0.58,10.75-10.61,12.33-19.75L57.13,2.48l27.7,0
		c-0.1,15.57,0.13,31.19-0.02,46.74c-0.13,13.7,1.41,41.34-3.92,53.1c-12.16,26.85-58.58,27.98-71.68,1.5
		c-0.98-1.99-3.44-8.67-3.44-10.59V81.98H30.95z"/>
</g>
<g>
	<g>
		<path class="st3" d="M178.61,62.62h36.27v9.56h-9.29l9.42,24.41h-11.86l-6.37-17.18l-6.3,17.11h-11.86l9.35-24.35h-9.35V62.62z
			 M233.18,122.39h-53.76V99.11h11.25v13.84h42.5V122.39z M221.93,62.62h11.25v43.41h-11.25V62.62z"/>
		<path class="st3" d="M274.2,83.88c0,1.17-0.26,2.51-0.78,4c-0.52,1.49-1.45,2.9-2.78,4.25c-1.33,1.34-3.12,2.48-5.36,3.4
			c-2.24,0.92-5.07,1.38-8.51,1.38c-3.62,0-6.53-0.46-8.75-1.38c-2.21-0.92-3.93-2.07-5.15-3.43c-1.22-1.36-2.05-2.79-2.47-4.28
			c-0.43-1.49-0.64-2.8-0.64-3.93v-8.49c0-1.13,0.21-2.45,0.64-3.96c0.43-1.51,1.25-2.94,2.47-4.28c1.22-1.34,2.94-2.49,5.15-3.43
			c2.21-0.94,5.13-1.42,8.75-1.42c3.43,0,6.27,0.46,8.51,1.38c2.24,0.92,4.02,2.07,5.36,3.43c1.33,1.36,2.26,2.8,2.78,4.31
			c0.52,1.51,0.78,2.83,0.78,3.96V83.88z M254.27,122.39c-1.85,0-3.63-0.14-5.32-0.41c-1.69-0.27-3.2-0.83-4.51-1.67
			c-1.31-0.84-2.36-2-3.15-3.49c-0.79-1.49-1.19-3.47-1.19-5.95c0-2.35,0.4-4.29,1.19-5.82c0.79-1.53,1.83-2.74,3.12-3.62
			c1.29-0.88,2.78-1.49,4.47-1.82c1.69-0.33,3.45-0.5,5.25-0.5h22.17c1.85,0,3.64,0.18,5.36,0.54c1.72,0.36,3.23,0.98,4.54,1.86
			s2.35,2.09,3.12,3.62c0.77,1.53,1.15,3.47,1.15,5.82c0,2.47-0.4,4.46-1.19,5.95c-0.79,1.49-1.84,2.64-3.15,3.46
			c-1.31,0.82-2.81,1.36-4.51,1.64c-1.7,0.27-3.45,0.41-5.25,0.41H254.27z M262.94,76.77c0-1.05-0.19-1.91-0.57-2.58
			c-0.38-0.67-0.87-1.2-1.45-1.57c-0.58-0.38-1.24-0.64-1.96-0.79c-0.72-0.15-1.42-0.22-2.09-0.22c-0.63,0-1.29,0.06-1.99,0.19
			c-0.7,0.13-1.33,0.37-1.89,0.72c-0.56,0.36-1.03,0.87-1.42,1.54c-0.38,0.67-0.57,1.57-0.57,2.71v5.73c0,1.13,0.19,2.04,0.57,2.71
			c0.38,0.67,0.85,1.19,1.42,1.54c0.56,0.36,1.19,0.59,1.89,0.69c0.7,0.1,1.36,0.16,1.99,0.16c0.67,0,1.37-0.06,2.09-0.19
			c0.72-0.13,1.37-0.38,1.96-0.75c0.58-0.38,1.07-0.89,1.45-1.54c0.38-0.65,0.57-1.52,0.57-2.61V76.77z M276.91,112.82
			c1.58,0,2.37-0.68,2.37-2.04c0-0.77-0.21-1.31-0.64-1.63c-0.43-0.32-1-0.48-1.72-0.48h-22.99c-0.72,0-1.32,0.16-1.79,0.48
			c-0.47,0.32-0.71,0.86-0.71,1.63c0,0.77,0.22,1.3,0.68,1.6c0.45,0.3,1.06,0.45,1.83,0.45H276.91z M278.87,62.62h11.25v5.35h7.73
			v9.56h-7.73v4.28h7.73v9.56h-7.73v5.22h-11.25V62.62z"/>
		<path class="st3" d="M328.43,119.87h-26.98V62.62h26.98v9.56H312.7v13.78h12.34v9.56H312.7v14.47h15.73V119.87z M326.94,85.96
			h3.86V62.62h11.25v57.25H330.8V95.52h-3.86V85.96z M344.02,62.62h11.25v57.25h-11.25V62.62z"/>
		<path class="st3" d="M362.26,110.68h56.27v9.56h-56.27V110.68z M365.58,81.18h38.3v-9.25h-38.23v-9.31h49.49v40.58h-11.25V90.74
			h-38.3V81.18z"/>
	</g>
</g>
<g>
</g>
<g>
</g>
<g>
</g>
<g>
</g>
<g>
</g>
<g>
</g>
</svg>
