<svg id="Layer_1" data-name="Layer 1" xmlns="http://www.w3.org/2000/svg" viewBox="0 0 512 512"><path d="M448.893,201.676h-11.43a49.129,49.129,0,0,0-49.109-48.7H366.931l.375-116.532a26.042,26.042,0,0,0-25.95-26.066L195.76,10h-.016a6,6,0,0,0-4.3,1.812l-44.6,45.743a6,6,0,0,0-1.7,4.17l-.291,91.248h-21.2a49.129,49.129,0,0,0-49.109,48.7H63.107a49.132,49.132,0,0,0-49.116,49.037V369.17a49.132,49.132,0,0,0,49.116,49.038h64.984V496a6,6,0,0,0,6,6H377.909a6,6,0,0,0,6-6V418.208h64.984a49.132,49.132,0,0,0,49.116-49.038V250.713A49.132,49.132,0,0,0,448.893,201.676Zm-60.539-36.7a37.117,37.117,0,0,1,37.109,36.7H366.774l.118-36.7ZM189.692,30.8l-.053,17.872A7.339,7.339,0,0,1,182.3,55.99h-.026l-17.083-.057ZM182.23,67.99h.068a19.341,19.341,0,0,0,19.341-19.281l.079-26.693,139.608.359a14.027,14.027,0,0,1,13.98,14.034l-.532,165.267H156.7l.427-133.77Zm-58.584,96.983h21.167l-.117,36.7H86.537A37.117,37.117,0,0,1,123.646,164.973ZM371.909,490H140.091v-129.1H371.909Zm-246.442-141.1a6.912,6.912,0,1,1,0-13.823H386.533a6.912,6.912,0,1,1,0,13.823ZM486.009,369.17a37.119,37.119,0,0,1-37.116,37.038H383.909v-45.3h2.624a18.912,18.912,0,1,0,0-37.823H125.467a18.912,18.912,0,1,0,0,37.823h2.624v45.3H63.107A37.119,37.119,0,0,1,25.991,369.17V250.713a37.119,37.119,0,0,1,37.116-37.037H448.893a37.119,37.119,0,0,1,37.116,37.037Z"/><path d="M385.783,248.758a19.767,19.767,0,1,0,19.792,19.766A19.8,19.8,0,0,0,385.783,248.758Zm0,27.534a7.767,7.767,0,1,1,7.792-7.768A7.788,7.788,0,0,1,385.783,276.292Z"/><path d="M436.069,248.758a19.767,19.767,0,1,0,19.792,19.766A19.8,19.8,0,0,0,436.069,248.758Zm0,27.534a7.767,7.767,0,1,1,7.792-7.768A7.788,7.788,0,0,1,436.069,276.292Z"/><path d="M61.94,239.894H54.322a6,6,0,0,0,0,12H61.94a6,6,0,0,0,0-12Z"/><path d="M209.155,239.894H84.1a6,6,0,1,0,0,12H209.155a6,6,0,0,0,0-12Z"/><path d="M185.191,93.471h70.975a6,6,0,0,0,0-12H185.191a6,6,0,0,0,0,12Z"/><path d="M282.169,93.471h44.64a6,6,0,0,0,0-12h-44.64a6,6,0,0,0,0,12Z"/><path d="M185.191,120.245h26.784a6,6,0,1,0,0-12H185.191a6,6,0,0,0,0,12Z"/><path d="M326.809,108.245h-88.83a6,6,0,0,0,0,12h88.83a6,6,0,0,0,0-12Z"/><path d="M185.191,146.57h43.253a6,6,0,1,0,0-12H185.191a6,6,0,1,0,0,12Z"/><path d="M326.809,134.57H255.386a6,6,0,0,0,0,12h71.423a6,6,0,0,0,0-12Z"/><path d="M185.191,173.6h26.784a6,6,0,0,0,0-12H185.191a6,6,0,1,0,0,12Z"/><path d="M326.809,161.6h-88.83a6,6,0,1,0,0,12h88.83a6,6,0,0,0,0-12Z"/></svg>