<?xml version="1.0" encoding="UTF-8"?>
<svg id="_레이어_1" data-name="레이어 1" xmlns="http://www.w3.org/2000/svg" viewBox="0 0 1884.75 1493.11">
  <defs>
    <style>
      .cls-1 {
        fill: #eae8e8;
      }

      .cls-2 {
        fill: #d9e8f3;
      }

      .cls-3 {
        fill: none;
        stroke: #b6cddb;
        stroke-miterlimit: 10;
      }
    </style>
  </defs>
  <path class="cls-1" d="M1166.21,263.17l316.56,316.56v447.68l-316.56,316.56h-447.68l-316.56-316.56v-447.68l316.56-316.56h447.68M1166.63,262.17h-448.51l-317.14,317.14v448.51l317.14,317.14h448.51l317.14-317.14v-448.51l-317.14-317.14h0Z"/>
  <path class="cls-1" d="M1120.08,374.55l251.31,251.31v355.41l-251.31,251.31h-355.41l-251.31-251.31v-355.41l251.31-251.31h355.41M1120.49,373.55h-356.24l-251.9,251.9v356.24l251.9,251.9h356.24l251.9-251.9v-356.24l-251.9-251.9h0Z"/>
  <polygon class="cls-2" points="1072.99 488.22 811.75 488.22 627.02 672.95 627.02 934.19 811.75 1118.92 1072.99 1118.92 1257.72 934.19 1257.72 672.95 1072.99 488.22"/>
  <line class="cls-3" x1="718.12" y1="262.17" x2="1166.63" y2="1344.96"/>
  <line class="cls-3" x1="1166.63" y1="262.17" x2="718.12" y2="1344.96"/>
  <line class="cls-3" x1="400.98" y1="586.19" x2="1483.77" y2="1020.94"/>
  <line class="cls-3" x1="400.98" y1="1027.82" x2="1483.77" y2="579.32"/>
  <circle class="cls-2" cx="400.98" cy="579.32" r="26.06"/>
  <circle class="cls-2" cx="1483.77" cy="579.32" r="26.06"/>
  <circle class="cls-2" cx="718.12" cy="262.17" r="26.06"/>
  <circle class="cls-2" cx="1166.63" cy="262.17" r="26.06"/>
  <circle class="cls-2" cx="400.98" cy="1027.82" r="26.06"/>
  <circle class="cls-2" cx="1483.77" cy="1014.07" r="26.06"/>
  <circle class="cls-2" cx="1166.63" cy="1344.96" r="26.06"/>
  <circle class="cls-2" cx="722.24" cy="1344.96" r="26.06"/>
</svg>