<svg id="Line_copy" data-name="Line copy" xmlns="http://www.w3.org/2000/svg" viewBox="0 0 64 64"><defs><style>.cls-1{fill:#231f20;}</style></defs><title>1</title><path class="cls-1" d="M31.36768,59.77441a.999.999,0,0,0,1.26464,0c.80518-.65722,19.71387-16.31591,19.71387-35.42822a20.34619,20.34619,0,0,0-40.69238,0C11.65381,43.4585,30.5625,59.11719,31.36768,59.77441ZM32,6A18.36686,18.36686,0,0,1,50.34619,24.34619c0,16.24756-15.04883,30.42481-18.34668,33.335-3.29883-2.90869-18.3457-17.07226-18.3457-33.335A18.36686,18.36686,0,0,1,32,6Z"/><path class="cls-1" d="M42.1665,24.05371A10.1665,10.1665,0,1,0,32,34.22021,10.17826,10.17826,0,0,0,42.1665,24.05371Zm-18.333,0A8.1665,8.1665,0,1,1,32,32.22021,8.176,8.176,0,0,1,23.8335,24.05371Z"/></svg>