<?xml version="1.0" encoding="utf-8"?>
<!-- Generator: Adobe Illustrator 16.0.0, SVG Export Plug-In . SVG Version: 6.00 Build 0)  -->
<!DOCTYPE svg PUBLIC "-//W3C//DTD SVG 1.1//EN" "http://www.w3.org/Graphics/SVG/1.1/DTD/svg11.dtd">
<svg version="1.1" xmlns="http://www.w3.org/2000/svg" xmlns:xlink="http://www.w3.org/1999/xlink" x="0px" y="0px" width="128px"
	 height="128px" viewBox="0 0 128 128" enable-background="new 0 0 128 128" xml:space="preserve">
<g id="Guide">
</g>
<g id="icon">
	<g>
		<path d="M58.665,110.056h10.673c0.981,0,1.778-0.795,1.778-1.778s-0.797-1.779-1.778-1.779H58.665c-0.983,0-1.78,0.796-1.78,1.779
			S57.681,110.056,58.665,110.056z"/>
		<path d="M83.566,10.442H44.434c-6.867,0-12.451,5.587-12.451,12.451v81.826c0,6.865,5.584,12.451,12.451,12.451h39.133
			c6.865,0,12.451-5.586,12.451-12.451V22.894C96.018,16.029,90.432,10.442,83.566,10.442z M44.434,14.001h39.133
			c4.906,0,8.894,3.99,8.894,8.893v1.779H35.538v-1.779C35.538,17.991,39.527,14.001,44.434,14.001z M92.46,99.384H35.538V28.231
			H92.46V99.384z M92.46,104.72c0,4.903-3.987,8.894-8.894,8.894H44.434c-4.906,0-8.896-3.99-8.896-8.894v-1.779H92.46V104.72z"/>
		<path d="M64.894,21.116h3.557c0.983,0,1.78-0.797,1.78-1.779s-0.797-1.779-1.78-1.779h-3.557c-0.983,0-1.778,0.797-1.778,1.779
			S63.91,21.116,64.894,21.116z"/>
		<path d="M59.565,21.116c0.983,0,1.78-0.797,1.78-1.779s-0.797-1.779-1.78-1.779H59.53c-0.98,0-1.761,0.797-1.761,1.779
			S58.586,21.116,59.565,21.116z"/>
	</g>
</g>
</svg>
