<?xml version="1.0" encoding="utf-8"?>
<!-- Generator: Adobe Illustrator 29.6.1, SVG Export Plug-In . SVG Version: 9.03 Build 0)  -->
<svg version="1.1" xmlns="http://www.w3.org/2000/svg" xmlns:xlink="http://www.w3.org/1999/xlink" x="0px" y="0px"
	 viewBox="0 0 1000.27 800" style="enable-background:new 0 0 1000.27 800;" xml:space="preserve">
<style type="text/css">
	.st0{fill:#FCF6E6;}
	.st1{fill:#F2F2FC;}
	.st2{fill:#FFFFFF;}
	.st3{fill:#CECECE;}
	.st4{fill:#DADDEA;}
	.st5{fill:#EDEDF7;}
	.st6{fill:#80C9FF;}
	.st7{fill:none;}
	.st8{fill:#F7E1D2;}
	.st9{fill:#1A6ED3;}
	.st10{fill:#C0C8CE;}
	.st11{fill:#87A2BD;}
	.st12{fill:#8898A5;}
	.st13{fill:#D3DFE5;}
	.st14{fill:#E1E3E5;}
	.st15{fill:#9A9DA0;}
	.st16{fill:#A2A7AA;}
	.st17{fill:none;stroke:#000000;stroke-width:2;stroke-miterlimit:10;}
	.st18{fill:#F7E1D2;stroke:#F7E1D2;stroke-miterlimit:10;}
	.st19{fill:none;stroke:#F7E1D2;stroke-miterlimit:10;}
	.st20{fill:#8CAEC4;}
	.st21{fill:none;stroke:#C0C8CE;stroke-miterlimit:10;}
	.st22{fill:none;stroke:#000000;stroke-width:2;stroke-miterlimit:10;stroke-dasharray:14.4913,9.6609;}
	.st23{fill:none;stroke:#000000;stroke-width:2;stroke-miterlimit:10;stroke-dasharray:28.9826,9.6609,14.4913,9.6609;}
	.st24{fill:none;stroke:#000000;stroke-width:2;stroke-miterlimit:10;stroke-dasharray:30,10,15,10;}
	.st25{fill:none;stroke:#000000;stroke-width:3;stroke-miterlimit:10;}
	.st26{stroke:#000000;stroke-width:0.5;stroke-miterlimit:10;}
	.st27{stroke:#000000;stroke-width:2;stroke-miterlimit:10;}
	.st28{display:none;}
</style>
<g id="레이어_3">
	<g>
		<g>
			<path class="st0" d="M362.37,125.97v20.89h235.24v-20.89H362.37z M595.61,144.86H364.37v-16.89h231.24V144.86z"/>
			<rect x="364.37" y="127.97" class="st0" width="231.24" height="16.89"/>
		</g>
	</g>
	<g>
		<path class="st0" d="M362.38,244.46v12.58h235.24v-12.58H362.38z M595.62,255.04H364.38v-8.58h231.24V255.04z"/>
		<polygon class="st0" points="595.62,246.46 595.62,255.04 393.29,255.04 364.38,255.01 364.38,246.46 		"/>
	</g>
	<g>
		<path class="st0" d="M362.36,607.92v19.04H597.6v-19.04H362.36z M595.6,624.96H364.36v-15.04H595.6V624.96z"/>
		<polygon class="st0" points="595.6,609.93 595.6,624.96 364.36,624.96 364.36,609.92 364.37,609.92 364.37,609.93 		"/>
	</g>
	<g>
		<path class="st0" d="M395.61,624.96l1.17,2l10,17.04h146.4l10-17.04l1.17-2H395.61z M552.03,642h-144.1l-8.83-15.04h161.76
			L552.03,642z"/>
		<polygon class="st0" points="560.86,626.96 552.03,642 407.93,642 399.1,626.96 		"/>
	</g>
	<g>
		<g>
			<polygon class="st0" points="595.61,144.86 595.61,246.46 364.37,246.46 364.37,203.2 366.37,203.2 366.37,244.46 593.61,244.46 
				593.61,146.86 366.37,146.86 366.37,185.42 364.37,185.42 364.37,144.86 			"/>
		</g>
	</g>
	<g>
		<path class="st0" d="M393.29,255.04l-28.91-0.03v161.84h2.01l3.84,0.01l219.72,0.22h0.01l4.01,0.01h1.65V255.25L393.29,255.04z
			 M593.62,257.25v157.83l-227.09-0.23h-0.15V257.02l19.76,0.02L593.62,257.25z"/>
		<path class="st0" d="M369.88,428.09c1.36-1.32,2.14-3.34,2.14-5.8c0-2.24-0.65-4.11-1.79-5.43l219.72,0.22
			c-1.17,1.32-1.84,3.22-1.84,5.49c0,2.29,0.68,4.2,1.87,5.52H369.88z"/>
		<path class="st0" d="M593.62,284.49v-27.24l-207.48-0.21h-19.76v157.79c0.05,0,0.1,0.01,0.15,0.02l227.09,0.23V286.49h-9.49v-2
			H593.62z M429.96,348.52c0,0.98-0.79,1.77-1.77,1.77h-23.95c-0.98,0-1.76-0.79-1.76-1.77v-0.29c0-0.97,0.78-1.76,1.76-1.76h12.36
			c1.53,0,2.33-1.82,1.3-2.96l-14.43-15.76c-0.3-0.32-0.46-0.75-0.46-1.19v-1.08c0-0.97,0.79-1.76,1.76-1.76h22.89
			c0.97,0,1.76,0.79,1.76,1.76v0.29c0,0.97-0.79,1.76-1.76,1.76h-10.82c-1.52,0-2.32,1.79-1.32,2.93l13.99,15.87
			c0.29,0.32,0.45,0.74,0.45,1.17V348.52z M445.02,346.79h15c0.97,0,1.76,0.79,1.76,1.77c0,0.97-0.79,1.76-1.76,1.76h-24.27
			c-0.97,0-1.76-0.79-1.76-1.76v-23.04c0-0.98,0.79-1.77,1.76-1.77h24.27c0.97,0,1.76,0.79,1.76,1.77c0,0.97-0.79,1.76-1.76,1.76
			h-15c-0.98,0-1.77,0.79-1.77,1.77v4.1c0,0.97,0.79,1.76,1.77,1.76h15.04c0.98,0,1.77,0.79,1.77,1.77c0,0.97-0.79,1.76-1.77,1.76
			h-15.04c-0.98,0-1.77,0.79-1.77,1.76v4.83C443.25,346,444.04,346.79,445.02,346.79z M496.44,348.52c0,0.98-0.79,1.77-1.76,1.77
			h-7.03c-0.62,0-1.2-0.33-1.52-0.87l-7.81-13.23c-0.92-1.55-3.29-0.9-3.29,0.89v11.44c0,0.98-0.79,1.77-1.76,1.77h-4.67
			c-0.98,0-1.77-0.79-1.77-1.77v-23.04c0-0.97,0.79-1.76,1.77-1.76h7.24c0.63,0,1.21,0.33,1.52,0.87l7.64,13.03
			c0.91,1.55,3.29,0.91,3.29-0.89v-11.25c0-0.97,0.79-1.76,1.76-1.76h4.63c0.97,0,1.76,0.79,1.76,1.76V348.52z M528.58,348.52
			c0,0.98-0.79,1.77-1.77,1.77h-23.95c-0.98,0-1.76-0.79-1.76-1.77v-0.29c0-0.97,0.78-1.76,1.76-1.76h12.36
			c1.53,0,2.33-1.82,1.3-2.96l-14.43-15.76c-0.3-0.32-0.46-0.75-0.46-1.19v-1.08c0-0.97,0.79-1.76,1.76-1.76h22.89
			c0.97,0,1.76,0.79,1.76,1.76v0.29c0,0.97-0.79,1.76-1.76,1.76h-10.82c-1.52,0-2.32,1.79-1.32,2.93l14,15.87
			c0.28,0.32,0.44,0.74,0.44,1.17V348.52z M562.26,346c0,0.77-0.05,1.43-0.15,1.98c-0.11,0.55-0.34,1-0.69,1.33
			c-0.35,0.34-0.88,0.58-1.57,0.74c-0.7,0.16-1.62,0.24-2.77,0.24h-19.24c-1.15,0-2.08-0.08-2.77-0.24s-1.22-0.4-1.57-0.74
			c-0.36-0.33-0.59-0.78-0.69-1.33s-0.16-1.21-0.16-1.98v-18c0-0.77,0.06-1.42,0.16-1.96s0.33-0.99,0.69-1.35
			c0.35-0.34,0.88-0.58,1.57-0.74c0.69-0.15,1.62-0.23,2.77-0.23h19.24c1.15,0,2.07,0.08,2.77,0.23c0.69,0.16,1.22,0.4,1.57,0.74
			c0.35,0.36,0.58,0.81,0.69,1.35c0.1,0.54,0.15,1.19,0.15,1.96V346z"/>
	</g>
	<g>
		<path class="st0" d="M364.37,428.09v37.25h8.98c4.96,0,9,4.04,9,9c0,4.96-4.04,9-9,9h-8.98v126.59h231.24V428.09H364.37z
			 M593.61,607.93H366.37V485.34h6.98c6.07,0,11-4.93,11-11s-4.93-11-11-11h-6.98v-33.25h227.24V607.93z"/>
		<path class="st0" d="M593.61,430.09v177.83H366.37V485.34h6.98c6.07,0,11-4.93,11-11s-4.93-11-11-11h-6.98v-33.25H593.61z"/>
	</g>
	<g>
		<path class="st1" d="M372.02,422.29c0,2.46-0.78,4.48-2.14,5.8c-1.11,1.1-2.61,1.72-4.38,1.72v-2c3.34,0,4.52-2.98,4.52-5.52
			c0-2.31-0.97-4.96-3.63-5.44c-0.28-0.05-0.57-0.08-0.89-0.08v-2c0.3,0,0.59,0.02,0.88,0.06c0.05,0,0.1,0.01,0.15,0.02
			c1.51,0.21,2.77,0.92,3.7,2.01C371.37,418.18,372.02,420.05,372.02,422.29z"/>
	</g>
	<g>
		<path class="st0" d="M590.11,422.57c0,2.55,1.18,5.52,4.51,5.52v2c-1.9,0-3.51-0.72-4.64-2c-1.19-1.32-1.87-3.23-1.87-5.52
			c0-2.27,0.67-4.17,1.84-5.49h0.01c1.13-1.29,2.75-2.03,4.66-2.03v2c-0.23,0-0.44,0.01-0.65,0.04
			C591.13,417.45,590.11,420.2,590.11,422.57z"/>
	</g>
	<g>
		<path class="st1" d="M373.35,463.34h-39.11c-5.61,0-10.88,2.18-14.85,6.15c-3.96,3.97-6.15,9.24-6.15,14.85v124.58
			c0,0.56,0.04,1.1,0.12,1.62v0.01c0.78,4.78,4.95,7.89,10.88,7.89c3.01,0,5.74-0.86,7.69-2.41c2.17-1.71,3.31-4.17,3.31-7.11
			V494.34c0-4.96,4.04-9,9-9h29.11c6.07,0,11-4.93,11-11S379.42,463.34,373.35,463.34z M373.35,483.34h-29.11c-6.07,0-11,4.93-11,11
			v114.58c0,2.31-0.88,4.23-2.55,5.55c-1.6,1.27-3.89,1.97-6.45,1.97c-4.15,0-9-1.97-9-7.52V484.34c0-5.07,1.98-9.84,5.57-13.43
			c3.59-3.59,8.36-5.57,13.43-5.57h39.11c4.96,0,9,4.04,9,9C382.35,479.3,378.31,483.34,373.35,483.34z"/>
		<path class="st1" d="M373.35,465.34h-39.11c-5.07,0-9.84,1.98-13.43,5.57c-3.59,3.59-5.57,8.36-5.57,13.43v120.97
			c0.43-0.52,0.94-0.99,1.51-1.41c1.93-1.4,4.6-2.14,7.72-2.14c3.83,0,6.85,1.07,8.77,3.01V494.34c0-6.07,4.93-11,11-11h29.11
			c4.96,0,9-4.04,9-9C382.35,469.38,378.31,465.34,373.35,465.34z M327.36,591.76h-2v-30h2V591.76z M327.36,551.76h-2v-15h2V551.76z
			 M327.36,526.76h-2v-30h2V526.76z M327.36,484.05v2.71h-2v-2.71c0-4.64,2.93-8.81,7.3-10.36l0.67,1.88
			C329.76,476.84,327.36,480.25,327.36,484.05z M372.93,475.05h-30v-2h30V475.05z"/>
	</g>
	<g>
		<g>
			<path class="st1" d="M249.9,662.02c-0.03-0.4-0.06-0.79-0.12-1.17c-0.05-0.38-0.11-0.75-0.19-1.1c-0.05-0.24-0.11-0.48-0.18-0.72
				c-0.03-0.14-0.07-0.29-0.12-0.43c-0.1-0.32-0.21-0.64-0.33-0.95c-0.03-0.07-0.06-0.13-0.08-0.2c-0.02-0.04-0.05-0.09-0.07-0.13
				c0-0.01-0.01-0.02-0.01-0.03s0-0.01,0-0.01c-0.01-0.03-0.02-0.05-0.03-0.07c-0.04-0.09-0.08-0.18-0.12-0.26
				c-0.01-0.01-0.01-0.02-0.02-0.03c-0.06-0.12-0.12-0.25-0.19-0.37c-0.11-0.2-0.22-0.39-0.34-0.58c-0.16-0.25-0.32-0.48-0.5-0.7
				c-0.27-0.34-0.56-0.66-0.87-0.95c-1.46-1.36-3.36-2.12-5.62-2.18h-0.14c-0.05,0-0.09,0.01-0.14,0.02
				c-4.97,0.57-7.92,4.69-7.92,11.05c0,3.12,0.74,5.79,2.14,7.72c1.38,1.91,3.37,3.05,5.78,3.32c0.3,0.04,0.6,0.06,0.91,0.07h0.14
				c1.96-0.2,3.65-0.96,4.95-2.22c0.04-0.04,0.08-0.08,0.12-0.12c0.13-0.13,0.26-0.27,0.38-0.42c0.17-0.19,0.32-0.38,0.47-0.59
				c0.41-0.56,0.76-1.18,1.04-1.86c0.73-1.66,1.1-3.65,1.1-5.86v-0.33C249.93,662.61,249.92,662.32,249.9,662.02z M247.68,664.32
				c0,0.06-0.01,0.13-0.01,0.19c-0.01,0.08-0.01,0.16-0.03,0.24c0.01,0.03,0.01,0.06,0,0.09c-0.01,0.09-0.01,0.19-0.03,0.28
				c0,0.05-0.01,0.1-0.02,0.14c-0.03,0.21-0.06,0.42-0.1,0.62c-0.03,0.18-0.07,0.36-0.11,0.54c-0.02,0.11-0.04,0.22-0.07,0.32v0.01
				c-0.02,0.07-0.04,0.14-0.06,0.21c-0.05,0.19-0.11,0.38-0.17,0.56c-0.02,0.06-0.04,0.12-0.06,0.18c-0.09,0.23-0.18,0.46-0.28,0.68
				c-0.06,0.14-0.13,0.28-0.21,0.41c-0.07,0.15-0.15,0.29-0.24,0.43c-0.09,0.16-0.19,0.31-0.29,0.45c-0.52,0.71-1.14,1.28-1.86,1.68
				c-0.18,0.11-0.37,0.2-0.57,0.28c-0.17,0.07-0.36,0.14-0.55,0.2c-0.08,0.03-0.17,0.05-0.25,0.07c-0.17,0.04-0.35,0.08-0.53,0.12
				c-0.17,0.04-0.34,0.06-0.51,0.08h-0.07c-0.25-0.01-0.5-0.04-0.73-0.07h-0.01c-0.24-0.03-0.48-0.08-0.7-0.14
				c-0.17-0.04-0.33-0.08-0.49-0.14c-0.02,0-0.04-0.01-0.05-0.02c-0.1-0.03-0.2-0.07-0.29-0.11c-0.17-0.06-0.34-0.14-0.5-0.22
				c-0.17-0.09-0.34-0.19-0.51-0.3c-0.04-0.02-0.08-0.05-0.11-0.07c-0.15-0.11-0.29-0.22-0.43-0.33c-0.02-0.02-0.05-0.04-0.07-0.05
				c-0.15-0.14-0.29-0.28-0.43-0.43c-0.03-0.03-0.05-0.05-0.08-0.08c-0.14-0.16-0.28-0.33-0.41-0.51c-1.12-1.56-1.72-3.78-1.72-6.42
				c0-1.39,0.19-3.82,1.31-5.79c0.18-0.33,0.39-0.65,0.63-0.94c0.6-0.73,1.39-1.35,2.41-1.73c0.07-0.04,0.15-0.07,0.23-0.09
				c0.28-0.09,0.58-0.17,0.9-0.23c0.14-0.03,0.29-0.05,0.44-0.07h0.05c0.08,0,0.15,0.01,0.22,0.01c0.12,0.01,0.23,0.02,0.34,0.03
				c0.03,0,0.07,0.01,0.1,0.01c0.3,0.03,0.58,0.08,0.85,0.14c0.31,0.08,0.61,0.17,0.89,0.29c0.25,0.1,0.49,0.21,0.71,0.34
				c0.53,0.3,0.97,0.67,1.35,1.09c0.15,0.17,0.29,0.34,0.42,0.52c0.44,0.59,0.77,1.25,1.01,1.93c0.08,0.2,0.15,0.4,0.21,0.61
				c0,0,0,0,0,0.01c0.07,0.24,0.13,0.48,0.19,0.72c0.03,0.14,0.06,0.29,0.08,0.43c0.04,0.17,0.06,0.34,0.09,0.5
				c0.02,0.16,0.04,0.32,0.06,0.48c0.02,0.16,0.04,0.33,0.05,0.48c0.01,0.11,0.02,0.22,0.02,0.33c0.01,0.1,0.01,0.19,0.01,0.28
				c0.01,0.1,0.01,0.18,0.01,0.27v0.16c0.01,0.08,0.01,0.15,0.01,0.22v0.04c0,0.05,0,0.11-0.01,0.16v0.12c0,0.01,0,0.01,0,0.02v0.01
				C247.71,663.82,247.7,664.07,247.68,664.32z"/>
		</g>
		<g>
			<path class="st1" d="M247.72,663.21v0.04c0,2.65-0.6,4.86-1.72,6.42c-0.52,0.71-1.14,1.28-1.86,1.68
				c-0.18,0.11-0.37,0.2-0.57,0.28c-0.17,0.07-0.36,0.14-0.55,0.2c-0.08,0.03-0.17,0.05-0.25,0.07c-0.34,0.09-0.7,0.16-1.08,0.2
				c-2.08-0.09-3.71-0.92-4.84-2.47c-1.12-1.56-1.72-3.78-1.72-6.42c0-2.47,0.59-8.24,5.97-8.85c0.08,0,0.15,0.01,0.22,0.01
				c0.12,0.01,0.23,0.01,0.34,0.03c0.03,0,0.07,0.01,0.1,0.01c0.3,0.03,0.58,0.08,0.85,0.14c0.31,0.08,0.61,0.17,0.89,0.29
				c0.25,0.1,0.49,0.21,0.71,0.34c0.53,0.3,0.97,0.67,1.35,1.09c0.15,0.17,0.29,0.34,0.42,0.52c0.44,0.59,0.77,1.25,1.01,1.93
				c0.08,0.2,0.15,0.41,0.21,0.61c0,0,0,0,0,0.01c0.07,0.25,0.13,0.49,0.19,0.72c0.03,0.14,0.06,0.29,0.08,0.43
				c0.04,0.17,0.06,0.34,0.09,0.5c0.02,0.16,0.04,0.32,0.06,0.48C247.7,662.13,247.72,662.73,247.72,663.21z"/>
		</g>
	</g>
	<g>
		<path class="st1" d="M335.24,608.25c-0.37-1.35-1.05-2.52-2-3.48c-1.92-1.94-4.94-3.01-8.77-3.01c-3.12,0-5.79,0.74-7.72,2.14
			c-0.57,0.42-1.08,0.89-1.51,1.41c-1.17,1.41-1.82,3.19-1.88,5.23v0.19c0.2,1.96,0.96,3.65,2.22,4.95
			c0.04,0.04,0.08,0.08,0.12,0.12c0.13,0.13,0.27,0.26,0.42,0.38c0.19,0.17,0.38,0.32,0.59,0.47c0.56,0.41,1.18,0.76,1.86,1.04
			c1.66,0.73,3.65,1.1,5.86,1.1h0.04c0.41,0,0.8-0.01,1.19-0.04c0.4-0.03,0.79-0.06,1.17-0.12c0.38-0.05,0.75-0.11,1.1-0.19
			c0.24-0.05,0.48-0.11,0.72-0.18c0.14-0.03,0.29-0.07,0.43-0.12c0.32-0.1,0.64-0.21,0.95-0.33c0.07-0.03,0.13-0.06,0.2-0.08
			c0.04-0.02,0.09-0.05,0.13-0.07c0.04-0.01,0.07-0.02,0.11-0.04c0.09-0.04,0.18-0.08,0.26-0.12c0.01-0.01,0.02-0.01,0.03-0.02
			c0.12-0.06,0.25-0.12,0.37-0.19c0.2-0.11,0.39-0.22,0.58-0.34c0.25-0.16,0.48-0.32,0.7-0.5c0.34-0.27,0.66-0.56,0.95-0.87
			c1.36-1.46,2.12-3.36,2.18-5.62v-0.14C335.48,609.27,335.38,608.75,335.24,608.25z"/>
	</g>
	<g>
		<g>
			<path class="st2" d="M261.56,654.32c-0.01-0.01-0.03-0.03-0.04-0.04c-1.45-1.36-3.36-2.12-5.61-2.18h-0.14
				c-1.97,0.2-3.63,0.95-4.92,2.18c-0.01,0.01-0.03,0.03-0.04,0.04h5.11c5.95,0.21,6.6,6.28,6.6,8.89c0,2.65-0.6,4.86-1.72,6.42
				c-1.02,1.41-2.45,2.23-4.27,2.43h-5.65c0.02,0.02,0.03,0.03,0.05,0.04c1.47,1.38,3.38,2.12,5.61,2.18h0.14
				c1.93-0.2,3.6-0.94,4.9-2.18c0.02-0.01,0.03-0.02,0.05-0.04c0.36-0.34,0.68-0.72,0.97-1.13c1.4-1.93,2.14-4.6,2.14-7.72
				C264.74,659.31,263.6,656.23,261.56,654.32z M249.9,662.02c-0.03-0.4-0.06-0.79-0.12-1.17c-0.05-0.38-0.11-0.75-0.19-1.1
				c-0.05-0.24-0.11-0.48-0.18-0.72c-0.03-0.14-0.07-0.29-0.12-0.43c-0.1-0.32-0.21-0.64-0.33-0.95c-0.03-0.07-0.06-0.13-0.08-0.2
				c-0.03-0.04-0.04-0.09-0.06-0.13c-0.01-0.01-0.01-0.02-0.02-0.03c-0.68,1.55-1.05,3.42-1.09,5.54v0.7c0,0.01,0,0.01,0,0.02v0.01
				c0.03,2.08,0.41,3.94,1.12,5.51c0.73-1.66,1.1-3.65,1.1-5.86v-0.04c0-0.04,0-0.07,0.01-0.12v-0.13
				C249.93,662.61,249.92,662.32,249.9,662.02z"/>
		</g>
	</g>
	<g>
		<g>
			<path class="st2" d="M248.82,657.32c-0.01-0.01-0.01-0.02-0.02-0.03c0,0.01,0.01,0.02,0.01,0.03c0.02,0.04,0.05,0.09,0.07,0.13
				C248.85,657.41,248.84,657.36,248.82,657.32z M248.82,657.32c-0.01-0.01-0.01-0.02-0.02-0.03c0,0.01,0.01,0.02,0.01,0.03
				c0.02,0.04,0.05,0.09,0.07,0.13C248.85,657.41,248.84,657.36,248.82,657.32z M248.82,657.32c-0.01-0.01-0.01-0.02-0.02-0.03
				c0,0.01,0.01,0.02,0.01,0.03c0.02,0.04,0.05,0.09,0.07,0.13C248.85,657.41,248.84,657.36,248.82,657.32z M377.84,186.45
				c-2.1-2.1-4.89-3.25-7.86-3.25h-68.85c-5.64,0-10.94,2.2-14.93,6.18c-3.98,3.99-6.18,9.29-6.18,14.93v438.9
				c0,4.9-3.99,8.89-8.89,8.89h-29.11c-0.32,0-0.62,0.02-0.91,0.04h-0.1l0.04,2.22h0.05c0.08,0,0.15,0.01,0.22,0.01
				c0.12,0.01,0.23,0.02,0.34,0.03c0.03,0,0.07,0.01,0.1,0.01c0.3,0.03,0.58,0.08,0.85,0.14c0.31,0.08,0.61,0.17,0.89,0.29
				c0.25,0.1,0.49,0.21,0.71,0.34c0.53,0.3,0.97,0.67,1.35,1.09c0.16,0.17,0.3,0.34,0.42,0.52c0.44,0.59,0.77,1.25,1.01,1.93
				c0.08,0.2,0.15,0.4,0.21,0.61c0,0,0,0,0,0.01c0.07,0.24,0.13,0.48,0.19,0.72c0.03,0.14,0.06,0.29,0.08,0.43
				c0.04,0.17,0.06,0.34,0.09,0.5c0.02,0.16,0.04,0.32,0.06,0.48c0.02,0.16,0.04,0.33,0.05,0.48c0.01,0.11,0.02,0.22,0.02,0.33
				c0.01,0.1,0.01,0.19,0.01,0.28c0.01,0.1,0.01,0.18,0.01,0.27v0.16c0.01,0.08,0.01,0.15,0.01,0.22v0.04c0,0.05,0,0.11-0.01,0.16
				v0.12c0,0.01,0,0.01,0,0.02v0.01c0,0.26-0.01,0.51-0.03,0.76c0,0.06-0.01,0.13-0.01,0.19c-0.01,0.08-0.01,0.16-0.03,0.24
				c-0.01,0.17-0.03,0.34-0.05,0.51c-0.03,0.21-0.06,0.42-0.1,0.62c-0.03,0.18-0.07,0.36-0.11,0.54c-0.02,0.11-0.04,0.22-0.07,0.32
				v0.01c-0.02,0.07-0.04,0.14-0.06,0.21c-0.05,0.19-0.11,0.38-0.17,0.56c-0.02,0.06-0.04,0.12-0.06,0.18
				c-0.09,0.23-0.18,0.46-0.28,0.68c-0.06,0.14-0.13,0.28-0.21,0.41c-0.07,0.15-0.15,0.29-0.24,0.43c-0.09,0.16-0.19,0.31-0.29,0.45
				c-0.52,0.71-1.14,1.28-1.86,1.68c-0.18,0.11-0.37,0.2-0.57,0.28c-0.17,0.07-0.36,0.14-0.55,0.2c-0.08,0.03-0.17,0.05-0.25,0.07
				c-0.17,0.04-0.35,0.08-0.53,0.12c-0.09,0.02-0.18,0.03-0.27,0.04c-0.08,0.02-0.16,0.03-0.24,0.04h-0.07l0.11,2.22h39.36
				c11.64,0,21.11-9.47,21.11-21.11v-438.9c0-4.9,3.99-8.89,8.89-8.89h58.85c6.13,0,11.11-4.98,11.11-11.11
				C381.09,191.34,379.94,188.55,377.84,186.45z M369.98,203.2h-58.85c-6.13,0-11.11,4.98-11.11,11.11v438.9
				c0,10.41-8.48,18.89-18.89,18.89h-34.3c0.04-0.04,0.08-0.08,0.12-0.12c0.13-0.13,0.26-0.27,0.38-0.42
				c0.17-0.19,0.32-0.38,0.47-0.59c0.41-0.56,0.76-1.18,1.04-1.86c0.73-1.66,1.1-3.65,1.1-5.86v-0.33c-0.01-0.31-0.02-0.6-0.04-0.9
				c-0.03-0.4-0.06-0.79-0.12-1.17c-0.05-0.38-0.11-0.75-0.19-1.1c-0.05-0.24-0.11-0.48-0.18-0.72c-0.03-0.14-0.07-0.29-0.12-0.43
				c-0.1-0.32-0.21-0.64-0.33-0.95c-0.03-0.07-0.06-0.13-0.08-0.2c-0.03-0.04-0.04-0.09-0.06-0.13c-0.01-0.01-0.01-0.02-0.02-0.03
				c0-0.01,0-0.01,0-0.01c-0.01-0.03-0.02-0.05-0.03-0.07c-0.04-0.09-0.08-0.18-0.12-0.26c-0.01-0.01-0.01-0.02-0.02-0.03
				c-0.06-0.12-0.12-0.25-0.19-0.37c-0.11-0.2-0.22-0.39-0.34-0.58c-0.16-0.25-0.32-0.48-0.5-0.7c-0.27-0.34-0.56-0.66-0.87-0.95
				h24.4c6.13,0,11.11-4.98,11.11-11.11v-438.9c0-5.04,1.97-9.79,5.54-13.35c3.56-3.57,8.31-5.54,13.35-5.54h68.85
				c2.37,0,4.6,0.93,6.28,2.61s2.61,3.91,2.61,6.28C378.87,199.21,374.88,203.2,369.98,203.2z M248.82,657.32
				c-0.01-0.01-0.01-0.02-0.02-0.03c0,0.01,0.01,0.02,0.01,0.03c0.02,0.04,0.05,0.09,0.07,0.13
				C248.85,657.41,248.84,657.36,248.82,657.32z M248.82,657.32c-0.01-0.01-0.01-0.02-0.02-0.03c0,0.01,0.01,0.02,0.01,0.03
				c0.02,0.04,0.05,0.09,0.07,0.13C248.85,657.41,248.84,657.36,248.82,657.32z"/>
			<path class="st2" d="M262.52,663.21c0,2.65-0.6,4.86-1.72,6.42c-1.02,1.41-2.45,2.23-4.27,2.43h-5.65
				c0.02,0.02,0.03,0.03,0.05,0.04h-4.1c0.04-0.04,0.08-0.08,0.12-0.12c0.13-0.13,0.26-0.27,0.38-0.42
				c0.17-0.19,0.32-0.38,0.47-0.59c0.41-0.56,0.76-1.18,1.04-1.86c0.73-1.66,1.1-3.65,1.1-5.86v-0.33c-0.01-0.31-0.02-0.6-0.04-0.9
				c-0.03-0.4-0.06-0.79-0.12-1.17c-0.05-0.38-0.11-0.75-0.19-1.1c-0.05-0.24-0.11-0.48-0.18-0.72c-0.03-0.14-0.07-0.29-0.12-0.43
				c-0.1-0.32-0.21-0.64-0.33-0.95c-0.03-0.07-0.06-0.13-0.08-0.2c-0.03-0.04-0.04-0.09-0.06-0.13c-0.01-0.01-0.01-0.02-0.02-0.03
				c0-0.01,0-0.01,0-0.01c-0.01-0.03-0.02-0.05-0.03-0.07c-0.04-0.09-0.08-0.18-0.12-0.26c-0.01-0.01-0.01-0.02-0.02-0.03
				c-0.06-0.12-0.12-0.25-0.19-0.37c-0.11-0.2-0.22-0.39-0.34-0.58c-0.16-0.25-0.32-0.48-0.5-0.7c-0.27-0.34-0.56-0.66-0.87-0.95
				h9.19C261.87,654.53,262.52,660.6,262.52,663.21z"/>
			<path class="st1" d="M376.26,188.03c-1.68-1.68-3.91-2.61-6.28-2.61h-68.85c-5.04,0-9.79,1.97-13.35,5.54
				c-3.57,3.56-5.54,8.31-5.54,13.35v438.9c0,6.13-4.98,11.11-11.11,11.11h-9.57c2.04,1.91,3.18,4.99,3.18,8.89v-1h15v2h-15v-1
				c0,3.12-0.74,5.79-2.14,7.72c-0.29,0.41-0.61,0.79-0.97,1.13c-0.02,0.02-0.03,0.03-0.05,0.04h19.55
				c10.41,0,18.89-8.48,18.89-18.89v-438.9c0-6.13,4.98-11.11,11.11-11.11h58.85c4.9,0,8.89-3.99,8.89-8.89
				C378.87,191.94,377.94,189.71,376.26,188.03z M291.83,653.21c0,2.65-0.95,5.21-2.69,7.2l-1.51-1.31c1.42-1.63,2.2-3.72,2.2-5.89
				v-7.35h2V653.21z M291.83,636.19h-2v-28.98h2V636.19z M291.83,597.55h-2v-14.49h2V597.55z M291.83,573.4h-2v-28.99h2V573.4z
				 M291.83,534.75h-2v-14.49h2V534.75z M291.83,510.6h-2v-28.98h2V510.6z M291.83,471.96h-2v-14.49h2V471.96z M291.83,447.8h-2
				v-28.98h2V447.8z M291.83,409.16h-2v-14.49h2V409.16z M291.83,385.01h-2v-28.98h2V385.01z M291.83,346.37h-2v-14.5h2V346.37z
				 M291.83,322.21h-2v-28.98h2V322.21z M291.83,283.57h-2v-14.49h2V283.57z M291.83,259.42h-2v-28.99h2V259.42z M291.83,220.77h-2
				v-14.49h2V220.77z M323.19,196.71h-22.36c-2.03,0-3.94,0.66-5.53,1.9l-1.23-1.57c1.95-1.52,4.28-2.33,6.76-2.33h22.36V196.71z
				 M347.34,196.71h-14.49v-2h14.49V196.71z M372.01,196.71h-15v-2h15V196.71z"/>
			<path class="st0" d="M593.61,146.86v97.6H366.37v-39.04h3.61c6.13,0,11.11-4.98,11.11-11.11c0-2.97-1.15-5.76-3.25-7.86
				c-2.1-2.1-4.89-3.25-7.86-3.25h-3.61v-36.34H593.61z"/>
		</g>
	</g>
	<g>
		<g>
			<path class="st1" d="M240.83,674.36v-2.22c0.3,0,0.59-0.02,0.87-0.04l0.15,2.22C241.52,674.34,241.19,674.36,240.83,674.36z"/>
		</g>
	</g>
	<g>
		<g>
			<rect x="240.83" y="652.14" class="st1" width="0.25" height="2.22"/>
		</g>
	</g>
	<g>
		<g>
			<rect x="264.74" y="662.21" class="st1" width="15" height="2"/>
		</g>
		<g>
			<path class="st1" d="M291.83,645.86v7.35c0,2.65-0.95,5.21-2.69,7.2l-1.51-1.31c1.42-1.63,2.2-3.72,2.2-5.89v-7.35H291.83z"/>
		</g>
		<g>
			<path class="st1" d="M289.83,607.21v28.98h2v-28.98H289.83z M289.83,583.06v14.49h2v-14.49H289.83z M289.83,544.41v28.99h2
				v-28.99H289.83z M289.83,520.26v14.49h2v-14.49H289.83z M289.83,481.62v28.98h2v-28.98H289.83z M289.83,457.47v14.49h2v-14.49
				H289.83z M289.83,418.82v28.98h2v-28.98H289.83z M289.83,394.67v14.49h2v-14.49H289.83z M289.83,356.03v28.98h2v-28.98H289.83z
				 M289.83,331.87v14.5h2v-14.5H289.83z M289.83,293.23v28.98h2v-28.98H289.83z M289.83,269.08v14.49h2v-14.49H289.83z
				 M289.83,230.43v28.99h2v-28.99H289.83z M289.83,206.28v14.49h2v-14.49H289.83z M300.83,194.71c-2.48,0-4.81,0.81-6.76,2.33
				l1.23,1.57c1.59-1.24,3.5-1.9,5.53-1.9h22.36v-2H300.83z M332.85,194.71v2h14.49v-2H332.85z"/>
		</g>
		<g>
			<rect x="357.01" y="194.71" class="st1" width="15" height="2"/>
		</g>
	</g>
	<g>
		<path class="st1" d="M342.93,473.05v2h30v-2H342.93z M332.66,473.69c-4.37,1.55-7.3,5.72-7.3,10.36v2.71h2v-2.71
			c0-3.8,2.4-7.21,5.97-8.48L332.66,473.69z M325.36,496.76v30h2v-30H325.36z M325.36,536.76v15h2v-15H325.36z M325.36,561.76v30h2
			v-30H325.36z"/>
	</g>
	<g>
		<g>
			<rect x="144.64" y="668.07" class="st1" width="67.41" height="2"/>
		</g>
		<g>
			<g>
				<polygon class="st1" points="209.87,676.55 222.82,669.07 209.87,661.59 				"/>
			</g>
		</g>
	</g>
	<g>
		<g>
			<rect x="584.13" y="284.49" class="st0" width="67.41" height="2"/>
		</g>
		<g>
			<g>
				<polygon points="649.35,292.97 662.31,285.49 649.35,278.01 				"/>
			</g>
		</g>
	</g>
	<g>
		<g>
			<polygon class="st1" points="401.26,717.57 329.88,717.57 329.88,625.96 331.88,625.96 331.88,715.57 401.26,715.57 			"/>
		</g>
		<g>
			<g>
				<polygon points="399.07,724.05 412.02,716.57 399.07,709.1 				"/>
			</g>
		</g>
	</g>
	<g>
		<path class="st0" d="M593.62,542.91v22h9.54v-22H593.62z M601.16,562.91h-5.54v-18h5.54V562.91z"/>
		<rect x="595.62" y="544.91" class="st0" width="5.54" height="18"/>
	</g>
	<g>
		<g>
			<path class="st0" d="M760.18,670.28c-31.23,0-57.69-23.72-60.48-54.32c-0.01-0.08-0.02-0.16-0.03-0.25c0-0.04,0-0.07-0.01-0.1
				l-3.9-29.16c-0.17-3.25-0.35-7.93-0.55-13.33c-0.77-20.79-1.94-52.2-5.22-63.8c-4.64-16.4-9.43-28.94-25.05-28.94
				c-14.31,0-18.39,18.26-21.38,31.6c-0.36,1.61-0.71,3.15-1.05,4.56l-0.04,0.13c-6.37,18.72-15.95,37.96-38.61,38.73l-0.83,0.03
				l-0.1-3l0.83-0.03c20.76-0.7,29.51-18.01,35.85-36.63c0.33-1.38,0.67-2.87,1.02-4.45c3.02-13.52,7.59-33.94,24.3-33.94
				c17.69,0,23.12,14.09,27.94,31.12c3.38,11.95,4.55,43.58,5.33,64.51c0.2,5.36,0.37,10,0.54,13.22l3.91,29.23
				c0,0.01,0,0.02,0,0.03c2.55,29.16,27.76,51.8,57.51,51.8c0.2,0,0.41,0,0.61,0l3.29-0.03l0.03,3l-3.29,0.03
				C760.61,670.27,760.4,670.28,760.18,670.28z"/>
		</g>
		<g>
			<path class="st3" d="M790.89,652.3v2h-11.56c-4,0-7.76,1.56-10.6,4.4c-2.83,2.82-4.4,6.59-4.4,10.6c0,8.27,6.73,15,15,15h11.56v2
				h-11.56c-9.05,0-16.47-7.11-16.97-16.04c-0.02-0.32-0.03-0.64-0.03-0.96c0-0.69,0.04-1.38,0.12-2.05
				c0.45-3.77,2.14-7.26,4.87-9.97c3.21-3.21,7.48-4.98,12.01-4.98H790.89z"/>
		</g>
		<g>
			<path class="st3" d="M783.56,684.3h-4.23c-8.27,0-15-6.73-15-15c0-4.01,1.57-7.78,4.4-10.6c2.84-2.84,6.6-4.4,10.6-4.4h4.24
				c-1.26,0.79-2.36,1.83-3.29,3.09c-2.21,2.98-3.39,7.1-3.39,11.91C776.89,676.36,779.33,681.62,783.56,684.3z"/>
			<path class="st3" d="M790.89,652.3v2c-0.32,0-0.64,0.01-0.94,0.04c0,0-0.01-0.01-0.02,0c-3.42,0.21-6.12,1.64-8.04,4.24
				c-1.96,2.64-3,6.34-3,10.72c0,8.98,4.11,14.51,11.04,14.96c0.31,0.03,0.63,0.04,0.96,0.04v2c-0.32,0-0.64-0.01-0.96-0.03h-0.01
				c-0.33-0.02-0.64-0.05-0.95-0.09c-2.03-0.24-3.84-0.88-5.41-1.88c-4.23-2.68-6.67-7.94-6.67-15c0-4.81,1.18-8.93,3.39-11.91
				c0.93-1.26,2.03-2.3,3.29-3.09c1.57-1.01,3.39-1.64,5.4-1.88c0.31-0.04,0.63-0.07,0.96-0.09
				C790.24,652.31,790.57,652.3,790.89,652.3z"/>
		</g>
		<g>
			<path class="st3" d="M802.97,669.3c0,0.98-0.05,1.92-0.14,2.82c-0.17,1.7-0.5,3.26-0.98,4.69c-1.78,5.37-5.63,8.73-10.96,9.37
				c-0.31,0.04-0.63,0.07-0.96,0.09h-0.01c-0.31,0.02-0.63,0.03-0.95,0.03v-2c0.33,0,0.65-0.01,0.96-0.04
				c4.71-0.31,8.12-2.96,9.82-7.45c0.53-1.39,0.89-2.96,1.07-4.69c0.1-0.89,0.15-1.84,0.15-2.82s-0.05-1.92-0.16-2.82
				c-0.19-1.72-0.56-3.29-1.11-4.7c-0.45-1.19-1.03-2.26-1.73-3.2c-1.92-2.59-4.61-4.02-8.02-4.24c0,0-0.01-0.01-0.02,0
				c-0.31-0.03-0.63-0.04-0.96-0.04v-2c0.32,0,0.65,0.01,0.96,0.03c0.33,0.02,0.65,0.05,0.96,0.09c3.61,0.43,6.59,2.13,8.69,4.97
				c0.94,1.27,1.69,2.74,2.24,4.39c0.5,1.44,0.83,3.01,1.01,4.7C802.92,667.39,802.97,668.33,802.97,669.3z"/>
		</g>
		<g>
			<g>
				<path class="st3" d="M810,664.13c0,0.65-0.26,1.24-0.69,1.66c-0.42,0.43-1.01,0.69-1.66,0.69h-16.87
					c-1.29,0-2.34-1.05-2.34-2.35c0-0.65,0.26-1.24,0.69-1.66c0.42-0.43,1.01-0.69,1.65-0.69h16.87
					C808.95,661.78,810,662.83,810,664.13z"/>
			</g>
			<g>
				<path class="st3" d="M789.13,672.81c-0.43,0.42-0.69,1.01-0.69,1.66c0,1.29,1.05,2.34,2.34,2.34h8.97
					c-1.7,4.49-5.11,7.14-9.82,7.45c-6.93-0.45-11.04-5.98-11.04-14.96c0-4.38,1.04-8.08,3-10.72c1.92-2.6,4.62-4.03,8.04-4.24
					c0.01-0.01,0.02,0,0.02,0c3.41,0.22,6.1,1.65,8.02,4.24c0.7,0.94,1.28,2.01,1.73,3.2h-8.92c-0.64,0-1.23,0.26-1.65,0.69
					c-0.43,0.42-0.69,1.01-0.69,1.66c0,1.3,1.05,2.35,2.34,2.35h10.03c0.11,0.9,0.16,1.84,0.16,2.82s-0.05,1.93-0.15,2.82h-10.04
					C790.14,672.12,789.55,672.38,789.13,672.81z"/>
				<path class="st3" d="M810,674.47c0,0.65-0.26,1.23-0.69,1.65c-0.42,0.43-1.01,0.69-1.66,0.69h-16.87
					c-1.29,0-2.34-1.05-2.34-2.34c0-0.65,0.26-1.24,0.69-1.66c0.42-0.43,1.01-0.69,1.65-0.69h16.87
					C808.95,672.12,810,673.17,810,674.47z"/>
			</g>
		</g>
	</g>
	<g>
		<g>
			<path d="M437.37,703.96c0.19-0.16,0.42-0.25,0.7-0.25s0.52,0.08,0.7,0.25c0.23,0.19,0.35,0.45,0.35,0.77v21.69
				c0,0.84-0.3,1.52-0.91,2.04c-0.61,0.54-1.37,0.81-2.29,0.81h-5.59c-0.89,0-1.61-0.25-2.14-0.74c-0.56-0.54-0.84-1.24-0.84-2.11
				v-21.52c0-0.37,0.11-0.67,0.32-0.88c0.19-0.21,0.42-0.32,0.7-0.32s0.52,0.09,0.7,0.28c0.23,0.21,0.35,0.5,0.35,0.88v8.19h7.63
				v-8.37C437.06,704.37,437.16,704.12,437.37,703.96z M429.43,714.86v11.21c0,0.52,0.12,0.88,0.35,1.09
				c0.21,0.21,0.57,0.32,1.09,0.32h4.5c0.54,0,0.95-0.12,1.23-0.35c0.3-0.21,0.46-0.56,0.46-1.05v-11.21H429.43z M451.68,702.87
				c0.68,0,1.02,0.3,1.02,0.91v27.46c0,0.3-0.12,0.55-0.35,0.74c-0.19,0.19-0.41,0.28-0.67,0.28c-0.28,0-0.52-0.08-0.7-0.25
				c-0.21-0.19-0.32-0.43-0.32-0.74v-12.73h-4.96v12.66c0,0.33-0.12,0.6-0.35,0.81c-0.19,0.16-0.42,0.25-0.7,0.25
				s-0.52-0.08-0.7-0.25c-0.21-0.21-0.32-0.48-0.32-0.81v-27.42c0-0.61,0.34-0.91,1.02-0.91c0.7,0,1.05,0.3,1.05,0.91v13.04h4.96
				v-13.04C450.66,703.17,451,702.87,451.68,702.87z"/>
			<path d="M451.68,732.51c-0.34,0-0.63-0.1-0.87-0.31c-0.27-0.24-0.4-0.55-0.4-0.93V718.8h-4.46v12.41c0,0.4-0.15,0.73-0.43,0.99
				c-0.48,0.41-1.27,0.41-1.74,0c-0.27-0.27-0.4-0.6-0.4-1v-27.42c0-0.75,0.45-1.16,1.27-1.16c1.14,0,1.3,0.73,1.3,1.16v12.79h4.46
				v-12.79c0-0.75,0.45-1.16,1.27-1.16s1.27,0.41,1.27,1.16v27.46c0,0.38-0.15,0.7-0.44,0.93
				C452.29,732.39,452.01,732.51,451.68,732.51z M445.46,718.3h5.46v12.98c0,0.23,0.08,0.41,0.23,0.55
				c0.26,0.23,0.72,0.28,1.03-0.03c0.2-0.16,0.28-0.33,0.28-0.56v-27.46c0-0.33-0.09-0.66-0.77-0.66s-0.77,0.33-0.77,0.66v13.29
				h-5.46v-13.29c0-0.33-0.1-0.66-0.8-0.66c-0.68,0-0.77,0.32-0.77,0.66v27.42c0,0.26,0.08,0.47,0.24,0.63
				c0.26,0.22,0.78,0.24,1.07-0.01c0.18-0.16,0.27-0.36,0.27-0.62V718.3z M435.93,729.52h-5.59c-0.95,0-1.73-0.27-2.31-0.8
				c-0.62-0.59-0.93-1.36-0.93-2.29v-21.52c0-0.44,0.13-0.8,0.39-1.06c0.45-0.51,1.28-0.51,1.76-0.04c0.28,0.25,0.42,0.61,0.42,1.06
				v7.94h7.13v-8.12c0-0.4,0.14-0.72,0.41-0.93c0.47-0.4,1.26-0.4,1.73,0c0.29,0.23,0.44,0.56,0.44,0.96v21.69
				c0,0.92-0.34,1.67-1,2.23C437.73,729.23,436.9,729.52,435.93,729.52z M428.37,703.96c-0.21,0-0.38,0.07-0.52,0.23
				c-0.17,0.17-0.25,0.4-0.25,0.71v21.52c0,0.8,0.25,1.43,0.77,1.93c0.49,0.45,1.14,0.67,1.97,0.67h5.59c0.86,0,1.55-0.24,2.12-0.75
				c0.56-0.47,0.83-1.08,0.83-1.85v-21.69c0-0.25-0.08-0.44-0.26-0.58c-0.3-0.26-0.8-0.25-1.08-0.01l-0.01,0.01
				c-0.15,0.12-0.22,0.29-0.22,0.54v8.62h-8.13v-8.44c0-0.3-0.09-0.53-0.27-0.69C428.76,704.03,428.59,703.96,428.37,703.96z
				 M435.37,727.73h-4.5c-0.59,0-1-0.13-1.27-0.39c-0.28-0.25-0.42-0.68-0.42-1.27v-11.46h8.13v11.46c0,0.58-0.19,1-0.56,1.26
				C436.43,727.59,435.97,727.73,435.37,727.73z M429.68,715.11v10.96c0,0.44,0.09,0.74,0.27,0.9c0.17,0.17,0.48,0.25,0.92,0.25h4.5
				c0.48,0,0.84-0.1,1.07-0.29c0.25-0.18,0.37-0.45,0.37-0.86v-10.96H429.68z"/>
		</g>
		<g>
			<path d="M474.8,704.84c0.66,0.59,0.98,1.39,0.98,2.43v4.15c0,5.39-1.42,9.66-4.25,12.8c-2.62,2.93-6.09,4.54-10.41,4.82
				c-0.66,0.05-1.01-0.23-1.05-0.84c-0.05-0.59,0.26-0.9,0.91-0.95c4.03-0.42,7.12-1.89,9.28-4.39c2.34-2.72,3.52-6.55,3.52-11.5
				v-4.11c0-0.49-0.14-0.87-0.42-1.12c-0.3-0.26-0.73-0.39-1.27-0.39h-10.44c-0.66,0-0.98-0.3-0.98-0.91
				c-0.02-0.59,0.29-0.88,0.95-0.88h10.41C473.2,703.93,474.12,704.23,474.8,704.84z M485.35,731.98c-0.19,0.19-0.42,0.28-0.7,0.28
				c-0.3,0-0.55-0.09-0.74-0.28c-0.21-0.21-0.32-0.48-0.32-0.81v-27.35c0-0.3,0.11-0.55,0.32-0.74c0.19-0.14,0.43-0.21,0.74-0.21
				c0.28,0,0.52,0.07,0.7,0.21c0.23,0.19,0.35,0.43,0.35,0.74v27.35C485.7,731.5,485.58,731.77,485.35,731.98z"/>
			<path d="M484.64,732.51c-0.37,0-0.68-0.12-0.92-0.35c-0.26-0.26-0.39-0.59-0.39-0.99v-27.35c0-0.38,0.13-0.69,0.4-0.92
				c0.25-0.19,0.55-0.27,0.9-0.27c0.33,0,0.62,0.09,0.85,0.26c0.3,0.24,0.45,0.56,0.45,0.94v27.35c0,0.4-0.14,0.73-0.43,0.99
				C485.28,732.39,484.99,732.51,484.64,732.51z M484.64,703.12c-0.25,0-0.45,0.05-0.59,0.16c-0.14,0.13-0.22,0.31-0.22,0.54v27.35
				c0,0.26,0.08,0.47,0.24,0.63c0.27,0.27,0.79,0.29,1.09,0l0.01-0.01c0.18-0.16,0.27-0.37,0.27-0.62v-27.35
				c0-0.23-0.08-0.4-0.26-0.54C485.05,703.17,484.87,703.12,484.64,703.12z M460.99,729.28c-0.7,0-1.11-0.38-1.17-1.08
				c-0.03-0.34,0.05-0.62,0.23-0.83c0.19-0.23,0.5-0.36,0.92-0.39c3.94-0.41,7.01-1.86,9.11-4.31c2.29-2.66,3.46-6.47,3.46-11.33
				v-4.11c0-0.42-0.11-0.73-0.34-0.94c-0.25-0.21-0.62-0.32-1.1-0.32h-10.44c-0.8,0-1.23-0.41-1.23-1.16
				c-0.01-0.34,0.08-0.61,0.26-0.81c0.21-0.21,0.52-0.32,0.94-0.32h10.41c1.23,0,2.22,0.33,2.94,0.98l0,0
				c0.71,0.63,1.07,1.51,1.07,2.61v4.15c0,5.43-1.45,9.79-4.32,12.96c-2.66,2.97-6.22,4.61-10.58,4.9
				C461.09,729.28,461.04,729.28,460.99,729.28z M461.62,704.18c-0.27,0-0.47,0.06-0.58,0.17c-0.09,0.09-0.13,0.25-0.12,0.45
				c0,0.48,0.21,0.67,0.73,0.67h10.44c0.6,0,1.08,0.15,1.43,0.45c0.34,0.31,0.51,0.75,0.51,1.32v4.11c0,4.98-1.2,8.91-3.58,11.66
				c-2.19,2.55-5.37,4.05-9.44,4.48c-0.28,0.02-0.48,0.09-0.58,0.21c-0.09,0.1-0.12,0.26-0.11,0.47c0.04,0.47,0.26,0.65,0.79,0.61
				c4.23-0.28,7.67-1.87,10.24-4.73c2.78-3.08,4.19-7.33,4.19-12.63v-4.15c0-0.97-0.29-1.7-0.9-2.24l0,0
				c-0.63-0.56-1.51-0.85-2.61-0.85H461.62z"/>
		</g>
	</g>
	<g>
		<g>
			<path class="st1" d="M100.94,673.3c0.19,0.19,0.28,0.4,0.28,0.63c0,0.23-0.09,0.45-0.28,0.63c-0.19,0.19-0.43,0.28-0.74,0.28
				H72.85c-0.68,0-1.02-0.3-1.02-0.91c0-0.59,0.35-0.88,1.05-0.88h27.28C100.49,673.05,100.75,673.14,100.94,673.3z M99.36,661.66
				c0.02,0.61-0.26,0.91-0.84,0.91H74.68c-0.66,0-0.98-0.3-0.98-0.91c0-0.59,0.33-0.88,0.98-0.88h23.73
				C99.02,660.78,99.33,661.08,99.36,661.66z M96.62,677.17c0.19-0.16,0.43-0.25,0.74-0.25c0.28,0,0.52,0.08,0.7,0.25
				c0.23,0.19,0.35,0.46,0.35,0.81v5.55c0,0.73-0.23,1.32-0.7,1.79c-0.52,0.49-1.21,0.74-2.07,0.74H77.24
				c-0.8,0-1.44-0.25-1.93-0.74c-0.45-0.47-0.67-1.08-0.67-1.83v-5.52c0-0.35,0.11-0.62,0.32-0.81c0.19-0.16,0.43-0.25,0.74-0.25
				c0.28,0,0.52,0.08,0.7,0.25c0.23,0.19,0.35,0.46,0.35,0.81v1.65H96.3v-1.65C96.3,677.62,96.4,677.35,96.62,677.17z M94.96,664.86
				c1.9,0.66,2.85,1.54,2.85,2.64c0,1.08-0.95,1.96-2.85,2.64c-2.04,0.73-4.85,1.09-8.44,1.09c-3.61,0-6.42-0.36-8.44-1.09
				c-1.88-0.68-2.81-1.56-2.81-2.64c0-1.1,0.94-1.98,2.81-2.64c2.02-0.7,4.83-1.05,8.44-1.05
				C90.11,663.81,92.92,664.16,94.96,664.86z M76.75,681.42v1.69c0,0.4,0.09,0.68,0.28,0.84c0.19,0.21,0.53,0.32,1.02,0.32H95
				c0.52,0,0.86-0.08,1.02-0.25c0.19-0.16,0.28-0.47,0.28-0.91v-1.69H76.75z M79.67,666.13c-1.5,0.33-2.25,0.79-2.25,1.37
				c0,0.56,0.75,1.01,2.25,1.34c1.59,0.38,3.88,0.56,6.86,0.56c2.95,0,5.24-0.19,6.86-0.56c1.52-0.33,2.29-0.77,2.29-1.34
				c0-0.59-0.76-1.04-2.29-1.37c-1.59-0.35-3.88-0.53-6.86-0.53C83.55,665.6,81.26,665.78,79.67,666.13z M93.87,658.01
				c0.02,0.61-0.25,0.91-0.81,0.91h-12.9c-0.66,0-0.98-0.3-0.98-0.91c0-0.59,0.33-0.88,0.98-0.88h12.76
				C93.53,657.13,93.85,657.42,93.87,658.01z"/>
			<path class="st1" d="M95.63,686.31H77.24c-0.86,0-1.57-0.27-2.11-0.81c-0.49-0.52-0.74-1.19-0.74-2v-5.52c0-0.42,0.13-0.76,0.4-1
				c0.24-0.21,0.54-0.31,0.9-0.31c0.34,0,0.63,0.1,0.87,0.31c0.29,0.23,0.44,0.57,0.44,1v1.4h19.05v-1.4c0-0.42,0.13-0.76,0.4-1l0,0
				c0.23-0.2,0.54-0.31,0.9-0.31c0.34,0,0.63,0.1,0.87,0.31c0.29,0.23,0.44,0.57,0.44,1v5.55c0,0.79-0.26,1.45-0.78,1.97
				C97.32,686.04,96.56,686.31,95.63,686.31z M75.7,677.17c-0.24,0-0.43,0.06-0.57,0.18c-0.15,0.14-0.23,0.34-0.23,0.62v5.52
				c0,0.69,0.2,1.23,0.6,1.66c0.44,0.44,1.02,0.66,1.75,0.66h18.39c0.8,0,1.44-0.23,1.9-0.67c0.42-0.42,0.63-0.95,0.63-1.61v-5.55
				c0-0.27-0.08-0.47-0.26-0.61c-0.32-0.28-0.85-0.24-1.12-0.01c-0.16,0.14-0.23,0.34-0.23,0.62v1.9H76.5v-1.9
				c0-0.27-0.08-0.47-0.26-0.61C76.09,677.23,75.92,677.17,75.7,677.17z M95,684.52H78.05c-0.57,0-0.97-0.13-1.21-0.4
				c-0.22-0.19-0.34-0.54-0.34-1.01v-1.94h20.05v1.94c0,0.53-0.12,0.89-0.37,1.1C95.98,684.41,95.59,684.52,95,684.52z M77,681.67
				v1.44c0,0.32,0.07,0.54,0.2,0.66c0.16,0.17,0.45,0.25,0.86,0.25H95c0.6,0,0.79-0.12,0.84-0.17c0.14-0.12,0.21-0.37,0.21-0.74
				v-1.44H77z M100.2,675.1H72.85c-0.82,0-1.27-0.41-1.27-1.16c0-0.42,0.17-1.13,1.3-1.13h27.28c0.39,0,0.7,0.1,0.94,0.31l0.01,0.01
				c0.23,0.24,0.35,0.51,0.35,0.81c0,0.3-0.12,0.57-0.35,0.81S100.57,675.1,100.2,675.1z M72.89,673.3c-0.71,0-0.8,0.32-0.8,0.63
				c0,0.34,0.09,0.66,0.77,0.66h27.35c0.24,0,0.42-0.07,0.56-0.21s0.21-0.29,0.21-0.46c0-0.16-0.07-0.31-0.2-0.45
				c-0.14-0.12-0.34-0.18-0.6-0.18H72.89z M86.53,671.48c-3.62,0-6.49-0.37-8.52-1.1c-1.98-0.72-2.98-1.68-2.98-2.87
				c0-1.21,1-2.18,2.98-2.87c2.03-0.71,4.9-1.07,8.52-1.07c3.6,0,6.46,0.36,8.52,1.07l0,0c2,0.69,3.02,1.66,3.02,2.87
				c0,1.19-1.01,2.16-3.01,2.87C92.99,671.1,90.12,671.48,86.53,671.48z M86.53,664.06c-3.56,0-6.38,0.35-8.35,1.04
				c-1.75,0.61-2.65,1.42-2.65,2.4c0,0.96,0.89,1.77,2.65,2.4c1.98,0.71,4.79,1.07,8.35,1.07c3.54,0,6.35-0.36,8.35-1.08
				c1.78-0.64,2.68-1.45,2.68-2.4c0-0.98-0.9-1.79-2.68-2.4C92.88,664.41,90.07,664.06,86.53,664.06z M86.53,669.65
				c-2.98,0-5.31-0.19-6.91-0.57c-1.64-0.36-2.44-0.88-2.44-1.58c0-0.73,0.8-1.25,2.45-1.62c1.6-0.35,3.93-0.53,6.91-0.53
				s5.3,0.18,6.91,0.53c1.67,0.36,2.48,0.89,2.48,1.62c0,0.7-0.81,1.22-2.48,1.58C91.81,669.46,89.48,669.65,86.53,669.65z
				 M86.53,665.85c-2.94,0-5.23,0.18-6.8,0.52l0,0c-1.32,0.29-2.05,0.69-2.05,1.13c0,0.24,0.27,0.7,2.05,1.09
				c1.57,0.37,3.86,0.56,6.8,0.56c2.92,0,5.21-0.19,6.8-0.56c1.82-0.39,2.09-0.85,2.09-1.09c0-0.44-0.74-0.84-2.09-1.13
				C91.76,666.03,89.47,665.85,86.53,665.85z M98.51,662.83H74.68c-0.8,0-1.23-0.41-1.23-1.16c0-0.73,0.44-1.13,1.23-1.13h23.73
				c0.74,0,1.17,0.4,1.2,1.12v0c0.01,0.38-0.08,0.68-0.27,0.88C99.15,662.73,98.87,662.83,98.51,662.83z M74.68,661.03
				c-0.65,0-0.73,0.3-0.73,0.63c0,0.47,0.21,0.66,0.73,0.66h23.84c0.21,0,0.37-0.05,0.46-0.14c0.1-0.1,0.14-0.27,0.13-0.51l0,0
				c-0.02-0.45-0.22-0.64-0.7-0.64H74.68z M93.06,659.17h-12.9c-0.8,0-1.23-0.41-1.23-1.16c0-0.73,0.44-1.13,1.23-1.13h12.76
				c0.74,0,1.17,0.4,1.2,1.12v0c0.01,0.39-0.08,0.68-0.27,0.89C93.67,659.07,93.4,659.17,93.06,659.17z M80.16,657.38
				c-0.65,0-0.73,0.3-0.73,0.63c0,0.47,0.21,0.66,0.73,0.66h12.9c0.2,0,0.34-0.04,0.43-0.13c0.1-0.1,0.14-0.28,0.13-0.52
				c-0.02-0.45-0.22-0.64-0.7-0.64H80.16z"/>
		</g>
		<g>
			<path class="st1" d="M120.97,659.87c1.34,1.36,2,3.05,2,5.06c0,1.97-0.67,3.62-2,4.96c-1.45,1.48-3.45,2.21-5.98,2.21
				c-2.55,0-4.58-0.74-6.08-2.21c-1.34-1.34-2-2.99-2-4.96c0-2.02,0.67-3.7,2-5.06c1.5-1.48,3.53-2.21,6.08-2.21
				C117.5,657.65,119.49,658.39,120.97,659.87z M110.45,661.14c-0.96,0.98-1.44,2.25-1.44,3.8c0,1.5,0.48,2.75,1.44,3.76
				c1.08,1.12,2.59,1.69,4.54,1.69c1.9,0,3.39-0.56,4.46-1.69c0.98-1.01,1.48-2.26,1.48-3.76c0-1.55-0.49-2.81-1.48-3.8
				c-1.08-1.1-2.57-1.65-4.46-1.65C113.04,659.48,111.53,660.03,110.45,661.14z M129.97,675.02c0.19-0.16,0.43-0.25,0.74-0.25
				c0.28,0,0.52,0.08,0.7,0.25c0.23,0.19,0.35,0.45,0.35,0.77v7.31c0,0.73-0.25,1.31-0.74,1.76c-0.52,0.49-1.21,0.74-2.07,0.74
				h-16.98c-0.82,0-1.46-0.25-1.93-0.74c-0.45-0.47-0.67-1.08-0.67-1.83v-7.24c0-0.33,0.11-0.59,0.32-0.77
				c0.19-0.16,0.42-0.25,0.7-0.25s0.52,0.08,0.7,0.25c0.23,0.19,0.35,0.45,0.35,0.77v2.18h18.21v-2.18
				C129.65,675.47,129.75,675.21,129.97,675.02z M111.44,679.77v2.85c0,0.4,0.09,0.69,0.28,0.88c0.21,0.21,0.56,0.32,1.05,0.32
				h15.57c0.49,0,0.83-0.09,1.02-0.28c0.19-0.16,0.28-0.46,0.28-0.88v-2.88H111.44z M131.41,672.81c-0.19,0.19-0.42,0.28-0.7,0.28
				c-0.3,0-0.55-0.09-0.74-0.28c-0.21-0.21-0.32-0.48-0.32-0.81v-13.96c0-0.3,0.11-0.55,0.32-0.74c0.19-0.16,0.43-0.25,0.74-0.25
				c0.28,0,0.52,0.08,0.7,0.25c0.23,0.16,0.35,0.4,0.35,0.7v14C131.76,672.33,131.64,672.6,131.41,672.81z"/>
			<path class="st1" d="M128.95,685.85h-16.98c-0.89,0-1.6-0.27-2.11-0.82c-0.49-0.51-0.74-1.19-0.74-2v-7.24
				c0-0.4,0.13-0.72,0.4-0.96c0.47-0.41,1.27-0.41,1.74,0c0.29,0.23,0.44,0.56,0.44,0.96v1.93h17.71v-1.93c0-0.4,0.13-0.72,0.4-0.96
				l0,0c0.23-0.2,0.54-0.31,0.9-0.31c0.34,0,0.63,0.1,0.87,0.31c0.29,0.23,0.44,0.56,0.44,0.96v7.31c0,0.8-0.28,1.45-0.82,1.94
				C130.63,685.58,129.88,685.85,128.95,685.85z M110.38,675.03c-0.22,0-0.4,0.06-0.54,0.18c-0.15,0.14-0.23,0.33-0.23,0.58v7.24
				c0,0.69,0.2,1.23,0.6,1.66c0.42,0.44,1,0.66,1.75,0.66h16.98c0.8,0,1.44-0.23,1.9-0.67c0.45-0.4,0.66-0.92,0.66-1.58v-7.31
				c0-0.25-0.08-0.44-0.26-0.58c-0.32-0.27-0.85-0.24-1.12-0.01c-0.16,0.14-0.23,0.33-0.23,0.59v2.43h-18.71v-2.43
				c0-0.25-0.08-0.44-0.26-0.58C110.78,675.09,110.6,675.03,110.38,675.03z M128.35,684.06h-15.57c-0.57,0-0.97-0.13-1.23-0.39
				c-0.24-0.23-0.35-0.59-0.35-1.06v-3.1h18.71v3.13c0,0.5-0.12,0.85-0.37,1.07C129.31,683.95,128.91,684.06,128.35,684.06z
				 M111.69,680.02v2.6c0,0.33,0.07,0.56,0.21,0.7c0.16,0.16,0.46,0.24,0.88,0.24h15.57c0.52,0,0.75-0.11,0.84-0.21
				c0.14-0.12,0.21-0.36,0.21-0.7v-2.63H111.69z M130.7,673.34c-0.37,0-0.68-0.12-0.92-0.35c-0.26-0.26-0.39-0.59-0.39-0.98v-13.96
				c0-0.38,0.13-0.69,0.4-0.92c0.24-0.21,0.54-0.31,0.9-0.31c0.34,0,0.63,0.1,0.87,0.31c0.28,0.19,0.44,0.51,0.44,0.89v14
				c0,0.4-0.14,0.73-0.43,0.99C131.34,673.22,131.05,673.34,130.7,673.34z M130.7,657.31c-0.24,0-0.43,0.06-0.57,0.18
				c-0.15,0.14-0.23,0.32-0.23,0.55V672c0,0.26,0.08,0.47,0.24,0.63c0.27,0.27,0.79,0.3,1.09,0l0.01-0.01
				c0.18-0.16,0.27-0.37,0.27-0.62v-14c0-0.22-0.08-0.38-0.24-0.5C131.1,657.37,130.92,657.31,130.7,657.31z M114.99,672.35
				c-2.61,0-4.72-0.77-6.26-2.29c-1.38-1.38-2.08-3.11-2.08-5.14c0-2.07,0.7-3.84,2.08-5.24c1.54-1.52,3.65-2.29,6.26-2.29
				c2.56,0,4.64,0.77,6.15,2.29l0,0c1.38,1.4,2.08,3.16,2.08,5.24c0,2.03-0.7,3.76-2.08,5.13
				C119.65,671.58,117.58,672.35,114.99,672.35z M114.99,657.9c-2.48,0-4.46,0.72-5.91,2.14c-1.28,1.3-1.93,2.95-1.93,4.88
				c0,1.89,0.65,3.5,1.93,4.78c1.44,1.42,3.43,2.14,5.91,2.14c2.45,0,4.4-0.72,5.8-2.14c1.28-1.28,1.93-2.89,1.93-4.78
				c0-1.94-0.65-3.58-1.93-4.89C119.37,658.62,117.42,657.9,114.99,657.9z M114.99,670.63c-2.01,0-3.59-0.59-4.72-1.76
				c-1-1.05-1.51-2.37-1.51-3.93c0-1.61,0.51-2.94,1.51-3.97l0,0c1.12-1.15,2.71-1.73,4.71-1.73c1.96,0,3.52,0.58,4.64,1.73
				c1.03,1.03,1.55,2.36,1.55,3.97c0,1.56-0.52,2.89-1.55,3.94C118.51,670.04,116.95,670.63,114.99,670.63z M110.63,661.31
				L110.63,661.31c-0.91,0.93-1.37,2.15-1.37,3.62c0,1.43,0.46,2.64,1.37,3.59c1.02,1.07,2.49,1.61,4.35,1.61
				c1.82,0,3.26-0.54,4.28-1.61c0.93-0.96,1.41-2.16,1.41-3.59c0-1.47-0.47-2.69-1.4-3.62c-1.03-1.05-2.47-1.58-4.29-1.58
				C113.12,659.73,111.66,660.26,110.63,661.31z"/>
		</g>
	</g>
	<g>
		<g>
			<path d="M692.14,272.57c0,0.61-0.29,0.91-0.88,0.91h-6.96v1.83c0,2.72,0.88,5.13,2.64,7.24c1.34,1.62,3.21,3.07,5.62,4.36
				c0.3,0.16,0.49,0.39,0.56,0.67s0.04,0.54-0.11,0.77c-0.16,0.26-0.38,0.42-0.63,0.49c-0.33,0.09-0.66,0.05-0.98-0.14
				c-1.95-1.05-3.67-2.37-5.17-3.94c-1.57-1.64-2.57-3.25-2.99-4.82c-0.52,1.73-1.54,3.42-3.06,5.06c-1.52,1.69-3.28,3.04-5.27,4.04
				c-0.28,0.14-0.56,0.16-0.84,0.07c-0.23-0.07-0.42-0.22-0.56-0.46c-0.14-0.23-0.18-0.47-0.11-0.7c0.07-0.26,0.26-0.47,0.56-0.63
				c2.39-1.24,4.29-2.77,5.7-4.57c1.71-2.18,2.57-4.64,2.57-7.38v-1.9h-6.96c-0.66,0-0.97-0.3-0.95-0.91c0-0.59,0.33-0.88,0.98-0.88
				h15.96C691.84,271.69,692.14,271.99,692.14,272.57z M678.25,295.77c0,0.63,0.12,1.07,0.35,1.3c0.23,0.21,0.69,0.32,1.37,0.32
				h18.95c0.59,0,0.88,0.29,0.88,0.88c0,0.61-0.29,0.91-0.88,0.91h-19.3c-1.05,0-1.89-0.26-2.5-0.77c-0.66-0.54-0.98-1.32-0.98-2.36
				v-4.68c0-0.37,0.11-0.67,0.32-0.88c0.19-0.19,0.43-0.28,0.74-0.28c0.28,0,0.52,0.09,0.7,0.28c0.23,0.21,0.35,0.5,0.35,0.88
				V295.77z M698.39,291.8c-0.19,0.19-0.42,0.28-0.7,0.28c-0.3,0-0.55-0.09-0.74-0.28c-0.21-0.21-0.32-0.49-0.32-0.84v-19.34
				c0-0.3,0.11-0.55,0.32-0.74c0.19-0.16,0.43-0.25,0.74-0.25c0.28,0,0.52,0.08,0.7,0.25c0.23,0.16,0.35,0.4,0.35,0.7v19.37
				C698.75,291.31,698.63,291.59,698.39,291.8z"/>
			<path d="M698.92,299.43h-19.3c-1.11,0-2-0.28-2.66-0.83c-0.71-0.58-1.07-1.44-1.07-2.55v-4.68c0-0.44,0.13-0.8,0.39-1.06
				c0.24-0.24,0.54-0.35,0.92-0.35c0.35,0,0.64,0.12,0.88,0.35c0.28,0.25,0.42,0.61,0.42,1.06v4.39c0,0.7,0.15,1,0.28,1.12
				c0.12,0.11,0.43,0.24,1.19,0.24h18.95c0.73,0,1.13,0.4,1.13,1.13C700.05,299.02,699.65,299.43,698.92,299.43z M677.19,290.47
				c-0.24,0-0.42,0.07-0.56,0.21c-0.16,0.16-0.24,0.39-0.24,0.7v4.68c0,0.96,0.29,1.67,0.89,2.16c0.56,0.48,1.35,0.72,2.34,0.72
				h19.3c0.45,0,0.63-0.19,0.63-0.66c0-0.45-0.18-0.63-0.63-0.63h-18.95c-0.75,0-1.25-0.12-1.54-0.38
				c-0.29-0.29-0.43-0.78-0.43-1.49v-4.39c0-0.3-0.09-0.53-0.27-0.69C677.58,290.54,677.41,290.47,677.19,290.47z M697.69,292.33
				c-0.37,0-0.68-0.12-0.92-0.35c-0.26-0.26-0.39-0.6-0.39-1.02v-19.34c0-0.38,0.13-0.69,0.4-0.92c0.24-0.21,0.54-0.31,0.9-0.31
				c0.34,0,0.63,0.1,0.87,0.31c0.28,0.19,0.44,0.51,0.44,0.89v19.37c0,0.42-0.14,0.77-0.43,1.02
				C698.33,292.21,698.04,292.33,697.69,292.33z M697.69,270.89c-0.24,0-0.43,0.06-0.57,0.18c-0.15,0.14-0.23,0.32-0.23,0.55v19.34
				c0,0.28,0.08,0.5,0.24,0.67c0.27,0.27,0.79,0.3,1.09,0l0.01-0.01c0.18-0.16,0.27-0.38,0.27-0.66v-19.37
				c0-0.22-0.08-0.38-0.25-0.5C698.09,270.95,697.91,270.89,697.69,270.89z M674.4,289.44c-0.14,0-0.28-0.02-0.42-0.07
				c-0.29-0.09-0.52-0.28-0.7-0.57c-0.18-0.3-0.22-0.6-0.13-0.9c0.09-0.32,0.32-0.58,0.68-0.78c2.35-1.22,4.24-2.74,5.62-4.5
				c1.67-2.13,2.51-4.56,2.51-7.23v-1.65h-6.71c-0.41,0-0.72-0.11-0.93-0.32c-0.19-0.2-0.29-0.49-0.27-0.85
				c0-0.72,0.44-1.12,1.23-1.12h15.96c0.73,0,1.13,0.4,1.13,1.13c0,0.75-0.4,1.16-1.13,1.16h-6.71v1.58c0,2.65,0.87,5.03,2.58,7.08
				c1.31,1.59,3.18,3.03,5.55,4.3c0.37,0.2,0.6,0.48,0.69,0.83c0.09,0.35,0.04,0.67-0.13,0.96c-0.2,0.32-0.46,0.52-0.78,0.6
				c-0.39,0.11-0.79,0.06-1.17-0.17c-1.95-1.06-3.71-2.4-5.22-3.98c-1.35-1.41-2.3-2.82-2.81-4.19c-0.58,1.51-1.54,3-2.87,4.44
				c-1.54,1.7-3.33,3.08-5.34,4.1C674.82,289.38,674.61,289.44,674.4,289.44z M675.3,271.94c-0.65,0-0.73,0.3-0.73,0.63
				c-0.01,0.23,0.04,0.39,0.13,0.5c0.11,0.11,0.3,0.17,0.57,0.17h7.21v2.15c0,2.79-0.88,5.32-2.62,7.54
				c-1.42,1.82-3.36,3.38-5.78,4.64c-0.24,0.13-0.38,0.29-0.44,0.48c-0.05,0.17-0.03,0.34,0.08,0.51c0.11,0.18,0.25,0.29,0.42,0.35
				c0.23,0.08,0.44,0.06,0.66-0.05c1.95-0.99,3.7-2.33,5.2-3.99c1.49-1.61,2.5-3.28,3-4.97l0.25-0.85l0.23,0.85
				c0.41,1.52,1.39,3.11,2.93,4.71c1.47,1.54,3.19,2.85,5.11,3.89c0.27,0.16,0.53,0.19,0.8,0.12c0.2-0.05,0.36-0.18,0.49-0.39
				c0.1-0.17,0.13-0.36,0.07-0.58c-0.05-0.21-0.2-0.38-0.44-0.51c-2.43-1.3-4.35-2.78-5.7-4.42c-1.79-2.15-2.69-4.64-2.69-7.4v-2.08
				h7.21c0.45,0,0.63-0.19,0.63-0.66c0-0.45-0.18-0.63-0.63-0.63H675.3z"/>
		</g>
		<g>
			<path d="M719.65,277.14c0.7,0,1.05,0.3,1.05,0.91v6.36h14.27c0.7,0,1.05,0.28,1.05,0.84c-0.02,0.59-0.38,0.88-1.05,0.88H707.7
				c-0.7,0-1.05-0.29-1.05-0.88c0-0.56,0.35-0.84,1.05-0.84h10.93v-6.36C718.63,277.45,718.97,277.14,719.65,277.14z M732.13,272.04
				c0.73,0.61,1.09,1.46,1.09,2.57v1.72c0,1.24-0.08,2.2-0.25,2.88c-0.19,0.75-0.54,1.51-1.05,2.29c-0.19,0.23-0.43,0.36-0.74,0.39
				c-0.26,0.02-0.49-0.05-0.7-0.21c-0.23-0.16-0.39-0.36-0.46-0.6c-0.07-0.28,0-0.55,0.21-0.81c0.35-0.56,0.59-1.16,0.7-1.79
				c0.12-0.52,0.18-1.25,0.18-2.21v-1.48c0-0.56-0.2-1.01-0.6-1.34c-0.38-0.3-0.89-0.46-1.55-0.46h-18.98
				c-0.63,0-0.95-0.3-0.95-0.91c0-0.61,0.32-0.91,0.95-0.91h19.3C730.48,271.16,731.43,271.46,732.13,272.04z M730.72,291.27
				c1.92,0.87,2.88,2.1,2.88,3.69c0,1.55-0.96,2.77-2.88,3.66c-2.11,0.98-5.24,1.48-9.39,1.48c-4.17,0-7.31-0.49-9.42-1.48
				c-1.9-0.89-2.85-2.11-2.85-3.66c0-1.57,0.95-2.8,2.85-3.69c2.11-0.98,5.25-1.48,9.42-1.48
				C725.51,289.8,728.64,290.29,730.72,291.27z M713.43,292.47c-1.55,0.56-2.32,1.39-2.32,2.5c0,1.05,0.77,1.85,2.32,2.39
				c1.71,0.63,4.35,0.95,7.91,0.95c3.54,0,6.16-0.32,7.88-0.95c1.57-0.54,2.36-1.34,2.36-2.39c0-1.1-0.79-1.93-2.36-2.5
				c-1.71-0.61-4.34-0.91-7.88-0.91C717.77,291.56,715.14,291.86,713.43,292.47z"/>
			<path d="M721.34,300.35c-4.19,0-7.39-0.5-9.53-1.5c-1.99-0.93-2.99-2.24-2.99-3.88c0-1.67,1.01-2.99,2.99-3.92
				c2.13-1,5.34-1.5,9.53-1.5c4.19,0,7.38,0.5,9.49,1.5c2.01,0.91,3.03,2.23,3.03,3.92c0,1.65-1.02,2.95-3.03,3.88
				C728.7,299.84,725.5,300.35,721.34,300.35z M721.34,290.05c-4.12,0-7.25,0.49-9.32,1.45c-1.82,0.85-2.7,1.99-2.7,3.46
				c0,1.45,0.88,2.58,2.7,3.43c2.07,0.96,5.2,1.45,9.32,1.45c4.09,0,7.21-0.49,9.28-1.45c1.84-0.85,2.74-1.98,2.74-3.43
				c0-1.5-0.9-2.63-2.74-3.46l0,0C728.57,290.54,725.45,290.05,721.34,290.05z M721.34,298.56c-3.58,0-6.27-0.32-8-0.96
				c-1.65-0.57-2.48-1.46-2.48-2.62c0-1.21,0.84-2.13,2.48-2.73l0,0c1.73-0.62,4.42-0.93,7.99-0.93c3.55,0,6.23,0.31,7.96,0.93
				c1.67,0.6,2.52,1.52,2.52,2.73c0,1.17-0.85,2.05-2.52,2.63C727.57,298.23,724.89,298.56,721.34,298.56z M713.51,292.7
				c-1.45,0.53-2.16,1.27-2.16,2.26c0,0.94,0.7,1.65,2.15,2.15c1.68,0.62,4.31,0.94,7.83,0.94c3.49,0,6.11-0.31,7.79-0.93
				c1.48-0.51,2.19-1.21,2.19-2.16c0-0.99-0.72-1.73-2.19-2.26c-1.68-0.6-4.3-0.9-7.79-0.9
				C717.82,291.81,715.19,292.11,713.51,292.7z M734.98,286.39H707.7c-1.14,0-1.3-0.71-1.3-1.13c0-0.41,0.17-1.09,1.3-1.09h10.68
				v-6.11c0-0.75,0.45-1.16,1.27-1.16c1.14,0,1.3,0.73,1.3,1.16v6.11h14.02c1.14,0,1.3,0.69,1.3,1.09
				C736.27,285.69,736.07,286.39,734.98,286.39z M707.7,284.67c-0.71,0-0.8,0.3-0.8,0.59c0,0.31,0.1,0.63,0.8,0.63h27.28
				c0.69,0,0.79-0.32,0.8-0.64c0-0.28-0.1-0.58-0.8-0.58h-14.52v-6.61c0-0.33-0.1-0.66-0.8-0.66c-0.68,0-0.77,0.32-0.77,0.66v6.61
				H707.7z M731.08,282.14c-0.27,0-0.53-0.09-0.76-0.27c-0.27-0.19-0.46-0.43-0.54-0.72c-0.09-0.37-0.01-0.72,0.26-1.04
				c0.31-0.51,0.54-1.08,0.65-1.68c0.11-0.5,0.17-1.23,0.17-2.17v-1.48c0-0.49-0.17-0.86-0.51-1.14c-0.33-0.27-0.79-0.4-1.39-0.4
				h-18.98c-0.77,0-1.2-0.41-1.2-1.16s0.43-1.16,1.2-1.16h19.3c1.25,0,2.26,0.31,3.01,0.94l0,0c0.78,0.66,1.18,1.58,1.18,2.76v1.72
				c0,1.25-0.08,2.24-0.25,2.94c-0.19,0.78-0.56,1.57-1.09,2.37c-0.25,0.31-0.55,0.47-0.93,0.5
				C731.16,282.14,731.12,282.14,731.08,282.14z M709.98,271.41c-0.5,0-0.7,0.19-0.7,0.66s0.2,0.66,0.7,0.66h18.98
				c0.71,0,1.28,0.17,1.7,0.51c0.46,0.38,0.69,0.89,0.69,1.53v1.48c0,0.98-0.06,1.74-0.18,2.27c-0.12,0.65-0.37,1.28-0.73,1.87
				c-0.18,0.22-0.23,0.41-0.18,0.62c0.05,0.17,0.17,0.32,0.36,0.45c0.17,0.13,0.34,0.19,0.54,0.17c0.24-0.02,0.42-0.11,0.57-0.29
				c0.48-0.73,0.83-1.47,1.01-2.19c0.16-0.66,0.24-1.61,0.24-2.82v-1.72c0-1.03-0.33-1.81-1-2.37l0,0
				c-0.65-0.54-1.56-0.82-2.69-0.82H709.98z"/>
		</g>
		<g>
			<path d="M759.96,276.26c0,0.61-0.29,0.91-0.88,0.91h-6.96v0.74c0,1.92,0.67,3.53,2,4.82c1.36,1.29,3.32,2.19,5.87,2.71
				c0.33,0.07,0.56,0.23,0.7,0.49c0.14,0.26,0.16,0.52,0.07,0.77c-0.07,0.28-0.23,0.49-0.49,0.63c-0.28,0.16-0.6,0.21-0.95,0.14
				c-2.2-0.56-4.06-1.38-5.55-2.46c-1.34-0.96-2.24-2-2.71-3.13c-0.49,1.2-1.34,2.27-2.53,3.23c-1.48,1.17-3.41,2.1-5.8,2.78
				c-0.3,0.07-0.57,0.02-0.81-0.14c-0.23-0.14-0.4-0.34-0.49-0.6c-0.09-0.26-0.09-0.5,0-0.74c0.09-0.23,0.3-0.39,0.63-0.46
				c2.55-0.59,4.54-1.59,5.94-3.02c1.36-1.38,2.04-3.05,2.04-4.99v-0.77h-6.96c-0.66,0-0.97-0.3-0.95-0.91
				c0-0.61,0.33-0.91,0.98-0.91h15.96C759.67,275.35,759.96,275.65,759.96,276.26z M764.04,290.96c1.85,0.94,2.78,2.21,2.78,3.83
				c0,1.55-0.93,2.79-2.78,3.73c-2.02,1.05-4.95,1.58-8.79,1.58c-3.84,0-6.79-0.53-8.82-1.58c-1.83-0.94-2.74-2.18-2.74-3.73
				c0-1.62,0.91-2.89,2.74-3.83c2.04-1.05,4.98-1.58,8.82-1.58C759.09,289.38,762.02,289.9,764.04,290.96z M756.51,272.11
				c0.02,0.61-0.25,0.91-0.81,0.91h-9.14c-0.68,0-1.02-0.3-1.02-0.91c0-0.61,0.34-0.91,1.02-0.91h9
				C756.17,271.2,756.49,271.5,756.51,272.11z M747.97,292.19c-1.5,0.63-2.25,1.5-2.25,2.6c0,1.05,0.75,1.89,2.25,2.5
				c1.64,0.68,4.07,1.02,7.28,1.02c3.19,0,5.6-0.34,7.24-1.02c1.52-0.61,2.29-1.44,2.29-2.5c0-1.1-0.76-1.97-2.29-2.6
				c-1.64-0.66-4.06-0.98-7.24-0.98C752.04,291.2,749.61,291.53,747.97,292.19z M766.22,288.53c-0.19,0.19-0.42,0.28-0.7,0.28
				c-0.3,0-0.55-0.09-0.74-0.28c-0.21-0.19-0.32-0.44-0.32-0.77v-5.66h-5.41c-0.38,0-0.67-0.09-0.88-0.28
				c-0.21-0.19-0.32-0.4-0.32-0.63c-0.02-0.23,0.05-0.44,0.21-0.63c0.16-0.16,0.41-0.25,0.74-0.25h5.66v-8.69
				c0-0.3,0.11-0.55,0.32-0.74c0.19-0.16,0.43-0.25,0.74-0.25c0.28,0,0.52,0.08,0.7,0.25c0.23,0.16,0.35,0.4,0.35,0.7v16.18
				C766.57,288.09,766.45,288.35,766.22,288.53z"/>
			<path d="M755.25,300.35c-3.87,0-6.87-0.54-8.94-1.61c-1.91-0.98-2.88-2.31-2.88-3.95c0-1.71,0.97-3.08,2.88-4.05
				c2.06-1.07,5.07-1.61,8.94-1.61c3.87,0,6.86,0.54,8.9,1.61c1.93,0.98,2.91,2.34,2.91,4.05c0,1.64-0.98,2.97-2.91,3.95
				C762.11,299.81,759.12,300.35,755.25,300.35z M755.25,289.63c-3.79,0-6.72,0.52-8.71,1.55c-1.75,0.9-2.61,2.08-2.61,3.61
				c0,1.46,0.85,2.6,2.61,3.5c1.99,1.03,4.92,1.55,8.71,1.55c3.78,0,6.7-0.52,8.67-1.55c1.78-0.9,2.64-2.05,2.64-3.5
				c0-1.53-0.86-2.71-2.64-3.61l0,0C761.95,290.15,759.03,289.63,755.25,289.63z M755.25,298.56c-3.23,0-5.71-0.35-7.37-1.04
				c-1.59-0.65-2.4-1.57-2.4-2.73c0-1.21,0.81-2.16,2.4-2.83l0,0c1.66-0.67,4.14-1,7.37-1c3.2,0,5.67,0.34,7.33,1
				c1.62,0.67,2.44,1.63,2.44,2.83c0,1.16-0.82,2.08-2.44,2.73C760.92,298.21,758.46,298.56,755.25,298.56z M748.07,292.42
				c-1.41,0.6-2.09,1.37-2.09,2.37c0,0.95,0.69,1.69,2.09,2.26c1.6,0.66,4.02,1,7.18,1c3.14,0,5.54-0.34,7.15-1
				c1.43-0.57,2.13-1.31,2.13-2.27c0-1-0.7-1.77-2.13-2.37c-1.6-0.64-4.01-0.97-7.15-0.97
				C752.09,291.45,749.67,291.78,748.07,292.42z M765.51,289.06c-0.37,0-0.68-0.12-0.92-0.35c-0.25-0.23-0.39-0.55-0.39-0.95v-5.41
				h-5.16c-0.44,0-0.79-0.12-1.05-0.34c-0.27-0.24-0.4-0.51-0.4-0.82c-0.03-0.28,0.06-0.56,0.27-0.8c0.22-0.22,0.53-0.33,0.93-0.33
				h5.41v-8.44c0-0.38,0.13-0.69,0.4-0.92c0.24-0.21,0.54-0.31,0.9-0.31c0.34,0,0.63,0.1,0.87,0.31c0.28,0.19,0.44,0.51,0.44,0.89
				v16.18c0,0.4-0.15,0.72-0.44,0.96C766.15,288.95,765.86,289.06,765.51,289.06z M758.8,280.56c-0.26,0-0.45,0.06-0.56,0.17
				c-0.11,0.12-0.16,0.27-0.14,0.43c0,0.19,0.08,0.33,0.23,0.47c0.17,0.15,0.4,0.22,0.71,0.22h5.66v5.91c0,0.26,0.08,0.45,0.23,0.59
				c0.15,0.15,0.33,0.22,0.57,0.22c0.21,0,0.39-0.07,0.53-0.21l0.02-0.02c0.17-0.14,0.26-0.33,0.26-0.58v-16.18
				c0-0.22-0.08-0.38-0.24-0.5c-0.35-0.3-0.86-0.25-1.13-0.02c-0.15,0.14-0.23,0.32-0.23,0.55v8.94H758.8z M742.47,288.18
				c-0.25,0-0.48-0.07-0.68-0.22c-0.27-0.16-0.47-0.41-0.58-0.72c-0.11-0.32-0.11-0.62,0-0.92c0.13-0.32,0.4-0.52,0.81-0.61
				c2.49-0.57,4.45-1.56,5.82-2.95c1.31-1.33,1.97-2.95,1.97-4.82v-0.52h-6.71c-0.41,0-0.72-0.11-0.93-0.32
				c-0.19-0.2-0.29-0.49-0.27-0.85c0-0.74,0.44-1.15,1.23-1.15h15.96c0.73,0,1.13,0.41,1.13,1.16s-0.4,1.16-1.13,1.16h-6.71v0.49
				c0,1.84,0.65,3.4,1.93,4.64c1.32,1.25,3.25,2.14,5.75,2.64c0.4,0.09,0.7,0.29,0.87,0.62c0.18,0.32,0.2,0.65,0.09,0.98
				c-0.08,0.33-0.29,0.59-0.61,0.77c-0.33,0.19-0.71,0.25-1.12,0.17c-2.24-0.57-4.13-1.41-5.65-2.5c-1.17-0.84-2.03-1.76-2.56-2.74
				c-0.52,1.04-1.32,1.99-2.38,2.84c-1.5,1.19-3.48,2.14-5.89,2.82C742.69,288.17,742.57,288.18,742.47,288.18z M743.12,275.6
				c-0.52,0-0.73,0.19-0.73,0.66c-0.01,0.23,0.04,0.39,0.13,0.5c0.11,0.11,0.3,0.17,0.57,0.17h7.21v1.02c0,2-0.71,3.74-2.11,5.17
				c-1.43,1.46-3.47,2.5-6.06,3.09c-0.37,0.08-0.43,0.25-0.46,0.31c-0.07,0.18-0.07,0.36,0,0.56c0.07,0.2,0.2,0.36,0.39,0.47
				c0.19,0.13,0.39,0.17,0.62,0.11c2.34-0.66,4.26-1.58,5.7-2.73c1.16-0.93,1.98-1.98,2.46-3.13l0.23-0.56l0.23,0.56
				c0.45,1.08,1.33,2.09,2.62,3.02c1.47,1.05,3.31,1.87,5.47,2.42c0.28,0.06,0.53,0.02,0.76-0.11c0.2-0.11,0.32-0.27,0.38-0.48
				c0.08-0.22,0.06-0.4-0.05-0.59c-0.1-0.19-0.28-0.31-0.54-0.37c-2.59-0.52-4.6-1.45-5.99-2.77c-1.38-1.33-2.08-3.01-2.08-5v-0.99
				h7.21c0.45,0,0.63-0.19,0.63-0.66s-0.18-0.66-0.63-0.66H743.12z M755.71,273.28h-9.14c-0.82,0-1.27-0.41-1.27-1.16
				s0.45-1.16,1.27-1.16h9c0.74,0,1.17,0.41,1.2,1.15v0c0.01,0.39-0.08,0.68-0.27,0.89C756.31,273.18,756.04,273.28,755.71,273.28z
				 M746.57,271.45c-0.68,0-0.77,0.32-0.77,0.66s0.09,0.66,0.77,0.66h9.14c0.2,0,0.34-0.04,0.43-0.13c0.1-0.1,0.14-0.28,0.13-0.52
				l0,0c-0.02-0.47-0.23-0.67-0.7-0.67H746.57z"/>
		</g>
		<g>
			<path d="M788.46,287.83c0.19-0.16,0.42-0.23,0.7-0.21c0.26,0,0.48,0.09,0.67,0.28c0.23,0.19,0.35,0.45,0.35,0.77v7.14h12.62
				c0.33,0,0.59,0.08,0.77,0.25c0.19,0.19,0.28,0.4,0.28,0.63c0,0.23-0.09,0.45-0.28,0.63c-0.19,0.19-0.43,0.28-0.74,0.28h-27.6
				c-0.26,0-0.46-0.09-0.6-0.28c-0.14-0.19-0.2-0.4-0.18-0.63c0.02-0.23,0.12-0.44,0.28-0.63c0.19-0.16,0.44-0.25,0.77-0.25h12.62
				v-7.28C788.14,288.23,788.25,287.99,788.46,287.83z M788.46,271.27c0.19-0.19,0.42-0.28,0.7-0.28c0.26,0,0.48,0.09,0.67,0.28
				c0.23,0.23,0.35,0.54,0.35,0.91c0,3.61,1.21,6.67,3.62,9.18c2.11,2.18,4.7,3.59,7.77,4.22c0.35,0.07,0.62,0.22,0.81,0.46
				c0.16,0.21,0.21,0.45,0.14,0.7c-0.05,0.26-0.19,0.46-0.42,0.6c-0.28,0.14-0.62,0.18-1.02,0.11c-2.72-0.56-5.23-1.9-7.52-4.01
				c-2.18-2.02-3.64-4.2-4.39-6.54c-0.7,2.37-2.17,4.55-4.39,6.54c-2.32,2.13-4.9,3.48-7.73,4.04c-0.35,0.05-0.65,0-0.88-0.14
				c-0.21-0.14-0.34-0.33-0.39-0.56c-0.02-0.26,0.05-0.48,0.21-0.67c0.16-0.23,0.43-0.39,0.81-0.46c2.91-0.59,5.44-1.99,7.59-4.22
				c2.51-2.58,3.76-5.68,3.76-9.32C788.14,271.76,788.25,271.48,788.46,271.27z"/>
			<path d="M802.84,297.85h-27.6c-0.34,0-0.61-0.13-0.8-0.38c-0.18-0.24-0.25-0.51-0.22-0.81c0.03-0.28,0.14-0.54,0.34-0.77
				c0.26-0.23,0.57-0.33,0.96-0.33h12.37v-7.03c0-0.38,0.14-0.69,0.41-0.9c0.24-0.21,0.54-0.3,0.88-0.27c0,0,0,0,0,0
				c0.3,0,0.59,0.12,0.82,0.35c0.27,0.22,0.42,0.55,0.42,0.95v6.89h12.37c0.39,0,0.7,0.1,0.94,0.31c0.25,0.25,0.37,0.52,0.37,0.82
				c0,0.3-0.12,0.57-0.35,0.81S803.21,297.85,802.84,297.85z M775.52,296.06c-0.27,0-0.47,0.06-0.61,0.18
				c-0.11,0.13-0.18,0.29-0.2,0.47c-0.02,0.17,0.02,0.32,0.13,0.46c0.09,0.12,0.22,0.18,0.4,0.18h27.6c0.24,0,0.42-0.07,0.56-0.21
				s0.21-0.29,0.21-0.46c0-0.17-0.07-0.32-0.21-0.46c-0.13-0.11-0.33-0.17-0.6-0.17h-12.87v-7.39c0-0.25-0.08-0.44-0.26-0.58
				c-0.16-0.16-0.32-0.23-0.51-0.23c-0.23-0.02-0.4,0.03-0.54,0.15l-0.01,0.01c-0.15,0.12-0.22,0.28-0.22,0.51v7.53H775.52z
				 M776.78,287.74c-0.29,0-0.54-0.06-0.75-0.19c-0.28-0.18-0.44-0.43-0.5-0.73c-0.03-0.35,0.06-0.64,0.27-0.88
				c0.19-0.27,0.51-0.46,0.95-0.54c2.84-0.57,5.35-1.97,7.46-4.15c2.45-2.52,3.69-5.59,3.69-9.14c0-0.42,0.13-0.76,0.39-1.02
				c0.46-0.45,1.24-0.49,1.72,0c0.28,0.28,0.42,0.65,0.42,1.09c0,3.53,1.19,6.55,3.55,9c2.06,2.13,4.63,3.53,7.64,4.15
				c0.41,0.08,0.73,0.26,0.95,0.54c0.21,0.28,0.28,0.59,0.19,0.93c-0.06,0.31-0.24,0.57-0.53,0.75c-0.35,0.17-0.74,0.22-1.19,0.14
				c-2.76-0.57-5.33-1.94-7.65-4.07c-1.99-1.84-3.4-3.83-4.22-5.95c-0.78,2.14-2.2,4.14-4.24,5.95c-2.34,2.15-4.98,3.53-7.85,4.1
				C776.98,287.74,776.87,287.74,776.78,287.74z M789.16,271.24c-0.21,0-0.39,0.07-0.53,0.21c-0.16,0.16-0.24,0.38-0.24,0.67
				c0,3.68-1.29,6.88-3.83,9.49c-2.18,2.25-4.78,3.7-7.72,4.29c-0.31,0.06-0.53,0.18-0.65,0.35c-0.14,0.16-0.18,0.31-0.17,0.5
				c0.03,0.14,0.12,0.27,0.28,0.38c0.17,0.1,0.41,0.14,0.71,0.1c2.76-0.55,5.32-1.89,7.6-3.98c2.18-1.95,3.64-4.11,4.32-6.43
				l0.23-0.78l0.25,0.77c0.73,2.29,2.19,4.46,4.33,6.43c2.25,2.07,4.74,3.4,7.4,3.95c0.33,0.06,0.63,0.03,0.86-0.08
				c0.16-0.09,0.25-0.23,0.29-0.42c0.05-0.2,0.02-0.36-0.09-0.5c-0.15-0.19-0.37-0.31-0.66-0.37c-3.11-0.64-5.77-2.08-7.9-4.29
				c-2.45-2.54-3.69-5.69-3.69-9.35c0-0.31-0.09-0.55-0.28-0.74C789.51,271.31,789.35,271.24,789.16,271.24z"/>
		</g>
		<g>
			<path d="M823.49,272.61c0.66,0.59,0.98,1.39,0.98,2.43v4.15c0,5.39-1.42,9.66-4.25,12.8c-2.62,2.93-6.09,4.54-10.41,4.82
				c-0.66,0.05-1.01-0.23-1.05-0.84c-0.05-0.59,0.26-0.9,0.91-0.95c4.03-0.42,7.12-1.89,9.28-4.39c2.34-2.72,3.52-6.55,3.52-11.5
				V275c0-0.49-0.14-0.87-0.42-1.12c-0.3-0.26-0.73-0.39-1.27-0.39h-10.44c-0.66,0-0.98-0.3-0.98-0.91
				c-0.02-0.59,0.29-0.88,0.95-0.88h10.41C821.89,271.69,822.81,272,823.49,272.61z M834.04,299.75c-0.19,0.19-0.42,0.28-0.7,0.28
				c-0.3,0-0.55-0.09-0.74-0.28c-0.21-0.21-0.32-0.48-0.32-0.81v-27.35c0-0.3,0.11-0.55,0.32-0.74c0.19-0.14,0.43-0.21,0.74-0.21
				c0.28,0,0.52,0.07,0.7,0.21c0.23,0.19,0.35,0.43,0.35,0.74v27.35C834.39,299.27,834.28,299.54,834.04,299.75z"/>
			<path d="M833.34,300.28c-0.37,0-0.68-0.12-0.92-0.35c-0.26-0.26-0.39-0.59-0.39-0.99v-27.35c0-0.38,0.13-0.69,0.4-0.92
				c0.25-0.19,0.55-0.27,0.9-0.27c0.33,0,0.62,0.09,0.85,0.26c0.3,0.24,0.45,0.56,0.45,0.94v27.35c0,0.4-0.14,0.73-0.43,0.99
				C833.98,300.16,833.68,300.28,833.34,300.28z M833.34,270.89c-0.25,0-0.45,0.05-0.59,0.16c-0.14,0.13-0.22,0.31-0.22,0.54v27.35
				c0,0.26,0.08,0.47,0.24,0.63c0.27,0.27,0.79,0.29,1.09,0l0.01-0.01c0.18-0.16,0.27-0.37,0.27-0.62v-27.35
				c0-0.23-0.08-0.4-0.26-0.54C833.75,270.94,833.57,270.89,833.34,270.89z M809.68,297.05c-0.7,0-1.11-0.38-1.17-1.08
				c-0.03-0.34,0.05-0.62,0.23-0.83c0.19-0.23,0.5-0.36,0.92-0.39c3.94-0.41,7.01-1.86,9.11-4.31c2.29-2.66,3.46-6.47,3.46-11.33
				V275c0-0.42-0.11-0.73-0.34-0.94c-0.25-0.21-0.62-0.32-1.1-0.32h-10.44c-0.8,0-1.23-0.41-1.23-1.16
				c-0.01-0.34,0.08-0.61,0.26-0.81c0.21-0.21,0.52-0.32,0.94-0.32h10.41c1.23,0,2.22,0.33,2.94,0.98l0,0
				c0.71,0.63,1.07,1.51,1.07,2.61v4.15c0,5.43-1.45,9.79-4.32,12.96c-2.66,2.97-6.22,4.61-10.58,4.9
				C809.78,297.05,809.73,297.05,809.68,297.05z M810.31,271.94c-0.27,0-0.47,0.06-0.58,0.17c-0.09,0.09-0.13,0.25-0.12,0.45
				c0,0.48,0.21,0.67,0.73,0.67h10.44c0.6,0,1.08,0.15,1.43,0.45c0.34,0.31,0.51,0.75,0.51,1.32v4.11c0,4.98-1.2,8.91-3.58,11.66
				c-2.19,2.55-5.37,4.05-9.44,4.48c-0.28,0.02-0.48,0.09-0.58,0.21c-0.09,0.1-0.12,0.26-0.11,0.47c0.04,0.47,0.26,0.65,0.79,0.61
				c4.23-0.28,7.67-1.87,10.24-4.73c2.78-3.08,4.19-7.33,4.19-12.63v-4.15c0-0.97-0.29-1.7-0.9-2.24l0,0
				c-0.63-0.56-1.51-0.85-2.61-0.85H810.31z"/>
		</g>
		<g>
			<path d="M881.3,286.74c0.19,0.19,0.28,0.4,0.28,0.63c0,0.23-0.09,0.45-0.28,0.63c-0.19,0.19-0.43,0.28-0.74,0.28h-27.39
				c-0.66,0-0.98-0.3-0.98-0.91c0.02-0.59,0.37-0.88,1.05-0.88h12.59v-4.11c0-0.3,0.11-0.54,0.32-0.7c0.19-0.16,0.42-0.25,0.7-0.25
				c0.26,0,0.48,0.07,0.67,0.21c0.23,0.14,0.35,0.35,0.35,0.63v4.22h12.66C880.85,286.49,881.11,286.58,881.3,286.74z
				 M855.88,281.32c-0.59-0.49-0.88-1.2-0.88-2.11v-6.96c0-0.35,0.11-0.63,0.32-0.84c0.19-0.19,0.43-0.28,0.74-0.28
				c0.28,0,0.52,0.09,0.7,0.28c0.23,0.21,0.35,0.49,0.35,0.84v2.67h19.55v-2.78c0-0.33,0.11-0.59,0.32-0.77
				c0.19-0.19,0.43-0.28,0.74-0.28c0.28,0,0.52,0.09,0.7,0.28c0.23,0.19,0.35,0.45,0.35,0.77V279c0,0.98-0.29,1.75-0.88,2.29
				c-0.56,0.54-1.39,0.81-2.5,0.81h-17.05C857.29,282.1,856.47,281.84,855.88,281.32z M857.11,295.77c0,0.63,0.12,1.07,0.35,1.3
				c0.23,0.21,0.68,0.32,1.34,0.32h19.44c0.61,0,0.91,0.29,0.91,0.88c0,0.61-0.3,0.91-0.91,0.91h-20.21c-0.94,0-1.68-0.29-2.21-0.88
				c-0.54-0.56-0.81-1.3-0.81-2.21v-4.71c0-0.42,0.11-0.74,0.32-0.95c0.19-0.21,0.43-0.32,0.74-0.32c0.28,0,0.52,0.11,0.7,0.32
				c0.23,0.23,0.35,0.55,0.35,0.95V295.77z M857.11,276.72v2.21c0,0.47,0.11,0.81,0.32,1.02c0.23,0.23,0.62,0.35,1.16,0.35h16.45
				c0.56,0,0.97-0.12,1.23-0.35c0.26-0.21,0.39-0.56,0.39-1.05v-2.18H857.11z"/>
			<path d="M878.24,299.43h-20.21c-1.01,0-1.81-0.32-2.4-0.96c-0.58-0.6-0.87-1.41-0.87-2.38v-4.71c0-0.49,0.13-0.87,0.39-1.13
				c0.23-0.25,0.54-0.39,0.92-0.39c0.35,0,0.65,0.13,0.89,0.4c0.27,0.27,0.42,0.65,0.42,1.12v4.39c0,0.7,0.15,1,0.28,1.12
				c0.12,0.11,0.42,0.24,1.16,0.24h19.44c0.75,0,1.16,0.4,1.16,1.13C879.4,299.02,878.99,299.43,878.24,299.43z M856.06,290.36
				c-0.23,0-0.41,0.08-0.55,0.23c-0.17,0.17-0.25,0.43-0.25,0.78v4.71c0,0.86,0.24,1.52,0.74,2.04c0.5,0.54,1.16,0.8,2.03,0.8h20.21
				c0.47,0,0.66-0.19,0.66-0.66c0-0.45-0.19-0.63-0.66-0.63H858.8c-0.73,0-1.22-0.12-1.5-0.38c-0.29-0.29-0.43-0.78-0.43-1.49v-4.39
				c0-0.33-0.09-0.58-0.28-0.77C856.43,290.44,856.27,290.36,856.06,290.36z M880.56,288.54h-27.39c-0.8,0-1.23-0.41-1.23-1.16
				c0.02-0.43,0.21-1.13,1.3-1.13h12.34v-3.86c0-0.01,0-0.02,0-0.03h-7.24c-1.11,0-1.99-0.28-2.62-0.83
				c-0.64-0.54-0.97-1.31-0.97-2.3v-6.96c0-0.42,0.13-0.76,0.39-1.02c0.24-0.24,0.54-0.35,0.92-0.35c0.35,0,0.64,0.12,0.88,0.35
				c0.28,0.25,0.42,0.6,0.42,1.02v2.42h19.05v-2.53c0-0.4,0.13-0.72,0.4-0.96c0.44-0.44,1.3-0.48,1.78,0.01
				c0.27,0.22,0.42,0.55,0.42,0.95V279c0,1.05-0.32,1.88-0.96,2.47c-0.6,0.58-1.5,0.87-2.67,0.87h-7.27v3.89h12.41
				c0.39,0,0.7,0.1,0.94,0.31l0.01,0.01c0.23,0.24,0.35,0.51,0.35,0.81c0,0.3-0.12,0.57-0.35,0.81S880.93,288.54,880.56,288.54z
				 M853.24,286.74c-0.69,0-0.79,0.32-0.8,0.64c0,0.46,0.21,0.65,0.73,0.65h27.39c0.24,0,0.42-0.07,0.56-0.21s0.21-0.29,0.21-0.46
				c0-0.16-0.07-0.31-0.2-0.45c-0.14-0.12-0.34-0.18-0.6-0.18h-12.91v-4.39h-1.54c0,0.01,0,0.02,0,0.03v4.36H853.24z M868.03,281.85
				h7.36c1.03,0,1.81-0.25,2.32-0.74c0.54-0.5,0.8-1.19,0.8-2.1v-6.86c0-0.25-0.08-0.44-0.26-0.58c-0.34-0.33-0.84-0.28-1.11-0.02
				c-0.17,0.15-0.24,0.34-0.24,0.6v3.03h-20.05v-2.92c0-0.28-0.09-0.49-0.27-0.66c-0.32-0.31-0.83-0.27-1.1-0.01
				c-0.16,0.16-0.24,0.38-0.24,0.67v6.96c0,0.84,0.26,1.47,0.79,1.92l0,0c0.54,0.47,1.31,0.71,2.3,0.71h7.35
				c0.07-0.14,0.17-0.27,0.3-0.37c0.43-0.37,1.19-0.4,1.67-0.04C867.83,281.54,867.96,281.68,868.03,281.85z M866.33,281.85h1.05
				C867.05,281.61,866.6,281.63,866.33,281.85z M875.04,280.56h-16.45c-0.61,0-1.06-0.14-1.34-0.42c-0.26-0.26-0.39-0.66-0.39-1.2
				v-2.46h20.05v2.43c0,0.57-0.16,0.99-0.48,1.25C876.13,280.42,875.67,280.56,875.04,280.56z M857.36,276.97v1.96
				c0,0.4,0.08,0.68,0.24,0.84c0.18,0.18,0.52,0.28,0.98,0.28h16.45c0.5,0,0.85-0.1,1.06-0.29c0.21-0.17,0.3-0.46,0.3-0.87v-1.93
				H857.36z"/>
		</g>
		<g>
			<path d="M901.18,277.11c-0.02,0.61-0.3,0.91-0.84,0.91h-4.85v4.08c0,3.07,0.69,5.87,2.07,8.4c0.98,1.81,2.4,3.54,4.25,5.2
				c0.26,0.21,0.39,0.47,0.39,0.77c-0.02,0.28-0.14,0.53-0.35,0.74c-0.23,0.21-0.49,0.33-0.77,0.35c-0.3,0.05-0.56-0.04-0.77-0.25
				c-1.41-1.27-2.64-2.74-3.69-4.43c-1.05-1.66-1.77-3.25-2.14-4.75c-0.42,1.5-1.21,3.09-2.36,4.78c-1.12,1.66-2.4,3.12-3.83,4.36
				c-0.26,0.21-0.53,0.29-0.81,0.25c-0.28-0.02-0.52-0.14-0.7-0.35c-0.19-0.21-0.27-0.44-0.25-0.7c0.02-0.33,0.18-0.61,0.46-0.84
				c1.83-1.64,3.26-3.35,4.29-5.13c1.43-2.51,2.14-5.29,2.14-8.33v-4.15h-4.78c-0.66,0-0.97-0.3-0.95-0.91
				c0-0.59,0.33-0.88,0.98-0.88h11.67C900.9,276.23,901.18,276.52,901.18,277.11z M898.86,271.55c0.16,0.19,0.26,0.4,0.28,0.63
				c0,0.23-0.07,0.45-0.21,0.63c-0.16,0.19-0.38,0.28-0.63,0.28h-7.56c-0.66,0-0.98-0.3-0.98-0.91c0-0.59,0.33-0.88,0.98-0.88h7.42
				C898.46,271.31,898.7,271.39,898.86,271.55z M906.53,299.75c-0.19,0.19-0.42,0.28-0.7,0.28c-0.3,0-0.55-0.09-0.74-0.28
				c-0.21-0.21-0.32-0.48-0.32-0.81v-12.27h-4.08c-0.38,0-0.67-0.09-0.88-0.28c-0.19-0.16-0.28-0.36-0.28-0.6
				c0-0.23,0.09-0.43,0.28-0.6c0.21-0.16,0.49-0.25,0.84-0.25h4.11v-13.33c0-0.3,0.11-0.55,0.32-0.74c0.19-0.16,0.43-0.25,0.74-0.25
				c0.28,0,0.52,0.08,0.7,0.25c0.23,0.16,0.35,0.4,0.35,0.7v27.35C906.88,299.27,906.76,299.54,906.53,299.75z M912.68,299.75
				c-0.19,0.19-0.41,0.28-0.67,0.28c-0.28,0-0.52-0.09-0.7-0.28c-0.21-0.21-0.32-0.48-0.32-0.81v-27.32c0-0.3,0.11-0.55,0.32-0.74
				c0.19-0.16,0.42-0.25,0.7-0.25c0.26,0,0.48,0.08,0.67,0.25c0.23,0.16,0.35,0.4,0.35,0.7v27.35
				C913.03,299.27,912.91,299.54,912.68,299.75z"/>
			<path d="M912.01,300.28c-0.35,0-0.64-0.12-0.88-0.35c-0.26-0.26-0.39-0.59-0.39-0.99v-27.32c0-0.38,0.13-0.69,0.4-0.92
				c0.46-0.4,1.22-0.42,1.7,0c0.28,0.19,0.44,0.51,0.44,0.89v27.35c0,0.4-0.14,0.73-0.43,0.99
				C912.62,300.16,912.33,300.28,912.01,300.28z M912.01,270.89c-0.22,0-0.4,0.06-0.54,0.18c-0.16,0.14-0.23,0.31-0.23,0.55v27.32
				c0,0.26,0.08,0.47,0.24,0.63c0.27,0.26,0.72,0.3,1.02,0l0.01-0.01c0.18-0.16,0.27-0.37,0.27-0.62v-27.35
				c0-0.22-0.08-0.38-0.25-0.5C912.37,270.95,912.21,270.89,912.01,270.89z M905.82,300.28c-0.37,0-0.68-0.12-0.92-0.35
				c-0.26-0.26-0.39-0.59-0.39-0.99v-12.02h-3.83c-0.44,0-0.79-0.12-1.05-0.34c-0.24-0.21-0.36-0.47-0.36-0.78
				c0-0.31,0.12-0.57,0.37-0.79c0.27-0.21,0.6-0.31,1.01-0.31h3.86v-13.08c0-0.38,0.13-0.69,0.4-0.92c0.24-0.21,0.54-0.31,0.9-0.31
				c0.34,0,0.63,0.1,0.87,0.31c0.28,0.19,0.44,0.51,0.44,0.89v27.35c0,0.4-0.14,0.73-0.43,0.99
				C906.46,300.16,906.17,300.28,905.82,300.28z M900.66,285.2c-0.29,0-0.52,0.06-0.69,0.19c-0.12,0.11-0.18,0.24-0.18,0.4
				c0,0.16,0.06,0.29,0.2,0.41c0.17,0.15,0.4,0.22,0.71,0.22h4.33v12.52c0,0.26,0.08,0.47,0.24,0.63c0.27,0.27,0.79,0.3,1.09,0
				l0.01-0.01c0.18-0.16,0.27-0.37,0.27-0.62v-27.35c0-0.22-0.08-0.38-0.25-0.5c-0.34-0.3-0.86-0.25-1.13-0.02
				c-0.15,0.14-0.23,0.32-0.23,0.55v13.58H900.66z M900.91,297.83c-0.29,0-0.56-0.11-0.79-0.33c-1.41-1.27-2.66-2.77-3.73-4.47
				c-0.88-1.39-1.53-2.73-1.95-4.02c-0.46,1.29-1.18,2.65-2.14,4.06c-1.13,1.67-2.43,3.16-3.87,4.41c-0.32,0.26-0.66,0.37-1.01,0.3
				c-0.32-0.03-0.62-0.17-0.85-0.43c-0.23-0.26-0.34-0.56-0.31-0.89c0.03-0.39,0.21-0.73,0.55-1.01c1.79-1.61,3.22-3.31,4.23-5.07
				c1.4-2.46,2.11-5.22,2.11-8.21v-3.9h-4.53c-0.41,0-0.72-0.11-0.93-0.32c-0.19-0.2-0.29-0.49-0.27-0.85
				c0-0.72,0.44-1.12,1.23-1.12h11.67c0.71,0,1.09,0.4,1.09,1.13v0.01c-0.03,0.74-0.42,1.15-1.09,1.15h-4.6v3.83
				c0,3.01,0.69,5.8,2.04,8.28c0.97,1.77,2.38,3.5,4.2,5.14c0.31,0.25,0.47,0.58,0.47,0.96c-0.03,0.36-0.17,0.66-0.42,0.92
				c-0.29,0.26-0.59,0.4-0.93,0.42C901.04,297.83,900.97,297.83,900.91,297.83z M894.48,287.17l0.23,0.91
				c0.37,1.47,1.08,3.04,2.11,4.67c1.04,1.66,2.27,3.13,3.65,4.38c0.16,0.16,0.34,0.22,0.57,0.19c0.25-0.02,0.45-0.11,0.64-0.29
				c0.16-0.16,0.25-0.35,0.27-0.57c0-0.21-0.1-0.4-0.3-0.56c-1.87-1.68-3.32-3.46-4.32-5.28c-1.4-2.56-2.1-5.42-2.1-8.52v-4.33h5.1
				c0.29,0,0.57-0.08,0.59-0.67c0-0.44-0.17-0.62-0.59-0.62h-11.67c-0.65,0-0.73,0.3-0.73,0.63c-0.01,0.23,0.04,0.39,0.13,0.5
				c0.11,0.11,0.3,0.17,0.57,0.17h5.03v4.4c0,3.08-0.73,5.92-2.18,8.46c-1.04,1.8-2.5,3.55-4.34,5.19c-0.24,0.2-0.36,0.42-0.37,0.68
				c-0.02,0.2,0.04,0.36,0.18,0.52c0.15,0.16,0.32,0.25,0.54,0.27c0.23,0.04,0.43-0.03,0.63-0.19c1.4-1.22,2.68-2.67,3.78-4.31
				c1.13-1.66,1.91-3.24,2.32-4.71L894.48,287.17z M898.3,273.35h-7.56c-0.8,0-1.23-0.41-1.23-1.16c0-0.73,0.44-1.13,1.23-1.13h7.42
				c0.37,0,0.67,0.11,0.88,0.32l0.01,0.01c0.2,0.23,0.31,0.49,0.34,0.77c0,0.31-0.09,0.58-0.26,0.81
				C898.91,273.22,898.63,273.35,898.3,273.35z M890.74,271.56c-0.65,0-0.73,0.3-0.73,0.63c0,0.47,0.21,0.66,0.73,0.66h7.56
				c0.19,0,0.33-0.06,0.44-0.2c0.1-0.13,0.15-0.29,0.15-0.47c-0.02-0.15-0.09-0.31-0.21-0.46c-0.12-0.11-0.29-0.17-0.52-0.17H890.74
				z"/>
		</g>
	</g>
	<g>
		<g>
			<path class="st0" d="M528.14,346.33l-14-15.87c-1-1.14-0.2-2.93,1.32-2.93h10.82c0.97,0,1.76-0.79,1.76-1.76v-0.29
				c0-0.97-0.79-1.76-1.76-1.76h-22.89c-0.97,0-1.76,0.79-1.76,1.76v1.08c0,0.44,0.16,0.87,0.46,1.19l14.43,15.76
				c1.03,1.14,0.23,2.96-1.3,2.96h-12.36c-0.98,0-1.76,0.79-1.76,1.76v0.29c0,0.98,0.78,1.77,1.76,1.77h23.95
				c0.98,0,1.77-0.79,1.77-1.77v-1.02C528.58,347.07,528.42,346.65,528.14,346.33z"/>
		</g>
		<g>
			<path d="M460.02,346.79h-15c-0.98,0-1.77-0.79-1.77-1.76v-4.83c0-0.97,0.79-1.76,1.77-1.76h15.04c0.98,0,1.77-0.79,1.77-1.76
				c0-0.98-0.79-1.77-1.77-1.77h-15.04c-0.98,0-1.77-0.79-1.77-1.76v-4.1c0-0.98,0.79-1.77,1.77-1.77h15c0.97,0,1.76-0.79,1.76-1.76
				c0-0.98-0.79-1.77-1.76-1.77h-24.27c-0.97,0-1.76,0.79-1.76,1.77v23.04c0,0.97,0.79,1.76,1.76,1.76h24.27
				c0.97,0,1.76-0.79,1.76-1.76C461.78,347.58,460.99,346.79,460.02,346.79z"/>
		</g>
		<g>
			<path class="st0" d="M494.68,323.72h-4.63c-0.97,0-1.76,0.79-1.76,1.76v11.25c0,1.8-2.38,2.44-3.29,0.89l-7.64-13.03
				c-0.31-0.54-0.89-0.87-1.52-0.87h-7.24c-0.98,0-1.77,0.79-1.77,1.76v23.04c0,0.98,0.79,1.77,1.77,1.77h4.67
				c0.97,0,1.76-0.79,1.76-1.77v-11.44c0-1.79,2.37-2.44,3.29-0.89l7.81,13.23c0.32,0.54,0.9,0.87,1.52,0.87h7.03
				c0.97,0,1.76-0.79,1.76-1.77v-23.04C496.44,324.51,495.65,323.72,494.68,323.72z"/>
		</g>
		<g>
			<path class="st1" d="M429.51,346.33l-13.99-15.87c-1-1.14-0.2-2.93,1.32-2.93h10.82c0.97,0,1.76-0.79,1.76-1.76v-0.29
				c0-0.97-0.79-1.76-1.76-1.76h-22.89c-0.97,0-1.76,0.79-1.76,1.76v1.08c0,0.44,0.16,0.87,0.46,1.19l14.43,15.76
				c1.03,1.14,0.23,2.96-1.3,2.96h-12.36c-0.98,0-1.76,0.79-1.76,1.76v0.29c0,0.98,0.78,1.77,1.76,1.77h23.95
				c0.98,0,1.77-0.79,1.77-1.77v-1.02C429.96,347.07,429.8,346.65,429.51,346.33z"/>
		</g>
		<g>
			<path class="st0" d="M562.11,326.04c-0.11-0.54-0.34-0.99-0.69-1.35c-0.35-0.34-0.88-0.58-1.57-0.74
				c-0.7-0.15-1.62-0.23-2.77-0.23h-19.24c-1.15,0-2.08,0.08-2.77,0.23c-0.69,0.16-1.22,0.4-1.57,0.74
				c-0.36,0.36-0.59,0.81-0.69,1.35s-0.16,1.19-0.16,1.96v18c0,0.77,0.06,1.43,0.16,1.98s0.33,1,0.69,1.33
				c0.35,0.34,0.88,0.58,1.57,0.74s1.62,0.24,2.77,0.24h19.24c1.15,0,2.07-0.08,2.77-0.24c0.69-0.16,1.22-0.4,1.57-0.74
				c0.35-0.33,0.58-0.78,0.69-1.33c0.1-0.55,0.15-1.21,0.15-1.98v-18C562.26,327.23,562.21,326.58,562.11,326.04z M553,345.86
				c0,0.33-0.07,0.57-0.2,0.7s-0.41,0.2-0.82,0.2h-9.04c-0.41,0-0.69-0.07-0.82-0.2c-0.14-0.13-0.2-0.37-0.2-0.7v-17.71
				c0-0.34,0.06-0.57,0.2-0.71c0.13-0.13,0.41-0.19,0.82-0.19h9.04c0.41,0,0.69,0.06,0.82,0.19c0.13,0.14,0.2,0.37,0.2,0.71V345.86z
				"/>
			<path class="st0" d="M553,328.15v17.71c0,0.33-0.07,0.57-0.2,0.7s-0.41,0.2-0.82,0.2h-9.04c-0.41,0-0.69-0.07-0.82-0.2
				c-0.14-0.13-0.2-0.37-0.2-0.7v-17.71c0-0.34,0.06-0.57,0.2-0.71c0.13-0.13,0.41-0.19,0.82-0.19h9.04c0.41,0,0.69,0.06,0.82,0.19
				C552.93,327.58,553,327.81,553,328.15z"/>
		</g>
	</g>
</g>
<g id="레이어_1">
	<rect x="363.37" y="126.97" class="st17" width="233.25" height="18.89"/>
	<rect x="363.38" y="245.46" class="st17" width="233.25" height="10.58"/>
	<rect x="363.36" y="608.92" class="st17" width="233.25" height="17.04"/>
	<polygon class="st17" points="552.6,643 407.36,643 397.36,625.96 562.6,625.96 	"/>
	<polyline class="st17" points="365.37,203.2 365.37,205.42 365.37,245.46 594.61,245.46 594.61,145.86 365.37,145.86 365.37,183.2 
		365.37,185.42 	"/>
	<polygon class="st17" points="594.63,416.09 365.38,415.85 365.38,256.02 594.63,256.25 	"/>
	<path class="st17" d="M594.61,429.09v179.84H365.37V484.34h7.98c5.52,0,10-4.48,10-10c0-5.53-4.48-10-10-10h-7.98v-35.25H594.61z"
		/>
	<path class="st17" d="M365.5,415.77c3.6,0,5.52,2.92,5.52,6.52c0,3.6-1.92,6.52-5.52,6.52"/>
	<path class="st17" d="M594.63,429.09c-3.6,0-5.52-2.92-5.52-6.52c0-3.6,1.92-6.52,5.52-6.52"/>
	<path class="st17" d="M383.35,474.34c0,5.52-4.48,10-10,10h-29.11c-5.52,0-10,4.47-10,10v114.58c0,2.76-1.12,4.9-2.93,6.33
		c-1.81,1.44-4.31,2.19-7.07,2.19c-5.52,0-10-2.99-10-8.52V484.34c0-5.52,2.24-10.52,5.86-14.14c3.62-3.62,8.62-5.86,14.14-5.86
		h39.11C378.87,464.34,383.35,468.81,383.35,474.34z"/>
	<g>
		<path d="M249.9,662.02c-0.03-0.4-0.06-0.79-0.12-1.17c-0.05-0.38-0.11-0.75-0.19-1.1c-0.05-0.24-0.11-0.48-0.18-0.72
			c-0.03-0.14-0.07-0.29-0.12-0.43c-0.1-0.32-0.21-0.64-0.33-0.95c-0.03-0.07-0.06-0.13-0.08-0.2c-0.02-0.04-0.05-0.09-0.07-0.13
			c-0.01-0.04-0.02-0.07-0.04-0.11c-0.04-0.09-0.08-0.18-0.12-0.26c-0.01-0.01-0.01-0.02-0.02-0.03c-0.06-0.12-0.12-0.25-0.19-0.37
			c-0.11-0.2-0.22-0.39-0.34-0.58c-0.16-0.25-0.32-0.48-0.5-0.7c-0.27-0.34-0.56-0.66-0.87-0.95c-1.46-1.36-3.36-2.12-5.62-2.18
			h-0.14c-5.05,0.51-8.06,4.65-8.06,11.07c0,3.12,0.74,5.79,2.14,7.72c1.55,2.14,3.87,3.32,6.69,3.39h0.14
			c1.96-0.2,3.65-0.96,4.95-2.22c0.04-0.04,0.08-0.08,0.12-0.12c0.13-0.13,0.26-0.27,0.38-0.42c0.17-0.19,0.32-0.38,0.47-0.59
			c0.41-0.56,0.76-1.18,1.04-1.86c0.73-1.66,1.1-3.65,1.1-5.86v-0.04C249.94,662.8,249.93,662.41,249.9,662.02z M246,669.67
			c-0.52,0.71-1.14,1.28-1.86,1.68c-0.18,0.11-0.37,0.2-0.57,0.28c-0.17,0.07-0.36,0.14-0.55,0.2c-0.08,0.03-0.17,0.05-0.25,0.07
			c-0.17,0.04-0.35,0.08-0.53,0.12c-0.17,0.04-0.34,0.06-0.51,0.08h-0.07c-2.07-0.1-3.69-0.93-4.81-2.47
			c-1.12-1.56-1.72-3.78-1.72-6.42c0-2.47,0.59-8.24,5.97-8.85c0.08,0,0.15,0.01,0.22,0.01c0.12,0.01,0.23,0.02,0.34,0.03
			c0.03,0,0.07,0.01,0.1,0.01c0.3,0.03,0.58,0.08,0.85,0.14c0.31,0.08,0.61,0.17,0.89,0.29c0.25,0.1,0.49,0.21,0.71,0.34
			c0.53,0.3,0.97,0.67,1.35,1.09c0.15,0.17,0.29,0.34,0.42,0.52c0.44,0.59,0.77,1.25,1.01,1.93c0.08,0.2,0.15,0.4,0.21,0.61
			c0,0,0,0,0,0.01c0.07,0.24,0.13,0.48,0.19,0.72c0.03,0.14,0.06,0.29,0.08,0.43c0.04,0.17,0.06,0.34,0.09,0.5
			c0.02,0.16,0.04,0.32,0.06,0.48c0.08,0.66,0.1,1.26,0.1,1.74v0.04C247.72,665.9,247.12,668.11,246,669.67z"/>
		<path d="M247.72,663.21v0.04c0,2.65-0.6,4.86-1.72,6.42c-0.52,0.71-1.14,1.28-1.86,1.68c-0.18,0.11-0.37,0.2-0.57,0.28
			c-0.17,0.07-0.36,0.14-0.55,0.2c-0.08,0.03-0.17,0.05-0.25,0.07c-0.34,0.09-0.7,0.16-1.08,0.2c-2.08-0.09-3.71-0.92-4.84-2.47
			c-1.12-1.56-1.72-3.78-1.72-6.42c0-2.47,0.59-8.24,5.97-8.85c0.08,0,0.15,0.01,0.22,0.01c0.12,0.01,0.23,0.01,0.34,0.03
			c0.03,0,0.07,0.01,0.1,0.01c0.3,0.03,0.58,0.08,0.85,0.14c0.31,0.08,0.61,0.17,0.89,0.29c0.25,0.1,0.49,0.21,0.71,0.34
			c0.53,0.3,0.97,0.67,1.35,1.09c0.15,0.17,0.29,0.34,0.42,0.52c0.44,0.59,0.77,1.25,1.01,1.93c0.08,0.2,0.15,0.41,0.21,0.61
			c0,0,0,0,0,0.01c0.07,0.25,0.13,0.49,0.19,0.72c0.03,0.14,0.06,0.29,0.08,0.43c0.04,0.17,0.06,0.34,0.09,0.5
			c0.02,0.16,0.04,0.32,0.06,0.48C247.7,662.13,247.72,662.73,247.72,663.21z"/>
	</g>
	<path d="M324.47,601.76c-3.12,0-5.79,0.74-7.72,2.14c-2.14,1.55-3.32,3.87-3.39,6.69v0.14c0.2,1.96,0.96,3.65,2.22,4.95
		c0.04,0.04,0.08,0.08,0.12,0.12c0.13,0.13,0.27,0.26,0.42,0.38c0.19,0.17,0.38,0.32,0.59,0.47c0.56,0.41,1.18,0.76,1.86,1.04
		c1.66,0.73,3.65,1.1,5.86,1.1h0.04c0.41,0,0.8-0.01,1.19-0.04c0.4-0.03,0.79-0.06,1.17-0.12c0.38-0.05,0.75-0.11,1.1-0.19
		c0.24-0.05,0.48-0.11,0.72-0.18c0.14-0.03,0.29-0.07,0.43-0.12c0.32-0.1,0.64-0.21,0.95-0.33c0.07-0.03,0.13-0.06,0.2-0.08
		c0.04-0.02,0.09-0.05,0.13-0.07c0.04-0.01,0.07-0.02,0.11-0.04c0.09-0.04,0.18-0.08,0.26-0.12c0.01-0.01,0.02-0.01,0.03-0.02
		c0.12-0.06,0.25-0.12,0.37-0.19c0.2-0.11,0.39-0.22,0.58-0.34c0.25-0.16,0.48-0.32,0.7-0.5c0.34-0.27,0.66-0.56,0.95-0.87
		c1.36-1.46,2.12-3.36,2.18-5.62v-0.14C335.03,604.77,330.89,601.76,324.47,601.76z M315.66,611.09c-0.04-0.17-0.06-0.34-0.08-0.51
		v-0.04v-0.03c0.01-0.19,0.03-0.38,0.05-0.56c-0.02,0.19-0.04,0.39-0.05,0.59c0.04,0.38,0.11,0.74,0.2,1.08
		C315.74,611.45,315.7,611.27,315.66,611.09z M316.61,607.17c0.38-0.56,0.86-1.05,1.44-1.48
		C317.47,606.12,316.99,606.61,316.61,607.17z"/>
	<g>
		<path d="M261.56,654.32c-0.01-0.01-0.03-0.03-0.04-0.04c-1.45-1.36-3.36-2.12-5.61-2.18h-0.14c-1.97,0.2-3.63,0.95-4.92,2.18
			c-0.01,0.01-0.03,0.03-0.04,0.04h5.11c5.95,0.21,6.6,6.28,6.6,8.89c0,2.65-0.6,4.86-1.72,6.42c-1.02,1.41-2.45,2.23-4.27,2.43
			h-5.65c0.02,0.02,0.03,0.03,0.05,0.04c1.47,1.38,3.38,2.12,5.61,2.18h0.14c1.93-0.2,3.6-0.94,4.9-2.18
			c0.02-0.01,0.03-0.02,0.05-0.04c0.36-0.34,0.68-0.72,0.97-1.13c1.4-1.93,2.14-4.6,2.14-7.72
			C264.74,659.31,263.6,656.23,261.56,654.32z M249.78,660.85c-0.05-0.38-0.11-0.75-0.19-1.1c-0.05-0.24-0.11-0.48-0.18-0.72
			c-0.03-0.14-0.07-0.29-0.12-0.43c-0.1-0.32-0.21-0.64-0.33-0.95c-0.03-0.07-0.06-0.13-0.08-0.2c-0.03-0.04-0.04-0.09-0.06-0.13
			c-0.01-0.01-0.01-0.02-0.02-0.03c-0.7,1.59-1.07,3.51-1.09,5.7v0.42c0.02,2.14,0.4,4.05,1.12,5.66c0.73-1.66,1.1-3.65,1.1-5.86
			v-0.04c0-0.08,0-0.16,0.01-0.25c-0.01-0.31-0.02-0.6-0.04-0.9C249.87,661.62,249.84,661.23,249.78,660.85z"/>
	</g>
	<g>
		<path d="M248.82,657.32c-0.01-0.01-0.01-0.02-0.02-0.03c0,0.01,0.01,0.02,0.01,0.03c0.02,0.04,0.05,0.09,0.07,0.13
			C248.85,657.41,248.84,657.36,248.82,657.32z M377.84,186.45c-2.1-2.1-4.89-3.25-7.86-3.25h-68.85c-5.64,0-10.94,2.2-14.93,6.18
			c-3.98,3.99-6.18,9.29-6.18,14.93v438.9c0,4.9-3.99,8.89-8.89,8.89h-29.11c-0.32,0-0.62,0.02-0.91,0.04h-0.1l0.04,2.22h0.05
			c0.08,0,0.15,0.01,0.22,0.01c0.12,0.01,0.23,0.02,0.34,0.03c0.03,0,0.07,0.01,0.1,0.01c0.3,0.03,0.58,0.08,0.85,0.14
			c0.31,0.08,0.61,0.17,0.89,0.29c0.25,0.1,0.49,0.21,0.71,0.34c0.53,0.3,0.97,0.67,1.35,1.09c0.16,0.17,0.3,0.34,0.42,0.52
			c0.44,0.59,0.77,1.25,1.01,1.93c0.08,0.2,0.15,0.4,0.21,0.61c0,0,0,0,0,0.01c0.07,0.24,0.13,0.48,0.19,0.72
			c0.03,0.14,0.06,0.29,0.08,0.43c0.04,0.17,0.06,0.34,0.09,0.5c0.02,0.16,0.04,0.32,0.06,0.48c0.07,0.56,0.09,1.09,0.09,1.52
			c0.01,0.08,0.01,0.15,0.01,0.22v0.04c0,0.05,0,0.11-0.01,0.16c-0.01,2.58-0.61,4.73-1.71,6.26c-0.52,0.71-1.14,1.28-1.86,1.68
			c-0.18,0.11-0.37,0.2-0.57,0.28c-0.17,0.07-0.36,0.14-0.55,0.2c-0.08,0.03-0.17,0.05-0.25,0.07c-0.17,0.04-0.35,0.08-0.53,0.12
			c-0.18,0.03-0.36,0.06-0.55,0.08h-0.03l0.11,2.22h39.36c11.64,0,21.11-9.47,21.11-21.11v-438.9c0-4.9,3.99-8.89,8.89-8.89h58.85
			c6.13,0,11.11-4.98,11.11-11.11C381.09,191.34,379.94,188.55,377.84,186.45z M369.98,203.2h-58.85c-6.13,0-11.11,4.98-11.11,11.11
			v438.9c0,10.41-8.48,18.89-18.89,18.89h-34.3c0.04-0.04,0.08-0.08,0.12-0.12c0.13-0.13,0.26-0.27,0.38-0.42
			c0.17-0.19,0.32-0.38,0.47-0.59c0.41-0.56,0.76-1.18,1.04-1.86c0.73-1.66,1.1-3.65,1.1-5.86v-0.33c-0.01-0.31-0.02-0.6-0.04-0.9
			c-0.03-0.4-0.06-0.79-0.12-1.17c-0.05-0.38-0.11-0.75-0.19-1.1c-0.05-0.24-0.11-0.48-0.18-0.72c-0.03-0.14-0.07-0.29-0.12-0.43
			c-0.1-0.32-0.21-0.64-0.33-0.95c-0.03-0.07-0.06-0.13-0.08-0.2c-0.03-0.04-0.04-0.09-0.06-0.13c-0.01-0.01-0.01-0.02-0.02-0.03
			c0-0.01,0-0.01,0-0.01c-0.01-0.03-0.02-0.05-0.03-0.07c-0.04-0.09-0.08-0.18-0.12-0.26c-0.01-0.01-0.01-0.02-0.02-0.03
			c-0.06-0.12-0.12-0.25-0.19-0.37c-0.11-0.2-0.22-0.39-0.34-0.58c-0.16-0.25-0.32-0.48-0.5-0.7c-0.27-0.34-0.56-0.66-0.87-0.95
			h24.4c6.13,0,11.11-4.98,11.11-11.11v-438.9c0-5.04,1.97-9.79,5.54-13.35c3.56-3.57,8.31-5.54,13.35-5.54h68.85
			c2.37,0,4.6,0.93,6.28,2.61s2.61,3.91,2.61,6.28C378.87,199.21,374.88,203.2,369.98,203.2z M248.82,657.32
			c-0.01-0.01-0.01-0.02-0.02-0.03c0,0.01,0.01,0.02,0.01,0.03c0.02,0.04,0.05,0.09,0.07,0.13
			C248.85,657.41,248.84,657.36,248.82,657.32z"/>
	</g>
	<g>
		<path d="M240.83,674.36v-2.22c0.3,0,0.59-0.02,0.87-0.04l0.15,2.22C241.52,674.34,241.19,674.36,240.83,674.36z"/>
	</g>
	<g>
		<rect x="240.83" y="652.14" width="0.25" height="2.22"/>
	</g>
	<g>
		<line class="st17" x1="264.74" y1="663.21" x2="279.74" y2="663.21"/>
		<path class="st22" d="M288.39,659.76c1.52-1.75,2.44-4.04,2.44-6.55v-12.19"/>
		<path class="st23" d="M290.83,636.19V205.71c0-5.52,4.48-10,10-10h51.35"/>
		<line class="st17" x1="357.01" y1="195.71" x2="372.01" y2="195.71"/>
	</g>
	<path class="st24" d="M372.93,474.05h-36.57c-5.52,0-10,4.48-10,10v115.82"/>
	<g>
		<line class="st17" x1="144.64" y1="669.07" x2="212.06" y2="669.07"/>
		<g>
			<polygon points="209.87,676.55 222.82,669.07 209.87,661.59 			"/>
		</g>
	</g>
	<g>
		<line class="st17" x1="584.13" y1="285.49" x2="651.54" y2="285.49"/>
		<g>
			<polygon points="649.35,292.97 662.31,285.49 649.35,278.01 			"/>
		</g>
	</g>
	<g>
		<polyline class="st17" points="330.88,625.96 330.88,716.57 401.26,716.57 		"/>
		<g>
			<polygon points="399.07,724.05 412.02,716.57 399.07,709.1 			"/>
		</g>
	</g>
	<rect x="594.63" y="543.91" class="st17" width="7.53" height="20"/>
	<g>
		<path class="st25" d="M602.99,553.91l0.84-0.03c21.02-0.71,30.47-17.8,37.24-37.71v0c3.21-13.25,6.53-37.31,23.88-37.31
			c17.05,0,22,14.16,26.5,30.03c4.22,14.9,4.99,62,5.82,77.47l3.9,29.19c0.04,0.68-0.05-0.61,0.01,0.06
			c2.67,30.5,29.02,53.48,59.63,53.17l3.29-0.03"/>
		<path class="st17" d="M790.89,685.3h-11.56c-8.83,0-16-7.17-16-16c0-4.42,1.79-8.42,4.69-11.31c2.9-2.9,6.9-4.69,11.31-4.69h11.56
			"/>
		<path class="st17" d="M790.89,685.3c-8.84,0-13-7.17-13-16c0-4.42,1.04-8.42,3.19-11.31c2.14-2.9,5.39-4.69,9.81-4.69"/>
		<path class="st17" d="M788.97,653.3c4.42,0,7.67,1.79,9.81,4.69c2.15,2.89,3.19,6.89,3.19,11.31c0,8.83-4.16,16-13,16"/>
		<g>
			<path d="M807.65,666.48h-16.87c-1.3,0-2.35-1.05-2.35-2.35l0,0c0-1.3,1.05-2.35,2.35-2.35h16.87c1.3,0,2.35,1.05,2.35,2.35l0,0
				C810,665.43,808.95,666.48,807.65,666.48z"/>
			<path d="M807.65,676.81h-16.87c-1.3,0-2.35-1.05-2.35-2.35l0,0c0-1.3,1.05-2.35,2.35-2.35h16.87c1.3,0,2.35,1.05,2.35,2.35l0,0
				C810,675.76,808.95,676.81,807.65,676.81z"/>
		</g>
	</g>
	<g>
		<path class="st26" d="M437.37,703.96c0.19-0.16,0.42-0.25,0.7-0.25s0.52,0.08,0.7,0.25c0.23,0.19,0.35,0.45,0.35,0.77v21.69
			c0,0.84-0.3,1.52-0.91,2.04c-0.61,0.54-1.37,0.81-2.29,0.81h-5.59c-0.89,0-1.61-0.25-2.14-0.74c-0.56-0.54-0.84-1.24-0.84-2.11
			v-21.52c0-0.37,0.11-0.67,0.32-0.88c0.19-0.21,0.42-0.32,0.7-0.32s0.52,0.09,0.7,0.28c0.23,0.21,0.35,0.5,0.35,0.88v8.19h7.63
			v-8.37C437.06,704.37,437.16,704.12,437.37,703.96z M429.43,714.86v11.21c0,0.52,0.12,0.88,0.35,1.09
			c0.21,0.21,0.57,0.32,1.09,0.32h4.5c0.54,0,0.95-0.12,1.23-0.35c0.3-0.21,0.46-0.56,0.46-1.05v-11.21H429.43z M451.68,702.87
			c0.68,0,1.02,0.3,1.02,0.91v27.46c0,0.3-0.12,0.55-0.35,0.74c-0.19,0.19-0.41,0.28-0.67,0.28c-0.28,0-0.52-0.08-0.7-0.25
			c-0.21-0.19-0.32-0.43-0.32-0.74v-12.73h-4.96v12.66c0,0.33-0.12,0.6-0.35,0.81c-0.19,0.16-0.42,0.25-0.7,0.25
			s-0.52-0.08-0.7-0.25c-0.21-0.21-0.32-0.48-0.32-0.81v-27.42c0-0.61,0.34-0.91,1.02-0.91c0.7,0,1.05,0.3,1.05,0.91v13.04h4.96
			v-13.04C450.66,703.17,451,702.87,451.68,702.87z"/>
		<path class="st26" d="M474.8,704.84c0.66,0.59,0.98,1.39,0.98,2.43v4.15c0,5.39-1.42,9.66-4.25,12.8
			c-2.62,2.93-6.09,4.54-10.41,4.82c-0.66,0.05-1.01-0.23-1.05-0.84c-0.05-0.59,0.26-0.9,0.91-0.95c4.03-0.42,7.12-1.89,9.28-4.39
			c2.34-2.72,3.52-6.55,3.52-11.5v-4.11c0-0.49-0.14-0.87-0.42-1.12c-0.3-0.26-0.73-0.39-1.27-0.39h-10.44
			c-0.66,0-0.98-0.3-0.98-0.91c-0.02-0.59,0.29-0.88,0.95-0.88h10.41C473.2,703.93,474.12,704.23,474.8,704.84z M485.35,731.98
			c-0.19,0.19-0.42,0.28-0.7,0.28c-0.3,0-0.55-0.09-0.74-0.28c-0.21-0.21-0.32-0.48-0.32-0.81v-27.35c0-0.3,0.11-0.55,0.32-0.74
			c0.19-0.14,0.43-0.21,0.74-0.21c0.28,0,0.52,0.07,0.7,0.21c0.23,0.19,0.35,0.43,0.35,0.74v27.35
			C485.7,731.5,485.58,731.77,485.35,731.98z"/>
	</g>
	<g>
		<path class="st26" d="M100.94,673.3c0.19,0.19,0.28,0.4,0.28,0.63c0,0.23-0.09,0.45-0.28,0.63c-0.19,0.19-0.43,0.28-0.74,0.28
			H72.85c-0.68,0-1.02-0.3-1.02-0.91c0-0.59,0.35-0.88,1.05-0.88h27.28C100.49,673.05,100.75,673.14,100.94,673.3z M99.36,661.66
			c0.02,0.61-0.26,0.91-0.84,0.91H74.68c-0.66,0-0.98-0.3-0.98-0.91c0-0.59,0.33-0.88,0.98-0.88h23.73
			C99.02,660.78,99.33,661.08,99.36,661.66z M96.62,677.17c0.19-0.16,0.43-0.25,0.74-0.25c0.28,0,0.52,0.08,0.7,0.25
			c0.23,0.19,0.35,0.46,0.35,0.81v5.55c0,0.73-0.23,1.32-0.7,1.79c-0.52,0.49-1.21,0.74-2.07,0.74H77.24c-0.8,0-1.44-0.25-1.93-0.74
			c-0.45-0.47-0.67-1.08-0.67-1.83v-5.52c0-0.35,0.11-0.62,0.32-0.81c0.19-0.16,0.43-0.25,0.74-0.25c0.28,0,0.52,0.08,0.7,0.25
			c0.23,0.19,0.35,0.46,0.35,0.81v1.65H96.3v-1.65C96.3,677.62,96.4,677.35,96.62,677.17z M94.96,664.86
			c1.9,0.66,2.85,1.54,2.85,2.64c0,1.08-0.95,1.96-2.85,2.64c-2.04,0.73-4.85,1.09-8.44,1.09c-3.61,0-6.42-0.36-8.44-1.09
			c-1.88-0.68-2.81-1.56-2.81-2.64c0-1.1,0.94-1.98,2.81-2.64c2.02-0.7,4.83-1.05,8.44-1.05C90.11,663.81,92.92,664.16,94.96,664.86
			z M76.75,681.42v1.69c0,0.4,0.09,0.68,0.28,0.84c0.19,0.21,0.53,0.32,1.02,0.32H95c0.52,0,0.86-0.08,1.02-0.25
			c0.19-0.16,0.28-0.47,0.28-0.91v-1.69H76.75z M79.67,666.13c-1.5,0.33-2.25,0.79-2.25,1.37c0,0.56,0.75,1.01,2.25,1.34
			c1.59,0.38,3.88,0.56,6.86,0.56c2.95,0,5.24-0.19,6.86-0.56c1.52-0.33,2.29-0.77,2.29-1.34c0-0.59-0.76-1.04-2.29-1.37
			c-1.59-0.35-3.88-0.53-6.86-0.53C83.55,665.6,81.26,665.78,79.67,666.13z M93.87,658.01c0.02,0.61-0.25,0.91-0.81,0.91h-12.9
			c-0.66,0-0.98-0.3-0.98-0.91c0-0.59,0.33-0.88,0.98-0.88h12.76C93.53,657.13,93.85,657.42,93.87,658.01z"/>
		<path class="st26" d="M120.97,659.87c1.34,1.36,2,3.05,2,5.06c0,1.97-0.67,3.62-2,4.96c-1.45,1.48-3.45,2.21-5.98,2.21
			c-2.55,0-4.58-0.74-6.08-2.21c-1.34-1.34-2-2.99-2-4.96c0-2.02,0.67-3.7,2-5.06c1.5-1.48,3.53-2.21,6.08-2.21
			C117.5,657.65,119.49,658.39,120.97,659.87z M110.45,661.14c-0.96,0.98-1.44,2.25-1.44,3.8c0,1.5,0.48,2.75,1.44,3.76
			c1.08,1.12,2.59,1.69,4.54,1.69c1.9,0,3.39-0.56,4.46-1.69c0.98-1.01,1.48-2.26,1.48-3.76c0-1.55-0.49-2.81-1.48-3.8
			c-1.08-1.1-2.57-1.65-4.46-1.65C113.04,659.48,111.53,660.03,110.45,661.14z M129.97,675.02c0.19-0.16,0.43-0.25,0.74-0.25
			c0.28,0,0.52,0.08,0.7,0.25c0.23,0.19,0.35,0.45,0.35,0.77v7.31c0,0.73-0.25,1.31-0.74,1.76c-0.52,0.49-1.21,0.74-2.07,0.74
			h-16.98c-0.82,0-1.46-0.25-1.93-0.74c-0.45-0.47-0.67-1.08-0.67-1.83v-7.24c0-0.33,0.11-0.59,0.32-0.77
			c0.19-0.16,0.42-0.25,0.7-0.25s0.52,0.08,0.7,0.25c0.23,0.19,0.35,0.45,0.35,0.77v2.18h18.21v-2.18
			C129.65,675.47,129.75,675.21,129.97,675.02z M111.44,679.77v2.85c0,0.4,0.09,0.69,0.28,0.88c0.21,0.21,0.56,0.32,1.05,0.32h15.57
			c0.49,0,0.83-0.09,1.02-0.28c0.19-0.16,0.28-0.46,0.28-0.88v-2.88H111.44z M131.41,672.81c-0.19,0.19-0.42,0.28-0.7,0.28
			c-0.3,0-0.55-0.09-0.74-0.28c-0.21-0.21-0.32-0.48-0.32-0.81v-13.96c0-0.3,0.11-0.55,0.32-0.74c0.19-0.16,0.43-0.25,0.74-0.25
			c0.28,0,0.52,0.08,0.7,0.25c0.23,0.16,0.35,0.4,0.35,0.7v14C131.76,672.33,131.64,672.6,131.41,672.81z"/>
	</g>
	<g>
		<path class="st26" d="M692.14,272.57c0,0.61-0.29,0.91-0.88,0.91h-6.96v1.83c0,2.72,0.88,5.13,2.64,7.24
			c1.34,1.62,3.21,3.07,5.62,4.36c0.3,0.16,0.49,0.39,0.56,0.67s0.04,0.54-0.11,0.77c-0.16,0.26-0.38,0.42-0.63,0.49
			c-0.33,0.09-0.66,0.05-0.98-0.14c-1.95-1.05-3.67-2.37-5.17-3.94c-1.57-1.64-2.57-3.25-2.99-4.82c-0.52,1.73-1.54,3.42-3.06,5.06
			c-1.52,1.69-3.28,3.04-5.27,4.04c-0.28,0.14-0.56,0.16-0.84,0.07c-0.23-0.07-0.42-0.22-0.56-0.46c-0.14-0.23-0.18-0.47-0.11-0.7
			c0.07-0.26,0.26-0.47,0.56-0.63c2.39-1.24,4.29-2.77,5.7-4.57c1.71-2.18,2.57-4.64,2.57-7.38v-1.9h-6.96
			c-0.66,0-0.97-0.3-0.95-0.91c0-0.59,0.33-0.88,0.98-0.88h15.96C691.84,271.69,692.14,271.99,692.14,272.57z M678.25,295.77
			c0,0.63,0.12,1.07,0.35,1.3c0.23,0.21,0.69,0.32,1.37,0.32h18.95c0.59,0,0.88,0.29,0.88,0.88c0,0.61-0.29,0.91-0.88,0.91h-19.3
			c-1.05,0-1.89-0.26-2.5-0.77c-0.66-0.54-0.98-1.32-0.98-2.36v-4.68c0-0.37,0.11-0.67,0.32-0.88c0.19-0.19,0.43-0.28,0.74-0.28
			c0.28,0,0.52,0.09,0.7,0.28c0.23,0.21,0.35,0.5,0.35,0.88V295.77z M698.39,291.8c-0.19,0.19-0.42,0.28-0.7,0.28
			c-0.3,0-0.55-0.09-0.74-0.28c-0.21-0.21-0.32-0.49-0.32-0.84v-19.34c0-0.3,0.11-0.55,0.32-0.74c0.19-0.16,0.43-0.25,0.74-0.25
			c0.28,0,0.52,0.08,0.7,0.25c0.23,0.16,0.35,0.4,0.35,0.7v19.37C698.75,291.31,698.63,291.59,698.39,291.8z"/>
		<path class="st26" d="M719.65,277.14c0.7,0,1.05,0.3,1.05,0.91v6.36h14.27c0.7,0,1.05,0.28,1.05,0.84
			c-0.02,0.59-0.38,0.88-1.05,0.88H707.7c-0.7,0-1.05-0.29-1.05-0.88c0-0.56,0.35-0.84,1.05-0.84h10.93v-6.36
			C718.63,277.45,718.97,277.14,719.65,277.14z M732.13,272.04c0.73,0.61,1.09,1.46,1.09,2.57v1.72c0,1.24-0.08,2.2-0.25,2.88
			c-0.19,0.75-0.54,1.51-1.05,2.29c-0.19,0.23-0.43,0.36-0.74,0.39c-0.26,0.02-0.49-0.05-0.7-0.21c-0.23-0.16-0.39-0.36-0.46-0.6
			c-0.07-0.28,0-0.55,0.21-0.81c0.35-0.56,0.59-1.16,0.7-1.79c0.12-0.52,0.18-1.25,0.18-2.21v-1.48c0-0.56-0.2-1.01-0.6-1.34
			c-0.38-0.3-0.89-0.46-1.55-0.46h-18.98c-0.63,0-0.95-0.3-0.95-0.91c0-0.61,0.32-0.91,0.95-0.91h19.3
			C730.48,271.16,731.43,271.46,732.13,272.04z M730.72,291.27c1.92,0.87,2.88,2.1,2.88,3.69c0,1.55-0.96,2.77-2.88,3.66
			c-2.11,0.98-5.24,1.48-9.39,1.48c-4.17,0-7.31-0.49-9.42-1.48c-1.9-0.89-2.85-2.11-2.85-3.66c0-1.57,0.95-2.8,2.85-3.69
			c2.11-0.98,5.25-1.48,9.42-1.48C725.51,289.8,728.64,290.29,730.72,291.27z M713.43,292.47c-1.55,0.56-2.32,1.39-2.32,2.5
			c0,1.05,0.77,1.85,2.32,2.39c1.71,0.63,4.35,0.95,7.91,0.95c3.54,0,6.16-0.32,7.88-0.95c1.57-0.54,2.36-1.34,2.36-2.39
			c0-1.1-0.79-1.93-2.36-2.5c-1.71-0.61-4.34-0.91-7.88-0.91C717.77,291.56,715.14,291.86,713.43,292.47z"/>
		<path class="st26" d="M759.96,276.26c0,0.61-0.29,0.91-0.88,0.91h-6.96v0.74c0,1.92,0.67,3.53,2,4.82
			c1.36,1.29,3.32,2.19,5.87,2.71c0.33,0.07,0.56,0.23,0.7,0.49c0.14,0.26,0.16,0.52,0.07,0.77c-0.07,0.28-0.23,0.49-0.49,0.63
			c-0.28,0.16-0.6,0.21-0.95,0.14c-2.2-0.56-4.06-1.38-5.55-2.46c-1.34-0.96-2.24-2-2.71-3.13c-0.49,1.2-1.34,2.27-2.53,3.23
			c-1.48,1.17-3.41,2.1-5.8,2.78c-0.3,0.07-0.57,0.02-0.81-0.14c-0.23-0.14-0.4-0.34-0.49-0.6c-0.09-0.26-0.09-0.5,0-0.74
			c0.09-0.23,0.3-0.39,0.63-0.46c2.55-0.59,4.54-1.59,5.94-3.02c1.36-1.38,2.04-3.05,2.04-4.99v-0.77h-6.96
			c-0.66,0-0.97-0.3-0.95-0.91c0-0.61,0.33-0.91,0.98-0.91h15.96C759.67,275.35,759.96,275.65,759.96,276.26z M764.04,290.96
			c1.85,0.94,2.78,2.21,2.78,3.83c0,1.55-0.93,2.79-2.78,3.73c-2.02,1.05-4.95,1.58-8.79,1.58c-3.84,0-6.79-0.53-8.82-1.58
			c-1.83-0.94-2.74-2.18-2.74-3.73c0-1.62,0.91-2.89,2.74-3.83c2.04-1.05,4.98-1.58,8.82-1.58
			C759.09,289.38,762.02,289.9,764.04,290.96z M756.51,272.11c0.02,0.61-0.25,0.91-0.81,0.91h-9.14c-0.68,0-1.02-0.3-1.02-0.91
			c0-0.61,0.34-0.91,1.02-0.91h9C756.17,271.2,756.49,271.5,756.51,272.11z M747.97,292.19c-1.5,0.63-2.25,1.5-2.25,2.6
			c0,1.05,0.75,1.89,2.25,2.5c1.64,0.68,4.07,1.02,7.28,1.02c3.19,0,5.6-0.34,7.24-1.02c1.52-0.61,2.29-1.44,2.29-2.5
			c0-1.1-0.76-1.97-2.29-2.6c-1.64-0.66-4.06-0.98-7.24-0.98C752.04,291.2,749.61,291.53,747.97,292.19z M766.22,288.53
			c-0.19,0.19-0.42,0.28-0.7,0.28c-0.3,0-0.55-0.09-0.74-0.28c-0.21-0.19-0.32-0.44-0.32-0.77v-5.66h-5.41
			c-0.38,0-0.67-0.09-0.88-0.28c-0.21-0.19-0.32-0.4-0.32-0.63c-0.02-0.23,0.05-0.44,0.21-0.63c0.16-0.16,0.41-0.25,0.74-0.25h5.66
			v-8.69c0-0.3,0.11-0.55,0.32-0.74c0.19-0.16,0.43-0.25,0.74-0.25c0.28,0,0.52,0.08,0.7,0.25c0.23,0.16,0.35,0.4,0.35,0.7v16.18
			C766.57,288.09,766.45,288.35,766.22,288.53z"/>
		<path class="st26" d="M788.46,287.83c0.19-0.16,0.42-0.23,0.7-0.21c0.26,0,0.48,0.09,0.67,0.28c0.23,0.19,0.35,0.45,0.35,0.77
			v7.14h12.62c0.33,0,0.59,0.08,0.77,0.25c0.19,0.19,0.28,0.4,0.28,0.63c0,0.23-0.09,0.45-0.28,0.63c-0.19,0.19-0.43,0.28-0.74,0.28
			h-27.6c-0.26,0-0.46-0.09-0.6-0.28c-0.14-0.19-0.2-0.4-0.18-0.63c0.02-0.23,0.12-0.44,0.28-0.63c0.19-0.16,0.44-0.25,0.77-0.25
			h12.62v-7.28C788.14,288.23,788.25,287.99,788.46,287.83z M788.46,271.27c0.19-0.19,0.42-0.28,0.7-0.28
			c0.26,0,0.48,0.09,0.67,0.28c0.23,0.23,0.35,0.54,0.35,0.91c0,3.61,1.21,6.67,3.62,9.18c2.11,2.18,4.7,3.59,7.77,4.22
			c0.35,0.07,0.62,0.22,0.81,0.46c0.16,0.21,0.21,0.45,0.14,0.7c-0.05,0.26-0.19,0.46-0.42,0.6c-0.28,0.14-0.62,0.18-1.02,0.11
			c-2.72-0.56-5.23-1.9-7.52-4.01c-2.18-2.02-3.64-4.2-4.39-6.54c-0.7,2.37-2.17,4.55-4.39,6.54c-2.32,2.13-4.9,3.48-7.73,4.04
			c-0.35,0.05-0.65,0-0.88-0.14c-0.21-0.14-0.34-0.33-0.39-0.56c-0.02-0.26,0.05-0.48,0.21-0.67c0.16-0.23,0.43-0.39,0.81-0.46
			c2.91-0.59,5.44-1.99,7.59-4.22c2.51-2.58,3.76-5.68,3.76-9.32C788.14,271.76,788.25,271.48,788.46,271.27z"/>
		<path class="st26" d="M823.49,272.61c0.66,0.59,0.98,1.39,0.98,2.43v4.15c0,5.39-1.42,9.66-4.25,12.8
			c-2.62,2.93-6.09,4.54-10.41,4.82c-0.66,0.05-1.01-0.23-1.05-0.84c-0.05-0.59,0.26-0.9,0.91-0.95c4.03-0.42,7.12-1.89,9.28-4.39
			c2.34-2.72,3.52-6.55,3.52-11.5V275c0-0.49-0.14-0.87-0.42-1.12c-0.3-0.26-0.73-0.39-1.27-0.39h-10.44c-0.66,0-0.98-0.3-0.98-0.91
			c-0.02-0.59,0.29-0.88,0.95-0.88h10.41C821.89,271.69,822.81,272,823.49,272.61z M834.04,299.75c-0.19,0.19-0.42,0.28-0.7,0.28
			c-0.3,0-0.55-0.09-0.74-0.28c-0.21-0.21-0.32-0.48-0.32-0.81v-27.35c0-0.3,0.11-0.55,0.32-0.74c0.19-0.14,0.43-0.21,0.74-0.21
			c0.28,0,0.52,0.07,0.7,0.21c0.23,0.19,0.35,0.43,0.35,0.74v27.35C834.39,299.27,834.28,299.54,834.04,299.75z"/>
		<path class="st26" d="M881.3,286.74c0.19,0.19,0.28,0.4,0.28,0.63c0,0.23-0.09,0.45-0.28,0.63c-0.19,0.19-0.43,0.28-0.74,0.28
			h-27.39c-0.66,0-0.98-0.3-0.98-0.91c0.02-0.59,0.37-0.88,1.05-0.88h12.59v-4.11c0-0.3,0.11-0.54,0.32-0.7
			c0.19-0.16,0.42-0.25,0.7-0.25c0.26,0,0.48,0.07,0.67,0.21c0.23,0.14,0.35,0.35,0.35,0.63v4.22h12.66
			C880.85,286.49,881.11,286.58,881.3,286.74z M855.88,281.32c-0.59-0.49-0.88-1.2-0.88-2.11v-6.96c0-0.35,0.11-0.63,0.32-0.84
			c0.19-0.19,0.43-0.28,0.74-0.28c0.28,0,0.52,0.09,0.7,0.28c0.23,0.21,0.35,0.49,0.35,0.84v2.67h19.55v-2.78
			c0-0.33,0.11-0.59,0.32-0.77c0.19-0.19,0.43-0.28,0.74-0.28c0.28,0,0.52,0.09,0.7,0.28c0.23,0.19,0.35,0.45,0.35,0.77V279
			c0,0.98-0.29,1.75-0.88,2.29c-0.56,0.54-1.39,0.81-2.5,0.81h-17.05C857.29,282.1,856.47,281.84,855.88,281.32z M857.11,295.77
			c0,0.63,0.12,1.07,0.35,1.3c0.23,0.21,0.68,0.32,1.34,0.32h19.44c0.61,0,0.91,0.29,0.91,0.88c0,0.61-0.3,0.91-0.91,0.91h-20.21
			c-0.94,0-1.68-0.29-2.21-0.88c-0.54-0.56-0.81-1.3-0.81-2.21v-4.71c0-0.42,0.11-0.74,0.32-0.95c0.19-0.21,0.43-0.32,0.74-0.32
			c0.28,0,0.52,0.11,0.7,0.32c0.23,0.23,0.35,0.55,0.35,0.95V295.77z M857.11,276.72v2.21c0,0.47,0.11,0.81,0.32,1.02
			c0.23,0.23,0.62,0.35,1.16,0.35h16.45c0.56,0,0.97-0.12,1.23-0.35c0.26-0.21,0.39-0.56,0.39-1.05v-2.18H857.11z"/>
		<path class="st26" d="M901.18,277.11c-0.02,0.61-0.3,0.91-0.84,0.91h-4.85v4.08c0,3.07,0.69,5.87,2.07,8.4
			c0.98,1.81,2.4,3.54,4.25,5.2c0.26,0.21,0.39,0.47,0.39,0.77c-0.02,0.28-0.14,0.53-0.35,0.74c-0.23,0.21-0.49,0.33-0.77,0.35
			c-0.3,0.05-0.56-0.04-0.77-0.25c-1.41-1.27-2.64-2.74-3.69-4.43c-1.05-1.66-1.77-3.25-2.14-4.75c-0.42,1.5-1.21,3.09-2.36,4.78
			c-1.12,1.66-2.4,3.12-3.83,4.36c-0.26,0.21-0.53,0.29-0.81,0.25c-0.28-0.02-0.52-0.14-0.7-0.35c-0.19-0.21-0.27-0.44-0.25-0.7
			c0.02-0.33,0.18-0.61,0.46-0.84c1.83-1.64,3.26-3.35,4.29-5.13c1.43-2.51,2.14-5.29,2.14-8.33v-4.15h-4.78
			c-0.66,0-0.97-0.3-0.95-0.91c0-0.59,0.33-0.88,0.98-0.88h11.67C900.9,276.23,901.18,276.52,901.18,277.11z M898.86,271.55
			c0.16,0.19,0.26,0.4,0.28,0.63c0,0.23-0.07,0.45-0.21,0.63c-0.16,0.19-0.38,0.28-0.63,0.28h-7.56c-0.66,0-0.98-0.3-0.98-0.91
			c0-0.59,0.33-0.88,0.98-0.88h7.42C898.46,271.31,898.7,271.39,898.86,271.55z M906.53,299.75c-0.19,0.19-0.42,0.28-0.7,0.28
			c-0.3,0-0.55-0.09-0.74-0.28c-0.21-0.21-0.32-0.48-0.32-0.81v-12.27h-4.08c-0.38,0-0.67-0.09-0.88-0.28
			c-0.19-0.16-0.28-0.36-0.28-0.6c0-0.23,0.09-0.43,0.28-0.6c0.21-0.16,0.49-0.25,0.84-0.25h4.11v-13.33c0-0.3,0.11-0.55,0.32-0.74
			c0.19-0.16,0.43-0.25,0.74-0.25c0.28,0,0.52,0.08,0.7,0.25c0.23,0.16,0.35,0.4,0.35,0.7v27.35
			C906.88,299.27,906.76,299.54,906.53,299.75z M912.68,299.75c-0.19,0.19-0.41,0.28-0.67,0.28c-0.28,0-0.52-0.09-0.7-0.28
			c-0.21-0.21-0.32-0.48-0.32-0.81v-27.32c0-0.3,0.11-0.55,0.32-0.74c0.19-0.16,0.42-0.25,0.7-0.25c0.26,0,0.48,0.08,0.67,0.25
			c0.23,0.16,0.35,0.4,0.35,0.7v27.35C913.03,299.27,912.91,299.54,912.68,299.75z"/>
	</g>
	<g>
		<path d="M514.14,330.46l13.99,15.87c0.28,0.32,0.44,0.74,0.44,1.17v1.03c0,0.97-0.79,1.76-1.76,1.76h-23.95
			c-0.97,0-1.76-0.79-1.76-1.76v-0.29c0-0.97,0.79-1.76,1.76-1.76h12.36c1.53,0,2.34-1.82,1.3-2.95l-14.43-15.76
			c-0.3-0.33-0.46-0.75-0.46-1.19v-1.08c0-0.97,0.79-1.76,1.76-1.76h22.89c0.97,0,1.76,0.79,1.76,1.76v0.29
			c0,0.97-0.79,1.76-1.76,1.76h-10.82C513.94,327.53,513.14,329.32,514.14,330.46z"/>
		<path d="M460.02,350.32h-24.26c-0.97,0-1.76-0.79-1.76-1.76v-23.04c0-0.97,0.79-1.76,1.76-1.76h24.26c0.97,0,1.76,0.79,1.76,1.76
			v0c0,0.97-0.79,1.76-1.76,1.76h-15c-0.97,0-1.76,0.79-1.76,1.76v4.1c0,0.97,0.79,1.76,1.76,1.76h15.04c0.97,0,1.76,0.79,1.76,1.76
			l0,0c0,0.97-0.79,1.76-1.76,1.76h-15.04c-0.97,0-1.76,0.79-1.76,1.76v4.82c0,0.97,0.79,1.76,1.76,1.76h15
			c0.97,0,1.76,0.79,1.76,1.76v0C461.78,349.53,460.99,350.32,460.02,350.32z"/>
		<path d="M496.44,325.48v23.04c0,0.97-0.79,1.76-1.76,1.76h-7.03c-0.62,0-1.2-0.33-1.52-0.87l-7.82-13.23
			c-0.91-1.55-3.28-0.9-3.28,0.9v11.44c0,0.97-0.79,1.76-1.76,1.76h-4.67c-0.97,0-1.76-0.79-1.76-1.76v-23.04
			c0-0.97,0.79-1.76,1.76-1.76h7.24c0.63,0,1.21,0.33,1.52,0.87l7.64,13.03c0.91,1.55,3.29,0.91,3.29-0.89v-11.25
			c0-0.97,0.79-1.76,1.76-1.76h4.63C495.65,323.72,496.44,324.51,496.44,325.48z"/>
		<path d="M415.52,330.46l13.99,15.87c0.28,0.32,0.44,0.74,0.44,1.17v1.03c0,0.97-0.79,1.76-1.76,1.76h-23.95
			c-0.97,0-1.76-0.79-1.76-1.76v-0.29c0-0.97,0.79-1.76,1.76-1.76h12.36c1.53,0,2.34-1.82,1.3-2.95l-14.43-15.76
			c-0.3-0.33-0.46-0.75-0.46-1.19v-1.08c0-0.97,0.79-1.76,1.76-1.76h22.89c0.97,0,1.76,0.79,1.76,1.76v0.29
			c0,0.97-0.79,1.76-1.76,1.76h-10.82C415.32,327.53,414.52,329.32,415.52,330.46z"/>
		<path d="M562.26,346c0,0.77-0.05,1.43-0.16,1.98c-0.1,0.55-0.33,1-0.69,1.33c-0.35,0.34-0.88,0.58-1.57,0.74
			c-0.69,0.16-1.62,0.23-2.77,0.23h-19.24c-1.15,0-2.08-0.08-2.77-0.23c-0.69-0.16-1.22-0.4-1.57-0.74
			c-0.35-0.34-0.58-0.78-0.69-1.33c-0.1-0.55-0.16-1.21-0.16-1.98v-18c0-0.77,0.05-1.42,0.16-1.96c0.1-0.54,0.33-0.99,0.69-1.35
			c0.35-0.34,0.88-0.58,1.57-0.74c0.69-0.16,1.62-0.23,2.77-0.23h19.24c1.15,0,2.08,0.08,2.77,0.23c0.69,0.16,1.22,0.4,1.57,0.74
			c0.35,0.36,0.58,0.81,0.69,1.35c0.1,0.54,0.16,1.19,0.16,1.96V346z M541.92,345.86c0,0.34,0.07,0.57,0.2,0.7
			c0.13,0.13,0.41,0.2,0.82,0.2h9.03c0.42,0,0.69-0.07,0.82-0.2c0.13-0.13,0.2-0.37,0.2-0.7v-17.71c0-0.34-0.07-0.57-0.2-0.7
			c-0.13-0.13-0.41-0.2-0.82-0.2h-9.03c-0.42,0-0.69,0.07-0.82,0.2c-0.13,0.13-0.2,0.37-0.2,0.7V345.86z"/>
	</g>
</g>
<g id="레이어_2" class="st28">
</g>
</svg>
