<?xml version="1.0" encoding="utf-8"?>
<!-- Generator: Adobe Illustrator 29.6.1, SVG Export Plug-In . SVG Version: 9.03 Build 0)  -->
<svg version="1.1" xmlns="http://www.w3.org/2000/svg" xmlns:xlink="http://www.w3.org/1999/xlink" x="0px" y="0px"
	 viewBox="0 0 1071 800" style="enable-background:new 0 0 1071 800;" xml:space="preserve">
<style type="text/css">
	.st0{fill:#FCF6E6;}
	.st1{fill:#F2F2FC;}
	.st2{fill:#FFFFFF;}
	.st3{fill:#CECECE;}
	.st4{fill:#DADDEA;}
	.st5{fill:#EDEDF7;}
	.st6{fill:#80C9FF;}
	.st7{fill:none;}
	.st8{fill:#F7E1D2;}
	.st9{fill:#1A6ED3;}
	.st10{fill:#C0C8CE;}
	.st11{fill:#87A2BD;}
	.st12{fill:#8898A5;}
	.st13{fill:#D3DFE5;}
	.st14{fill:#E1E3E5;}
	.st15{fill:#9A9DA0;}
	.st16{fill:#A2A7AA;}
	.st17{fill:none;stroke:#000000;stroke-width:2;stroke-miterlimit:10;}
	.st18{fill:#F7E1D2;stroke:#F7E1D2;stroke-miterlimit:10;}
	.st19{fill:none;stroke:#F7E1D2;stroke-miterlimit:10;}
	.st20{fill:#8CAEC4;}
	.st21{fill:none;stroke:#C0C8CE;stroke-miterlimit:10;}
	.st22{fill:none;stroke:#000000;stroke-width:2;stroke-miterlimit:10;stroke-dasharray:14.4913,9.6609;}
	.st23{fill:none;stroke:#000000;stroke-width:2;stroke-miterlimit:10;stroke-dasharray:28.9826,9.6609,14.4913,9.6609;}
	.st24{fill:none;stroke:#000000;stroke-width:2;stroke-miterlimit:10;stroke-dasharray:30,10,15,10;}
	.st25{fill:none;stroke:#000000;stroke-width:3;stroke-miterlimit:10;}
	.st26{stroke:#000000;stroke-width:0.5;stroke-miterlimit:10;}
	.st27{stroke:#000000;stroke-width:2;stroke-miterlimit:10;}
	.st28{display:none;}
</style>
<g id="레이어_3">
	<g>
		<g>
			<rect x="400.06" y="279.06" width="67.42" height="2"/>
		</g>
		<g>
			<g>
				<polygon points="402.25,272.58 389.3,280.06 402.25,287.54 				"/>
			</g>
		</g>
	</g>
	<g>
		<g>
			<rect x="861.29" y="576.37" width="67.42" height="2"/>
		</g>
		<g>
			<g>
				<polygon points="863.48,569.89 850.52,577.37 863.48,584.85 				"/>
			</g>
		</g>
	</g>
	<g>
		<g>
			<rect x="417.17" y="463.1" class="st4" width="106.4" height="2"/>
		</g>
		<g>
			<g>
				<polygon points="419.36,456.62 406.41,464.1 419.36,471.58 				"/>
			</g>
		</g>
	</g>
	<g>
		<g>
			<path class="st4" d="M972.51,425.32c-30.52,0-55.96-22.54-60-52.94l-0.07,0l-0.12-1.54c0-0.06-0.01-0.12-0.01-0.18l-1.12-8.47
				c-3.03-22.93-5.12-46.34-6.2-69.57c-1.08-23.15-2.53-37.67-4.43-44.41c-4.64-16.4-9.43-28.94-25.05-28.94
				c-14.31,0-18.39,18.26-21.38,31.6c-0.36,1.62-0.71,3.15-1.05,4.56l-0.04,0.13c-6.37,18.72-15.95,37.96-38.61,38.73l-0.84,0.03
				l-0.1-3l0.84-0.03c20.76-0.7,29.51-18.01,35.85-36.63c0.33-1.38,0.67-2.87,1.02-4.45c3.02-13.52,7.59-33.94,24.3-33.94
				c17.69,0,23.12,14.09,27.94,31.12c2,7.06,3.44,21.38,4.54,45.09c1.08,23.15,3.16,46.47,6.18,69.32l0.93,7.01l0.04,0l0.16,1.51
				c3.13,29.75,27.68,52,57.23,52c0.2,0,0.41,0,0.61,0l3.59-0.04l0.03,3l-3.59,0.04C972.94,425.32,972.73,425.32,972.51,425.32z"/>
		</g>
		<g>
			<path d="M1003.53,407.34v2h-11.56c-4,0-7.77,1.56-10.61,4.4c-2.83,2.82-4.39,6.59-4.39,10.6c0,8.27,6.73,15,15,15h11.56v2h-11.56
				c-9.06,0-16.47-7.11-16.97-16.04c-0.02-0.32-0.03-0.64-0.03-0.96c0-0.69,0.04-1.37,0.12-2.04c0.45-3.77,2.13-7.25,4.86-9.98
				c3.21-3.21,7.48-4.98,12.02-4.98H1003.53z"/>
		</g>
		<g>
			<path class="st3" d="M996.19,439.34h-4.22c-8.27,0-15-6.73-15-15c0-4.01,1.56-7.78,4.39-10.6c2.84-2.84,6.61-4.4,10.61-4.4h4.23
				c-1.26,0.79-2.36,1.83-3.29,3.09c-2.21,2.98-3.38,7.1-3.38,11.91C989.53,431.4,991.96,436.66,996.19,439.34z"/>
			<path d="M1003.53,407.34v2c-0.32,0-0.64,0.01-0.95,0.04c0,0-0.01-0.01-0.02,0c-3.42,0.21-6.12,1.64-8.04,4.24
				c-1.96,2.64-2.99,6.34-2.99,10.72c0,8.98,4.1,14.51,11.04,14.96c0.31,0.03,0.63,0.04,0.96,0.04v2c-0.33,0-0.65-0.01-0.96-0.03
				c0,0-0.01,0-0.02,0c-0.32-0.02-0.65-0.05-0.95-0.09c-2.03-0.24-3.84-0.88-5.41-1.88c-4.23-2.68-6.66-7.94-6.66-15
				c0-4.81,1.17-8.93,3.38-11.91c0.93-1.26,2.03-2.3,3.29-3.09c1.57-1.01,3.39-1.64,5.4-1.88c0.31-0.04,0.63-0.07,0.96-0.09
				C1002.88,407.35,1003.2,407.34,1003.53,407.34z"/>
		</g>
		<g>
			<path d="M1015.6,424.34c0,0.98-0.05,1.92-0.14,2.82c-0.17,1.7-0.5,3.27-0.98,4.7c-1.78,5.36-5.63,8.72-10.95,9.36
				c-0.31,0.04-0.63,0.07-0.96,0.09c0,0-0.01,0-0.02,0c-0.31,0.02-0.63,0.03-0.95,0.03v-2c0.33,0,0.65-0.01,0.97-0.04
				c4.7-0.31,8.11-2.96,9.8-7.44c0.53-1.39,0.9-2.96,1.08-4.7c0.1-0.89,0.15-1.84,0.15-2.82c0-0.98-0.05-1.92-0.16-2.82
				c-0.19-1.71-0.56-3.29-1.1-4.69c-0.46-1.19-1.04-2.27-1.74-3.2c-1.92-2.6-4.61-4.03-8.02-4.25c0,0-0.01-0.01-0.02,0
				c-0.31-0.03-0.63-0.04-0.96-0.04v-2c0.32,0,0.65,0.01,0.96,0.03c0.33,0.02,0.66,0.05,0.97,0.09c3.61,0.44,6.58,2.13,8.68,4.98
				c0.95,1.26,1.7,2.74,2.25,4.39c0.49,1.44,0.82,3.01,1,4.69C1015.55,422.43,1015.6,423.37,1015.6,424.34z"/>
		</g>
		<g>
			<g>
				<path d="M1022.63,419.17c0,0.65-0.26,1.24-0.69,1.66c-0.42,0.43-1,0.69-1.65,0.69h-16.87c-1.3,0-2.35-1.05-2.35-2.35
					c0-0.65,0.26-1.23,0.69-1.65c0.42-0.43,1.01-0.69,1.66-0.69h16.87C1021.58,416.83,1022.63,417.88,1022.63,419.17z"/>
			</g>
			<g>
				<path class="st3" d="M1001.76,427.85c-0.43,0.42-0.69,1.01-0.69,1.66c0,1.29,1.05,2.35,2.35,2.35h8.95
					c-1.69,4.48-5.1,7.13-9.8,7.44c-6.94-0.45-11.04-5.98-11.04-14.96c0-4.38,1.03-8.08,2.99-10.72c1.92-2.6,4.62-4.03,8.04-4.24
					c0.01-0.01,0.02,0,0.02,0c3.41,0.22,6.1,1.65,8.02,4.25c0.7,0.93,1.28,2.01,1.74,3.2h-8.92c-0.65,0-1.24,0.26-1.66,0.69
					c-0.43,0.42-0.69,1-0.69,1.65c0,1.3,1.05,2.35,2.35,2.35h10.02c0.11,0.9,0.16,1.84,0.16,2.82c0,0.98-0.05,1.93-0.15,2.82h-10.03
					C1002.77,427.16,1002.18,427.42,1001.76,427.85z"/>
				<path d="M1022.63,429.51c0,0.65-0.26,1.23-0.69,1.66c-0.42,0.43-1,0.69-1.65,0.69h-16.87c-1.3,0-2.35-1.06-2.35-2.35
					c0-0.65,0.26-1.24,0.69-1.66c0.42-0.43,1.01-0.69,1.66-0.69h16.87C1021.58,427.16,1022.63,428.21,1022.63,429.51z"/>
			</g>
		</g>
	</g>
	<g>
		<g>
			<path d="M329.24,266.3c0.19-0.16,0.42-0.25,0.7-0.25s0.51,0.08,0.7,0.25c0.23,0.19,0.35,0.45,0.35,0.77v21.69
				c0,0.84-0.3,1.52-0.91,2.04c-0.61,0.54-1.37,0.81-2.29,0.81h-5.59c-0.89,0-1.61-0.25-2.14-0.74c-0.56-0.54-0.84-1.24-0.84-2.11
				v-21.52c0-0.37,0.11-0.67,0.32-0.88c0.19-0.21,0.42-0.32,0.7-0.32s0.51,0.09,0.7,0.28c0.23,0.21,0.35,0.5,0.35,0.88v8.19h7.63
				v-8.37C328.92,266.71,329.02,266.46,329.24,266.3z M321.29,277.2v11.21c0,0.52,0.12,0.88,0.35,1.09
				c0.21,0.21,0.57,0.32,1.09,0.32h4.5c0.54,0,0.95-0.12,1.23-0.35c0.3-0.21,0.46-0.56,0.46-1.05V277.2H321.29z M343.54,265.21
				c0.68,0,1.02,0.3,1.02,0.91v27.46c0,0.3-0.12,0.55-0.35,0.74c-0.19,0.19-0.41,0.28-0.67,0.28c-0.28,0-0.52-0.08-0.7-0.25
				c-0.21-0.19-0.32-0.43-0.32-0.74v-12.73h-4.96v12.66c0,0.33-0.12,0.6-0.35,0.81c-0.19,0.16-0.42,0.25-0.7,0.25
				s-0.52-0.08-0.7-0.25c-0.21-0.21-0.32-0.48-0.32-0.81v-27.42c0-0.61,0.34-0.91,1.02-0.91c0.7,0,1.05,0.3,1.05,0.91v13.04h4.96
				v-13.04C342.52,265.51,342.86,265.21,343.54,265.21z"/>
			<path d="M343.54,294.85c-0.34,0-0.63-0.1-0.87-0.31c-0.27-0.24-0.4-0.55-0.4-0.93v-12.48h-4.46v12.41c0,0.4-0.15,0.73-0.43,0.99
				c-0.48,0.41-1.27,0.41-1.74,0c-0.27-0.27-0.4-0.6-0.4-1v-27.42c0-0.75,0.45-1.16,1.27-1.16c1.13,0,1.3,0.73,1.3,1.16v12.79h4.46
				v-12.79c0-0.75,0.45-1.16,1.27-1.16s1.27,0.41,1.27,1.16v27.46c0,0.38-0.15,0.69-0.44,0.93
				C344.15,294.73,343.87,294.85,343.54,294.85z M337.32,280.64h5.46v12.98c0,0.23,0.08,0.41,0.23,0.55
				c0.26,0.23,0.72,0.28,1.03-0.03c0.2-0.16,0.28-0.33,0.28-0.56v-27.46c0-0.33-0.09-0.66-0.77-0.66c-0.68,0-0.77,0.32-0.77,0.66
				v13.29h-5.46v-13.29c0-0.33-0.1-0.66-0.8-0.66c-0.68,0-0.77,0.32-0.77,0.66v27.42c0,0.26,0.08,0.47,0.24,0.63
				c0.26,0.22,0.78,0.24,1.07-0.01c0.18-0.16,0.27-0.36,0.27-0.62V280.64z M327.79,291.86h-5.59c-0.95,0-1.73-0.27-2.31-0.8
				c-0.62-0.59-0.92-1.36-0.92-2.29v-21.52c0-0.44,0.13-0.8,0.39-1.06c0.45-0.5,1.28-0.51,1.76-0.04c0.28,0.25,0.42,0.61,0.42,1.06
				v7.94h7.13v-8.12c0-0.4,0.14-0.72,0.41-0.93c0.47-0.4,1.26-0.4,1.73,0c0.29,0.23,0.44,0.56,0.44,0.96v21.69
				c0,0.92-0.34,1.67-1,2.23C329.59,291.57,328.77,291.86,327.79,291.86z M320.24,266.3c-0.21,0-0.38,0.07-0.52,0.23
				c-0.17,0.17-0.25,0.4-0.25,0.71v21.52c0,0.8,0.25,1.43,0.77,1.93c0.49,0.45,1.14,0.67,1.97,0.67h5.59c0.86,0,1.55-0.24,2.12-0.75
				c0.56-0.47,0.83-1.08,0.83-1.85v-21.69c0-0.25-0.08-0.44-0.26-0.58c-0.3-0.26-0.8-0.25-1.08-0.01l-0.01,0.01
				c-0.15,0.12-0.22,0.29-0.22,0.54v8.62h-8.13v-8.44c0-0.3-0.09-0.53-0.27-0.69C320.62,266.37,320.45,266.3,320.24,266.3z
				 M327.23,290.07h-4.5c-0.59,0-1-0.13-1.27-0.39c-0.28-0.25-0.42-0.68-0.42-1.27v-11.46h8.13v11.46c0,0.58-0.19,1-0.56,1.26
				C328.3,289.93,327.83,290.07,327.23,290.07z M321.54,277.45v10.96c0,0.44,0.09,0.74,0.27,0.9c0.17,0.17,0.48,0.25,0.92,0.25h4.5
				c0.48,0,0.84-0.1,1.07-0.29c0.25-0.18,0.37-0.45,0.37-0.86v-10.96H321.54z"/>
		</g>
		<g>
			<path d="M366.66,267.18c0.66,0.59,0.98,1.39,0.98,2.43v4.15c0,5.39-1.42,9.66-4.25,12.8c-2.62,2.93-6.09,4.54-10.41,4.82
				c-0.66,0.05-1.01-0.23-1.05-0.84c-0.05-0.59,0.26-0.9,0.91-0.95c4.03-0.42,7.12-1.89,9.28-4.39c2.34-2.72,3.52-6.55,3.52-11.5
				v-4.11c0-0.49-0.14-0.87-0.42-1.12c-0.3-0.26-0.73-0.39-1.27-0.39h-10.44c-0.66,0-0.98-0.3-0.98-0.91
				c-0.02-0.59,0.29-0.88,0.95-0.88h10.41C365.06,266.26,365.98,266.57,366.66,267.18z M377.21,294.32
				c-0.19,0.19-0.42,0.28-0.7,0.28c-0.3,0-0.55-0.09-0.74-0.28c-0.21-0.21-0.32-0.48-0.32-0.81v-27.35c0-0.3,0.11-0.55,0.32-0.74
				c0.19-0.14,0.43-0.21,0.74-0.21c0.28,0,0.51,0.07,0.7,0.21c0.23,0.19,0.35,0.43,0.35,0.74v27.35
				C377.56,293.84,377.44,294.11,377.21,294.32z"/>
			<path d="M376.51,294.85c-0.37,0-0.68-0.12-0.92-0.35c-0.26-0.26-0.39-0.59-0.39-0.99v-27.35c0-0.38,0.13-0.69,0.4-0.92
				c0.25-0.19,0.55-0.27,0.9-0.27c0.33,0,0.62,0.09,0.85,0.26c0.3,0.24,0.45,0.56,0.45,0.94v27.35c0,0.4-0.14,0.73-0.43,0.99
				C377.15,294.73,376.85,294.85,376.51,294.85z M376.51,265.46c-0.25,0-0.45,0.05-0.59,0.16c-0.14,0.13-0.22,0.31-0.22,0.54v27.35
				c0,0.26,0.08,0.47,0.24,0.63c0.27,0.27,0.79,0.3,1.09,0l0.01-0.01c0.18-0.16,0.27-0.37,0.27-0.62v-27.35
				c0-0.23-0.08-0.4-0.26-0.54C376.92,265.51,376.73,265.46,376.51,265.46z M352.85,291.62c-0.7,0-1.11-0.38-1.17-1.08
				c-0.03-0.34,0.05-0.62,0.23-0.83c0.2-0.23,0.5-0.36,0.92-0.39c3.94-0.41,7.01-1.86,9.11-4.31c2.29-2.66,3.46-6.47,3.46-11.33
				v-4.11c0-0.42-0.11-0.73-0.34-0.94c-0.25-0.21-0.62-0.32-1.1-0.32h-10.44c-0.8,0-1.23-0.41-1.23-1.16
				c-0.01-0.34,0.08-0.61,0.26-0.81c0.21-0.21,0.52-0.32,0.94-0.32h10.41c1.23,0,2.22,0.33,2.94,0.98l0,0
				c0.71,0.63,1.07,1.51,1.07,2.61v4.15c0,5.43-1.45,9.79-4.32,12.96c-2.66,2.97-6.21,4.61-10.58,4.9
				C352.95,291.62,352.9,291.62,352.85,291.62z M353.48,266.51c-0.27,0-0.47,0.06-0.58,0.17c-0.09,0.09-0.13,0.25-0.12,0.45
				c0,0.48,0.21,0.67,0.73,0.67h10.44c0.6,0,1.08,0.15,1.43,0.45c0.34,0.31,0.51,0.75,0.51,1.32v4.11c0,4.98-1.2,8.91-3.58,11.66
				c-2.19,2.55-5.37,4.05-9.44,4.48c-0.29,0.02-0.48,0.09-0.58,0.22c-0.09,0.1-0.12,0.26-0.11,0.46c0.04,0.48,0.25,0.65,0.79,0.61
				c4.23-0.28,7.67-1.87,10.24-4.73c2.78-3.08,4.19-7.33,4.19-12.63v-4.15c0-0.96-0.29-1.7-0.9-2.24v0
				c-0.63-0.56-1.51-0.85-2.61-0.85H353.48z"/>
		</g>
	</g>
	<g>
		<g>
			<path d="M157.58,451.18c0,0.61-0.29,0.91-0.88,0.91h-6.96v1.83c0,2.72,0.88,5.13,2.64,7.24c1.34,1.62,3.21,3.07,5.62,4.36
				c0.3,0.16,0.49,0.39,0.56,0.67s0.04,0.54-0.11,0.77c-0.16,0.26-0.38,0.42-0.63,0.49c-0.33,0.09-0.66,0.05-0.98-0.14
				c-1.95-1.05-3.67-2.37-5.17-3.94c-1.57-1.64-2.57-3.25-2.99-4.82c-0.52,1.73-1.54,3.42-3.06,5.06c-1.52,1.69-3.28,3.04-5.27,4.04
				c-0.28,0.14-0.56,0.16-0.84,0.07c-0.23-0.07-0.42-0.22-0.56-0.46c-0.14-0.23-0.18-0.47-0.11-0.7c0.07-0.26,0.26-0.47,0.56-0.63
				c2.39-1.24,4.29-2.77,5.7-4.57c1.71-2.18,2.57-4.64,2.57-7.38v-1.9h-6.96c-0.66,0-0.97-0.3-0.95-0.91c0-0.59,0.33-0.88,0.98-0.88
				h15.96C157.29,450.3,157.58,450.59,157.58,451.18z M143.69,474.38c0,0.63,0.12,1.07,0.35,1.3c0.23,0.21,0.69,0.32,1.37,0.32
				h18.95c0.59,0,0.88,0.29,0.88,0.88c0,0.61-0.29,0.91-0.88,0.91h-19.3c-1.05,0-1.89-0.26-2.5-0.77c-0.66-0.54-0.98-1.32-0.98-2.36
				v-4.68c0-0.37,0.11-0.67,0.32-0.88c0.19-0.19,0.43-0.28,0.74-0.28c0.28,0,0.52,0.09,0.7,0.28c0.23,0.21,0.35,0.5,0.35,0.88
				V474.38z M163.84,470.41c-0.19,0.19-0.42,0.28-0.7,0.28c-0.3,0-0.55-0.09-0.74-0.28c-0.21-0.21-0.32-0.49-0.32-0.84v-19.34
				c0-0.3,0.11-0.55,0.32-0.74c0.19-0.16,0.43-0.25,0.74-0.25c0.28,0,0.52,0.08,0.7,0.25c0.23,0.16,0.35,0.4,0.35,0.7v19.37
				C164.19,469.92,164.07,470.2,163.84,470.41z"/>
			<path d="M164.37,478.04h-19.3c-1.11,0-2-0.28-2.66-0.83c-0.71-0.58-1.07-1.44-1.07-2.55v-4.68c0-0.44,0.13-0.8,0.39-1.06
				c0.24-0.24,0.54-0.35,0.92-0.35c0.35,0,0.64,0.12,0.88,0.35c0.28,0.25,0.42,0.61,0.42,1.06v4.39c0,0.7,0.15,1,0.28,1.12
				c0.12,0.11,0.43,0.24,1.19,0.24h18.95c0.73,0,1.13,0.4,1.13,1.13C165.49,477.63,165.09,478.04,164.37,478.04z M142.64,469.08
				c-0.24,0-0.42,0.07-0.56,0.21c-0.16,0.16-0.24,0.39-0.24,0.7v4.68c0,0.96,0.29,1.67,0.89,2.16c0.56,0.48,1.35,0.72,2.34,0.72
				h19.3c0.45,0,0.63-0.19,0.63-0.66c0-0.45-0.18-0.63-0.63-0.63h-18.95c-0.75,0-1.25-0.12-1.54-0.38c-0.3-0.29-0.43-0.78-0.43-1.49
				v-4.39c0-0.3-0.09-0.53-0.27-0.69C143.03,469.15,142.85,469.08,142.64,469.08z M163.13,470.94c-0.37,0-0.68-0.12-0.92-0.35
				c-0.26-0.26-0.39-0.6-0.39-1.02v-19.34c0-0.38,0.13-0.69,0.4-0.92c0.24-0.21,0.54-0.31,0.9-0.31c0.34,0,0.63,0.1,0.87,0.31
				c0.28,0.19,0.44,0.51,0.44,0.89v19.37c0,0.42-0.14,0.77-0.43,1.02C163.78,470.82,163.48,470.94,163.13,470.94z M163.13,449.5
				c-0.24,0-0.43,0.06-0.57,0.18c-0.15,0.14-0.23,0.32-0.23,0.55v19.34c0,0.28,0.08,0.5,0.24,0.67c0.26,0.27,0.79,0.29,1.09,0
				l0.01-0.01c0.18-0.16,0.27-0.38,0.27-0.66v-19.37c0-0.22-0.08-0.38-0.25-0.5C163.53,449.56,163.36,449.5,163.13,449.5z
				 M139.85,468.04c-0.14,0-0.28-0.02-0.42-0.07c-0.29-0.09-0.52-0.28-0.7-0.57c-0.18-0.3-0.22-0.6-0.13-0.9
				c0.09-0.32,0.32-0.58,0.68-0.78c2.35-1.22,4.24-2.74,5.62-4.5c1.67-2.12,2.51-4.56,2.51-7.23v-1.65h-6.71
				c-0.41,0-0.72-0.11-0.93-0.32c-0.19-0.2-0.29-0.49-0.27-0.85c0-0.72,0.44-1.12,1.23-1.12h15.96c0.73,0,1.13,0.4,1.13,1.13
				c0,0.75-0.4,1.16-1.13,1.16h-6.71v1.58c0,2.65,0.87,5.03,2.58,7.08c1.31,1.59,3.18,3.03,5.55,4.3c0.37,0.2,0.6,0.48,0.69,0.83
				c0.09,0.35,0.04,0.67-0.13,0.96c-0.2,0.32-0.46,0.52-0.78,0.6c-0.39,0.11-0.79,0.06-1.17-0.17c-1.95-1.06-3.71-2.4-5.22-3.98
				c-1.35-1.41-2.29-2.82-2.81-4.19c-0.58,1.51-1.54,3-2.87,4.44c-1.54,1.7-3.33,3.08-5.34,4.1
				C140.26,467.99,140.05,468.04,139.85,468.04z M140.74,450.55c-0.65,0-0.73,0.3-0.73,0.63c-0.01,0.23,0.04,0.39,0.13,0.5
				c0.11,0.11,0.3,0.17,0.57,0.17h7.21v2.15c0,2.79-0.88,5.32-2.62,7.54c-1.42,1.82-3.36,3.38-5.78,4.64
				c-0.24,0.13-0.38,0.29-0.44,0.48c-0.05,0.17-0.03,0.34,0.08,0.51c0.11,0.18,0.25,0.29,0.42,0.35c0.22,0.07,0.44,0.06,0.66-0.05
				c1.95-0.99,3.7-2.33,5.2-3.99c1.49-1.61,2.5-3.28,3-4.97l0.25-0.85l0.23,0.85c0.41,1.52,1.39,3.11,2.93,4.71
				c1.48,1.54,3.19,2.85,5.11,3.89c0.27,0.16,0.53,0.19,0.8,0.12c0.2-0.05,0.36-0.18,0.49-0.39c0.1-0.17,0.13-0.36,0.07-0.58
				c-0.05-0.21-0.2-0.38-0.44-0.51c-2.43-1.3-4.35-2.78-5.7-4.42c-1.79-2.15-2.69-4.64-2.69-7.4v-2.08h7.21
				c0.45,0,0.63-0.19,0.63-0.66c0-0.45-0.18-0.63-0.63-0.63H140.74z"/>
		</g>
		<g>
			<path d="M185.09,455.75c0.7,0,1.05,0.3,1.05,0.91v6.36h14.27c0.7,0,1.05,0.28,1.05,0.84c-0.02,0.59-0.38,0.88-1.05,0.88h-27.28
				c-0.7,0-1.05-0.29-1.05-0.88c0-0.56,0.35-0.84,1.05-0.84h10.93v-6.36C184.07,456.05,184.41,455.75,185.09,455.75z M197.57,450.65
				c0.73,0.61,1.09,1.46,1.09,2.57v1.72c0,1.24-0.08,2.2-0.25,2.88c-0.19,0.75-0.54,1.51-1.05,2.29c-0.19,0.23-0.43,0.36-0.74,0.39
				c-0.26,0.02-0.49-0.05-0.7-0.21c-0.23-0.16-0.39-0.36-0.46-0.6c-0.07-0.28,0-0.55,0.21-0.81c0.35-0.56,0.59-1.16,0.7-1.79
				c0.12-0.52,0.18-1.25,0.18-2.21v-1.48c0-0.56-0.2-1.01-0.6-1.34c-0.38-0.3-0.89-0.46-1.55-0.46h-18.98
				c-0.63,0-0.95-0.3-0.95-0.91c0-0.61,0.32-0.91,0.95-0.91h19.3C195.92,449.77,196.87,450.07,197.57,450.65z M196.17,469.88
				c1.92,0.87,2.88,2.1,2.88,3.69c0,1.55-0.96,2.77-2.88,3.66c-2.11,0.98-5.24,1.48-9.39,1.48c-4.17,0-7.31-0.49-9.42-1.48
				c-1.9-0.89-2.85-2.11-2.85-3.66c0-1.57,0.95-2.8,2.85-3.69c2.11-0.98,5.25-1.48,9.42-1.48S194.08,468.9,196.17,469.88z
				 M178.87,471.08c-1.55,0.56-2.32,1.39-2.32,2.5c0,1.05,0.77,1.85,2.32,2.39c1.71,0.63,4.35,0.95,7.91,0.95
				c3.54,0,6.16-0.32,7.88-0.95c1.57-0.54,2.36-1.34,2.36-2.39c0-1.1-0.79-1.93-2.36-2.5c-1.71-0.61-4.34-0.91-7.88-0.91
				C183.22,470.16,180.58,470.47,178.87,471.08z"/>
			<path d="M186.78,478.96c-4.19,0-7.39-0.5-9.53-1.5c-1.99-0.93-2.99-2.24-2.99-3.88c0-1.67,1.01-2.99,2.99-3.92
				c2.13-1,5.34-1.5,9.53-1.5c4.19,0,7.38,0.5,9.49,1.5c2.01,0.91,3.03,2.23,3.03,3.92c0,1.65-1.02,2.95-3.03,3.88
				C194.14,478.45,190.95,478.96,186.78,478.96z M186.78,468.66c-4.12,0-7.25,0.49-9.32,1.45c-1.82,0.85-2.7,1.99-2.7,3.46
				c0,1.45,0.88,2.58,2.7,3.43c2.07,0.96,5.2,1.45,9.32,1.45c4.09,0,7.21-0.49,9.28-1.45c1.84-0.85,2.74-1.98,2.74-3.43
				c0-1.5-0.89-2.63-2.74-3.46l0,0C194.02,469.14,190.9,468.66,186.78,468.66z M186.78,477.16c-3.58,0-6.27-0.32-8-0.96
				c-1.65-0.57-2.48-1.46-2.48-2.62c0-1.21,0.84-2.13,2.49-2.73l0,0c1.73-0.62,4.42-0.93,7.99-0.93c3.55,0,6.23,0.31,7.96,0.93
				c1.67,0.6,2.52,1.52,2.52,2.73c0,1.17-0.85,2.05-2.52,2.63C193.01,476.84,190.33,477.16,186.78,477.16z M178.96,471.31
				c-1.45,0.53-2.16,1.27-2.16,2.26c0,0.94,0.7,1.65,2.15,2.15c1.68,0.62,4.31,0.94,7.83,0.94c3.49,0,6.11-0.31,7.79-0.93
				c1.48-0.51,2.19-1.21,2.19-2.16c0-0.99-0.72-1.73-2.19-2.26c-1.68-0.6-4.3-0.9-7.79-0.9
				C183.26,470.41,180.63,470.72,178.96,471.31z M200.42,465h-27.28c-1.13,0-1.3-0.71-1.3-1.13c0-0.41,0.17-1.09,1.3-1.09h10.68
				v-6.11c0-0.75,0.45-1.16,1.27-1.16c1.13,0,1.3,0.73,1.3,1.16v6.11h14.02c1.13,0,1.3,0.69,1.3,1.09
				C201.71,464.3,201.52,465,200.42,465z M173.14,463.28c-0.71,0-0.8,0.3-0.8,0.59c0,0.31,0.1,0.63,0.8,0.63h27.28
				c0.69,0,0.79-0.32,0.8-0.64c0-0.28-0.1-0.58-0.8-0.58H185.9v-6.61c0-0.33-0.1-0.66-0.8-0.66c-0.68,0-0.77,0.34-0.77,0.66v6.61
				H173.14z M196.53,460.75c-0.27,0-0.53-0.09-0.76-0.27c-0.27-0.19-0.46-0.43-0.54-0.72c-0.09-0.37-0.01-0.72,0.26-1.04
				c0.31-0.51,0.54-1.08,0.65-1.68c0.12-0.5,0.17-1.23,0.17-2.17v-1.48c0-0.49-0.17-0.86-0.51-1.14c-0.33-0.27-0.79-0.4-1.39-0.4
				h-18.98c-0.77,0-1.2-0.41-1.2-1.16s0.43-1.16,1.2-1.16h19.3c1.25,0,2.26,0.31,3.01,0.94l0,0c0.78,0.66,1.18,1.58,1.18,2.76v1.72
				c0,1.26-0.08,2.25-0.25,2.94c-0.19,0.78-0.56,1.57-1.09,2.37c-0.25,0.31-0.55,0.47-0.93,0.5
				C196.6,460.75,196.57,460.75,196.53,460.75z M175.43,450.02c-0.5,0-0.7,0.19-0.7,0.66s0.2,0.66,0.7,0.66h18.98
				c0.71,0,1.29,0.17,1.7,0.51c0.46,0.38,0.69,0.89,0.69,1.53v1.48c0,0.98-0.06,1.74-0.18,2.27c-0.12,0.65-0.37,1.28-0.74,1.87
				c-0.18,0.22-0.23,0.41-0.18,0.62c0.05,0.17,0.17,0.32,0.36,0.45c0.17,0.13,0.34,0.19,0.54,0.17c0.24-0.02,0.42-0.11,0.57-0.29
				c0.48-0.73,0.83-1.47,1.01-2.19c0.16-0.66,0.24-1.61,0.24-2.82v-1.72c0-1.03-0.33-1.81-1-2.37l0,0
				c-0.65-0.54-1.56-0.82-2.69-0.82H175.43z"/>
		</g>
		<g>
			<path d="M225.4,454.87c0,0.61-0.29,0.91-0.88,0.91h-6.96v0.74c0,1.92,0.67,3.53,2,4.82c1.36,1.29,3.32,2.19,5.87,2.71
				c0.33,0.07,0.56,0.23,0.7,0.49c0.14,0.26,0.16,0.52,0.07,0.77c-0.07,0.28-0.23,0.49-0.49,0.63c-0.28,0.16-0.6,0.21-0.95,0.14
				c-2.2-0.56-4.05-1.38-5.55-2.46c-1.34-0.96-2.24-2-2.71-3.13c-0.49,1.2-1.34,2.27-2.53,3.23c-1.48,1.17-3.41,2.1-5.8,2.78
				c-0.3,0.07-0.57,0.02-0.81-0.14c-0.23-0.14-0.4-0.34-0.49-0.6c-0.09-0.26-0.09-0.5,0-0.74c0.09-0.23,0.3-0.39,0.63-0.46
				c2.55-0.59,4.54-1.59,5.94-3.02c1.36-1.38,2.04-3.05,2.04-4.99v-0.77h-6.96c-0.66,0-0.97-0.3-0.95-0.91
				c0-0.61,0.33-0.91,0.98-0.91h15.96C225.11,453.96,225.4,454.26,225.4,454.87z M229.48,469.57c1.85,0.94,2.78,2.21,2.78,3.83
				c0,1.55-0.93,2.79-2.78,3.73c-2.02,1.05-4.95,1.58-8.79,1.58s-6.79-0.53-8.82-1.58c-1.83-0.94-2.74-2.18-2.74-3.73
				c0-1.62,0.91-2.89,2.74-3.83c2.04-1.05,4.98-1.58,8.82-1.58S227.47,468.51,229.48,469.57z M221.96,450.72
				c0.02,0.61-0.25,0.91-0.81,0.91h-9.14c-0.68,0-1.02-0.3-1.02-0.91c0-0.61,0.34-0.91,1.02-0.91h9
				C221.62,449.81,221.94,450.11,221.96,450.72z M213.42,470.8c-1.5,0.63-2.25,1.5-2.25,2.6c0,1.05,0.75,1.89,2.25,2.5
				c1.64,0.68,4.07,1.02,7.28,1.02c3.19,0,5.6-0.34,7.24-1.02c1.52-0.61,2.29-1.44,2.29-2.5c0-1.1-0.76-1.97-2.29-2.6
				c-1.64-0.66-4.05-0.98-7.24-0.98C217.48,469.81,215.06,470.14,213.42,470.8z M231.66,467.14c-0.19,0.19-0.42,0.28-0.7,0.28
				c-0.3,0-0.55-0.09-0.74-0.28c-0.21-0.19-0.32-0.44-0.32-0.77v-5.66h-5.41c-0.38,0-0.67-0.09-0.88-0.28
				c-0.21-0.19-0.32-0.4-0.32-0.63c-0.02-0.23,0.05-0.44,0.21-0.63c0.16-0.16,0.41-0.25,0.74-0.25h5.66v-8.69
				c0-0.3,0.11-0.55,0.32-0.74c0.19-0.16,0.43-0.25,0.74-0.25c0.28,0,0.52,0.08,0.7,0.25c0.23,0.16,0.35,0.4,0.35,0.7v16.18
				C232.01,466.7,231.9,466.95,231.66,467.14z"/>
			<path d="M220.69,478.96c-3.87,0-6.87-0.54-8.94-1.61c-1.91-0.98-2.88-2.31-2.88-3.95c0-1.71,0.97-3.08,2.88-4.05
				c2.06-1.07,5.07-1.61,8.94-1.61c3.87,0,6.86,0.54,8.9,1.61c1.93,0.98,2.91,2.34,2.91,4.05c0,1.64-0.98,2.97-2.91,3.95
				C227.56,478.41,224.56,478.96,220.69,478.96z M220.69,468.23c-3.79,0-6.72,0.52-8.71,1.55c-1.75,0.9-2.61,2.08-2.61,3.61
				c0,1.46,0.85,2.6,2.61,3.5c1.99,1.03,4.92,1.55,8.71,1.55s6.7-0.52,8.67-1.55c1.78-0.9,2.64-2.05,2.64-3.5
				c0-1.53-0.86-2.71-2.64-3.61l0,0C227.4,468.76,224.48,468.23,220.69,468.23z M220.69,477.16c-3.23,0-5.71-0.35-7.37-1.04
				c-1.59-0.65-2.4-1.57-2.4-2.73c0-1.21,0.81-2.16,2.4-2.83l0,0c1.66-0.67,4.14-1,7.37-1c3.2,0,5.67,0.34,7.33,1
				c1.62,0.67,2.44,1.63,2.44,2.83c0,1.16-0.82,2.08-2.44,2.73C226.37,476.81,223.9,477.16,220.69,477.16z M213.51,471.03
				c-1.41,0.6-2.09,1.37-2.09,2.37c0,0.95,0.68,1.69,2.09,2.26c1.6,0.66,4.02,1,7.18,1c3.14,0,5.54-0.34,7.15-1
				c1.43-0.57,2.13-1.31,2.13-2.27c0-1-0.7-1.77-2.13-2.37c-1.6-0.64-4.01-0.97-7.15-0.97
				C217.53,470.06,215.12,470.39,213.51,471.03z M230.96,467.67c-0.37,0-0.68-0.12-0.92-0.35c-0.25-0.23-0.39-0.55-0.39-0.95v-5.41
				h-5.16c-0.44,0-0.79-0.12-1.04-0.34c-0.27-0.24-0.4-0.51-0.4-0.82c-0.03-0.28,0.06-0.56,0.27-0.8c0.22-0.22,0.53-0.33,0.93-0.33
				h5.41v-8.44c0-0.38,0.13-0.69,0.4-0.92c0.24-0.21,0.54-0.31,0.9-0.31c0.34,0,0.63,0.1,0.87,0.31c0.28,0.19,0.44,0.51,0.44,0.89
				v16.18c0,0.4-0.15,0.72-0.43,0.96C231.6,467.56,231.3,467.67,230.96,467.67z M224.24,459.16c-0.26,0-0.45,0.06-0.56,0.17
				c-0.11,0.12-0.16,0.26-0.14,0.43c0,0.19,0.08,0.33,0.23,0.47c0.17,0.15,0.4,0.22,0.71,0.22h5.66v5.91c0,0.26,0.08,0.45,0.23,0.59
				c0.15,0.15,0.33,0.22,0.57,0.22c0.21,0,0.39-0.07,0.53-0.21l0.02-0.02c0.17-0.14,0.26-0.33,0.26-0.58v-16.18
				c0-0.22-0.08-0.38-0.25-0.5c-0.34-0.3-0.86-0.25-1.13-0.02c-0.15,0.14-0.23,0.32-0.23,0.55v8.94H224.24z M207.91,466.79
				c-0.25,0-0.48-0.07-0.68-0.22c-0.27-0.16-0.47-0.41-0.58-0.72c-0.11-0.32-0.11-0.62,0-0.92c0.13-0.32,0.4-0.52,0.81-0.61
				c2.49-0.57,4.45-1.56,5.82-2.95c1.31-1.33,1.97-2.95,1.97-4.82v-0.52h-6.71c-0.41,0-0.72-0.11-0.93-0.32
				c-0.19-0.2-0.29-0.49-0.27-0.85c0-0.74,0.44-1.15,1.23-1.15h15.96c0.73,0,1.13,0.41,1.13,1.16s-0.4,1.16-1.13,1.16h-6.71v0.49
				c0,1.84,0.65,3.4,1.93,4.64c1.32,1.25,3.25,2.14,5.75,2.64c0.4,0.09,0.7,0.29,0.87,0.62c0.18,0.32,0.2,0.65,0.09,0.98
				c-0.08,0.33-0.29,0.59-0.61,0.77c-0.33,0.19-0.71,0.25-1.12,0.17c-2.24-0.57-4.13-1.41-5.65-2.5c-1.17-0.84-2.03-1.76-2.56-2.74
				c-0.52,1.04-1.32,1.99-2.38,2.84c-1.5,1.19-3.48,2.14-5.89,2.82C208.13,466.77,208.02,466.79,207.91,466.79z M208.56,454.21
				c-0.52,0-0.73,0.19-0.73,0.66c-0.01,0.23,0.04,0.39,0.13,0.5c0.11,0.11,0.3,0.17,0.57,0.17h7.21v1.02c0,2-0.71,3.74-2.11,5.17
				c-1.43,1.46-3.47,2.5-6.06,3.09c-0.37,0.08-0.43,0.25-0.46,0.31c-0.07,0.18-0.07,0.36,0,0.56c0.07,0.2,0.2,0.36,0.39,0.47
				c0.19,0.13,0.39,0.17,0.62,0.11c2.34-0.66,4.26-1.58,5.7-2.73c1.16-0.93,1.98-1.98,2.46-3.13l0.23-0.56l0.23,0.56
				c0.45,1.08,1.33,2.09,2.62,3.02c1.47,1.05,3.31,1.87,5.47,2.42c0.28,0.06,0.53,0.02,0.76-0.11c0.2-0.11,0.32-0.27,0.38-0.48
				c0.08-0.22,0.06-0.4-0.05-0.59c-0.1-0.19-0.28-0.31-0.54-0.37c-2.59-0.52-4.6-1.45-5.99-2.77c-1.38-1.33-2.08-3.01-2.08-5v-0.99
				h7.21c0.45,0,0.63-0.19,0.63-0.66s-0.18-0.66-0.63-0.66H208.56z M221.15,451.89h-9.14c-0.82,0-1.27-0.41-1.27-1.16
				s0.45-1.16,1.27-1.16h9c0.74,0,1.17,0.41,1.2,1.15c0.01,0.39-0.08,0.68-0.27,0.89C221.75,451.79,221.49,451.89,221.15,451.89z
				 M212.01,450.06c-0.68,0-0.77,0.34-0.77,0.66c0,0.34,0.09,0.66,0.77,0.66h9.14c0.2,0,0.34-0.04,0.43-0.13
				c0.1-0.1,0.14-0.28,0.13-0.52l0,0c-0.02-0.47-0.23-0.67-0.7-0.67H212.01z"/>
		</g>
		<g>
			<path d="M253.9,466.44c0.19-0.16,0.42-0.23,0.7-0.21c0.26,0,0.48,0.09,0.67,0.28c0.23,0.19,0.35,0.45,0.35,0.77v7.14h12.62
				c0.33,0,0.58,0.08,0.77,0.25c0.19,0.19,0.28,0.4,0.28,0.63c0,0.23-0.09,0.45-0.28,0.63c-0.19,0.19-0.43,0.28-0.74,0.28h-27.6
				c-0.26,0-0.46-0.09-0.6-0.28c-0.14-0.19-0.2-0.4-0.18-0.63c0.02-0.23,0.12-0.44,0.28-0.63c0.19-0.16,0.44-0.25,0.77-0.25h12.62
				v-7.28C253.59,466.84,253.69,466.6,253.9,466.44z M253.9,449.88c0.19-0.19,0.42-0.28,0.7-0.28c0.26,0,0.48,0.09,0.67,0.28
				c0.23,0.23,0.35,0.54,0.35,0.91c0,3.61,1.21,6.67,3.62,9.18c2.11,2.18,4.7,3.59,7.77,4.22c0.35,0.07,0.62,0.22,0.81,0.46
				c0.16,0.21,0.21,0.45,0.14,0.7c-0.05,0.26-0.19,0.46-0.42,0.6c-0.28,0.14-0.62,0.18-1.02,0.11c-2.72-0.56-5.23-1.9-7.52-4.01
				c-2.18-2.02-3.64-4.2-4.39-6.54c-0.7,2.37-2.17,4.55-4.39,6.54c-2.32,2.13-4.9,3.48-7.73,4.04c-0.35,0.05-0.65,0-0.88-0.14
				c-0.21-0.14-0.34-0.33-0.39-0.56c-0.02-0.26,0.05-0.48,0.21-0.67c0.16-0.23,0.43-0.39,0.81-0.46c2.91-0.59,5.44-1.99,7.59-4.22
				c2.51-2.58,3.76-5.68,3.76-9.32C253.59,450.37,253.69,450.09,253.9,449.88z"/>
			<path d="M268.28,476.46h-27.6c-0.33,0-0.61-0.13-0.8-0.38c-0.18-0.24-0.25-0.51-0.22-0.81c0.03-0.28,0.14-0.54,0.34-0.77
				c0.26-0.23,0.57-0.33,0.96-0.33h12.37v-7.03c0-0.38,0.14-0.69,0.41-0.9c0.24-0.21,0.53-0.29,0.88-0.27c0,0,0,0,0,0
				c0.3,0,0.59,0.12,0.82,0.35c0.28,0.22,0.42,0.55,0.42,0.95v6.89h12.37c0.39,0,0.7,0.1,0.94,0.31c0.25,0.25,0.37,0.52,0.37,0.82
				c0,0.3-0.12,0.57-0.35,0.81C268.96,476.34,268.65,476.46,268.28,476.46z M240.96,474.67c-0.27,0-0.47,0.06-0.61,0.18
				c-0.11,0.13-0.18,0.29-0.2,0.47c-0.02,0.17,0.02,0.32,0.13,0.46c0.09,0.13,0.22,0.18,0.4,0.18h27.6c0.24,0,0.42-0.07,0.56-0.21
				c0.14-0.14,0.21-0.29,0.21-0.46c0-0.17-0.07-0.32-0.21-0.46c-0.13-0.11-0.33-0.17-0.6-0.17h-12.87v-7.39
				c0-0.25-0.08-0.44-0.26-0.58c-0.16-0.16-0.32-0.23-0.51-0.23c-0.23-0.02-0.4,0.03-0.54,0.15l-0.01,0.01
				c-0.15,0.12-0.22,0.28-0.22,0.51v7.53H240.96z M242.22,466.35c-0.29,0-0.54-0.06-0.75-0.19c-0.28-0.18-0.44-0.43-0.5-0.73
				c-0.03-0.35,0.06-0.64,0.27-0.88c0.18-0.27,0.51-0.46,0.95-0.54c2.84-0.57,5.35-1.97,7.46-4.15c2.45-2.52,3.69-5.59,3.69-9.14
				c0-0.42,0.13-0.76,0.39-1.02c0.46-0.45,1.24-0.49,1.72,0c0.28,0.28,0.42,0.65,0.42,1.09c0,3.53,1.19,6.55,3.55,9
				c2.06,2.13,4.63,3.53,7.64,4.15c0.41,0.08,0.73,0.26,0.95,0.54c0.21,0.28,0.28,0.59,0.19,0.93c-0.06,0.31-0.24,0.57-0.53,0.75
				c-0.35,0.17-0.74,0.22-1.19,0.14c-2.76-0.57-5.33-1.94-7.65-4.07c-1.99-1.84-3.4-3.83-4.22-5.95c-0.78,2.14-2.21,4.14-4.24,5.95
				c-2.34,2.15-4.98,3.53-7.85,4.1C242.42,466.34,242.32,466.35,242.22,466.35z M254.61,449.85c-0.21,0-0.39,0.07-0.53,0.21
				c-0.16,0.16-0.24,0.38-0.24,0.67c0,3.68-1.29,6.88-3.83,9.49c-2.18,2.25-4.78,3.7-7.72,4.29c-0.31,0.06-0.53,0.18-0.65,0.35
				c-0.14,0.16-0.18,0.31-0.17,0.5c0.03,0.14,0.12,0.27,0.28,0.38c0.17,0.1,0.41,0.14,0.71,0.1c2.76-0.55,5.32-1.89,7.6-3.98
				c2.18-1.95,3.64-4.11,4.32-6.43l0.23-0.78l0.25,0.77c0.73,2.29,2.19,4.46,4.33,6.43c2.25,2.07,4.74,3.4,7.4,3.95
				c0.33,0.06,0.62,0.03,0.86-0.08c0.16-0.09,0.25-0.23,0.29-0.42c0.05-0.2,0.02-0.35-0.09-0.5c-0.15-0.19-0.37-0.31-0.66-0.36
				c-3.11-0.64-5.76-2.08-7.9-4.29c-2.45-2.54-3.69-5.69-3.69-9.35c0-0.31-0.09-0.55-0.28-0.74
				C254.95,449.91,254.8,449.85,254.61,449.85z"/>
		</g>
		<g>
			<path d="M288.94,451.21c0.66,0.59,0.98,1.39,0.98,2.43v4.15c0,5.39-1.42,9.66-4.25,12.8c-2.62,2.93-6.09,4.54-10.41,4.82
				c-0.66,0.05-1.01-0.23-1.05-0.84c-0.05-0.59,0.26-0.9,0.91-0.95c4.03-0.42,7.12-1.89,9.28-4.39c2.34-2.72,3.52-6.55,3.52-11.5
				v-4.11c0-0.49-0.14-0.87-0.42-1.12c-0.3-0.26-0.73-0.39-1.27-0.39h-10.44c-0.66,0-0.98-0.3-0.98-0.91
				c-0.02-0.59,0.29-0.88,0.95-0.88h10.41C287.33,450.3,288.26,450.6,288.94,451.21z M299.49,478.35c-0.19,0.19-0.42,0.28-0.7,0.28
				c-0.3,0-0.55-0.09-0.74-0.28c-0.21-0.21-0.32-0.48-0.32-0.81v-27.35c0-0.3,0.11-0.55,0.32-0.74c0.19-0.14,0.43-0.21,0.74-0.21
				c0.28,0,0.51,0.07,0.7,0.21c0.23,0.19,0.35,0.43,0.35,0.74v27.35C299.84,477.87,299.72,478.14,299.49,478.35z"/>
			<path d="M298.78,478.89c-0.37,0-0.68-0.12-0.92-0.35c-0.26-0.26-0.39-0.59-0.39-0.99v-27.35c0-0.38,0.13-0.69,0.4-0.92
				c0.25-0.19,0.55-0.27,0.9-0.27c0.33,0,0.62,0.09,0.85,0.26c0.3,0.24,0.45,0.56,0.45,0.94v27.35c0,0.4-0.14,0.73-0.43,0.99
				C299.42,478.77,299.13,478.89,298.78,478.89z M298.78,449.5c-0.25,0-0.45,0.05-0.59,0.16c-0.14,0.13-0.22,0.31-0.22,0.54v27.35
				c0,0.26,0.08,0.47,0.24,0.63c0.27,0.27,0.79,0.3,1.09,0l0.01-0.01c0.18-0.16,0.27-0.37,0.27-0.62v-27.35
				c0-0.23-0.08-0.4-0.26-0.54C299.19,449.55,299.01,449.5,298.78,449.5z M275.13,475.66c-0.7,0-1.11-0.38-1.17-1.08
				c-0.03-0.34,0.05-0.62,0.23-0.83c0.2-0.23,0.5-0.36,0.92-0.39c3.94-0.41,7.01-1.86,9.11-4.31c2.29-2.66,3.46-6.47,3.46-11.33
				v-4.11c0-0.42-0.11-0.73-0.34-0.94c-0.25-0.21-0.62-0.32-1.1-0.32h-10.44c-0.8,0-1.23-0.41-1.23-1.16
				c-0.01-0.34,0.08-0.61,0.26-0.81c0.21-0.21,0.52-0.32,0.94-0.32h10.41c1.23,0,2.22,0.33,2.94,0.98l0,0
				c0.71,0.63,1.07,1.51,1.07,2.61v4.15c0,5.43-1.45,9.79-4.32,12.96c-2.66,2.97-6.21,4.61-10.58,4.9
				C275.23,475.66,275.18,475.66,275.13,475.66z M275.76,450.55c-0.27,0-0.47,0.06-0.58,0.17c-0.09,0.09-0.13,0.25-0.12,0.45
				c0,0.48,0.21,0.67,0.73,0.67h10.44c0.6,0,1.08,0.15,1.43,0.45c0.34,0.31,0.51,0.75,0.51,1.32v4.11c0,4.98-1.2,8.91-3.58,11.66
				c-2.19,2.55-5.37,4.05-9.44,4.48c-0.29,0.02-0.48,0.09-0.58,0.22c-0.09,0.1-0.12,0.26-0.11,0.46c0.04,0.48,0.26,0.65,0.79,0.61
				c4.23-0.28,7.67-1.87,10.24-4.73c2.78-3.08,4.19-7.33,4.19-12.63v-4.15c0-0.96-0.29-1.7-0.9-2.24v0
				c-0.63-0.56-1.51-0.85-2.61-0.85H275.76z"/>
		</g>
		<g>
			<path d="M346.74,465.35c0.19,0.19,0.28,0.4,0.28,0.63c0,0.23-0.09,0.45-0.28,0.63c-0.19,0.19-0.43,0.28-0.74,0.28h-27.39
				c-0.66,0-0.98-0.3-0.98-0.91c0.02-0.59,0.37-0.88,1.05-0.88h12.59v-4.11c0-0.3,0.11-0.54,0.32-0.7c0.19-0.16,0.42-0.25,0.7-0.25
				c0.26,0,0.48,0.07,0.67,0.21c0.23,0.14,0.35,0.35,0.35,0.63v4.22h12.66C346.3,465.1,346.56,465.18,346.74,465.35z M321.33,459.93
				c-0.59-0.49-0.88-1.2-0.88-2.11v-6.96c0-0.35,0.11-0.63,0.32-0.84c0.19-0.19,0.43-0.28,0.74-0.28c0.28,0,0.51,0.09,0.7,0.28
				c0.23,0.21,0.35,0.49,0.35,0.84v2.67h19.55v-2.78c0-0.33,0.11-0.59,0.32-0.77c0.19-0.19,0.43-0.28,0.74-0.28
				c0.28,0,0.51,0.09,0.7,0.28c0.23,0.19,0.35,0.45,0.35,0.77v6.86c0,0.98-0.29,1.75-0.88,2.29c-0.56,0.54-1.39,0.81-2.5,0.81
				h-17.05C322.73,460.71,321.91,460.45,321.33,459.93z M322.56,474.38c0,0.63,0.12,1.07,0.35,1.3c0.23,0.21,0.68,0.32,1.34,0.32
				h19.44c0.61,0,0.91,0.29,0.91,0.88c0,0.61-0.3,0.91-0.91,0.91h-20.21c-0.94,0-1.68-0.29-2.21-0.88c-0.54-0.56-0.81-1.3-0.81-2.21
				v-4.71c0-0.42,0.11-0.74,0.32-0.95c0.19-0.21,0.43-0.32,0.74-0.32c0.28,0,0.51,0.11,0.7,0.32c0.23,0.23,0.35,0.55,0.35,0.95
				V474.38z M322.56,455.33v2.21c0,0.47,0.11,0.81,0.32,1.02c0.23,0.23,0.62,0.35,1.16,0.35h16.45c0.56,0,0.97-0.12,1.23-0.35
				c0.26-0.21,0.39-0.56,0.39-1.05v-2.18H322.56z"/>
			<path d="M343.69,478.04h-20.21c-1.01,0-1.81-0.32-2.4-0.96c-0.58-0.6-0.88-1.41-0.88-2.38v-4.71c0-0.49,0.13-0.87,0.39-1.13
				c0.23-0.25,0.54-0.39,0.92-0.39c0.35,0,0.65,0.13,0.89,0.4c0.27,0.27,0.42,0.65,0.42,1.12v4.39c0,0.7,0.15,1,0.28,1.12
				c0.12,0.11,0.42,0.24,1.16,0.24h19.44c0.75,0,1.16,0.4,1.16,1.13C344.85,477.63,344.44,478.04,343.69,478.04z M321.5,468.97
				c-0.23,0-0.41,0.08-0.55,0.23c-0.17,0.17-0.25,0.43-0.25,0.78v4.71c0,0.86,0.24,1.52,0.74,2.04c0.5,0.54,1.16,0.8,2.03,0.8h20.21
				c0.47,0,0.66-0.19,0.66-0.66c0-0.45-0.19-0.63-0.66-0.63h-19.44c-0.73,0-1.22-0.12-1.5-0.38c-0.29-0.29-0.43-0.78-0.43-1.49
				v-4.39c0-0.33-0.09-0.58-0.28-0.77C321.88,469.05,321.71,468.97,321.5,468.97z M346.01,467.14h-27.39c-0.8,0-1.23-0.41-1.23-1.16
				c0.02-0.43,0.21-1.13,1.3-1.13h12.34v-3.86c0-0.01,0-0.02,0-0.03h-7.24c-1.11,0-2-0.28-2.62-0.83c-0.64-0.54-0.97-1.31-0.97-2.3
				v-6.96c0-0.42,0.13-0.76,0.39-1.02c0.24-0.24,0.54-0.35,0.92-0.35c0.35,0,0.64,0.12,0.88,0.35c0.28,0.25,0.42,0.6,0.42,1.02v2.42
				h19.05v-2.53c0-0.4,0.13-0.72,0.4-0.96c0.22-0.23,0.53-0.34,0.9-0.34c0.35,0,0.64,0.12,0.88,0.35c0.28,0.22,0.42,0.55,0.42,0.95
				v6.86c0,1.05-0.32,1.88-0.96,2.47c-0.6,0.58-1.5,0.87-2.67,0.87h-7.27v3.89h12.41c0.39,0,0.7,0.1,0.94,0.31l0.01,0.01
				c0.24,0.24,0.35,0.51,0.35,0.81c0,0.3-0.12,0.57-0.35,0.81C346.68,467.02,346.38,467.14,346.01,467.14z M318.69,465.35
				c-0.69,0-0.79,0.32-0.8,0.64c0,0.46,0.21,0.65,0.73,0.65h27.39c0.24,0,0.42-0.07,0.56-0.21c0.14-0.14,0.21-0.29,0.21-0.46
				c0-0.16-0.07-0.31-0.2-0.45c-0.14-0.12-0.34-0.18-0.6-0.18h-12.91v-4.39h-1.54c0,0.01,0,0.02,0,0.03v4.36H318.69z M333.48,460.46
				h7.36c1.03,0,1.81-0.25,2.32-0.74c0.54-0.5,0.8-1.19,0.8-2.1v-6.86c0-0.25-0.08-0.44-0.26-0.58c-0.34-0.33-0.84-0.28-1.11-0.02
				c-0.17,0.15-0.24,0.34-0.24,0.6v3.03h-20.05v-2.92c0-0.28-0.09-0.49-0.27-0.66c-0.32-0.31-0.83-0.28-1.1-0.01
				c-0.16,0.16-0.24,0.38-0.24,0.67v6.96c0,0.84,0.26,1.47,0.79,1.92l0,0c0.54,0.47,1.31,0.71,2.3,0.71h7.35
				c0.07-0.14,0.17-0.27,0.3-0.37c0.43-0.37,1.19-0.4,1.67-0.04C333.28,460.15,333.4,460.29,333.48,460.46z M331.78,460.46h1.05
				C332.49,460.22,332.05,460.24,331.78,460.46z M340.49,459.16h-16.45c-0.61,0-1.06-0.14-1.34-0.43c-0.26-0.26-0.39-0.66-0.39-1.2
				v-2.46h20.05v2.43c0,0.57-0.16,0.99-0.48,1.25C341.58,459.03,341.12,459.16,340.49,459.16z M322.81,455.58v1.96
				c0,0.4,0.08,0.68,0.24,0.84c0.18,0.18,0.51,0.28,0.98,0.28h16.45c0.5,0,0.85-0.1,1.06-0.29c0.21-0.17,0.3-0.46,0.3-0.87v-1.93
				H322.81z"/>
		</g>
		<g>
			<path d="M366.63,455.71c-0.02,0.61-0.3,0.91-0.84,0.91h-4.85v4.08c0,3.07,0.69,5.87,2.07,8.4c0.98,1.81,2.4,3.54,4.25,5.2
				c0.26,0.21,0.39,0.47,0.39,0.77c-0.02,0.28-0.14,0.53-0.35,0.74c-0.23,0.21-0.49,0.33-0.77,0.35c-0.3,0.05-0.56-0.04-0.77-0.25
				c-1.41-1.27-2.64-2.74-3.69-4.43c-1.05-1.66-1.77-3.25-2.14-4.75c-0.42,1.5-1.21,3.09-2.36,4.78c-1.12,1.66-2.4,3.12-3.83,4.36
				c-0.26,0.21-0.53,0.29-0.81,0.25c-0.28-0.02-0.52-0.14-0.7-0.35s-0.27-0.44-0.25-0.7c0.02-0.33,0.18-0.61,0.46-0.84
				c1.83-1.64,3.26-3.35,4.29-5.13c1.43-2.51,2.14-5.29,2.14-8.33v-4.15h-4.78c-0.66,0-0.97-0.3-0.95-0.91
				c0-0.59,0.33-0.88,0.98-0.88h11.67C366.35,454.84,366.63,455.13,366.63,455.71z M364.31,450.16c0.16,0.19,0.26,0.4,0.28,0.63
				c0,0.23-0.07,0.45-0.21,0.63c-0.16,0.19-0.38,0.28-0.63,0.28h-7.56c-0.66,0-0.98-0.3-0.98-0.91c0-0.59,0.33-0.88,0.98-0.88h7.42
				C363.91,449.91,364.14,450,364.31,450.16z M371.97,478.36c-0.19,0.19-0.42,0.28-0.7,0.28c-0.3,0-0.55-0.09-0.74-0.28
				c-0.21-0.21-0.32-0.48-0.32-0.81v-12.27h-4.08c-0.38,0-0.67-0.09-0.88-0.28c-0.19-0.16-0.28-0.36-0.28-0.6
				c0-0.23,0.09-0.43,0.28-0.6c0.21-0.16,0.49-0.25,0.84-0.25h4.11v-13.33c0-0.3,0.11-0.55,0.32-0.74c0.19-0.16,0.43-0.25,0.74-0.25
				c0.28,0,0.52,0.08,0.7,0.25c0.23,0.16,0.35,0.4,0.35,0.7v27.35C372.32,477.88,372.21,478.14,371.97,478.36z M378.12,478.36
				c-0.19,0.19-0.41,0.28-0.67,0.28c-0.28,0-0.52-0.09-0.7-0.28c-0.21-0.21-0.32-0.48-0.32-0.81v-27.32c0-0.3,0.11-0.55,0.32-0.74
				c0.19-0.16,0.42-0.25,0.7-0.25c0.26,0,0.48,0.08,0.67,0.25c0.23,0.16,0.35,0.4,0.35,0.7v27.35
				C378.48,477.88,378.36,478.14,378.12,478.36z"/>
			<path d="M377.46,478.89c-0.35,0-0.64-0.12-0.88-0.35c-0.26-0.26-0.39-0.59-0.39-0.99v-27.32c0-0.38,0.13-0.69,0.4-0.92
				c0.46-0.4,1.22-0.42,1.7,0c0.28,0.19,0.44,0.51,0.44,0.89v27.35c0,0.4-0.14,0.73-0.43,0.99
				C378.06,478.77,377.78,478.89,377.46,478.89z M377.46,449.5c-0.22,0-0.4,0.06-0.54,0.18c-0.16,0.14-0.23,0.31-0.23,0.55v27.32
				c0,0.26,0.08,0.47,0.24,0.63c0.26,0.26,0.72,0.3,1.02,0l0.01-0.01c0.18-0.16,0.27-0.37,0.27-0.62v-27.35
				c0-0.22-0.08-0.38-0.25-0.5C377.82,449.56,377.65,449.5,377.46,449.5z M371.27,478.89c-0.37,0-0.68-0.12-0.92-0.35
				c-0.26-0.26-0.39-0.59-0.39-0.99v-12.02h-3.83c-0.44,0-0.79-0.12-1.04-0.34c-0.24-0.21-0.37-0.48-0.37-0.78
				c0-0.3,0.13-0.58,0.37-0.79c0.27-0.21,0.6-0.31,1.01-0.31h3.86v-13.08c0-0.38,0.13-0.69,0.4-0.92c0.24-0.21,0.54-0.31,0.9-0.31
				c0.34,0,0.63,0.1,0.87,0.31c0.28,0.19,0.44,0.51,0.44,0.89v27.35c0,0.4-0.14,0.73-0.43,0.99
				C371.91,478.77,371.61,478.89,371.27,478.89z M366.1,463.8c-0.29,0-0.52,0.06-0.69,0.19c-0.12,0.11-0.18,0.24-0.18,0.4
				s0.06,0.29,0.2,0.41c0.17,0.15,0.4,0.22,0.71,0.22h4.33v12.52c0,0.26,0.08,0.47,0.24,0.63c0.27,0.27,0.79,0.3,1.09,0l0.01-0.01
				c0.18-0.16,0.27-0.37,0.27-0.62v-27.35c0-0.22-0.08-0.38-0.25-0.5c-0.34-0.3-0.86-0.25-1.13-0.02c-0.15,0.14-0.23,0.32-0.23,0.55
				v13.58H366.1z M366.36,476.44c-0.29,0-0.56-0.11-0.79-0.33c-1.41-1.27-2.66-2.77-3.73-4.47c-0.88-1.39-1.53-2.73-1.95-4.02
				c-0.46,1.29-1.18,2.65-2.14,4.06c-1.13,1.67-2.43,3.16-3.88,4.41c-0.32,0.26-0.66,0.37-1.01,0.3c-0.32-0.03-0.62-0.17-0.85-0.43
				c-0.23-0.26-0.34-0.56-0.31-0.89c0.03-0.39,0.21-0.73,0.55-1.01c1.79-1.61,3.22-3.31,4.23-5.07c1.4-2.46,2.11-5.22,2.11-8.21
				v-3.9h-4.53c-0.41,0-0.72-0.11-0.93-0.32c-0.19-0.2-0.29-0.49-0.27-0.85c0-0.72,0.44-1.12,1.23-1.12h11.67
				c0.71,0,1.09,0.4,1.09,1.13v0.01c-0.03,0.74-0.42,1.15-1.09,1.15h-4.6v3.83c0,3.01,0.69,5.8,2.04,8.28
				c0.97,1.77,2.38,3.5,4.2,5.14c0.31,0.25,0.47,0.58,0.47,0.96c-0.03,0.36-0.17,0.66-0.42,0.92c-0.29,0.26-0.59,0.4-0.93,0.42
				C366.48,476.43,366.42,476.44,366.36,476.44z M359.93,465.78l0.23,0.91c0.37,1.47,1.08,3.04,2.11,4.67
				c1.04,1.66,2.27,3.13,3.65,4.38c0.17,0.16,0.34,0.22,0.57,0.19c0.24-0.02,0.45-0.11,0.64-0.29c0.16-0.16,0.25-0.35,0.27-0.57
				c0-0.21-0.1-0.4-0.3-0.56c-1.87-1.68-3.32-3.46-4.32-5.28c-1.4-2.56-2.1-5.42-2.1-8.52v-4.33h5.1c0.29,0,0.57-0.08,0.59-0.67
				c0-0.44-0.17-0.62-0.59-0.62h-11.67c-0.65,0-0.73,0.3-0.73,0.63c-0.01,0.23,0.04,0.39,0.13,0.5c0.11,0.11,0.3,0.17,0.57,0.17
				h5.03v4.4c0,3.08-0.73,5.92-2.18,8.46c-1.04,1.8-2.5,3.55-4.34,5.19c-0.24,0.2-0.36,0.42-0.38,0.68
				c-0.02,0.19,0.04,0.36,0.18,0.52c0.15,0.16,0.32,0.25,0.54,0.27c0.23,0.04,0.43-0.03,0.63-0.19c1.4-1.22,2.68-2.67,3.78-4.31
				c1.13-1.66,1.91-3.24,2.32-4.71L359.93,465.78z M363.75,451.96h-7.56c-0.8,0-1.23-0.41-1.23-1.16c0-0.73,0.44-1.13,1.23-1.13
				h7.42c0.37,0,0.67,0.11,0.88,0.32l0.01,0.01c0.2,0.23,0.31,0.49,0.34,0.77c0,0.31-0.09,0.58-0.26,0.81
				C364.35,451.83,364.08,451.96,363.75,451.96z M356.19,450.16c-0.65,0-0.73,0.3-0.73,0.63c0,0.47,0.21,0.66,0.73,0.66h7.56
				c0.19,0,0.33-0.06,0.44-0.2c0.1-0.13,0.15-0.29,0.15-0.47c-0.02-0.16-0.09-0.31-0.21-0.46c-0.12-0.11-0.29-0.17-0.52-0.17H356.19
				z"/>
		</g>
	</g>
	<g>
		<g>
			<path class="st4" d="M690.48,510.06l-9.86-11.18c-0.71-0.8-0.14-2.06,0.93-2.06h7.63c0.68,0,1.24-0.56,1.24-1.25v-0.2
				c0-0.68-0.56-1.24-1.24-1.24h-16.13c-0.69,0-1.25,0.56-1.25,1.24v0.76c0,0.31,0.12,0.61,0.33,0.84l10.17,11.11
				c0.73,0.8,0.16,2.08-0.92,2.08h-8.71c-0.68,0-1.24,0.56-1.24,1.25v0.2c0,0.68,0.56,1.24,1.24,1.24h16.88
				c0.69,0,1.24-0.56,1.24-1.24v-0.72C690.79,510.58,690.68,510.29,690.48,510.06z"/>
		</g>
		<g>
			<path class="st4" d="M642.48,510.39h-10.57c-0.69,0-1.24-0.56-1.24-1.24v-3.4c0-0.69,0.55-1.25,1.24-1.25h10.6
				c0.69,0,1.24-0.55,1.24-1.24c0-0.68-0.55-1.24-1.24-1.24h-10.6c-0.69,0-1.24-0.56-1.24-1.24v-2.9c0-0.68,0.55-1.24,1.24-1.24
				h10.57c0.69,0,1.24-0.56,1.24-1.24c0-0.69-0.55-1.25-1.24-1.25h-17.1c-0.68,0-1.24,0.56-1.24,1.25v16.23
				c0,0.69,0.56,1.25,1.24,1.25h17.1c0.69,0,1.24-0.56,1.24-1.25C643.72,510.95,643.17,510.39,642.48,510.39z"/>
		</g>
		<g>
			<path class="st4" d="M666.91,494.13h-3.26c-0.69,0-1.25,0.56-1.25,1.24v7.93c0,1.27-1.67,1.72-2.31,0.63l-5.39-9.19
				c-0.22-0.38-0.63-0.61-1.07-0.61h-5.1c-0.69,0-1.25,0.56-1.25,1.24v16.24c0,0.68,0.56,1.24,1.25,1.24h3.29
				c0.69,0,1.24-0.56,1.24-1.24v-8.06c0-1.27,1.67-1.72,2.32-0.64l5.51,9.33c0.22,0.38,0.63,0.61,1.07,0.61h4.95
				c0.68,0,1.24-0.56,1.24-1.24v-16.24C668.15,494.69,667.59,494.13,666.91,494.13z"/>
		</g>
		<g>
			<path class="st4" d="M620.99,510.06l-9.87-11.18c-0.7-0.8-0.13-2.06,0.94-2.06h7.62c0.68,0,1.24-0.56,1.24-1.25v-0.2
				c0-0.68-0.56-1.24-1.24-1.24h-16.13c-0.69,0-1.25,0.56-1.25,1.24v0.76c0,0.31,0.12,0.61,0.33,0.84l10.17,11.11
				c0.73,0.8,0.16,2.08-0.92,2.08h-8.71c-0.68,0-1.24,0.56-1.24,1.25v0.2c0,0.68,0.56,1.24,1.24,1.24h16.88
				c0.69,0,1.25-0.56,1.25-1.24v-0.72C621.3,510.58,621.19,510.29,620.99,510.06z"/>
		</g>
		<g>
			<path class="st4" d="M714.42,495.76c-0.07-0.38-0.23-0.69-0.48-0.95c-0.25-0.23-0.62-0.41-1.11-0.52s-1.14-0.16-1.95-0.16h-13.56
				c-0.81,0-1.46,0.05-1.95,0.16c-0.49,0.11-0.86,0.29-1.11,0.52c-0.25,0.26-0.41,0.57-0.48,0.95c-0.08,0.39-0.11,0.85-0.11,1.39
				v12.68c0,0.54,0.03,1.01,0.11,1.4c0.07,0.39,0.23,0.7,0.48,0.94c0.25,0.23,0.62,0.41,1.11,0.52c0.49,0.11,1.14,0.16,1.95,0.16
				h13.56c0.81,0,1.46-0.05,1.95-0.16c0.49-0.11,0.86-0.29,1.11-0.52c0.25-0.24,0.41-0.55,0.48-0.94c0.08-0.39,0.11-0.86,0.11-1.4
				v-12.68C714.53,496.61,714.5,496.15,714.42,495.76z M708.01,509.73c0,0.24-0.05,0.4-0.15,0.5c-0.09,0.09-0.28,0.14-0.58,0.14
				h-6.36c-0.29,0-0.49-0.05-0.58-0.14c-0.1-0.1-0.14-0.26-0.14-0.5v-12.48c0-0.24,0.04-0.4,0.14-0.5c0.09-0.09,0.29-0.14,0.58-0.14
				h6.36c0.3,0,0.49,0.05,0.58,0.14c0.1,0.1,0.15,0.26,0.15,0.5V509.73z"/>
		</g>
	</g>
	<g>
		<path class="st4" d="M785.03,206.67h-253.6c-13.34,0-24.2,10.86-24.2,24.2v403.61c0,13.34,10.86,24.19,24.2,24.19h253.6
			c13.35,0,24.2-10.85,24.2-24.19V230.87C809.23,217.53,798.38,206.67,785.03,206.67z M807.23,634.48c0,12.24-9.96,22.19-22.2,22.19
			h-253.6c-12.24,0-22.2-9.95-22.2-22.19V230.87c0-12.24,9.96-22.2,22.2-22.2h253.6c12.24,0,22.2,9.96,22.2,22.2V634.48z"/>
		<path class="st5" d="M807.22,551.22v52.3h0.01v30.96c0,12.24-9.96,22.19-22.2,22.19h-253.6c-12.24,0-22.2-9.95-22.2-22.19V465.1
			h14.34v-2h-14.34v-56.05h64.71v210.7c0,8.51,6.93,15.44,15.44,15.44h137.7c8.52,0,15.44-6.93,15.44-15.44v-210.7h64.71v144.17
			H807.22z"/>
		<path class="st5" d="M807.19,278.23v27.9h0.04v98.92h-64.71V301.87c0-5.75-0.56-11.74-1.6-17.47c-1.04-5.73-2.55-11.2-4.44-15.91
			c-11.05-27.53-36.65-40.91-78.25-40.91c-41.6,0-67.2,13.38-78.25,40.91c-3.78,9.41-6.04,21.89-6.04,33.38v103.18h-64.71V230.87
			c0-12.24,9.96-22.2,22.2-22.2h253.6c12.24,0,22.2,9.96,22.2,22.2v47.36H807.19z"/>
	</g>
	<g>
		<path class="st4" d="M740.92,284.4c-1.04-5.73-2.55-11.2-4.44-15.91c-11.05-27.53-36.65-40.91-78.25-40.91
			c-41.6,0-67.2,13.38-78.25,40.91c-3.78,9.41-6.04,21.89-6.04,33.38v315.88c0,8.51,6.93,15.44,15.44,15.44h137.7
			c8.52,0,15.44-6.93,15.44-15.44V301.87C742.52,296.12,741.96,290.13,740.92,284.4z M740.52,617.75c0,7.41-6.03,13.44-13.44,13.44
			h-137.7c-7.41,0-13.44-6.03-13.44-13.44V301.87c0-11.25,2.21-23.45,5.9-32.64c10.71-26.68,35.7-39.65,76.39-39.65
			c20.35,0,36.77,3.24,49.44,9.82c12.67,6.58,21.59,16.49,26.95,29.83c3.7,9.19,5.9,21.39,5.9,32.64V617.75z"/>
		<path class="st5" d="M734.62,269.23c-5.36-13.34-14.28-23.25-26.95-29.83c-12.67-6.58-29.09-9.82-49.44-9.82
			c-40.69,0-65.68,12.97-76.39,39.65c-3.69,9.19-5.9,21.39-5.9,32.64v103.18h164.58V301.87
			C740.52,290.62,738.32,278.42,734.62,269.23z M698.76,382.71c0,4.33-3.52,7.85-7.85,7.85h-65.36c-4.33,0-7.85-3.52-7.85-7.85
			v-58.15c0-5.5,1.09-11.5,2.9-16.04c5.34-13.29,17.65-19.75,37.63-19.75s32.29,6.46,37.63,19.75c1.76,4.38,2.85,10.24,2.9,15.67
			V382.71z"/>
		<path class="st5" d="M575.94,407.05v210.7c0,7.41,6.03,13.44,13.44,13.44h137.7c7.41,0,13.44-6.03,13.44-13.44v-210.7H575.94z
			 M621.3,511.61c0,0.68-0.56,1.24-1.25,1.24h-16.88c-0.68,0-1.24-0.56-1.24-1.24v-0.2c0-0.69,0.56-1.25,1.24-1.25h8.71
			c1.08,0,1.65-1.28,0.92-2.08l-10.17-11.11c-0.21-0.23-0.33-0.53-0.33-0.84v-0.76c0-0.68,0.56-1.24,1.25-1.24h16.13
			c0.68,0,1.24,0.56,1.24,1.24v0.2c0,0.69-0.56,1.25-1.24,1.25h-7.62c-1.07,0-1.64,1.26-0.94,2.06l9.87,11.18
			c0.2,0.23,0.31,0.52,0.31,0.83V511.61z M631.91,510.39h10.57c0.69,0,1.24,0.56,1.24,1.24c0,0.69-0.55,1.25-1.24,1.25h-17.1
			c-0.68,0-1.24-0.56-1.24-1.25V495.4c0-0.69,0.56-1.25,1.24-1.25h17.1c0.69,0,1.24,0.56,1.24,1.25c0,0.68-0.55,1.24-1.24,1.24
			h-10.57c-0.69,0-1.24,0.56-1.24,1.24v2.9c0,0.68,0.55,1.24,1.24,1.24h10.6c0.69,0,1.24,0.56,1.24,1.24c0,0.69-0.55,1.24-1.24,1.24
			h-10.6c-0.69,0-1.24,0.56-1.24,1.25v3.4C630.67,509.83,631.22,510.39,631.91,510.39z M668.15,511.61c0,0.68-0.56,1.24-1.24,1.24
			h-4.95c-0.44,0-0.85-0.23-1.07-0.61l-5.51-9.33c-0.65-1.08-2.32-0.63-2.32,0.64v8.06c0,0.68-0.55,1.24-1.24,1.24h-3.29
			c-0.69,0-1.25-0.56-1.25-1.24v-16.24c0-0.68,0.56-1.24,1.25-1.24h5.1c0.44,0,0.85,0.23,1.07,0.61l5.39,9.19
			c0.64,1.09,2.31,0.64,2.31-0.63v-7.93c0-0.68,0.56-1.24,1.25-1.24h3.26c0.68,0,1.24,0.56,1.24,1.24V511.61z M690.79,511.61
			c0,0.68-0.55,1.24-1.24,1.24h-16.88c-0.68,0-1.24-0.56-1.24-1.24v-0.2c0-0.69,0.56-1.25,1.24-1.25h8.71
			c1.08,0,1.65-1.28,0.92-2.08l-10.17-11.11c-0.21-0.23-0.33-0.53-0.33-0.84v-0.76c0-0.68,0.56-1.24,1.25-1.24h16.13
			c0.68,0,1.24,0.56,1.24,1.24v0.2c0,0.69-0.56,1.25-1.24,1.25h-7.63c-1.07,0-1.64,1.26-0.93,2.06l9.86,11.18
			c0.2,0.23,0.31,0.52,0.31,0.83V511.61z M714.53,509.83c0,0.54-0.03,1.01-0.11,1.4c-0.07,0.39-0.23,0.7-0.48,0.94
			c-0.25,0.23-0.62,0.41-1.11,0.52c-0.49,0.11-1.14,0.16-1.95,0.16h-13.56c-0.81,0-1.46-0.05-1.95-0.16
			c-0.49-0.11-0.86-0.29-1.11-0.52c-0.25-0.24-0.41-0.55-0.48-0.94c-0.08-0.39-0.11-0.86-0.11-1.4v-12.68c0-0.54,0.03-1,0.11-1.39
			c0.07-0.38,0.23-0.69,0.48-0.95c0.25-0.23,0.62-0.41,1.11-0.52c0.49-0.11,1.14-0.16,1.95-0.16h13.56c0.81,0,1.46,0.05,1.95,0.16
			s0.86,0.29,1.11,0.52c0.25,0.26,0.41,0.57,0.48,0.95c0.08,0.39,0.11,0.85,0.11,1.39V509.83z"/>
		<path class="st5" d="M708.01,497.25v12.48c0,0.24-0.05,0.4-0.15,0.5c-0.09,0.09-0.28,0.14-0.58,0.14h-6.36
			c-0.29,0-0.49-0.05-0.58-0.14c-0.1-0.1-0.14-0.26-0.14-0.5v-12.48c0-0.24,0.04-0.4,0.14-0.5c0.09-0.09,0.29-0.14,0.58-0.14h6.36
			c0.3,0,0.49,0.05,0.58,0.14C707.96,496.85,708.01,497.01,708.01,497.25z"/>
	</g>
	<g>
		<g>
			<path class="st4" d="M695.86,308.52c-5.34-13.29-17.65-19.75-37.63-19.75s-32.29,6.46-37.63,19.75
				c-1.81,4.54-2.9,10.54-2.9,16.04v58.15c0,4.33,3.52,7.85,7.85,7.85h65.36c4.33,0,7.85-3.52,7.85-7.85v-58.52
				C698.71,318.76,697.62,312.9,695.86,308.52z M696.76,382.71c0,3.23-2.62,5.85-5.85,5.85h-65.36c-3.23,0-5.85-2.62-5.85-5.85
				v-58.15c0-5.26,1.03-10.98,2.76-15.3c5-12.44,16.7-18.49,35.77-18.49S689,296.82,694,309.26c1.68,4.17,2.71,9.75,2.76,14.95
				V382.71z"/>
			<path class="st6" d="M682.01,356.66c-11.75,0-18.84-4.52-24.03-7.83c-3.9-2.48-5.39-3.34-8.23-3.34c-8.99,0-22.81,9.2-30.05,15.1
				v22.12c0,3.23,2.62,5.85,5.85,5.85h65.36c3.23,0,5.85-2.62,5.85-5.85v-29.1C692.13,355.45,687.15,356.66,682.01,356.66z
				 M651.33,379.02h-23.35v-2h23.35V379.02z M651.33,373.32h-23.35v-2h23.35V373.32z M688.48,379.02h-23.34v-2h23.34V379.02z
				 M688.48,373.32h-23.34v-2h23.34V373.32z"/>
			<path class="st6" d="M694,309.26c-5-12.44-16.7-18.49-35.77-18.49s-30.77,6.05-35.77,18.49c-1.73,4.32-2.76,10.04-2.76,15.3v5.69
				c8.83-5.15,19.65-9.76,30.05-9.76c10.27,0,16.86,4.2,21.67,7.26c3.95,2.52,6.13,3.91,10.59,3.91c4.48,0,10.07-3.18,14.75-6.7
				v-0.75C696.71,319.01,695.68,313.43,694,309.26z M651.33,312.51h-23.35v-2h23.35V312.51z M651.33,306.81h-23.35v-2h23.35V306.81z
				 M688.48,312.51h-23.34v-2h23.34V312.51z M688.48,306.81h-23.34v-2h23.34V306.81z"/>
		</g>
		<g>
			<g>
				<g>
					<rect x="627.98" y="304.81" class="st4" width="23.35" height="2"/>
				</g>
				<g>
					<rect x="627.98" y="310.51" class="st4" width="23.35" height="2"/>
				</g>
			</g>
			<g>
				<g>
					<rect x="665.14" y="304.81" class="st4" width="23.34" height="2"/>
				</g>
				<g>
					<rect x="665.14" y="310.51" class="st4" width="23.34" height="2"/>
				</g>
			</g>
		</g>
		<g>
			<g>
				<g>
					<rect x="627.98" y="371.32" class="st4" width="23.35" height="2"/>
				</g>
				<g>
					<rect x="627.98" y="377.02" class="st4" width="23.35" height="2"/>
				</g>
			</g>
			<g>
				<g>
					<rect x="665.14" y="371.32" class="st4" width="23.34" height="2"/>
				</g>
				<g>
					<rect x="665.14" y="377.02" class="st4" width="23.34" height="2"/>
				</g>
			</g>
		</g>
	</g>
	<g>
		<rect x="508.23" y="405.05" class="st4" width="300" height="2"/>
	</g>
	<g>
		<path class="st2" d="M474.04,253.16v51.42h35.19v-51.42H474.04z M507.23,302.58h-31.19v-47.42h31.19V302.58z"/>
		<rect x="476.04" y="255.16" class="st2" width="31.19" height="47.42"/>
	</g>
	<g>
		<path class="st5" d="M807.19,278.23v27.9h7.34v-27.9H807.19z M812.53,304.13h-3.34v-23.9h3.34V304.13z"/>
		<rect x="809.19" y="280.23" class="st5" width="3.34" height="23.9"/>
	</g>
	<g>
		<path class="st2" d="M807.22,551.22v52.3h29.15v-52.3H807.22z M834.37,601.52h-25.15v-48.3h25.15V601.52z"/>
		<rect x="809.22" y="553.22" class="st2" width="25.15" height="48.3"/>
	</g>
	<g>
		<g>
			<path d="M965.12,578.76c0.19,0.19,0.28,0.4,0.28,0.63c0,0.23-0.09,0.45-0.28,0.63c-0.19,0.19-0.43,0.28-0.74,0.28h-27.35
				c-0.68,0-1.02-0.3-1.02-0.91c0-0.59,0.35-0.88,1.05-0.88h27.28C964.67,578.51,964.93,578.6,965.12,578.76z M963.54,567.12
				c0.02,0.61-0.26,0.91-0.84,0.91h-23.84c-0.66,0-0.98-0.3-0.98-0.91c0-0.59,0.33-0.88,0.98-0.88h23.73
				C963.2,566.24,963.51,566.54,963.54,567.12z M960.79,582.63c0.19-0.16,0.43-0.25,0.74-0.25c0.28,0,0.52,0.08,0.7,0.25
				c0.23,0.19,0.35,0.46,0.35,0.81v5.55c0,0.73-0.23,1.32-0.7,1.79c-0.52,0.49-1.21,0.74-2.07,0.74h-18.39
				c-0.8,0-1.44-0.25-1.93-0.74c-0.45-0.47-0.67-1.08-0.67-1.83v-5.52c0-0.35,0.11-0.62,0.32-0.81c0.19-0.16,0.43-0.25,0.74-0.25
				c0.28,0,0.52,0.08,0.7,0.25c0.23,0.19,0.35,0.46,0.35,0.81v1.65h19.55v-1.65C960.48,583.08,960.58,582.81,960.79,582.63z
				 M959.14,570.32c1.9,0.66,2.85,1.54,2.85,2.64c0,1.08-0.95,1.96-2.85,2.64c-2.04,0.73-4.85,1.09-8.44,1.09
				c-3.61,0-6.42-0.36-8.44-1.09c-1.88-0.68-2.81-1.56-2.81-2.64c0-1.1,0.94-1.98,2.81-2.64c2.02-0.7,4.83-1.05,8.44-1.05
				C954.29,569.27,957.1,569.62,959.14,570.32z M940.93,586.88v1.69c0,0.4,0.09,0.68,0.28,0.84c0.19,0.21,0.53,0.32,1.02,0.32h16.95
				c0.52,0,0.86-0.08,1.02-0.25c0.19-0.16,0.28-0.47,0.28-0.91v-1.69H940.93z M943.85,571.59c-1.5,0.33-2.25,0.79-2.25,1.37
				c0,0.56,0.75,1.01,2.25,1.34c1.59,0.38,3.88,0.56,6.86,0.56c2.95,0,5.24-0.19,6.86-0.56c1.52-0.33,2.29-0.77,2.29-1.34
				c0-0.59-0.76-1.04-2.29-1.37c-1.59-0.35-3.88-0.53-6.86-0.53S945.44,571.24,943.85,571.59z M958.05,563.47
				c0.02,0.61-0.25,0.91-0.81,0.91h-12.9c-0.66,0-0.98-0.3-0.98-0.91c0-0.59,0.33-0.88,0.98-0.88h12.76
				C957.71,562.59,958.03,562.88,958.05,563.47z"/>
			<path d="M959.81,591.77h-18.39c-0.86,0-1.57-0.27-2.11-0.81c-0.49-0.52-0.74-1.19-0.74-2v-5.52c0-0.42,0.13-0.76,0.4-1
				c0.24-0.21,0.54-0.31,0.9-0.31c0.34,0,0.63,0.1,0.87,0.31c0.29,0.23,0.44,0.57,0.44,1v1.4h19.05v-1.4c0-0.42,0.13-0.76,0.4-1l0,0
				c0.23-0.2,0.54-0.31,0.9-0.31c0.34,0,0.63,0.1,0.87,0.31c0.29,0.23,0.44,0.57,0.44,1v5.55c0,0.79-0.26,1.45-0.78,1.97
				C961.49,591.5,960.74,591.77,959.81,591.77z M939.88,582.63c-0.24,0-0.43,0.06-0.57,0.18c-0.15,0.14-0.23,0.34-0.23,0.62v5.52
				c0,0.69,0.2,1.23,0.6,1.66c0.44,0.44,1.02,0.66,1.75,0.66h18.39c0.81,0,1.43-0.22,1.9-0.67c0.42-0.42,0.63-0.95,0.63-1.61v-5.55
				c0-0.27-0.08-0.47-0.26-0.61c-0.32-0.27-0.85-0.24-1.12-0.01c-0.16,0.14-0.23,0.34-0.23,0.62v1.9h-20.05v-1.9
				c0-0.27-0.08-0.47-0.26-0.61C940.27,582.69,940.1,582.63,939.88,582.63z M959.18,589.98h-16.95c-0.57,0-0.97-0.13-1.21-0.4
				c-0.22-0.19-0.34-0.54-0.34-1.01v-1.94h20.05v1.94c0,0.53-0.12,0.89-0.37,1.1C960.16,589.87,959.77,589.98,959.18,589.98z
				 M941.18,587.13v1.44c0,0.32,0.07,0.54,0.2,0.66c0.16,0.17,0.45,0.25,0.86,0.25h16.95c0.6,0,0.79-0.12,0.84-0.17
				c0.14-0.12,0.21-0.37,0.21-0.74v-1.44H941.18z M964.38,580.56h-27.35c-0.82,0-1.27-0.41-1.27-1.16c0-0.42,0.17-1.13,1.3-1.13
				h27.28c0.39,0,0.7,0.1,0.94,0.31l0.01,0.01c0.24,0.24,0.35,0.51,0.35,0.81c0,0.3-0.12,0.57-0.35,0.81
				C965.06,580.44,964.75,580.56,964.38,580.56z M937.06,578.76c-0.71,0-0.8,0.32-0.8,0.63c0,0.34,0.09,0.66,0.77,0.66h27.35
				c0.24,0,0.42-0.07,0.56-0.21s0.21-0.29,0.21-0.46c0-0.16-0.07-0.31-0.2-0.45c-0.14-0.12-0.34-0.18-0.6-0.18H937.06z
				 M950.7,576.94c-3.62,0-6.49-0.37-8.52-1.1c-1.98-0.72-2.98-1.68-2.98-2.87c0-1.21,1-2.18,2.98-2.87
				c2.03-0.71,4.9-1.07,8.52-1.07c3.6,0,6.46,0.36,8.52,1.07h0c2,0.69,3.02,1.66,3.02,2.87c0,1.19-1.01,2.16-3.01,2.87
				C957.17,576.56,954.3,576.94,950.7,576.94z M950.7,569.52c-3.56,0-6.38,0.35-8.36,1.04c-1.75,0.61-2.64,1.42-2.64,2.4
				c0,0.96,0.89,1.76,2.65,2.4c1.98,0.71,4.79,1.07,8.35,1.07c3.54,0,6.35-0.36,8.35-1.08c1.78-0.64,2.68-1.45,2.68-2.4
				c0-0.98-0.9-1.79-2.68-2.4C957.06,569.87,954.24,569.52,950.7,569.52z M950.7,575.11c-2.98,0-5.31-0.19-6.91-0.57
				c-1.64-0.36-2.44-0.88-2.44-1.58c0-0.73,0.8-1.25,2.45-1.62c1.6-0.35,3.93-0.53,6.91-0.53s5.31,0.18,6.91,0.53
				c1.67,0.36,2.48,0.89,2.48,1.62c0,0.7-0.81,1.22-2.48,1.58C955.99,574.92,953.66,575.11,950.7,575.11z M950.7,571.31
				c-2.94,0-5.23,0.18-6.8,0.52l0,0c-1.32,0.29-2.05,0.69-2.05,1.13c0,0.24,0.27,0.7,2.05,1.09c1.57,0.37,3.86,0.56,6.8,0.56
				c2.92,0,5.21-0.19,6.8-0.56c1.82-0.39,2.09-0.85,2.09-1.09c0-0.44-0.74-0.84-2.09-1.13C955.94,571.49,953.65,571.31,950.7,571.31
				z M962.69,568.29h-23.84c-0.8,0-1.23-0.41-1.23-1.16c0-0.73,0.44-1.13,1.23-1.13h23.73c0.74,0,1.17,0.4,1.2,1.12l0,0
				c0.01,0.38-0.08,0.68-0.27,0.88C963.32,568.19,963.05,568.29,962.69,568.29z M938.86,566.49c-0.65,0-0.73,0.3-0.73,0.63
				c0,0.47,0.21,0.66,0.73,0.66h23.84c0.21,0,0.37-0.05,0.46-0.14c0.1-0.1,0.14-0.27,0.13-0.51l0,0c-0.02-0.45-0.22-0.64-0.7-0.64
				H938.86z M957.24,564.63h-12.9c-0.8,0-1.23-0.41-1.23-1.16c0-0.73,0.44-1.13,1.23-1.13h12.76c0.74,0,1.17,0.4,1.2,1.12l0,0
				c0.01,0.39-0.08,0.68-0.27,0.89C957.85,564.53,957.58,564.63,957.24,564.63z M944.34,562.84c-0.65,0-0.73,0.3-0.73,0.63
				c0,0.47,0.21,0.66,0.73,0.66h12.9c0.2,0,0.34-0.04,0.43-0.13c0.1-0.1,0.14-0.28,0.13-0.52c-0.02-0.45-0.22-0.64-0.7-0.64H944.34z
				"/>
		</g>
		<g>
			<path d="M985.14,565.33c1.34,1.36,2,3.05,2,5.06c0,1.97-0.67,3.62-2,4.96c-1.45,1.48-3.45,2.21-5.98,2.21
				c-2.55,0-4.58-0.74-6.08-2.21c-1.34-1.34-2-2.99-2-4.96c0-2.02,0.67-3.7,2-5.06c1.5-1.48,3.53-2.21,6.08-2.21
				C981.67,563.11,983.67,563.85,985.14,565.33z M974.63,566.6c-0.96,0.98-1.44,2.25-1.44,3.8c0,1.5,0.48,2.75,1.44,3.76
				c1.08,1.12,2.59,1.69,4.54,1.69c1.9,0,3.39-0.56,4.46-1.69c0.98-1.01,1.48-2.26,1.48-3.76c0-1.55-0.49-2.81-1.48-3.8
				c-1.08-1.1-2.57-1.65-4.46-1.65C977.22,564.94,975.71,565.49,974.63,566.6z M994.14,580.48c0.19-0.16,0.43-0.25,0.74-0.25
				c0.28,0,0.52,0.08,0.7,0.25c0.23,0.19,0.35,0.45,0.35,0.77v7.31c0,0.73-0.25,1.31-0.74,1.76c-0.52,0.49-1.21,0.74-2.07,0.74
				h-16.98c-0.82,0-1.46-0.25-1.93-0.74c-0.45-0.47-0.67-1.08-0.67-1.83v-7.24c0-0.33,0.11-0.59,0.32-0.77
				c0.19-0.16,0.42-0.25,0.7-0.25s0.52,0.08,0.7,0.25c0.23,0.19,0.35,0.45,0.35,0.77v2.18h18.21v-2.18
				C993.83,580.93,993.93,580.67,994.14,580.48z M975.62,585.23v2.85c0,0.4,0.09,0.69,0.28,0.88c0.21,0.21,0.56,0.32,1.05,0.32
				h15.57c0.49,0,0.83-0.09,1.02-0.28c0.19-0.16,0.28-0.46,0.28-0.88v-2.88H975.62z M995.58,578.27c-0.19,0.19-0.42,0.28-0.7,0.28
				c-0.3,0-0.55-0.09-0.74-0.28c-0.21-0.21-0.32-0.48-0.32-0.81V563.5c0-0.3,0.11-0.55,0.32-0.74c0.19-0.16,0.43-0.25,0.74-0.25
				c0.28,0,0.52,0.08,0.7,0.25c0.23,0.16,0.35,0.4,0.35,0.7v14C995.94,577.79,995.82,578.06,995.58,578.27z"/>
			<path d="M993.12,591.31h-16.98c-0.89,0-1.6-0.27-2.11-0.82c-0.49-0.51-0.74-1.19-0.74-2v-7.24c0-0.4,0.13-0.72,0.4-0.96
				c0.47-0.41,1.27-0.41,1.74,0c0.29,0.23,0.44,0.56,0.44,0.96v1.93h17.71v-1.93c0-0.4,0.13-0.72,0.4-0.96l0,0
				c0.23-0.2,0.54-0.31,0.9-0.31c0.34,0,0.63,0.1,0.87,0.31c0.29,0.23,0.44,0.56,0.44,0.96v7.31c0,0.8-0.28,1.45-0.82,1.94
				C994.81,591.04,994.05,591.31,993.12,591.31z M974.56,580.49c-0.22,0-0.4,0.06-0.54,0.18c-0.15,0.14-0.23,0.33-0.23,0.58v7.24
				c0,0.69,0.2,1.23,0.6,1.66c0.42,0.44,1,0.66,1.75,0.66h16.98c0.81,0,1.43-0.22,1.9-0.67c0.45-0.4,0.66-0.92,0.66-1.58v-7.31
				c0-0.25-0.08-0.44-0.26-0.58c-0.32-0.27-0.85-0.24-1.12-0.01c-0.16,0.14-0.23,0.33-0.23,0.59v2.43h-18.71v-2.43
				c0-0.25-0.08-0.44-0.26-0.58C974.96,580.55,974.78,580.49,974.56,580.49z M992.53,589.52h-15.57c-0.57,0-0.97-0.13-1.23-0.39
				c-0.24-0.24-0.35-0.59-0.35-1.06v-3.1h18.71v3.13c0,0.5-0.12,0.85-0.37,1.07C993.48,589.4,993.09,589.52,992.53,589.52z
				 M975.87,585.48v2.6c0,0.33,0.07,0.56,0.21,0.7c0.16,0.16,0.46,0.24,0.88,0.24h15.57c0.53,0,0.75-0.11,0.84-0.21
				c0.14-0.12,0.21-0.36,0.21-0.7v-2.63H975.87z M994.88,578.8c-0.37,0-0.68-0.12-0.92-0.35c-0.26-0.26-0.39-0.59-0.39-0.98V563.5
				c0-0.38,0.13-0.69,0.4-0.92c0.24-0.21,0.54-0.31,0.9-0.31c0.34,0,0.63,0.1,0.87,0.31c0.28,0.19,0.44,0.51,0.44,0.89v14
				c0,0.4-0.14,0.73-0.43,0.99C995.52,578.68,995.23,578.8,994.88,578.8z M994.88,562.77c-0.24,0-0.43,0.06-0.57,0.18
				c-0.15,0.14-0.23,0.32-0.23,0.55v13.96c0,0.26,0.08,0.47,0.24,0.63c0.26,0.27,0.79,0.29,1.09,0l0.01-0.01
				c0.18-0.16,0.27-0.37,0.27-0.62v-14c0-0.22-0.08-0.38-0.25-0.5C995.28,562.83,995.1,562.77,994.88,562.77z M979.17,577.81
				c-2.61,0-4.72-0.77-6.26-2.29c-1.38-1.38-2.08-3.11-2.08-5.14c0-2.07,0.7-3.84,2.08-5.24c1.54-1.52,3.65-2.29,6.26-2.29
				c2.56,0,4.63,0.77,6.15,2.29l0,0c1.38,1.4,2.08,3.16,2.08,5.24c0,2.03-0.7,3.76-2.08,5.13
				C983.83,577.04,981.75,577.81,979.17,577.81z M979.17,563.36c-2.47,0-4.46,0.72-5.91,2.14c-1.28,1.3-1.93,2.95-1.93,4.88
				c0,1.89,0.65,3.5,1.93,4.78c1.44,1.42,3.43,2.14,5.91,2.14c2.45,0,4.4-0.72,5.8-2.14c1.28-1.28,1.93-2.89,1.93-4.78
				c0-1.94-0.65-3.58-1.93-4.89C983.54,564.08,981.59,563.36,979.17,563.36z M979.17,576.09c-2.01,0-3.59-0.59-4.72-1.76
				c-1-1.05-1.51-2.37-1.51-3.93c0-1.61,0.51-2.94,1.51-3.97l0,0c1.12-1.15,2.71-1.73,4.71-1.73c1.96,0,3.52,0.58,4.64,1.73
				c1.03,1.03,1.55,2.36,1.55,3.97c0,1.56-0.52,2.89-1.55,3.94C982.69,575.5,981.13,576.09,979.17,576.09z M974.81,566.77
				L974.81,566.77c-0.91,0.93-1.37,2.15-1.37,3.62c0,1.43,0.46,2.63,1.37,3.59c1.02,1.07,2.49,1.61,4.35,1.61
				c1.82,0,3.26-0.54,4.28-1.61c0.93-0.96,1.41-2.16,1.41-3.59c0-1.47-0.47-2.69-1.4-3.62c-1.03-1.05-2.47-1.58-4.29-1.58
				C977.3,565.19,975.83,565.72,974.81,566.77z"/>
		</g>
	</g>
	<g>
		<g>
			<path class="st7" d="M696.76,324.96v28.65c-4.63,1.84-9.61,3.05-14.75,3.05c-11.75,0-18.84-4.52-24.03-7.83
				c-3.9-2.48-5.39-3.34-8.23-3.34c-8.99,0-22.81,9.2-30.05,15.1v-30.34c8.83-5.15,19.65-9.76,30.05-9.76
				c10.27,0,16.86,4.2,21.67,7.26c3.95,2.52,6.13,3.91,10.59,3.91C686.49,331.66,692.08,328.48,696.76,324.96z"/>
			<path class="st4" d="M619.7,330.25v30.34c-0.35,0.29-0.68,0.56-1,0.83v-30.59C619.03,330.63,619.36,330.44,619.7,330.25z"/>
			<path class="st4" d="M697.76,324.2v29c-0.33,0.14-0.67,0.28-1,0.41v-28.65C697.1,324.71,697.43,324.46,697.76,324.2z"/>
		</g>
	</g>
</g>
<g id="레이어_1">
	<g>
		<line class="st17" x1="467.48" y1="280.06" x2="400.06" y2="280.06"/>
		<g>
			<polygon points="402.25,272.58 389.3,280.06 402.25,287.54 			"/>
		</g>
	</g>
	<g>
		<line class="st17" x1="928.7" y1="577.37" x2="861.29" y2="577.37"/>
		<g>
			<polygon points="863.48,569.89 850.52,577.37 863.48,584.85 			"/>
		</g>
	</g>
	<g>
		<line class="st17" x1="523.57" y1="464.1" x2="417.17" y2="464.1"/>
		<g>
			<polygon points="419.36,456.62 406.41,464.1 419.36,471.58 			"/>
		</g>
	</g>
	<g>
		<path class="st25" d="M813.53,292.83l0.84-0.03c21.02-0.71,30.47-17.8,37.24-37.71v0c3.21-13.25,6.53-37.31,23.88-37.31
			c17.05,0,22,14.16,26.5,30.03c2.39,8.44,3.67,27.24,4.49,44.75c1.08,23.23,3.14,46.4,6.19,69.45l1.13,8.58
			c0.03,0.6-0.03-0.32-0.01-0.1c3.2,30.46,28.72,53.65,59.35,53.33l3.59-0.04"/>
		<path class="st17" d="M1003.53,440.34h-11.56c-8.83,0-16-7.17-16-16c0-4.42,1.79-8.42,4.69-11.31c2.9-2.9,6.9-4.69,11.31-4.69
			h11.56"/>
		<path class="st17" d="M1003.53,440.34c-8.84,0-13-7.17-13-16c0-4.42,1.04-8.42,3.19-11.31c2.14-2.9,5.39-4.69,9.81-4.69"/>
		<path class="st17" d="M1001.6,408.34c4.42,0,7.67,1.79,9.81,4.69c2.15,2.89,3.19,6.89,3.19,11.31c0,8.83-4.16,16-13,16"/>
		<g>
			<path d="M1020.29,421.52h-16.87c-1.3,0-2.35-1.05-2.35-2.35l0,0c0-1.3,1.05-2.35,2.35-2.35h16.87c1.3,0,2.35,1.05,2.35,2.35l0,0
				C1022.63,420.47,1021.58,421.52,1020.29,421.52z"/>
			<path d="M1020.29,431.86h-16.87c-1.3,0-2.35-1.05-2.35-2.35l0,0c0-1.3,1.05-2.35,2.35-2.35h16.87c1.3,0,2.35,1.05,2.35,2.35l0,0
				C1022.63,430.8,1021.58,431.86,1020.29,431.86z"/>
		</g>
	</g>
	<g>
		<path class="st26" d="M329.24,266.3c0.19-0.16,0.42-0.25,0.7-0.25s0.51,0.08,0.7,0.25c0.23,0.19,0.35,0.45,0.35,0.77v21.69
			c0,0.84-0.3,1.52-0.91,2.04c-0.61,0.54-1.37,0.81-2.29,0.81h-5.59c-0.89,0-1.61-0.25-2.14-0.74c-0.56-0.54-0.84-1.24-0.84-2.11
			v-21.52c0-0.37,0.11-0.67,0.32-0.88c0.19-0.21,0.42-0.32,0.7-0.32s0.51,0.09,0.7,0.28c0.23,0.21,0.35,0.5,0.35,0.88v8.19h7.63
			v-8.37C328.92,266.71,329.02,266.46,329.24,266.3z M321.29,277.2v11.21c0,0.52,0.12,0.88,0.35,1.09c0.21,0.21,0.57,0.32,1.09,0.32
			h4.5c0.54,0,0.95-0.12,1.23-0.35c0.3-0.21,0.46-0.56,0.46-1.05V277.2H321.29z M343.54,265.21c0.68,0,1.02,0.3,1.02,0.91v27.46
			c0,0.3-0.12,0.55-0.35,0.74c-0.19,0.19-0.41,0.28-0.67,0.28c-0.28,0-0.52-0.08-0.7-0.25c-0.21-0.19-0.32-0.43-0.32-0.74v-12.73
			h-4.96v12.66c0,0.33-0.12,0.6-0.35,0.81c-0.19,0.16-0.42,0.25-0.7,0.25s-0.52-0.08-0.7-0.25c-0.21-0.21-0.32-0.48-0.32-0.81
			v-27.42c0-0.61,0.34-0.91,1.02-0.91c0.7,0,1.05,0.3,1.05,0.91v13.04h4.96v-13.04C342.52,265.51,342.86,265.21,343.54,265.21z"/>
		<path class="st26" d="M366.66,267.18c0.66,0.59,0.98,1.39,0.98,2.43v4.15c0,5.39-1.42,9.66-4.25,12.8
			c-2.62,2.93-6.09,4.54-10.41,4.82c-0.66,0.05-1.01-0.23-1.05-0.84c-0.05-0.59,0.26-0.9,0.91-0.95c4.03-0.42,7.12-1.89,9.28-4.39
			c2.34-2.72,3.52-6.55,3.52-11.5v-4.11c0-0.49-0.14-0.87-0.42-1.12c-0.3-0.26-0.73-0.39-1.27-0.39h-10.44
			c-0.66,0-0.98-0.3-0.98-0.91c-0.02-0.59,0.29-0.88,0.95-0.88h10.41C365.06,266.26,365.98,266.57,366.66,267.18z M377.21,294.32
			c-0.19,0.19-0.42,0.28-0.7,0.28c-0.3,0-0.55-0.09-0.74-0.28c-0.21-0.21-0.32-0.48-0.32-0.81v-27.35c0-0.3,0.11-0.55,0.32-0.74
			c0.19-0.14,0.43-0.21,0.74-0.21c0.28,0,0.51,0.07,0.7,0.21c0.23,0.19,0.35,0.43,0.35,0.74v27.35
			C377.56,293.84,377.44,294.11,377.21,294.32z"/>
	</g>
	<g>
		<path class="st26" d="M157.58,451.18c0,0.61-0.29,0.91-0.88,0.91h-6.96v1.83c0,2.72,0.88,5.13,2.64,7.24
			c1.34,1.62,3.21,3.07,5.62,4.36c0.3,0.16,0.49,0.39,0.56,0.67s0.04,0.54-0.11,0.77c-0.16,0.26-0.38,0.42-0.63,0.49
			c-0.33,0.09-0.66,0.05-0.98-0.14c-1.95-1.05-3.67-2.37-5.17-3.94c-1.57-1.64-2.57-3.25-2.99-4.82c-0.52,1.73-1.54,3.42-3.06,5.06
			c-1.52,1.69-3.28,3.04-5.27,4.04c-0.28,0.14-0.56,0.16-0.84,0.07c-0.23-0.07-0.42-0.22-0.56-0.46c-0.14-0.23-0.18-0.47-0.11-0.7
			c0.07-0.26,0.26-0.47,0.56-0.63c2.39-1.24,4.29-2.77,5.7-4.57c1.71-2.18,2.57-4.64,2.57-7.38v-1.9h-6.96
			c-0.66,0-0.97-0.3-0.95-0.91c0-0.59,0.33-0.88,0.98-0.88h15.96C157.29,450.3,157.58,450.59,157.58,451.18z M143.69,474.38
			c0,0.63,0.12,1.07,0.35,1.3c0.23,0.21,0.69,0.32,1.37,0.32h18.95c0.59,0,0.88,0.29,0.88,0.88c0,0.61-0.29,0.91-0.88,0.91h-19.3
			c-1.05,0-1.89-0.26-2.5-0.77c-0.66-0.54-0.98-1.32-0.98-2.36v-4.68c0-0.37,0.11-0.67,0.32-0.88c0.19-0.19,0.43-0.28,0.74-0.28
			c0.28,0,0.52,0.09,0.7,0.28c0.23,0.21,0.35,0.5,0.35,0.88V474.38z M163.84,470.41c-0.19,0.19-0.42,0.28-0.7,0.28
			c-0.3,0-0.55-0.09-0.74-0.28c-0.21-0.21-0.32-0.49-0.32-0.84v-19.34c0-0.3,0.11-0.55,0.32-0.74c0.19-0.16,0.43-0.25,0.74-0.25
			c0.28,0,0.52,0.08,0.7,0.25c0.23,0.16,0.35,0.4,0.35,0.7v19.37C164.19,469.92,164.07,470.2,163.84,470.41z"/>
		<path class="st26" d="M185.09,455.75c0.7,0,1.05,0.3,1.05,0.91v6.36h14.27c0.7,0,1.05,0.28,1.05,0.84
			c-0.02,0.59-0.38,0.88-1.05,0.88h-27.28c-0.7,0-1.05-0.29-1.05-0.88c0-0.56,0.35-0.84,1.05-0.84h10.93v-6.36
			C184.07,456.05,184.41,455.75,185.09,455.75z M197.57,450.65c0.73,0.61,1.09,1.46,1.09,2.57v1.72c0,1.24-0.08,2.2-0.25,2.88
			c-0.19,0.75-0.54,1.51-1.05,2.29c-0.19,0.23-0.43,0.36-0.74,0.39c-0.26,0.02-0.49-0.05-0.7-0.21c-0.23-0.16-0.39-0.36-0.46-0.6
			c-0.07-0.28,0-0.55,0.21-0.81c0.35-0.56,0.59-1.16,0.7-1.79c0.12-0.52,0.18-1.25,0.18-2.21v-1.48c0-0.56-0.2-1.01-0.6-1.34
			c-0.38-0.3-0.89-0.46-1.55-0.46h-18.98c-0.63,0-0.95-0.3-0.95-0.91c0-0.61,0.32-0.91,0.95-0.91h19.3
			C195.92,449.77,196.87,450.07,197.57,450.65z M196.17,469.88c1.92,0.87,2.88,2.1,2.88,3.69c0,1.55-0.96,2.77-2.88,3.66
			c-2.11,0.98-5.24,1.48-9.39,1.48c-4.17,0-7.31-0.49-9.42-1.48c-1.9-0.89-2.85-2.11-2.85-3.66c0-1.57,0.95-2.8,2.85-3.69
			c2.11-0.98,5.25-1.48,9.42-1.48S194.08,468.9,196.17,469.88z M178.87,471.08c-1.55,0.56-2.32,1.39-2.32,2.5
			c0,1.05,0.77,1.85,2.32,2.39c1.71,0.63,4.35,0.95,7.91,0.95c3.54,0,6.16-0.32,7.88-0.95c1.57-0.54,2.36-1.34,2.36-2.39
			c0-1.1-0.79-1.93-2.36-2.5c-1.71-0.61-4.34-0.91-7.88-0.91C183.22,470.16,180.58,470.47,178.87,471.08z"/>
		<path class="st26" d="M225.4,454.87c0,0.61-0.29,0.91-0.88,0.91h-6.96v0.74c0,1.92,0.67,3.53,2,4.82
			c1.36,1.29,3.32,2.19,5.87,2.71c0.33,0.07,0.56,0.23,0.7,0.49c0.14,0.26,0.16,0.52,0.07,0.77c-0.07,0.28-0.23,0.49-0.49,0.63
			c-0.28,0.16-0.6,0.21-0.95,0.14c-2.2-0.56-4.05-1.38-5.55-2.46c-1.34-0.96-2.24-2-2.71-3.13c-0.49,1.2-1.34,2.27-2.53,3.23
			c-1.48,1.17-3.41,2.1-5.8,2.78c-0.3,0.07-0.57,0.02-0.81-0.14c-0.23-0.14-0.4-0.34-0.49-0.6c-0.09-0.26-0.09-0.5,0-0.74
			c0.09-0.23,0.3-0.39,0.63-0.46c2.55-0.59,4.54-1.59,5.94-3.02c1.36-1.38,2.04-3.05,2.04-4.99v-0.77h-6.96
			c-0.66,0-0.97-0.3-0.95-0.91c0-0.61,0.33-0.91,0.98-0.91h15.96C225.11,453.96,225.4,454.26,225.4,454.87z M229.48,469.57
			c1.85,0.94,2.78,2.21,2.78,3.83c0,1.55-0.93,2.79-2.78,3.73c-2.02,1.05-4.95,1.58-8.79,1.58s-6.79-0.53-8.82-1.58
			c-1.83-0.94-2.74-2.18-2.74-3.73c0-1.62,0.91-2.89,2.74-3.83c2.04-1.05,4.98-1.58,8.82-1.58S227.47,468.51,229.48,469.57z
			 M221.96,450.72c0.02,0.61-0.25,0.91-0.81,0.91h-9.14c-0.68,0-1.02-0.3-1.02-0.91c0-0.61,0.34-0.91,1.02-0.91h9
			C221.62,449.81,221.94,450.11,221.96,450.72z M213.42,470.8c-1.5,0.63-2.25,1.5-2.25,2.6c0,1.05,0.75,1.89,2.25,2.5
			c1.64,0.68,4.07,1.02,7.28,1.02c3.19,0,5.6-0.34,7.24-1.02c1.52-0.61,2.29-1.44,2.29-2.5c0-1.1-0.76-1.97-2.29-2.6
			c-1.64-0.66-4.05-0.98-7.24-0.98C217.48,469.81,215.06,470.14,213.42,470.8z M231.66,467.14c-0.19,0.19-0.42,0.28-0.7,0.28
			c-0.3,0-0.55-0.09-0.74-0.28c-0.21-0.19-0.32-0.44-0.32-0.77v-5.66h-5.41c-0.38,0-0.67-0.09-0.88-0.28
			c-0.21-0.19-0.32-0.4-0.32-0.63c-0.02-0.23,0.05-0.44,0.21-0.63c0.16-0.16,0.41-0.25,0.74-0.25h5.66v-8.69
			c0-0.3,0.11-0.55,0.32-0.74c0.19-0.16,0.43-0.25,0.74-0.25c0.28,0,0.52,0.08,0.7,0.25c0.23,0.16,0.35,0.4,0.35,0.7v16.18
			C232.01,466.7,231.9,466.95,231.66,467.14z"/>
		<path class="st26" d="M253.9,466.44c0.19-0.16,0.42-0.23,0.7-0.21c0.26,0,0.48,0.09,0.67,0.28c0.23,0.19,0.35,0.45,0.35,0.77v7.14
			h12.62c0.33,0,0.58,0.08,0.77,0.25c0.19,0.19,0.28,0.4,0.28,0.63c0,0.23-0.09,0.45-0.28,0.63c-0.19,0.19-0.43,0.28-0.74,0.28
			h-27.6c-0.26,0-0.46-0.09-0.6-0.28c-0.14-0.19-0.2-0.4-0.18-0.63c0.02-0.23,0.12-0.44,0.28-0.63c0.19-0.16,0.44-0.25,0.77-0.25
			h12.62v-7.28C253.59,466.84,253.69,466.6,253.9,466.44z M253.9,449.88c0.19-0.19,0.42-0.28,0.7-0.28c0.26,0,0.48,0.09,0.67,0.28
			c0.23,0.23,0.35,0.54,0.35,0.91c0,3.61,1.21,6.67,3.62,9.18c2.11,2.18,4.7,3.59,7.77,4.22c0.35,0.07,0.62,0.22,0.81,0.46
			c0.16,0.21,0.21,0.45,0.14,0.7c-0.05,0.26-0.19,0.46-0.42,0.6c-0.28,0.14-0.62,0.18-1.02,0.11c-2.72-0.56-5.23-1.9-7.52-4.01
			c-2.18-2.02-3.64-4.2-4.39-6.54c-0.7,2.37-2.17,4.55-4.39,6.54c-2.32,2.13-4.9,3.48-7.73,4.04c-0.35,0.05-0.65,0-0.88-0.14
			c-0.21-0.14-0.34-0.33-0.39-0.56c-0.02-0.26,0.05-0.48,0.21-0.67c0.16-0.23,0.43-0.39,0.81-0.46c2.91-0.59,5.44-1.99,7.59-4.22
			c2.51-2.58,3.76-5.68,3.76-9.32C253.59,450.37,253.69,450.09,253.9,449.88z"/>
		<path class="st26" d="M288.94,451.21c0.66,0.59,0.98,1.39,0.98,2.43v4.15c0,5.39-1.42,9.66-4.25,12.8
			c-2.62,2.93-6.09,4.54-10.41,4.82c-0.66,0.05-1.01-0.23-1.05-0.84c-0.05-0.59,0.26-0.9,0.91-0.95c4.03-0.42,7.12-1.89,9.28-4.39
			c2.34-2.72,3.52-6.55,3.52-11.5v-4.11c0-0.49-0.14-0.87-0.42-1.12c-0.3-0.26-0.73-0.39-1.27-0.39h-10.44
			c-0.66,0-0.98-0.3-0.98-0.91c-0.02-0.59,0.29-0.88,0.95-0.88h10.41C287.33,450.3,288.26,450.6,288.94,451.21z M299.49,478.35
			c-0.19,0.19-0.42,0.28-0.7,0.28c-0.3,0-0.55-0.09-0.74-0.28c-0.21-0.21-0.32-0.48-0.32-0.81v-27.35c0-0.3,0.11-0.55,0.32-0.74
			c0.19-0.14,0.43-0.21,0.74-0.21c0.28,0,0.51,0.07,0.7,0.21c0.23,0.19,0.35,0.43,0.35,0.74v27.35
			C299.84,477.87,299.72,478.14,299.49,478.35z"/>
		<path class="st26" d="M346.74,465.35c0.19,0.19,0.28,0.4,0.28,0.63c0,0.23-0.09,0.45-0.28,0.63c-0.19,0.19-0.43,0.28-0.74,0.28
			h-27.39c-0.66,0-0.98-0.3-0.98-0.91c0.02-0.59,0.37-0.88,1.05-0.88h12.59v-4.11c0-0.3,0.11-0.54,0.32-0.7
			c0.19-0.16,0.42-0.25,0.7-0.25c0.26,0,0.48,0.07,0.67,0.21c0.23,0.14,0.35,0.35,0.35,0.63v4.22h12.66
			C346.3,465.1,346.56,465.18,346.74,465.35z M321.33,459.93c-0.59-0.49-0.88-1.2-0.88-2.11v-6.96c0-0.35,0.11-0.63,0.32-0.84
			c0.19-0.19,0.43-0.28,0.74-0.28c0.28,0,0.51,0.09,0.7,0.28c0.23,0.21,0.35,0.49,0.35,0.84v2.67h19.55v-2.78
			c0-0.33,0.11-0.59,0.32-0.77c0.19-0.19,0.43-0.28,0.74-0.28c0.28,0,0.51,0.09,0.7,0.28c0.23,0.19,0.35,0.45,0.35,0.77v6.86
			c0,0.98-0.29,1.75-0.88,2.29c-0.56,0.54-1.39,0.81-2.5,0.81h-17.05C322.73,460.71,321.91,460.45,321.33,459.93z M322.56,474.38
			c0,0.63,0.12,1.07,0.35,1.3c0.23,0.21,0.68,0.32,1.34,0.32h19.44c0.61,0,0.91,0.29,0.91,0.88c0,0.61-0.3,0.91-0.91,0.91h-20.21
			c-0.94,0-1.68-0.29-2.21-0.88c-0.54-0.56-0.81-1.3-0.81-2.21v-4.71c0-0.42,0.11-0.74,0.32-0.95c0.19-0.21,0.43-0.32,0.74-0.32
			c0.28,0,0.51,0.11,0.7,0.32c0.23,0.23,0.35,0.55,0.35,0.95V474.38z M322.56,455.33v2.21c0,0.47,0.11,0.81,0.32,1.02
			c0.23,0.23,0.62,0.35,1.16,0.35h16.45c0.56,0,0.97-0.12,1.23-0.35c0.26-0.21,0.39-0.56,0.39-1.05v-2.18H322.56z"/>
		<path class="st26" d="M366.63,455.71c-0.02,0.61-0.3,0.91-0.84,0.91h-4.85v4.08c0,3.07,0.69,5.87,2.07,8.4
			c0.98,1.81,2.4,3.54,4.25,5.2c0.26,0.21,0.39,0.47,0.39,0.77c-0.02,0.28-0.14,0.53-0.35,0.74c-0.23,0.21-0.49,0.33-0.77,0.35
			c-0.3,0.05-0.56-0.04-0.77-0.25c-1.41-1.27-2.64-2.74-3.69-4.43c-1.05-1.66-1.77-3.25-2.14-4.75c-0.42,1.5-1.21,3.09-2.36,4.78
			c-1.12,1.66-2.4,3.12-3.83,4.36c-0.26,0.21-0.53,0.29-0.81,0.25c-0.28-0.02-0.52-0.14-0.7-0.35s-0.27-0.44-0.25-0.7
			c0.02-0.33,0.18-0.61,0.46-0.84c1.83-1.64,3.26-3.35,4.29-5.13c1.43-2.51,2.14-5.29,2.14-8.33v-4.15h-4.78
			c-0.66,0-0.97-0.3-0.95-0.91c0-0.59,0.33-0.88,0.98-0.88h11.67C366.35,454.84,366.63,455.13,366.63,455.71z M364.31,450.16
			c0.16,0.19,0.26,0.4,0.28,0.63c0,0.23-0.07,0.45-0.21,0.63c-0.16,0.19-0.38,0.28-0.63,0.28h-7.56c-0.66,0-0.98-0.3-0.98-0.91
			c0-0.59,0.33-0.88,0.98-0.88h7.42C363.91,449.91,364.14,450,364.31,450.16z M371.97,478.36c-0.19,0.19-0.42,0.28-0.7,0.28
			c-0.3,0-0.55-0.09-0.74-0.28c-0.21-0.21-0.32-0.48-0.32-0.81v-12.27h-4.08c-0.38,0-0.67-0.09-0.88-0.28
			c-0.19-0.16-0.28-0.36-0.28-0.6c0-0.23,0.09-0.43,0.28-0.6c0.21-0.16,0.49-0.25,0.84-0.25h4.11v-13.33c0-0.3,0.11-0.55,0.32-0.74
			c0.19-0.16,0.43-0.25,0.74-0.25c0.28,0,0.52,0.08,0.7,0.25c0.23,0.16,0.35,0.4,0.35,0.7v27.35
			C372.32,477.88,372.21,478.14,371.97,478.36z M378.12,478.36c-0.19,0.19-0.41,0.28-0.67,0.28c-0.28,0-0.52-0.09-0.7-0.28
			c-0.21-0.21-0.32-0.48-0.32-0.81v-27.32c0-0.3,0.11-0.55,0.32-0.74c0.19-0.16,0.42-0.25,0.7-0.25c0.26,0,0.48,0.08,0.67,0.25
			c0.23,0.16,0.35,0.4,0.35,0.7v27.35C378.48,477.88,378.36,478.14,378.12,478.36z"/>
	</g>
	<g>
		<path d="M680.62,498.88l9.86,11.18c0.2,0.23,0.31,0.52,0.31,0.82v0.72c0,0.69-0.56,1.24-1.24,1.24h-16.88
			c-0.69,0-1.24-0.56-1.24-1.24v-0.2c0-0.69,0.56-1.24,1.24-1.24h8.71c1.08,0,1.65-1.28,0.92-2.08l-10.17-11.11
			c-0.21-0.23-0.33-0.53-0.33-0.84v-0.76c0-0.69,0.56-1.24,1.24-1.24h16.13c0.69,0,1.24,0.56,1.24,1.24v0.2
			c0,0.69-0.56,1.24-1.24,1.24h-7.62C680.48,496.82,679.91,498.08,680.62,498.88z"/>
		<path d="M642.48,512.88h-17.1c-0.69,0-1.24-0.56-1.24-1.24V495.4c0-0.69,0.56-1.24,1.24-1.24h17.1c0.69,0,1.24,0.56,1.24,1.24v0
			c0,0.69-0.56,1.24-1.24,1.24h-10.57c-0.69,0-1.24,0.56-1.24,1.24v2.89c0,0.69,0.56,1.24,1.24,1.24h10.6
			c0.69,0,1.24,0.56,1.24,1.24l0,0c0,0.69-0.56,1.24-1.24,1.24h-10.6c-0.69,0-1.24,0.56-1.24,1.24v3.4c0,0.69,0.56,1.24,1.24,1.24
			h10.57c0.69,0,1.24,0.56,1.24,1.24v0C643.72,512.32,643.17,512.88,642.48,512.88z"/>
		<path d="M668.15,495.37v16.24c0,0.69-0.56,1.24-1.24,1.24h-4.95c-0.44,0-0.85-0.23-1.07-0.61l-5.51-9.33
			c-0.64-1.09-2.31-0.63-2.31,0.63v8.06c0,0.69-0.56,1.24-1.24,1.24h-3.29c-0.69,0-1.24-0.56-1.24-1.24v-16.24
			c0-0.69,0.56-1.24,1.24-1.24h5.1c0.44,0,0.85,0.23,1.07,0.61l5.38,9.18c0.64,1.09,2.32,0.64,2.32-0.63v-7.93
			c0-0.69,0.56-1.24,1.24-1.24h3.26C667.59,494.13,668.15,494.69,668.15,495.37z"/>
		<path d="M611.12,498.88l9.86,11.18c0.2,0.23,0.31,0.52,0.31,0.82v0.72c0,0.69-0.56,1.24-1.24,1.24h-16.88
			c-0.69,0-1.24-0.56-1.24-1.24v-0.2c0-0.69,0.56-1.24,1.24-1.24h8.71c1.08,0,1.65-1.28,0.92-2.08l-10.17-11.11
			c-0.21-0.23-0.33-0.53-0.33-0.84v-0.76c0-0.69,0.56-1.24,1.24-1.24h16.13c0.69,0,1.24,0.56,1.24,1.24v0.2
			c0,0.69-0.56,1.24-1.24,1.24h-7.62C610.99,496.82,610.42,498.08,611.12,498.88z"/>
		<path d="M714.53,509.83c0,0.54-0.04,1.01-0.11,1.4c-0.07,0.39-0.23,0.7-0.48,0.94c-0.25,0.24-0.62,0.41-1.11,0.52
			c-0.49,0.11-1.14,0.16-1.95,0.16h-13.56c-0.81,0-1.46-0.06-1.95-0.16c-0.49-0.11-0.86-0.28-1.11-0.52
			c-0.25-0.24-0.41-0.55-0.48-0.94c-0.07-0.39-0.11-0.85-0.11-1.4v-12.68c0-0.54,0.04-1,0.11-1.38c0.07-0.38,0.23-0.7,0.48-0.95
			c0.25-0.24,0.62-0.41,1.11-0.52c0.49-0.11,1.14-0.16,1.95-0.16h13.56c0.81,0,1.46,0.06,1.95,0.16c0.49,0.11,0.86,0.28,1.11,0.52
			c0.25,0.25,0.41,0.57,0.48,0.95c0.07,0.38,0.11,0.84,0.11,1.38V509.83z M700.2,509.73c0,0.24,0.05,0.4,0.14,0.49
			c0.09,0.09,0.29,0.14,0.58,0.14h6.37c0.29,0,0.49-0.05,0.58-0.14c0.09-0.09,0.14-0.26,0.14-0.49v-12.48c0-0.24-0.05-0.4-0.14-0.49
			c-0.09-0.09-0.29-0.14-0.58-0.14h-6.37c-0.29,0-0.49,0.05-0.58,0.14c-0.09,0.09-0.14,0.26-0.14,0.49V509.73z"/>
	</g>
	<path class="st17" d="M785.03,657.67h-253.6c-12.81,0-23.2-10.39-23.2-23.2v-403.6c0-12.81,10.39-23.2,23.2-23.2h253.6
		c12.81,0,23.2,10.39,23.2,23.2v403.6C808.23,647.29,797.85,657.67,785.03,657.67z"/>
	<path class="st17" d="M735.55,268.86c-12.3-30.64-42.28-40.28-77.32-40.28c-35.04,0-65.02,9.64-77.32,40.28
		c-3.85,9.58-5.97,22.05-5.97,33.01v315.88c0,7.98,6.46,14.44,14.44,14.44h137.7c7.97,0,14.44-6.46,14.44-14.44V301.87
		C741.52,290.91,739.4,278.44,735.55,268.86z"/>
	<g>
		<path class="st17" d="M697.76,324.2v58.51c0,3.78-3.07,6.85-6.85,6.85h-65.36c-3.78,0-6.85-3.07-6.85-6.85v-58.15
			c0-5.2,1.01-11.12,2.83-15.67c5.84-14.54,20.07-19.12,36.7-19.12s30.86,4.58,36.7,19.12C696.72,313.34,697.71,319.09,697.76,324.2
			z"/>
		<g>
			<g>
				<line class="st17" x1="627.98" y1="305.81" x2="651.33" y2="305.81"/>
				<line class="st17" x1="627.98" y1="311.51" x2="651.33" y2="311.51"/>
			</g>
			<g>
				<line class="st17" x1="665.14" y1="305.81" x2="688.48" y2="305.81"/>
				<line class="st17" x1="665.14" y1="311.51" x2="688.48" y2="311.51"/>
			</g>
		</g>
		<g>
			<g>
				<line class="st17" x1="627.98" y1="372.32" x2="651.33" y2="372.32"/>
				<line class="st17" x1="627.98" y1="378.02" x2="651.33" y2="378.02"/>
			</g>
			<g>
				<line class="st17" x1="665.14" y1="372.32" x2="688.48" y2="372.32"/>
				<line class="st17" x1="665.14" y1="378.02" x2="688.48" y2="378.02"/>
			</g>
		</g>
	</g>
	<line class="st17" x1="508.23" y1="406.05" x2="808.23" y2="406.05"/>
	<rect x="475.04" y="254.16" class="st17" width="33.19" height="49.43"/>
	<rect x="808.19" y="279.23" class="st17" width="5.35" height="25.9"/>
	<rect x="808.22" y="552.22" class="st17" width="27.15" height="50.3"/>
	<g>
		<path class="st26" d="M965.12,578.76c0.19,0.19,0.28,0.4,0.28,0.63c0,0.23-0.09,0.45-0.28,0.63c-0.19,0.19-0.43,0.28-0.74,0.28
			h-27.35c-0.68,0-1.02-0.3-1.02-0.91c0-0.59,0.35-0.88,1.05-0.88h27.28C964.67,578.51,964.93,578.6,965.12,578.76z M963.54,567.12
			c0.02,0.61-0.26,0.91-0.84,0.91h-23.84c-0.66,0-0.98-0.3-0.98-0.91c0-0.59,0.33-0.88,0.98-0.88h23.73
			C963.2,566.24,963.51,566.54,963.54,567.12z M960.79,582.63c0.19-0.16,0.43-0.25,0.74-0.25c0.28,0,0.52,0.08,0.7,0.25
			c0.23,0.19,0.35,0.46,0.35,0.81v5.55c0,0.73-0.23,1.32-0.7,1.79c-0.52,0.49-1.21,0.74-2.07,0.74h-18.39
			c-0.8,0-1.44-0.25-1.93-0.74c-0.45-0.47-0.67-1.08-0.67-1.83v-5.52c0-0.35,0.11-0.62,0.32-0.81c0.19-0.16,0.43-0.25,0.74-0.25
			c0.28,0,0.52,0.08,0.7,0.25c0.23,0.19,0.35,0.46,0.35,0.81v1.65h19.55v-1.65C960.48,583.08,960.58,582.81,960.79,582.63z
			 M959.14,570.32c1.9,0.66,2.85,1.54,2.85,2.64c0,1.08-0.95,1.96-2.85,2.64c-2.04,0.73-4.85,1.09-8.44,1.09
			c-3.61,0-6.42-0.36-8.44-1.09c-1.88-0.68-2.81-1.56-2.81-2.64c0-1.1,0.94-1.98,2.81-2.64c2.02-0.7,4.83-1.05,8.44-1.05
			C954.29,569.27,957.1,569.62,959.14,570.32z M940.93,586.88v1.69c0,0.4,0.09,0.68,0.28,0.84c0.19,0.21,0.53,0.32,1.02,0.32h16.95
			c0.52,0,0.86-0.08,1.02-0.25c0.19-0.16,0.28-0.47,0.28-0.91v-1.69H940.93z M943.85,571.59c-1.5,0.33-2.25,0.79-2.25,1.37
			c0,0.56,0.75,1.01,2.25,1.34c1.59,0.38,3.88,0.56,6.86,0.56c2.95,0,5.24-0.19,6.86-0.56c1.52-0.33,2.29-0.77,2.29-1.34
			c0-0.59-0.76-1.04-2.29-1.37c-1.59-0.35-3.88-0.53-6.86-0.53S945.44,571.24,943.85,571.59z M958.05,563.47
			c0.02,0.61-0.25,0.91-0.81,0.91h-12.9c-0.66,0-0.98-0.3-0.98-0.91c0-0.59,0.33-0.88,0.98-0.88h12.76
			C957.71,562.59,958.03,562.88,958.05,563.47z"/>
		<path class="st26" d="M985.14,565.33c1.34,1.36,2,3.05,2,5.06c0,1.97-0.67,3.62-2,4.96c-1.45,1.48-3.45,2.21-5.98,2.21
			c-2.55,0-4.58-0.74-6.08-2.21c-1.34-1.34-2-2.99-2-4.96c0-2.02,0.67-3.7,2-5.06c1.5-1.48,3.53-2.21,6.08-2.21
			C981.67,563.11,983.67,563.85,985.14,565.33z M974.63,566.6c-0.96,0.98-1.44,2.25-1.44,3.8c0,1.5,0.48,2.75,1.44,3.76
			c1.08,1.12,2.59,1.69,4.54,1.69c1.9,0,3.39-0.56,4.46-1.69c0.98-1.01,1.48-2.26,1.48-3.76c0-1.55-0.49-2.81-1.48-3.8
			c-1.08-1.1-2.57-1.65-4.46-1.65C977.22,564.94,975.71,565.49,974.63,566.6z M994.14,580.48c0.19-0.16,0.43-0.25,0.74-0.25
			c0.28,0,0.52,0.08,0.7,0.25c0.23,0.19,0.35,0.45,0.35,0.77v7.31c0,0.73-0.25,1.31-0.74,1.76c-0.52,0.49-1.21,0.74-2.07,0.74
			h-16.98c-0.82,0-1.46-0.25-1.93-0.74c-0.45-0.47-0.67-1.08-0.67-1.83v-7.24c0-0.33,0.11-0.59,0.32-0.77
			c0.19-0.16,0.42-0.25,0.7-0.25s0.52,0.08,0.7,0.25c0.23,0.19,0.35,0.45,0.35,0.77v2.18h18.21v-2.18
			C993.83,580.93,993.93,580.67,994.14,580.48z M975.62,585.23v2.85c0,0.4,0.09,0.69,0.28,0.88c0.21,0.21,0.56,0.32,1.05,0.32h15.57
			c0.49,0,0.83-0.09,1.02-0.28c0.19-0.16,0.28-0.46,0.28-0.88v-2.88H975.62z M995.58,578.27c-0.19,0.19-0.42,0.28-0.7,0.28
			c-0.3,0-0.55-0.09-0.74-0.28c-0.21-0.21-0.32-0.48-0.32-0.81V563.5c0-0.3,0.11-0.55,0.32-0.74c0.19-0.16,0.43-0.25,0.74-0.25
			c0.28,0,0.52,0.08,0.7,0.25c0.23,0.16,0.35,0.4,0.35,0.7v14C995.94,577.79,995.82,578.06,995.58,578.27z"/>
	</g>
	<g>
		<path d="M697.76,324.2v29c-4.9,2.07-10.24,3.46-15.75,3.46c-11.75,0-18.84-4.52-24.03-7.83c-3.9-2.48-5.39-3.34-8.23-3.34
			c-9.42,0-24.15,10.1-31.05,15.93v-30.59c9.01-5.37,20.26-10.34,31.05-10.34c10.27,0,16.86,4.2,21.67,7.26
			c3.95,2.52,6.13,3.91,10.59,3.91C686.81,331.66,692.9,328,697.76,324.2z"/>
	</g>
</g>
<g id="레이어_2" class="st28">
</g>
</svg>
