<?xml version="1.0" encoding="utf-8"?>
<!-- Generator: Adobe Illustrator 29.6.1, SVG Export Plug-In . SVG Version: 9.03 Build 0)  -->
<svg version="1.1" id="레이어_1" xmlns="http://www.w3.org/2000/svg" xmlns:xlink="http://www.w3.org/1999/xlink" x="0px"
	 y="0px" viewBox="0 0 1119.34 790.42" style="enable-background:new 0 0 1119.34 790.42;" xml:space="preserve">
<style type="text/css">
	.st0{display:none;}
	.st1{clip-path:url(#SVGID_00000011724370235409943170000012935158857624579220_);}
	.st2{fill:#E1E3E5;}
	.st3{fill:#C0C8CE;}
	.st4{fill:#9A9DA0;}
	.st5{fill:none;}
</style>
<g id="레이어_2_00000084518011847350202100000006493168876364652959_" class="st0">
</g>
<g>
	<defs>
		<polygon id="SVGID_1_" points="1119.34,789.32 0,788.98 0,0 1121.13,0 		"/>
	</defs>
	<clipPath id="SVGID_00000141444042272128792950000012962353640899150218_">
		<use xlink:href="#SVGID_1_"  style="overflow:visible;"/>
	</clipPath>
	<g id="레이어_3" style="clip-path:url(#SVGID_00000141444042272128792950000012962353640899150218_);">
		<g>
			<polygon class="st2" points="533.35,251.36 399.61,294.45 399.34,294.39 335.86,279.78 333.86,279.32 97.83,224.99 97.83,455.04 
				215.06,430.74 215.06,265 217.06,265 217.06,432.37 95.83,457.5 95.83,222.48 95.85,222.48 99.76,223.39 399.52,292.38 
				525.62,251.75 225.9,187.39 225.33,187.27 225.74,185.37 225.75,185.32 231.85,186.63 233.85,187.06 239.74,188.32 
				241.74,188.75 			"/>
		</g>
		<g>
			<polygon class="st2" points="525.62,251.75 399.52,292.38 99.76,223.39 225.9,187.39 			"/>
			<polygon class="st2" points="226.3,187.28 225.9,187.39 99.76,223.39 96.38,224.35 95.85,222.48 95.83,222.43 225.74,185.37 
				225.76,185.36 			"/>
		</g>
		<g>
			<polygon class="st2" points="333.86,279.32 333.86,292.07 97.83,235.87 97.83,224.99 			"/>
			<polygon class="st2" points="335.86,278.52 335.86,294.6 248.99,273.92 246.99,273.44 233.85,270.31 232.71,270.04 
				217.06,266.31 215.06,265.84 97.83,237.92 96.6,237.63 97.07,235.69 97.83,235.87 333.86,292.07 333.86,278.52 			"/>
		</g>
		<g>
			<path class="st2" d="M232.71,270.04h-0.86v179c0,2.01-1.43,3.78-3.39,4.22L87.33,484.41c-1.29,0.29-2.61-0.02-3.64-0.85
				c-1.03-0.82-1.61-2.05-1.61-3.36V210.57c0-2.04,1.39-3.77,3.38-4.21L226.6,175.2c1.28-0.28,2.61,0.03,3.63,0.85
				c1.03,0.82,1.62,2.05,1.62,3.37v7.21l-6.1-1.31l-0.01,0.05L95.83,222.43l0.02,0.05h-0.02V457.5l121.23-25.13V266.31
				L232.71,270.04z"/>
			<path class="st2" d="M233.85,179.42v8.8h-2v-8.8c0-1.32-0.59-2.55-1.62-3.37c-1.02-0.82-2.35-1.13-3.63-0.85L85.46,206.36
				c-1.99,0.44-3.38,2.17-3.38,4.21V480.2c0,1.31,0.58,2.54,1.61,3.36c1.03,0.83,2.35,1.14,3.64,0.85l141.13-31.15
				c1.96-0.44,3.39-2.21,3.39-4.22v-179h2v179c0,2.94-2.09,5.54-4.96,6.17L87.76,486.37c-0.46,0.1-0.92,0.15-1.38,0.15
				c-1.42,0-2.81-0.48-3.94-1.4c-1.5-1.2-2.36-3-2.36-4.92V210.57c0-2.98,2.04-5.52,4.95-6.17l141.13-31.15
				c1.89-0.42,3.82,0.04,5.32,1.24C232.99,175.7,233.85,177.49,233.85,179.42z"/>
		</g>
		<g>
			<path class="st2" d="M246.99,273.44V461.4c0,4.47-3.04,8.29-7.39,9.31L58.25,512.85c-2.86,0.66-5.81,0-8.1-1.82
				c-2.3-1.82-3.61-4.55-3.61-7.48V203.42c0-4.31,2.91-8.11,7.01-9.21l174.03-34.62c3.93-1.05,7.61-0.66,9.84,1.05
				c1.54,1.18,2.32,2.93,2.32,5.19v22.49l-5.89-1.26v-7.64c0-1.93-0.86-3.72-2.37-4.93c-1.5-1.2-3.43-1.66-5.32-1.24L85.03,204.4
				c-2.91,0.65-4.95,3.19-4.95,6.17V480.2c0,1.92,0.86,3.72,2.36,4.92c1.13,0.92,2.52,1.4,3.94,1.4c0.46,0,0.92-0.05,1.38-0.15
				l141.13-31.16c2.87-0.63,4.96-3.23,4.96-6.17V270.31L246.99,273.44z"/>
			<path class="st2" d="M248.99,272.65V461.4c0,5.4-3.67,10.03-8.93,11.25L58.7,514.8c-0.88,0.2-1.76,0.3-2.64,0.3
				c-2.57,0-5.09-0.86-7.16-2.51c-2.77-2.2-4.36-5.5-4.36-9.04V203.42c0-5.22,3.52-9.8,8.55-11.16l174.03-34.61
				c4.47-1.2,8.8-0.68,11.52,1.4c2.03,1.56,3.1,3.9,3.1,6.78v23.73h-2v-23.73c0-2.26-0.78-4.01-2.32-5.19
				c-2.23-1.71-5.91-2.1-9.84-1.05L53.55,194.21c-4.1,1.1-7.01,4.9-7.01,9.21v300.13c0,2.93,1.31,5.66,3.61,7.48
				c2.29,1.82,5.24,2.48,8.1,1.82l181.35-42.14c4.35-1.02,7.39-4.84,7.39-9.31V272.65H248.99z"/>
		</g>
		<g>
			<path class="st2" d="M162.48,272.57h-0.03c-0.15,0-0.35,0.01-0.59,0.01c-3.42,0.07-6.75,0.76-9.94,1.99
				c-18.34,7.12-31.93,32.31-31.93,62.21s13.59,55.1,31.93,62.22c3.22,1.24,6.59,1.93,10.05,1.99c0.17,0.01,0.34,0.01,0.51,0.01
				c23.43,0,42.49-28.81,42.49-64.22S185.91,272.57,162.48,272.57z M162.48,399c-22.33,0-40.49-27.91-40.49-62.22
				c0-34.3,18.16-62.21,40.49-62.21s40.49,27.91,40.49,62.21C202.97,371.09,184.81,399,162.48,399z"/>
		</g>
		<g>
			<path class="st2" d="M97.83,237.92v217.12l117.23-24.3v-164.9L97.83,237.92z M162.48,401c-0.17,0-0.34,0-0.51-0.01V401h-9.96
				c-23.43,0-42.49-28.81-42.49-64.22s19.06-64.21,42.49-64.21l2.21,0.01c2.44,0.01,5.97,0.02,7.64,0c0.24,0,0.44-0.01,0.59-0.01
				h0.03c23.43,0,42.49,28.8,42.49,64.21S185.91,401,162.48,401z"/>
			<path class="st2" d="M151.92,399c-22.29-0.08-40.4-27.96-40.4-62.22c0-34.25,18.11-62.13,40.4-62.21
				c-18.34,7.12-31.93,32.31-31.93,62.21S133.58,391.88,151.92,399z"/>
			<path class="st2" d="M151.92,399h10.05v2h-9.96c-23.43,0-42.49-28.81-42.49-64.22s19.06-64.21,42.49-64.21l2.21,0.01
				c2.44,0.01,5.97,0.02,7.64,0c0.24,0,0.44-0.01,0.59-0.01l0.06,1.99c-1.27,0.04-5.5,0.03-8.29,0.02l-2.21-0.01h-0.09
				c-22.29,0.08-40.4,27.96-40.4,62.21C111.52,371.04,129.63,398.92,151.92,399z"/>
		</g>
		<g>
			<path class="st3" d="M440.92,349.92l-0.08,1.18l-0.05,0.82l-0.89-0.06l-95.51-6.14c-1.41,0.95-8.4,6.02-12.99,16.35
				c-4.69,10.55-7.75,28.92,4.16,56.58l84.04,12.79l0.87,0.13l-0.3,1.98h-0.01l-86-13.09l-0.22-0.51
				c-12.48-28.69-9.24-47.82-4.32-58.81c5.37-12,13.64-17.08,13.99-17.29l0.27-0.16L440.92,349.92z"/>
		</g>
		<g>
			<path class="st4" d="M443.81,348.98c0,0-1.15,0.69-2.97,2.12c-0.3,0.24-0.61,0.49-0.94,0.76c-9.51,7.85-32.24,32.31-20.3,79.58
				c0.18,0.7,0.36,1.4,0.56,2.11c0.45,1.68,0.95,3.39,1.49,5.13l67.23,17h0.01l2.33,0.59c0,0-0.32-0.72-0.82-2.05
				c-4.14-11.02-20.76-63.91,27.81-95.64c0.96-0.62,1.95-1.24,2.96-1.85c0.08-0.05,0.16-0.1,0.24-0.15L443.81,348.98z M482.3,419.59
				c-0.15,15.14,3.54,27.8,5.66,33.79l-64.73-16.36c-7.67-25.25-6.44-48.1,3.59-66.15c6.68-12.02,15.29-18.35,17.49-19.83
				l71.16,6.97C488.54,376.44,482.49,401.41,482.3,419.59z"/>
			<path class="st2" d="M482.3,419.59c-0.15,15.14,3.54,27.8,5.66,33.79l-64.73-16.36c-7.67-25.25-6.44-48.1,3.59-66.15
				c6.68-12.02,15.29-18.35,17.49-19.83l71.16,6.97C488.54,376.44,482.49,401.41,482.3,419.59z"/>
			<path class="st2" d="M419.6,431.44l-84.04-12.79c-11.91-27.66-8.85-46.03-4.16-56.58c4.59-10.33,11.58-15.4,12.99-16.35
				l95.51,6.14C430.39,359.71,407.66,384.17,419.6,431.44z"/>
		</g>
		<g>
			<path class="st4" d="M541.64,373.04v0.01h-0.05c-0.01,0-0.03,0-0.04,0.01l-1.9,0.21c-0.01-0.11-0.09-0.7-0.32-1.59
				c-1.06-3.81-5.18-13.03-20.55-13.03h-0.57v-0.07l-0.02-1.93h0.59c0.83,0,1.62,0.03,2.39,0.08c14.5,0.92,18.83,10.27,20.04,14.39
				C541.52,372.21,541.63,372.93,541.64,373.04z"/>
		</g>
		<g>
			<path class="st4" d="M515.23,457.98c-0.34,0.09-4.79,1.2-10.62,1.2c-4.81,0-10.56-0.76-15.72-3.5h-0.01
				c-0.23-0.11-0.45-0.23-0.67-0.36l0.99-1.73c0.39,0.22,0.79,0.44,1.2,0.63c10.64,5.24,24.19,1.86,24.33,1.82l0.18,0.72
				L515.23,457.98z"/>
		</g>
		<g>
			<polygon class="st4" points="567.55,404.57 567.55,404.56 569.55,404.56 			"/>
		</g>
		<g>
			<path class="st4" d="M562.03,379.21l-1.62,1.18c-0.23-0.31-0.46-0.62-0.7-0.91c-2.77-3.46-6.09-5.67-9.86-6.57
				c-2.69-0.64-5.46-0.57-8.21,0.13c-0.02,0-0.03,0-0.05,0.01c-0.01,0-0.03,0-0.04,0.01c-12.14,3.12-24.09,18.4-28.93,38.63
				c-2.91,12.14-2.83,24.2,0.21,33.97c2.98,9.59,8.46,15.79,15.42,17.46c3.79,0.9,7.74,0.44,11.78-1.38
				c0.35-0.16,0.69-0.32,1.04-0.5l0.9,1.78c-0.25,0.13-0.51,0.25-0.76,0.36c-3.07,1.45-6.19,2.17-9.21,2.17
				c-1.43,0-2.84-0.16-4.21-0.49c-4.72-1.12-8.8-4.08-11.99-8.58c-2-2.82-3.65-6.26-4.88-10.22c-3.15-10.11-3.23-22.55-0.24-35.03
				c4.78-19.97,16.41-35.27,28.65-39.55c0.63-0.21,1.26-0.4,1.88-0.56c3.05-0.78,6.11-0.86,9.1-0.15c4.27,1.02,8.14,3.64,11.22,7.58
				C561.7,378.76,561.86,378.99,562.03,379.21z"/>
		</g>
		<g>
			<path class="st4" d="M557.03,446.75l-0.03-1.4l0.75,0.68L557.03,446.75z M557.74,446.03l-0.01-0.01l0.71-0.69L557.74,446.03z"/>
		</g>
		<g>
			<path class="st4" d="M535.31,417.13c-4.13,17.23-2.31,34.17,4.72,44.61c-4.04,1.82-7.99,2.28-11.78,1.38
				c-6.96-1.67-12.44-7.87-15.42-17.46c-3.04-9.77-3.12-21.83-0.21-33.97c4.84-20.23,16.79-35.51,28.93-38.63
				c0.01-0.01,0.03-0.01,0.04-0.01h0.05v-0.01c2.75-0.7,5.52-0.77,8.21-0.13c3.77,0.9,7.09,3.11,9.86,6.57
				C548.72,385.6,539.44,399.89,535.31,417.13z"/>
			<path class="st4" d="M587.88,386.9l-1.7,1.06c-0.21-0.34-0.43-0.67-0.65-0.99c-2.96-4.32-6.76-7.13-11.04-8.16
				c-4.09-0.98-8.41-0.34-12.82,1.88c-10.93,5.53-20.29,19.67-24.42,36.9c-4.12,17.23-2.18,34.07,5.08,43.95
				c2.91,3.98,6.47,6.5,10.56,7.48c3.05,0.73,6.25,0.56,9.51-0.5c0.37-0.12,0.75-0.25,1.12-0.4l0.17-0.07h0.19l0.01,1.01l0.35,0.92
				c-0.25,0.1-0.5,0.19-0.76,0.28c-2.29,0.8-4.57,1.2-6.8,1.2c-1.44,0-2.86-0.16-4.25-0.5c-4.27-1.02-8.14-3.64-11.22-7.58
				c-0.17-0.21-0.33-0.43-0.5-0.66c-0.23-0.32-0.46-0.65-0.68-0.98c-7.03-10.44-8.85-27.38-4.72-44.61
				c4.13-17.24,13.41-31.53,24.4-37.65c0.35-0.2,0.71-0.39,1.06-0.57c0.25-0.13,0.51-0.25,0.76-0.36c4.59-2.16,9.1-2.72,13.42-1.68
				c4.91,1.18,9.2,4.4,12.49,9.35C587.59,386.44,587.74,386.67,587.88,386.9z"/>
		</g>
		<g>
			<path class="st4" d="M585.53,386.97c-6.5,2.89-12.79,8.91-17.83,17.06l-0.15,0.26c-3.83,6.26-6.84,13.68-8.7,21.48
				c-1.61,6.74-2.33,13.43-2.13,19.89l-0.37,0.41l0.4,0.4c0.34,8.59,2.29,16.19,5.65,22.05c-3.26,1.06-6.46,1.23-9.51,0.5
				c-4.09-0.98-7.65-3.5-10.56-7.48c-7.26-9.88-9.2-26.72-5.08-43.95c4.13-17.23,13.49-31.37,24.42-36.9
				c4.41-2.22,8.73-2.86,12.82-1.88C578.77,379.84,582.57,382.65,585.53,386.97z"/>
			<path class="st4" d="M612.43,397.27l-1.76,0.96c-0.19-0.35-0.38-0.69-0.57-1.02c-3.1-5.24-7.26-8.6-12.07-9.76
				c-3.41-0.81-6.98-0.5-10.64,0.91c-6.44,2.49-12.77,8.35-17.85,16.5l-0.14,0.24c-3.79,6.13-6.77,13.44-8.61,21.13
				c-1.6,6.71-2.3,13.35-2.06,19.75l0.01,0.41c0.17,4.24,0.76,8.29,1.74,11.97s2.34,7.01,4.03,9.81l0.23,0.35
				c3.03,4.87,7.07,8.03,11.68,9.14c2.77,0.66,5.64,0.58,8.56-0.23c0.37-0.1,0.75-0.21,1.12-0.34l0.64,1.9
				c-0.26,0.09-0.53,0.17-0.79,0.25c-1.93,0.57-3.85,0.86-5.74,0.86c-1.44,0-2.86-0.17-4.25-0.5c-4.91-1.17-9.21-4.4-12.48-9.34
				c-0.05-0.07-0.09-0.14-0.14-0.21l-0.31-0.47c-0.22-0.35-0.43-0.7-0.63-1.06c-3.36-5.86-5.31-13.46-5.65-22.05l-0.4-0.4l0.37-0.41
				c-0.2-6.46,0.52-13.15,2.13-19.89c1.86-7.8,4.87-15.22,8.7-21.48l0.15-0.26c5.04-8.15,11.33-14.17,17.83-17.06
				c0.38-0.16,0.76-0.32,1.14-0.47c0.26-0.1,0.51-0.19,0.77-0.28c3.77-1.33,7.49-1.56,11.05-0.71c5.47,1.31,10.14,5.12,13.53,11.04
				C612.17,396.79,612.3,397.03,612.43,397.27z"/>
		</g>
		<g>
			<path class="st4" d="M582.37,436.45c-3.63,15.19-2.65,30.39,2.61,40.98c-2.92,0.81-5.79,0.89-8.56,0.23
				c-4.61-1.11-8.65-4.27-11.68-9.14l-0.23-0.35c-1.69-2.8-3.05-6.13-4.03-9.81s-1.57-7.73-1.74-11.97l-0.01-0.41
				c-0.24-6.4,0.46-13.04,2.06-19.75c1.84-7.69,4.82-15,8.61-21.13l0.14-0.24c5.08-8.15,11.41-14.01,17.85-16.5
				c3.66-1.41,7.23-1.72,10.64-0.91c4.81,1.16,8.97,4.52,12.07,9.76C597.94,401.98,586.89,417.53,582.37,436.45z"/>
			<path class="st4" d="M632.12,402.44l-1.5,1.34c-0.32-0.36-0.66-0.71-1-1.05c-2.38-2.34-5.1-3.88-8.08-4.6
				c-3.11-0.74-6.36-0.55-9.67,0.57c-11.97,4-23.05,19.36-27.56,38.21c-3.65,15.25-2.53,30.45,2.99,40.65
				c3.14,5.83,7.51,9.56,12.64,10.79c2.05,0.49,4.16,0.58,6.32,0.24c0.61-0.08,1.22-0.2,1.83-0.36l0.49,1.94
				c-0.17,0.04-0.33,0.08-0.5,0.11c-1.47,0.34-2.93,0.51-4.37,0.51c-1.43,0-2.85-0.17-4.23-0.5c-5.48-1.31-10.14-5.13-13.53-11.05
				c-0.14-0.24-0.28-0.48-0.41-0.73c-0.19-0.35-0.38-0.72-0.56-1.08c-5.26-10.59-6.24-25.79-2.61-40.98
				c4.52-18.92,15.57-34.47,27.73-39.24c0.38-0.15,0.75-0.28,1.13-0.41c0.26-0.09,0.53-0.17,0.79-0.25c3.4-1.01,6.76-1.13,9.98-0.36
				c3.62,0.86,6.87,2.8,9.66,5.76C631.82,402.11,631.97,402.27,632.12,402.44z"/>
		</g>
		<g>
			<path class="st4" d="M640.65,425.98l-1.44-1.38c-6.32,6.61-11.53,15.33-15.05,25.19c-3.88,10.89-5.3,22.24-4,31.96l1.98-0.26
				c-1.26-9.42,0.13-20.44,3.9-31.02C629.47,440.86,634.53,432.39,640.65,425.98z M656.76,413.57c-2.89-6.04-7.18-10.14-12.44-11.87
				c-3.97-1.3-8.23-1.22-12.66,0.25c-0.21,0.07-0.42,0.14-0.63,0.22c-0.47,0.17-0.94,0.35-1.41,0.56
				c-11.6,4.92-22.54,18.76-28.14,35.81c-6.62,20.1-4.62,40.25,4.78,50.05c0.45,0.48,0.93,0.94,1.43,1.37
				c0.13,0.11,0.26,0.22,0.39,0.32c1.82,1.5,3.83,2.62,5.99,3.33c1.85,0.61,3.78,0.92,5.76,0.92c1.29,0,2.6-0.13,3.93-0.4
				c0.26-0.04,0.52-0.1,0.78-0.16l-0.44-1.94c-0.4,0.09-0.79,0.17-1.19,0.24h-0.01c-2.88,0.48-5.63,0.29-8.21-0.56
				c-2.05-0.67-3.97-1.77-5.7-3.27c-10-8.66-12.31-28.93-5.61-49.28c5.64-17.17,16.76-30.95,28.33-35.11
				c4.23-1.52,8.26-1.67,11.99-0.45c4.64,1.52,8.46,5.14,11.11,10.51c0.17,0.34,0.33,0.69,0.49,1.04l1.82-0.82
				C657.01,414.07,656.89,413.82,656.76,413.57z"/>
			<path class="st4" d="M601.48,438.54c-6.62,20.1-4.62,40.25,4.78,50.05c-2.16,0.34-4.27,0.25-6.32-0.24
				c-5.13-1.23-9.5-4.96-12.64-10.79c-5.52-10.2-6.64-25.4-2.99-40.65c4.51-18.85,15.59-34.21,27.56-38.21
				c3.31-1.12,6.56-1.31,9.67-0.57c2.98,0.72,5.7,2.26,8.08,4.6C618.02,407.65,607.08,421.49,601.48,438.54z"/>
		</g>
		<g>
			<path class="st4" d="M680.29,426.76l-1.84,0.78c-0.16-0.38-0.33-0.75-0.5-1.11c-2.5-5.27-6.19-8.89-10.71-10.5
				c-3.33-1.19-6.95-1.26-10.77-0.22c-5.32,1.45-10.79,5-15.82,10.27l-1.44-1.38c4.92-5.16,10.29-8.77,15.6-10.49
				c0.38-0.12,0.76-0.23,1.14-0.33c0.27-0.07,0.54-0.14,0.81-0.21c3.93-0.92,7.68-0.76,11.15,0.48c5.17,1.84,9.33,5.98,12.06,12
				C680.08,426.28,680.19,426.52,680.29,426.76z"/>
		</g>
		<g>
			<path class="st4" d="M654.81,414.11c-5.31,1.72-10.68,5.33-15.6,10.49c-6.32,6.61-11.53,15.33-15.05,25.19
				c-3.88,10.89-5.3,22.24-4,31.96c0.5,3.86,1.42,7.39,2.74,10.52c-2.88,0.48-5.63,0.29-8.21-0.56c-2.05-0.67-3.97-1.77-5.7-3.27
				c-10-8.66-12.31-28.93-5.61-49.28c5.64-17.17,16.76-30.95,28.33-35.11c4.23-1.52,8.26-1.67,11.99-0.45
				C648.34,405.12,652.16,408.74,654.81,414.11z"/>
			<path class="st4" d="M643.45,506.13c-0.23,0.03-0.46,0.05-0.69,0.06c-0.4,0.03-0.8,0.04-1.2,0.04c-2.15,0-4.22-0.36-6.2-1.07
				c-4.87-1.74-8.87-5.54-11.6-11.03c-0.12-0.23-0.24-0.47-0.35-0.71c-0.18-0.38-0.35-0.76-0.5-1.15h-0.01
				c-1.32-3.13-2.24-6.66-2.74-10.52l1.98-0.26c0.54,4.13,1.58,7.86,3.09,11.09c2.5,5.37,6.24,9.07,10.81,10.7
				c1.85,0.66,3.8,0.97,5.83,0.93c0.47,0,0.93-0.03,1.4-0.07L643.45,506.13z"/>
		</g>
		<g>
			<path class="st4" d="M677.95,426.43c-12.78,2.97-25.68,16.27-33.15,34.3c-6.47,15.63-7.55,32.11-2.93,43.48
				c-2.03,0.04-3.98-0.27-5.83-0.93c-4.57-1.63-8.31-5.33-10.81-10.7c-1.51-3.23-2.55-6.96-3.09-11.09
				c-1.26-9.42,0.13-20.44,3.9-31.02c3.43-9.61,8.49-18.08,14.61-24.49c5.03-5.27,10.5-8.82,15.82-10.27
				c3.82-1.04,7.44-0.97,10.77,0.22C671.76,417.54,675.45,421.16,677.95,426.43z"/>
			<path class="st4" d="M700.66,437.41l-1.78,0.9c-0.21-0.41-0.42-0.81-0.65-1.2c-2.2-3.87-5.12-6.58-8.73-8.07
				c-3.03-1.25-6.38-1.56-9.95-0.91c-12.34,2.24-25.56,15.64-32.91,33.36c-6.52,15.76-7.43,32.32-2.37,43.23
				c2.24,4.84,5.61,8.31,9.74,10.03c1.72,0.7,3.55,1.1,5.45,1.2c0.54,0.04,1.09,0.04,1.64,0.02l0.08,2
				c-0.19,0.01-0.39,0.01-0.59,0.01h-0.2c-2.5,0-4.9-0.46-7.14-1.39c-4.42-1.83-8.04-5.42-10.49-10.4c-0.11-0.2-0.21-0.42-0.31-0.63
				c-0.2-0.44-0.4-0.89-0.58-1.35c-4.62-11.37-3.54-27.85,2.93-43.48c7.47-18.03,20.37-31.33,33.15-34.3
				c0.42-0.1,0.83-0.19,1.24-0.26c0.26-0.05,0.52-0.09,0.78-0.12c3.67-0.56,7.12-0.17,10.29,1.15c4.17,1.72,7.64,5.02,10.07,9.58
				C700.44,436.99,700.55,437.2,700.66,437.41z"/>
		</g>
		<g>
			<polygon class="st4" points="718.16,484.59 718.16,484.58 720.16,484.58 			"/>
		</g>
		<g>
			<path class="st4" d="M698.23,437.11c-12.72,2.5-26.14,14.85-34.56,31.91c-4.95,10.06-7.67,20.88-7.65,30.48
				c0.01,6.32,1.19,11.96,3.44,16.45c-1.9-0.1-3.73-0.5-5.45-1.2c-4.13-1.72-7.5-5.19-9.74-10.03c-5.06-10.91-4.15-27.47,2.37-43.23
				c7.35-17.72,20.57-31.12,32.91-33.36c3.57-0.65,6.92-0.34,9.95,0.91C693.11,430.53,696.03,433.24,698.23,437.11z"/>
			<path class="st4" d="M721.23,450.08l-1.86,0.74c-0.15-0.39-0.32-0.78-0.49-1.15c-1.94-4.34-4.88-7.55-8.52-9.34
				c-3.1-1.53-6.61-2.03-10.45-1.48c-12.49,1.76-26,13.94-34.44,31.05c-4.83,9.79-7.47,20.3-7.45,29.6
				c0.01,6.69,1.39,12.55,3.98,16.96c1.88,3.22,4.35,5.59,7.34,7.06c2.73,1.35,5.77,1.9,9.08,1.62h0.01
				c0.41-0.03,0.82-0.07,1.23-0.13l0.28,1.98c-0.26,0.04-0.51,0.07-0.77,0.1c-0.8,0.08-1.6,0.12-2.37,0.12
				c-2.99,0-5.79-0.63-8.34-1.89c-3.19-1.57-5.83-4.04-7.87-7.34c-0.11-0.17-0.21-0.34-0.31-0.51c-0.29-0.49-0.56-1-0.82-1.52
				c-2.25-4.49-3.43-10.13-3.44-16.45c-0.02-9.6,2.7-20.42,7.65-30.48c8.42-17.06,21.84-29.41,34.56-31.91
				c0.47-0.1,0.93-0.17,1.4-0.24c0.23-0.03,0.47-0.06,0.7-0.09c3.98-0.45,7.64,0.13,10.91,1.75c4.22,2.08,7.55,5.81,9.69,10.83
				C721.03,449.59,721.13,449.84,721.23,450.08z"/>
		</g>
		<g>
			<path class="st4" d="M718.88,449.67c-12.79,2.39-26.33,14.77-34.81,31.96c-7.55,15.31-9.68,31.83-5.65,43.51
				c-3.31,0.28-6.35-0.27-9.08-1.62c-2.99-1.47-5.46-3.84-7.34-7.06c-2.59-4.41-3.97-10.27-3.98-16.96
				c-0.02-9.3,2.62-19.81,7.45-29.6c8.44-17.11,21.95-29.29,34.44-31.05c3.84-0.55,7.35-0.05,10.45,1.48
				C714,442.12,716.94,445.33,718.88,449.67z"/>
			<path class="st4" d="M743.07,467.4l-1.96,0.44c-0.07-0.3-0.14-0.6-0.22-0.89c-1.71-6.76-5.2-11.6-10.13-14.02
				c-3.07-1.52-6.54-2.02-10.32-1.49c-12.53,1.69-26.09,13.88-34.57,31.07c-7.59,15.38-9.55,31.9-5.14,43.12
				c1.96,4.98,4.99,8.51,9.01,10.49c3.73,1.84,8.18,2.18,12.9,1c0.3-0.07,0.6-0.15,0.9-0.24l0.56,1.92
				c-0.34,0.1-0.67,0.19-1.01,0.27c-1.99,0.49-3.94,0.74-5.81,0.74c-3.02,0-5.86-0.63-8.42-1.89c-4.22-2.08-7.56-5.81-9.69-10.83
				c-0.11-0.23-0.2-0.48-0.3-0.72c-0.16-0.4-0.31-0.81-0.44-1.23h-0.01c-4.03-11.68-1.9-28.2,5.65-43.51
				c8.48-17.19,22.02-29.57,34.81-31.96c0.43-0.08,0.86-0.15,1.29-0.21c0.25-0.04,0.51-0.07,0.76-0.1
				c3.89-0.41,7.49,0.18,10.71,1.77c5.45,2.7,9.3,7.96,11.18,15.26C742.91,466.72,742.99,467.06,743.07,467.4z"/>
		</g>
		<g>
			<path class="st4" d="M740.89,466.95c-7.78,2.49-15.74,8.5-22.51,17.01l-0.21,0.27c-3.27,4.12-6.19,8.76-8.68,13.8
				c-6.56,13.3-9.09,27.82-6.85,39.09c-4.72,1.18-9.17,0.84-12.9-1c-4.02-1.98-7.05-5.51-9.01-10.49
				c-4.41-11.22-2.45-27.74,5.14-43.12c8.48-17.19,22.04-29.38,34.57-31.07c3.78-0.53,7.25-0.03,10.32,1.49
				C735.69,455.35,739.18,460.19,740.89,466.95z"/>
			<path class="st4" d="M768,481.95l-1.92,0.54c-0.1-0.36-0.21-0.71-0.33-1.05c-1.85-5.75-5.16-9.92-9.58-12.1
				c-3.97-1.96-8.74-2.22-13.8-0.76c-7.6,2.17-15.47,7.97-22.21,16.35l-0.22,0.28c-3.26,4.08-6.18,8.69-8.65,13.7
				c-6.55,13.28-8.98,27.75-6.49,38.71c1.63,7.22,5.21,12.38,10.35,14.91c2.93,1.44,6.22,1.97,9.8,1.56
				c0.36-0.04,0.72-0.09,1.09-0.15l0.32,1.98c-0.29,0.05-0.57,0.09-0.86,0.12c-0.97,0.12-1.93,0.19-2.87,0.19
				c-2.99,0-5.79-0.64-8.36-1.9c-5.45-2.7-9.3-7.96-11.18-15.26c-0.09-0.33-0.17-0.67-0.25-1.01c-0.07-0.31-0.14-0.62-0.2-0.94
				c-2.24-11.27,0.29-25.79,6.85-39.09c2.49-5.04,5.41-9.68,8.68-13.8l0.21-0.27c6.77-8.51,14.73-14.52,22.51-17.01
				c0.31-0.11,0.62-0.2,0.93-0.29c0.33-0.1,0.67-0.19,1-0.27c5.17-1.29,10.08-0.89,14.23,1.15c5,2.46,8.68,7.14,10.69,13.56
				C767.83,481.38,767.92,481.66,768,481.95z"/>
		</g>
		<g>
			<path class="st4" d="M765.75,481.44c-12.63,2.61-26.01,14.97-34.34,31.87c-6.95,14.12-9.34,29.26-6.46,40.78
				c-3.58,0.41-6.87-0.12-9.8-1.56c-5.14-2.53-8.72-7.69-10.35-14.91c-2.49-10.96-0.06-25.43,6.49-38.71
				c2.47-5.01,5.39-9.62,8.65-13.7l0.22-0.28c6.74-8.38,14.61-14.18,22.21-16.35c5.06-1.46,9.83-1.2,13.8,0.76
				C760.59,471.52,763.9,475.69,765.75,481.44z"/>
			<path class="st4" d="M789.23,495.1l-1.88,0.68c-0.16-0.43-0.32-0.86-0.5-1.27c-1.94-4.61-4.95-8.02-8.76-9.89
				c-3.23-1.59-6.89-2.07-10.89-1.41c-12.35,1.98-25.69,14.15-33.99,30.98c-6.98,14.15-9.24,29.28-6.05,40.47
				c1.79,6.28,5.22,10.83,9.91,13.15c1.22,0.6,2.5,1.05,3.83,1.32c0.55,0.12,1.09,0.21,1.65,0.27l-0.1,0.95v1.04l-0.12-0.01
				c-0.2-0.02-0.4-0.05-0.59-0.07c-1.94-0.27-3.81-0.85-5.55-1.7c-5-2.48-8.68-7.16-10.69-13.57c-0.09-0.28-0.18-0.56-0.26-0.84
				c-0.1-0.37-0.2-0.74-0.29-1.11c-2.88-11.52-0.49-26.66,6.46-40.78c8.33-16.9,21.71-29.26,34.34-31.87
				c0.38-0.08,0.75-0.15,1.13-0.21c0.29-0.05,0.57-0.09,0.86-0.13c4.09-0.52,7.86,0.06,11.23,1.72c4.45,2.19,7.91,6.21,10.01,11.63
				C789.07,494.66,789.15,494.88,789.23,495.1z"/>
		</g>
		<g>
			<path class="st4" d="M786.85,494.51c-13.1,0.94-28.19,12.69-38.03,29.72c-9,15.59-12.02,32.95-7.92,44.9
				c-1.33-0.27-2.61-0.72-3.83-1.32c-4.69-2.32-8.12-6.87-9.91-13.15c-3.19-11.19-0.93-26.32,6.05-40.47
				c8.3-16.83,21.64-29,33.99-30.98c4-0.66,7.66-0.18,10.89,1.41C781.9,486.49,784.91,489.9,786.85,494.51z"/>
			<path class="st4" d="M808.07,511.2l-1.94,0.46c-0.07-0.3-0.15-0.6-0.23-0.9c-1.53-5.55-4.5-9.73-8.62-12.1
				c-2.62-1.52-5.63-2.28-8.98-2.22c-12.72,0.15-27.89,11.72-37.74,28.79c-9.03,15.62-11.89,32.97-7.36,44.38l0.17,0.4
				c1.68,4.03,4.22,7.05,7.53,8.97c4.12,2.37,9.21,2.85,14.78,1.41h0.01c0.3-0.08,0.6-0.16,0.9-0.25l0.56,1.92
				c-0.33,0.1-0.66,0.19-0.98,0.27c-2.26,0.59-4.45,0.88-6.55,0.88c-3.56,0-6.84-0.83-9.72-2.49c-3.53-2.05-6.26-5.19-8.11-9.33
				h-0.01l-0.04-0.08l-0.22-0.53c-0.22-0.54-0.43-1.09-0.62-1.65c-4.1-11.95-1.08-29.31,7.92-44.9
				c9.84-17.03,24.93-28.78,38.03-29.72c0.48-0.04,0.96-0.06,1.43-0.07c0.24,0,0.47,0,0.7,0.01c3.39,0.05,6.55,0.88,9.3,2.47
				c4.58,2.65,7.86,7.23,9.52,13.28h0.01C807.9,510.53,807.99,510.86,808.07,511.2z"/>
		</g>
		<g>
			<path class="st4" d="M805.9,510.76c-11.5,3.73-23.14,14.26-31.29,28.36c-8.14,14.1-11.45,29.44-8.93,41.27
				c-5.57,1.44-10.66,0.96-14.78-1.41c-3.31-1.92-5.85-4.94-7.53-8.97l-0.17-0.4c-4.53-11.41-1.67-28.76,7.36-44.38
				c9.85-17.07,25.02-28.64,37.74-28.79c3.35-0.06,6.36,0.7,8.98,2.22C801.4,501.03,804.37,505.21,805.9,510.76z"/>
			<path class="st4" d="M833.86,526.08l-1.94,0.48c-0.07-0.31-0.15-0.61-0.24-0.91c-1.53-5.56-4.49-9.73-8.61-12.1
				c-4.34-2.51-9.77-2.9-15.69-1.16c-11.32,3.32-22.92,13.68-31.03,27.73c-8.12,14.05-11.3,29.28-8.51,40.74
				c1.45,6.01,4.51,10.51,8.85,13.01c4.12,2.38,9.21,2.85,14.78,1.41h0.01c0.3-0.08,0.6-0.16,0.9-0.25l0.56,1.92
				c-0.33,0.1-0.66,0.19-0.98,0.27c-2.26,0.59-4.45,0.88-6.55,0.88c-3.56,0-6.84-0.84-9.72-2.49c-4.57-2.65-7.86-7.23-9.52-13.28
				c-0.1-0.33-0.19-0.66-0.27-1c-0.08-0.31-0.15-0.62-0.21-0.94h-0.01c-2.52-11.83,0.79-27.17,8.93-41.27
				c8.15-14.1,19.79-24.63,31.29-28.36c0.31-0.11,0.61-0.2,0.92-0.29c0.33-0.1,0.66-0.19,0.98-0.27h0.01
				c6.09-1.58,11.68-1.03,16.26,1.61c4.57,2.65,7.86,7.23,9.53,13.28C833.69,525.42,833.78,525.75,833.86,526.08z"/>
		</g>
		<g>
			<path class="st4" d="M831.68,525.65c-11.51,3.73-23.14,14.26-31.29,28.36c-8.13,14.1-11.43,29.44-8.92,41.27
				c-5.57,1.44-10.66,0.97-14.78-1.41c-4.34-2.5-7.4-7-8.85-13.01c-2.79-11.46,0.39-26.69,8.51-40.74
				c8.11-14.05,19.71-24.41,31.03-27.73c5.92-1.74,11.35-1.35,15.69,1.16C827.19,515.92,830.15,520.09,831.68,525.65z"/>
			<path class="st4" d="M859.64,540.97l-1.94,0.48c-0.07-0.31-0.15-0.61-0.24-0.91c-1.54-5.56-4.49-9.73-8.6-12.1
				c-4.34-2.5-9.76-2.9-15.69-1.16c-11.33,3.32-22.93,13.68-31.04,27.73s-11.28,29.28-8.5,40.74c1.45,6.01,4.51,10.5,8.85,13.01
				c4.12,2.37,9.21,2.85,14.78,1.41h0.01c0.3-0.08,0.6-0.16,0.9-0.25l0.56,1.92c-0.33,0.1-0.66,0.19-0.98,0.27
				c-2.26,0.59-4.45,0.88-6.55,0.88c-3.56,0-6.84-0.83-9.72-2.49c-4.58-2.65-7.86-7.23-9.52-13.28c-0.1-0.33-0.19-0.66-0.27-1
				c-0.08-0.31-0.15-0.62-0.21-0.94h-0.01c-2.51-11.83,0.79-27.17,8.92-41.27c8.15-14.1,19.78-24.63,31.29-28.36
				c0.31-0.1,0.62-0.2,0.93-0.29c0.33-0.1,0.66-0.19,0.99-0.27c6.08-1.58,11.68-1.03,16.26,1.61c4.57,2.65,7.85,7.22,9.52,13.28
				C859.47,540.31,859.56,540.64,859.64,540.97z"/>
		</g>
		<g>
			<path class="st4" d="M857.46,540.54c-11.5,3.73-23.13,14.26-31.28,28.36c-8.13,14.1-11.43,29.44-8.92,41.27
				c-5.57,1.44-10.66,0.96-14.78-1.41c-4.34-2.51-7.4-7-8.85-13.01c-2.78-11.46,0.39-26.69,8.5-40.74s19.71-24.41,31.04-27.73
				c5.93-1.74,11.35-1.34,15.69,1.16C852.97,530.81,855.92,534.98,857.46,540.54z"/>
			<path class="st4" d="M885.43,555.85l-1.94,0.48c-0.07-0.31-0.15-0.61-0.24-0.91c-1.54-5.55-4.5-9.72-8.61-12.09
				c-4.34-2.5-9.77-2.9-15.69-1.16c-11.32,3.32-22.92,13.68-31.03,27.73c-8.11,14.05-11.28,29.28-8.5,40.74
				c1.45,6.01,4.51,10.51,8.85,13.01c4.12,2.38,9.2,2.86,14.77,1.41c0.3-0.08,0.6-0.16,0.91-0.25l0.56,1.92
				c-0.33,0.1-0.66,0.19-0.99,0.27c-2.25,0.59-4.45,0.88-6.54,0.88c-3.55,0-6.83-0.83-9.71-2.49c-4.58-2.65-7.86-7.23-9.52-13.28
				c-0.1-0.33-0.19-0.66-0.27-1c-0.08-0.31-0.15-0.62-0.21-0.94h-0.01c-2.51-11.83,0.79-27.17,8.92-41.27
				c8.15-14.1,19.78-24.63,31.28-28.36c0.31-0.1,0.62-0.2,0.93-0.29c0.33-0.1,0.66-0.19,0.99-0.27c6.08-1.58,11.68-1.03,16.26,1.61
				c4.56,2.65,7.85,7.22,9.53,13.27C885.26,555.19,885.35,555.52,885.43,555.85z"/>
		</g>
		<g>
			<path class="st4" d="M883.25,555.42c-11.51,3.74-23.14,14.27-31.28,28.37s-11.45,29.43-8.93,41.27
				c-5.57,1.45-10.65,0.97-14.77-1.41c-4.34-2.5-7.4-7-8.85-13.01c-2.78-11.46,0.39-26.69,8.5-40.74s19.71-24.41,31.03-27.73
				c5.92-1.74,11.35-1.34,15.69,1.16C878.75,545.7,881.71,549.87,883.25,555.42z"/>
			<path class="st4" d="M911.22,570.74l-1.94,0.48c-0.07-0.31-0.15-0.61-0.24-0.91c-1.54-5.55-4.5-9.72-8.61-12.1
				c-4.33-2.5-9.75-2.9-15.69-1.16c-11.32,3.33-22.92,13.7-31.03,27.74c-8.12,14.05-11.3,29.28-8.51,40.74
				c1.46,6.01,4.52,10.51,8.85,13.01c4.12,2.37,9.21,2.85,14.78,1.41c0.3-0.08,0.6-0.16,0.91-0.25l0.56,1.92
				c-0.33,0.1-0.66,0.19-0.99,0.27c-2.25,0.59-4.45,0.88-6.54,0.88c-3.56,0-6.84-0.84-9.72-2.49c-4.57-2.65-7.85-7.23-9.53-13.28
				c-0.09-0.33-0.18-0.66-0.26-0.99c-0.08-0.31-0.15-0.63-0.22-0.95c-2.52-11.84,0.79-27.17,8.93-41.27
				c8.14-14.1,19.77-24.63,31.28-28.37c0.31-0.1,0.62-0.2,0.93-0.29c0.33-0.1,0.66-0.19,0.99-0.27c6.09-1.58,11.7-1.02,16.26,1.62
				c4.56,2.65,7.85,7.22,9.53,13.27C911.05,570.08,911.14,570.41,911.22,570.74z"/>
		</g>
		<g>
			<path class="st4" d="M909.04,570.31c-11.51,3.73-23.14,14.26-31.29,28.36c-8.13,14.09-11.44,29.43-8.92,41.28
				c-5.57,1.44-10.66,0.96-14.78-1.41c-4.33-2.5-7.39-7-8.85-13.01c-2.79-11.46,0.39-26.69,8.51-40.74
				c8.11-14.04,19.71-24.41,31.03-27.74c5.94-1.74,11.36-1.34,15.69,1.16C904.54,560.59,907.5,564.76,909.04,570.31z"/>
			<path class="st4" d="M937.75,589.79l-1.98,0.24c-0.03-0.29-0.07-0.58-0.12-0.86c-1.08-7.58-4.33-13.12-9.43-16.07
				c-4.34-2.5-9.77-2.9-15.69-1.16c-11.33,3.32-22.93,13.68-31.04,27.73c-8.11,14.04-11.29,29.27-8.5,40.75
				c1.46,6,4.52,10.5,8.85,13c3.03,1.76,6.53,2.49,10.42,2.17c0.35-0.03,0.71-0.07,1.07-0.11l0.26,1.98c-0.3,0.04-0.6,0.07-0.9,0.1
				c-0.74,0.06-1.47,0.1-2.17,0.1c-3.55,0-6.8-0.84-9.68-2.5c-4.56-2.65-7.85-7.22-9.53-13.27c-0.09-0.33-0.18-0.66-0.26-0.99
				c-0.08-0.31-0.15-0.63-0.22-0.95c-2.52-11.85,0.79-27.19,8.92-41.28c8.15-14.1,19.78-24.63,31.29-28.36
				c0.31-0.1,0.62-0.2,0.93-0.29c0.33-0.1,0.66-0.19,0.99-0.27c6.08-1.58,11.68-1.03,16.26,1.61c5.61,3.24,9.18,9.22,10.38,17.33
				C937.66,589.05,937.71,589.42,937.75,589.79z"/>
		</g>
		<g>
			<path class="st4" d="M935.65,589.17c-11.22,3.1-22.76,11.67-31.83,23.65c-10.67,14.13-15.8,30.4-13.56,42.77
				c-3.89,0.32-7.39-0.41-10.42-2.17c-4.33-2.5-7.39-7-8.85-13c-2.79-11.48,0.39-26.71,8.5-40.75
				c8.11-14.05,19.71-24.41,31.04-27.73c5.92-1.74,11.35-1.34,15.69,1.16C931.32,576.05,934.57,581.59,935.65,589.17z"/>
			<path class="st4" d="M963.03,601.63l-1.9,0.62c-0.15-0.45-0.31-0.89-0.48-1.32h-0.01c-1.24-3.12-3.11-5.64-5.57-7.51
				c-4.59-3.47-10.84-4.35-18.07-2.54c-10.88,2.73-22.69,11.39-31.58,23.14c-10.65,14.1-15.63,30.28-12.98,42.23
				c1.06,4.86,3.32,8.61,6.7,11.16c2.46,1.86,5.4,2.98,8.75,3.33c0.46,0.05,0.93,0.09,1.41,0.11l-0.08,2
				c-0.23-0.01-0.46-0.02-0.69-0.04c-4.07-0.28-7.63-1.57-10.59-3.8c-3.57-2.69-6-6.53-7.25-11.45c-0.07-0.29-0.14-0.58-0.21-0.88
				c-0.08-0.36-0.15-0.72-0.22-1.09c-2.24-12.37,2.89-28.64,13.56-42.77c9.07-11.98,20.61-20.55,31.83-23.65
				c0.29-0.08,0.58-0.16,0.87-0.23c0.36-0.09,0.72-0.17,1.08-0.25c7.38-1.61,13.82-0.53,18.67,3.13c2.97,2.25,5.16,5.33,6.54,9.15
				C962.88,601.19,962.96,601.41,963.03,601.63z"/>
		</g>
		<g>
			<path class="st4" d="M981.49,621.26c-0.02-0.3-0.05-0.61-0.09-0.9c-0.74-6.8-3.49-12.18-7.99-15.58
				c-2.97-2.24-6.54-3.53-10.6-3.81c-0.23-0.01-0.46-0.02-0.69-0.03c-0.49-0.02-0.98-0.02-1.47-0.01h-0.01
				c-12.87,0.22-28.31,9.81-39.68,24.85s-16.39,32.48-13.07,44.96c0.13,0.48,0.27,0.95,0.42,1.42c0.07,0.22,0.15,0.44,0.22,0.65
				c1.38,3.83,3.57,6.9,6.54,9.16c3.12,2.36,6.9,3.65,11.23,3.83c0.3,0.01,0.6,0.02,0.9,0.02l1.09,0.01l-0.08-1.09
				c-0.93-11.54,4.14-25.87,13.57-38.34c11.06-14.63,26.17-24.06,38.55-24.06h0.15l1.09,0.01L981.49,621.26z M940.18,645.2
				c-9.41,12.45-14.61,26.78-14.04,38.59c-3.82-0.2-7.13-1.35-9.87-3.42c-2.8-2.13-4.84-5.1-6.06-8.83
				c-3.93-11.95,0.92-29.44,12.35-44.56c11.13-14.72,26.13-24.06,38.51-24.06c0.33,0,0.65,0.01,0.97,0.02
				c3.93,0.15,7.35,1.31,10.17,3.44c4,3.02,6.47,7.84,7.18,13.98C966.59,620.81,951.33,630.44,940.18,645.2z"/>
			<path class="st4" d="M960.64,600.93c-12.87,0.22-28.31,9.81-39.68,24.85s-16.39,32.48-13.07,44.96
				c-3.35-0.35-6.29-1.47-8.75-3.33c-3.38-2.55-5.64-6.3-6.7-11.16c-2.65-11.95,2.33-28.13,12.98-42.23
				c8.89-11.75,20.7-20.41,31.58-23.14c7.23-1.81,13.48-0.93,18.07,2.54C957.53,595.29,959.4,597.81,960.64,600.93z"/>
			<path class="st4" d="M979.39,620.36c-12.8,0.45-28.06,10.08-39.21,24.84c-9.41,12.45-14.61,26.78-14.04,38.59
				c-3.82-0.2-7.13-1.35-9.87-3.42c-2.8-2.13-4.84-5.1-6.06-8.83c-3.93-11.95,0.92-29.44,12.35-44.56
				c11.13-14.72,26.13-24.06,38.51-24.06c0.33,0,0.65,0.01,0.97,0.02c3.93,0.15,7.35,1.31,10.17,3.44
				C976.21,609.4,978.68,614.22,979.39,620.36z"/>
		</g>
		<g>
			<path class="st4" d="M956.94,703.42c-0.42,0.14-0.84,0.27-1.26,0.4c-3.17,0.94-6.22,1.41-9.07,1.41c-4.73,0-8.94-1.29-12.32-3.84
				c-4.5-3.41-7.25-8.79-7.99-15.59c-0.04-0.29-0.07-0.6-0.09-0.9l2-0.16c0.53,6.64,3.05,11.85,7.28,15.05
				c5.01,3.78,12.13,4.46,20.12,1.95c0.23-0.07,0.46-0.14,0.69-0.22L956.94,703.42z"/>
		</g>
		<g>
			<path class="st4" d="M1000.57,639.53l-1.98,0.22c-0.03-0.3-0.07-0.6-0.12-0.89c-0.83-5.69-3.26-10.2-7.04-13.06
				c-3-2.27-6.68-3.43-10.95-3.46l0.02-2c0.3,0,0.61,0.01,0.9,0.02c4.33,0.18,8.11,1.47,11.23,3.84c4.2,3.17,6.88,8.09,7.8,14.28
				C1000.48,638.83,1000.53,639.18,1000.57,639.53z"/>
		</g>
		<g>
			<path class="st4" d="M956.94,703.42c-0.42,0.14-0.84,0.27-1.26,0.4c-3.17,0.94-6.22,1.41-9.07,1.41c-4.73,0-8.94-1.29-12.32-3.84
				c-4.5-3.41-7.25-8.79-7.99-15.59c-0.04-0.29-0.07-0.6-0.09-0.9l2-0.16c0.53,6.64,3.05,11.85,7.28,15.05
				c5.01,3.78,12.13,4.46,20.12,1.95c0.23-0.07,0.46-0.14,0.69-0.22L956.94,703.42z"/>
		</g>
		<g>
			<path class="st4" d="M1000.57,639.53l-1.98,0.22c-0.03-0.3-0.07-0.6-0.12-0.89c-0.83-5.69-3.26-10.2-7.04-13.06
				c-3-2.27-6.68-3.43-10.95-3.46l0.02-2c0.3,0,0.61,0.01,0.9,0.02c4.33,0.18,8.11,1.47,11.23,3.84c4.2,3.17,6.88,8.09,7.8,14.28
				C1000.48,638.83,1000.53,639.18,1000.57,639.53z"/>
		</g>
		<g>
			<path class="st4" d="M998.47,638.86c-12.41,2.81-25.35,14.27-33.98,30.16c-5.89,10.85-9.04,22.44-8.88,32.72
				c-7.99,2.51-15.11,1.83-20.12-1.95c-4.23-3.2-6.75-8.41-7.28-15.05c-0.93-11.54,4.14-25.87,13.57-38.34
				c11.06-14.63,26.17-24.06,38.55-24.06h0.15c4.27,0.03,7.95,1.19,10.95,3.46C995.21,628.66,997.64,633.17,998.47,638.86z"/>
			<path class="st4" d="M1022.61,652.01l-1.88,0.68c-0.13-0.35-0.26-0.69-0.4-1.03c-1.78-4.34-4.49-7.52-8.06-9.46
				c-3.61-1.96-7.82-2.5-12.5-1.58c-11.93,2.31-25.09,13.83-33.52,29.36c-5.87,10.81-8.94,22.34-8.63,32.46
				c0.3,10.25,3.98,17.8,10.37,21.26c3.56,1.94,7.7,2.48,12.32,1.62c0.36-0.06,0.72-0.14,1.08-0.22l0.44,1.94
				c-0.28,0.07-0.56,0.13-0.84,0.18c-1.62,0.32-3.21,0.48-4.74,0.48c-3.35,0-6.47-0.75-9.22-2.24
				c-6.75-3.67-10.76-11.32-11.35-21.64c-0.03-0.43-0.05-0.87-0.06-1.32c-0.01-0.25-0.01-0.5-0.01-0.76
				c-0.16-10.28,2.99-21.87,8.88-32.72c8.63-15.89,21.57-27.35,33.98-30.16c0.31-0.08,0.61-0.14,0.92-0.2
				c0.35-0.07,0.69-0.13,1.04-0.18c4.69-0.73,9.09-0.05,12.8,1.96c4.01,2.18,7.13,5.89,9.07,10.76
				C1022.41,651.46,1022.51,651.74,1022.61,652.01z"/>
		</g>
		<g>
			<polygon class="st4" points="1020.49,680.13 1020.49,680.12 1022.49,680.12 			"/>
		</g>
		<g>
			<path class="st4" d="M1028.56,724.01l-0.73-0.73h1.03L1028.56,724.01z M1027.85,723.3l-0.99-0.02L1027.85,723.3z"/>
		</g>
		<g>
			<path class="st4" d="M1020.33,651.66c-12.03,3.26-24.51,14.59-32.81,29.87s-11.03,31.92-7.21,43.79
				c-4.62,0.86-8.76,0.32-12.32-1.62c-6.39-3.46-10.07-11.01-10.37-21.26c-0.31-10.12,2.76-21.65,8.63-32.46
				c8.43-15.53,21.59-27.05,33.52-29.36c4.68-0.92,8.89-0.38,12.5,1.58C1015.84,644.14,1018.55,647.32,1020.33,651.66z"/>
			<path class="st4" d="M1045.64,664.52l-1.88,0.68c-0.13-0.35-0.26-0.69-0.41-1.03c-1.78-4.34-4.5-7.53-8.06-9.46
				c-3.83-2.09-8.34-2.56-13.39-1.39c-11.83,2.72-24.33,13.9-32.62,29.17c-8.3,15.26-10.88,31.83-6.73,43.24
				c1.77,4.87,4.62,8.39,8.47,10.48c3.5,1.91,7.75,2.46,12.31,1.61c0.36-0.06,0.72-0.14,1.08-0.22l0.46,1.94
				c-0.28,0.07-0.57,0.13-0.85,0.18c-1.62,0.33-3.22,0.49-4.77,0.49c-3.34,0-6.45-0.75-9.19-2.24c-4-2.18-7.13-5.88-9.07-10.75
				c-0.12-0.26-0.22-0.54-0.32-0.81c-0.13-0.36-0.25-0.72-0.36-1.09c-3.82-11.87-1.09-28.51,7.21-43.79s20.78-26.61,32.81-29.87
				c0.37-0.1,0.75-0.19,1.12-0.28c0.28-0.07,0.57-0.13,0.85-0.18c5.14-1.03,9.95-0.42,13.95,1.75s7.13,5.88,9.07,10.76
				C1045.44,663.98,1045.54,664.25,1045.64,664.52z"/>
		</g>
		<g>
			<path class="st4" d="M1043.35,664.17c-7.63,2.07-15.62,7.46-22.61,15.28l-0.25,0.3c-3.75,4.25-7.1,9.05-9.95,14.29
				c-8.3,15.29-11.02,31.92-7.21,43.78c-4.56,0.85-8.81,0.3-12.31-1.61c-3.85-2.09-6.7-5.61-8.47-10.48
				c-4.15-11.41-1.57-27.98,6.73-43.24c8.29-15.27,20.79-26.45,32.62-29.17c5.05-1.17,9.56-0.7,13.39,1.39
				C1038.85,656.64,1041.57,659.83,1043.35,664.17z"/>
			<path class="st4" d="M1068.67,677.02l-1.88,0.68c-0.13-0.35-0.26-0.69-0.41-1.03c-1.78-4.34-4.49-7.51-8.06-9.45
				c-3.78-2.06-8.41-2.54-13.39-1.39c-7.49,1.72-15.46,6.94-22.47,14.71l-0.22,0.26c-3.76,4.2-7.1,8.98-9.94,14.2
				c-8.29,15.27-10.87,31.83-6.72,43.23c1.78,4.87,4.63,8.4,8.47,10.49c3.57,1.95,7.72,2.49,12.32,1.61
				c0.35-0.06,0.71-0.14,1.07-0.22l0.46,1.94c-0.28,0.07-0.57,0.13-0.85,0.18c-1.62,0.33-3.22,0.49-4.76,0.49
				c-3.34,0-6.45-0.75-9.2-2.24c-4-2.18-7.13-5.88-9.07-10.76c-0.12-0.27-0.22-0.54-0.32-0.81c-0.13-0.36-0.25-0.72-0.37-1.09
				c-3.81-11.86-1.09-28.49,7.21-43.78c2.85-5.24,6.2-10.04,9.95-14.29l0.25-0.3c6.99-7.82,14.98-13.21,22.61-15.28
				c0.38-0.1,0.76-0.19,1.13-0.28c0.28-0.07,0.56-0.13,0.84-0.18c5.15-1.03,9.96-0.43,13.96,1.75s7.13,5.88,9.07,10.75
				C1068.47,676.48,1068.57,676.75,1068.67,677.02z"/>
		</g>
		<g>
			<path class="st4" d="M1066.38,676.67c-12.04,3.28-24.51,14.61-32.81,29.88c-2.88,5.32-5.1,10.77-6.61,16.22l-0.07,0.27
				c-2.76,10.13-2.94,19.77-0.52,27.29c-4.6,0.88-8.75,0.34-12.32-1.61c-3.84-2.09-6.69-5.62-8.47-10.49
				c-4.15-11.4-1.57-27.96,6.72-43.23c2.84-5.22,6.18-10,9.94-14.2l0.22-0.26c7.01-7.77,14.98-12.99,22.47-14.71
				c4.98-1.15,9.61-0.67,13.39,1.39C1061.89,669.16,1064.6,672.33,1066.38,676.67z"/>
			<path class="st4" d="M1091.03,687.87l-1.84,0.8c-0.17-0.39-0.35-0.77-0.53-1.13c-1.77-3.51-4.22-6.14-7.31-7.81
				c-3.84-2.09-8.35-2.56-13.4-1.4c-11.83,2.73-24.33,13.91-32.62,29.18c-2.83,5.21-5,10.56-6.47,15.91v0.27l-0.11,0.12
				c-2.72,10.14-2.77,19.7-0.14,26.93c1.78,4.87,4.63,8.4,8.47,10.49c4.01,2.18,8.9,2.59,14.17,1.19c0.32-0.08,0.64-0.17,0.97-0.27
				l0.58,1.92c-0.31,0.09-0.62,0.18-0.92,0.26c-2.26,0.61-4.46,0.91-6.56,0.91c-3.33,0-6.44-0.76-9.2-2.25
				c-4-2.18-7.13-5.89-9.07-10.76c-0.12-0.27-0.22-0.54-0.32-0.81c-0.13-0.36-0.25-0.72-0.36-1.09c-2.42-7.52-2.24-17.16,0.52-27.29
				l0.07-0.27c1.51-5.45,3.73-10.9,6.61-16.22c8.3-15.27,20.77-26.6,32.81-29.88c0.38-0.1,0.75-0.19,1.13-0.28
				c0.28-0.06,0.56-0.13,0.84-0.18c5.15-1.02,9.96-0.41,13.96,1.76c3.61,1.96,6.42,5.05,8.4,9.19
				C1090.82,687.39,1090.92,687.63,1091.03,687.87z"/>
		</g>
		<g>
			<path class="st4" d="M1088.66,687.54c-12.81,2.95-25.78,16.18-33.32,34.16c-6.01,14.31-7.51,29.43-4.09,40.72
				c-5.27,1.4-10.16,0.99-14.17-1.19c-3.84-2.09-6.69-5.62-8.47-10.49c-2.63-7.23-2.58-16.79,0.14-26.93l0.11-0.12v-0.27
				c1.47-5.35,3.64-10.7,6.47-15.91c8.29-15.27,20.79-26.45,32.62-29.18c5.05-1.16,9.56-0.69,13.4,1.4
				C1084.44,681.4,1086.89,684.03,1088.66,687.54z"/>
			<path class="st4" d="M1110.61,697.33l-1.74,0.98c-0.17-0.3-0.34-0.59-0.52-0.87c-2.13-3.4-4.88-5.83-8.17-7.22
				c-3.01-1.26-6.34-1.59-9.9-0.97c-12.37,2.18-25.67,15.53-33.1,33.23c-6,14.3-7.4,29.37-3.72,40.31
				c2.15,6.41,5.9,10.89,10.84,12.97c5.47,2.29,11.89,1.5,18.63-2.28c0.26-0.15,0.52-0.31,0.78-0.46l1.02,1.72
				c-0.32,0.19-0.63,0.37-0.95,0.55c-4.45,2.47-8.9,3.72-13.05,3.72c-2.53,0-4.96-0.47-7.21-1.41c-5.24-2.2-9.26-6.78-11.64-13.27
				c-0.11-0.3-0.22-0.6-0.32-0.9c-0.11-0.33-0.22-0.67-0.31-1.01c-3.42-11.29-1.92-26.41,4.09-40.72
				c7.54-17.98,20.51-31.21,33.32-34.16c0.43-0.1,0.85-0.19,1.28-0.26c0.26-0.04,0.51-0.08,0.77-0.12c3.65-0.52,7.1-0.11,10.25,1.22
				c3.72,1.57,6.79,4.29,9.15,8.11C1110.28,696.76,1110.45,697.04,1110.61,697.33z"/>
		</g>
		<g>
			<path class="st4" d="M1108.35,697.44c-1.95,1.13-3.89,2.52-5.81,4.16c-8.06,6.86-14.78,17.34-18.93,29.49
				c-4.14,12.14-5.21,24.53-3.02,34.89c0.57,2.73,1.36,5.24,2.34,7.5c-6.74,3.78-13.16,4.57-18.63,2.28
				c-4.94-2.08-8.69-6.56-10.84-12.97c-3.68-10.94-2.28-26.01,3.72-40.31c7.43-17.7,20.73-31.05,33.1-33.23
				c3.56-0.62,6.89-0.29,9.9,0.97C1103.47,691.61,1106.22,694.04,1108.35,697.44z"/>
			<path class="st4" d="M1131.84,697.34l-1.2,1.6c-1.36-1.01-2.85-1.79-4.43-2.33c-6.78-2.32-14.73,0-22.38,6.51
				c-7.78,6.64-14.29,16.8-18.32,28.61s-5.08,23.83-2.97,33.84c2.08,9.83,6.96,16.51,13.73,18.82c4.06,1.39,8.64,1.1,13.3-0.83
				c0.31-0.12,0.62-0.26,0.93-0.4l0.84,1.82c-0.29,0.13-0.58,0.26-0.87,0.37c-3.02,1.27-6.02,1.9-8.9,1.9
				c-2.05,0-4.04-0.32-5.94-0.96c-5.01-1.71-9.05-5.51-11.85-11c-0.3-0.58-0.58-1.19-0.85-1.81c-0.98-2.26-1.77-4.77-2.34-7.5
				c-2.19-10.36-1.12-22.75,3.02-34.89c4.15-12.15,10.87-22.63,18.93-29.49c1.92-1.64,3.86-3.03,5.81-4.16
				c0.59-0.34,1.17-0.66,1.76-0.95c5.79-2.91,11.55-3.55,16.74-1.78C1128.63,695.32,1130.31,696.2,1131.84,697.34z"/>
		</g>
		<g>
			<path class="st4" d="M1131.08,794.85l0.32,1.98c-1.08,0.17-2.16,0.26-3.21,0.26c-1.81,0-3.58-0.26-5.29-0.77
				c-5.12-1.54-9.41-5.33-12.43-10.97c-0.15-0.27-0.3-0.55-0.44-0.83c-0.16-0.32-0.31-0.64-0.46-0.96
				c-5.05-10.95-5.29-26.54-0.62-41.99c4.33-14.35,12.25-26.48,21.71-33.26l0.05,0.07l1.11,1.55c-0.37,0.26-0.73,0.53-1.09,0.82
				c-8.63,6.67-15.83,18.02-19.86,31.4c-4.67,15.43-4.31,30.93,0.94,41.47c2.8,5.6,6.84,9.33,11.67,10.78
				C1125.89,795.13,1128.45,795.29,1131.08,794.85z"/>
		</g>
		<path class="st4" d="M1130.71,708.38l-0.05-0.07c-9.46,6.78-17.38,18.91-21.71,33.26c-4.67,15.45-4.43,31.04,0.62,41.99
			c-4.66,1.93-9.24,2.22-13.3,0.83c-6.77-2.31-11.65-8.99-13.73-18.82c-2.11-10.01-1.06-22.03,2.97-33.84s10.54-21.97,18.32-28.61
			c7.65-6.51,15.6-8.83,22.38-6.51c1.58,0.54,3.07,1.32,4.43,2.33L1130.71,708.38z"/>
		<path class="st4" d="M1131.4,796.83l-0.32-1.98c-2.63,0.44-5.19,0.28-7.6-0.45c-4.83-1.45-8.87-5.18-11.67-10.78
			c-5.25-10.54-5.61-26.04-0.94-41.47c4.03-13.38,11.23-24.73,19.86-31.4L1131.4,796.83z"/>
		<line class="st5" x1="1130.73" y1="710.75" x2="1130.71" y2="708.38"/>
		<path class="st4" d="M510.68,411.23c-2.99,12.48-2.91,24.92,0.24,35.03c1.23,3.96,2.88,7.4,4.88,10.22l-0.89,0.28l-0.18-0.72
			c-0.14,0.04-13.69,3.42-24.33-1.82c-4.14-11.02-20.76-63.91,27.81-95.64v0.07h0.57c15.37,0,19.49,9.22,20.55,13.03
			C527.09,375.96,515.46,391.26,510.68,411.23z"/>
		<line class="st5" x1="516.47" y1="456.27" x2="515.8" y2="456.48"/>
		<line class="st5" x1="514.91" y1="456.76" x2="514.49" y2="456.89"/>
	</g>
	
		<g id="레이어_1_00000034064533338946706540000006718572360252682680_" style="clip-path:url(#SVGID_00000141444042272128792950000012962353640899150218_);">
		<polygon points="95.84,457.5 95.84,222.48 399.52,292.38 525.63,251.75 225.33,187.27 225.75,185.32 533.35,251.36 399.61,294.45 
			399.34,294.39 97.84,224.99 97.84,455.04 215.06,430.74 215.06,265 217.06,265 217.06,432.37 		"/>
		<rect x="93.53" y="203.85" transform="matrix(0.9616 -0.2745 0.2745 0.9616 -50.044 52.0858)" width="135.11" height="2"/>
		<polygon points="335.86,294.6 96.6,237.63 97.07,235.69 333.86,292.07 333.86,278.52 335.86,278.52 		"/>
		<path d="M86.39,486.52c-1.42,0-2.81-0.48-3.95-1.39c-1.5-1.21-2.36-3-2.36-4.93V210.57c0-2.99,2.04-5.53,4.96-6.17l141.13-31.16
			c1.88-0.41,3.82,0.04,5.32,1.24c1.5,1.21,2.36,3,2.36,4.93v8.8h-2v-8.8c0-1.32-0.59-2.54-1.61-3.37
			c-1.03-0.82-2.35-1.13-3.63-0.85L85.47,206.36c-2,0.44-3.39,2.17-3.39,4.22V480.2c0,1.32,0.59,2.54,1.61,3.37
			c1.03,0.82,2.35,1.14,3.64,0.85l141.13-31.16c1.96-0.43,3.39-2.21,3.39-4.22v-179h2v179c0,2.94-2.08,5.54-4.96,6.17L87.76,486.37
			C87.3,486.47,86.84,486.52,86.39,486.52z"/>
		<path d="M56.07,515.1c-2.58,0-5.09-0.86-7.16-2.51c-2.77-2.2-4.37-5.5-4.37-9.04V203.42c0-5.22,3.52-9.8,8.56-11.15l174.03-34.62
			c4.47-1.2,8.79-0.68,11.51,1.4c2.03,1.56,3.1,3.9,3.1,6.78v23.73h-2v-23.73c0-2.27-0.78-4.01-2.32-5.2
			c-2.23-1.71-5.91-2.1-9.84-1.04L53.55,194.21c-4.1,1.1-7.01,4.89-7.01,9.21v300.13c0,2.93,1.32,5.66,3.61,7.48s5.25,2.49,8.1,1.82
			l181.36-42.15c4.35-1.01,7.39-4.84,7.39-9.3V272.65h2V461.4c0,5.4-3.67,10.03-8.94,11.25L58.7,514.8
			C57.83,515,56.94,515.1,56.07,515.1z"/>
		<path d="M162.48,401c-23.43,0-42.49-28.81-42.49-64.22s19.06-64.22,42.49-64.22s42.49,28.81,42.49,64.22S185.91,401,162.48,401z
			 M162.48,274.57c-22.33,0-40.49,27.91-40.49,62.22S140.15,399,162.48,399s40.49-27.91,40.49-62.22S184.81,274.57,162.48,274.57z"
			/>
		<path d="M152.01,401c-23.43,0-42.49-28.81-42.49-64.22s19.06-64.21,42.49-64.21l2.21,0.01c2.79,0.01,6.99,0.03,8.22-0.01l0.06,2
			c-1.27,0.04-5.5,0.02-8.29,0.01l-2.21-0.01c-22.33,0-40.49,27.91-40.49,62.21c0,34.31,18.16,62.22,40.49,62.22
			c1.77,0,8.09,0,9.96,0l0.01,2C160.11,401,153.78,401,152.01,401z"/>
		<path d="M420.17,433.55l-86-13.09l-0.22-0.51c-12.48-28.69-9.24-47.82-4.32-58.82c5.37-12,13.64-17.08,13.99-17.29l0.27-0.16
			l97.04,6.24l-0.13,2l-96.4-6.19c-1.41,0.94-8.41,6.01-12.99,16.35c-4.69,10.55-7.74,28.92,4.16,56.58l84.91,12.92L420.17,433.55z"
			/>
		<path d="M444.31,351.04l71.16,6.97c-26.93,18.43-32.98,43.4-33.17,61.58c-0.16,15.13,3.54,27.8,5.65,33.79l-64.73-16.36
			c-7.67-25.25-6.44-48.1,3.59-66.15C433.5,358.85,442.11,352.52,444.31,351.04 M443.81,348.98c0,0-42.3,25.37-22.16,89.7
			l69.56,17.58c0,0-28.5-64.51,30.19-99.68L443.81,348.98L443.81,348.98z"/>
		<path d="M539.65,373.27c-0.07-0.6-1.92-14.62-20.87-14.62c-0.19,0-0.38,0-0.57,0l-0.03-2c0.2,0,0.4,0,0.59,0
			c20.79,0,22.84,16.23,22.86,16.4L539.65,373.27z"/>
		<path d="M504.61,459.18c-5.02,0-11.07-0.83-16.4-3.86l0.99-1.74c10.79,6.13,25.38,2.49,25.53,2.46l0.5,1.94
			C514.89,458.07,510.44,459.18,504.61,459.18z"/>
		<polygon points="567.55,404.57 567.55,404.56 569.55,404.56 		"/>
		<path d="M532.01,465.55c-1.43,0-2.84-0.16-4.22-0.49c-7.68-1.84-13.67-8.51-16.87-18.8c-3.15-10.11-3.23-22.55-0.24-35.03
			c6.21-25.94,24-44,39.63-40.26c4.51,1.08,8.56,3.93,11.71,8.24l-1.61,1.18c-2.92-3.98-6.47-6.5-10.57-7.48
			c-14.58-3.49-31.27,13.91-37.22,38.78c-2.91,12.13-2.84,24.2,0.21,33.97c2.98,9.59,8.46,15.79,15.42,17.45
			c4.11,0.98,8.42,0.35,12.82-1.88l0.9,1.78C538.66,464.7,535.28,465.55,532.01,465.55z"/>
		<path d="M557.03,446.75l-0.03-1.4l0.75,0.68L557.03,446.75z M557.74,446.03l-0.01-0.01l0.71-0.69L557.74,446.03z"/>
		<path d="M556.68,471.46c-1.44,0-2.86-0.17-4.25-0.5c-4.51-1.08-8.56-3.93-11.71-8.24c-7.59-10.34-9.67-27.81-5.41-45.59
			c4.26-17.79,14.02-32.43,25.46-38.22c4.85-2.45,9.62-3.13,14.18-2.04c5.12,1.23,9.59,4.7,12.92,10.03l-1.7,1.06
			c-3.05-4.88-7.09-8.04-11.7-9.15c-4.09-0.98-8.4-0.35-12.82,1.88c-10.94,5.53-20.29,19.67-24.42,36.9
			c-4.13,17.23-2.18,34.07,5.07,43.95c2.92,3.98,6.47,6.5,10.57,7.48c3.4,0.81,6.97,0.51,10.63-0.9l0.17-0.07h0.19l0.01,1.01
			l0.35,0.92C561.69,470.97,559.16,471.46,556.68,471.46z"/>
		<path d="M580.21,480.1c-1.44,0-2.85-0.17-4.25-0.5c-4.98-1.2-9.33-4.49-12.62-9.55l0,0l-0.3-0.47c-3.75-6-5.92-13.99-6.29-23.11
			l-0.4-0.4l0.37-0.42c-0.2-6.46,0.52-13.15,2.13-19.89c1.86-7.79,4.87-15.21,8.7-21.48l0.15-0.25
			c5.33-8.64,12.07-14.87,18.97-17.54c4.04-1.57,8.02-1.9,11.82-0.99c5.69,1.36,10.51,5.43,13.94,11.77l-1.76,0.95
			c-3.15-5.82-7.53-9.55-12.64-10.77c-3.4-0.81-6.98-0.51-10.63,0.91c-6.44,2.49-12.77,8.34-17.85,16.5l-0.14,0.24
			c-3.79,6.14-6.77,13.45-8.61,21.14c-1.6,6.7-2.3,13.35-2.06,19.75l0.02,0.41l0,0c0.34,8.48,2.38,16.18,5.77,21.78l0.23,0.35
			c3.03,4.87,7.07,8.03,11.68,9.14c3.11,0.74,6.37,0.55,9.68-0.56l0.64,1.89C584.54,479.73,582.36,480.1,580.21,480.1z"/>
		<path d="M603.71,490.79c-1.44,0-2.85-0.17-4.24-0.5c-5.7-1.37-10.52-5.44-13.94-11.78c-5.75-10.62-6.93-26.35-3.17-42.07
			c4.67-19.5,16.27-35.43,28.87-39.65c3.67-1.24,7.29-1.44,10.77-0.61c3.82,0.91,7.22,3.02,10.11,6.26l-1.49,1.33
			c-2.62-2.93-5.67-4.83-9.09-5.64c-3.11-0.74-6.36-0.55-9.67,0.56c-11.97,4-23.04,19.36-27.56,38.21
			c-3.65,15.25-2.53,30.45,2.99,40.65c3.14,5.83,7.51,9.55,12.64,10.78c2.62,0.63,5.36,0.59,8.15-0.12l0.49,1.94
			C606.95,490.58,605.32,490.79,603.71,490.79z"/>
		<path d="M619.83,494.53c-1.98,0-3.91-0.31-5.76-0.92c-2.31-0.75-4.45-1.98-6.38-3.65c-10.6-9.18-13.15-30.32-6.21-51.42
			c5.83-17.73,17.43-32.01,29.55-36.37c4.66-1.67,9.13-1.83,13.29-0.47c5.48,1.8,9.91,6.17,12.8,12.63l-1.83,0.82
			c-2.66-5.94-6.67-9.93-11.6-11.55c-3.73-1.22-7.76-1.07-11.99,0.45c-11.57,4.16-22.68,17.94-28.33,35.11
			c-6.7,20.35-4.4,40.62,5.61,49.28c1.73,1.49,3.64,2.59,5.7,3.27c2.94,0.97,6.1,1.08,9.4,0.32l0.45,1.95
			C622.95,494.34,621.37,494.53,619.83,494.53z M620.16,481.75c-1.3-9.73,0.12-21.08,4-31.96c3.53-9.87,8.73-18.58,15.05-25.19
			l1.45,1.38c-6.13,6.41-11.18,14.88-14.61,24.49c-3.78,10.59-5.16,21.6-3.9,31.02L620.16,481.75z"/>
		<path d="M678.45,427.54c-2.5-5.87-6.38-9.89-11.21-11.61c-3.32-1.19-6.94-1.27-10.76-0.23c-5.32,1.45-10.79,5-15.82,10.28
			l-1.45-1.38c5.28-5.53,11.06-9.28,16.74-10.82c4.22-1.15,8.25-1.06,11.96,0.27c5.37,1.91,9.66,6.31,12.38,12.71L678.45,427.54z"/>
		<path d="M641.56,506.23c-2.15,0-4.23-0.36-6.2-1.06c-5.08-1.81-9.21-5.87-11.95-11.74c-1.6-3.41-2.69-7.34-3.25-11.67l1.98-0.26
			c0.54,4.13,1.58,7.86,3.08,11.08c2.5,5.37,6.24,9.07,10.81,10.7c2.27,0.82,4.7,1.1,7.23,0.87l0.19,1.99
			C642.82,506.2,642.19,506.23,641.56,506.23z"/>
		<path d="M660.4,517.98c-2.5,0-4.9-0.47-7.14-1.39c-4.61-1.91-8.34-5.73-10.8-11.04c-5.29-11.39-4.39-28.57,2.34-44.83
			c7.71-18.61,21.21-32.18,34.4-34.56c3.96-0.72,7.68-0.37,11.07,1.03c4.36,1.8,7.96,5.33,10.4,10.22l-1.79,0.89
			c-2.25-4.51-5.41-7.63-9.38-9.26c-3.03-1.26-6.38-1.56-9.95-0.91c-12.34,2.23-25.56,15.64-32.91,33.36
			c-6.52,15.76-7.44,32.32-2.38,43.23c2.24,4.84,5.61,8.31,9.75,10.03c2.21,0.91,4.59,1.32,7.09,1.22l0.08,2
			C660.92,517.98,660.66,517.98,660.4,517.98z"/>
		<polygon points="718.16,484.59 718.16,484.58 720.16,484.58 		"/>
		<path d="M676.8,527.21c-2.99,0-5.79-0.63-8.34-1.9c-3.35-1.65-6.1-4.29-8.18-7.84c-2.77-4.71-4.25-10.93-4.26-17.97
			c-0.02-9.6,2.7-20.42,7.65-30.48c8.72-17.68,22.84-30.3,35.96-32.15c4.25-0.61,8.15-0.05,11.61,1.66
			c4.42,2.17,7.87,6.17,9.99,11.55l-1.86,0.73c-1.93-4.91-5.05-8.54-9.01-10.49c-3.09-1.53-6.61-2.03-10.45-1.48
			c-12.49,1.75-26.01,13.94-34.45,31.05c-4.82,9.79-7.47,20.3-7.45,29.6c0.01,6.69,1.39,12.56,3.98,16.96
			c1.88,3.21,4.35,5.59,7.34,7.06c3.07,1.51,6.54,2.01,10.32,1.49l0.28,1.98C678.87,527.14,677.83,527.21,676.8,527.21z"/>
		<path d="M697.28,539.81c-3.02,0-5.86-0.63-8.42-1.89c-4.42-2.18-7.88-6.17-9.99-11.55c-4.62-11.73-2.62-28.87,5.21-44.74
			c8.76-17.77,22.93-30.4,36.09-32.17c4.18-0.58,8.05-0.02,11.48,1.67c5.7,2.81,9.65,8.44,11.42,16.27l-1.95,0.44
			c-1.64-7.22-5.22-12.38-10.36-14.91c-3.07-1.51-6.54-2.01-10.32-1.49c-12.52,1.69-26.09,13.88-34.57,31.07
			c-7.58,15.38-9.55,31.9-5.14,43.12c1.96,4.98,4.99,8.51,9.01,10.49c3.97,1.95,8.75,2.21,13.8,0.76l0.55,1.92
			C701.76,539.47,699.48,539.81,697.28,539.81z"/>
		<path d="M722.64,556.23c-3,0-5.8-0.64-8.37-1.9c-5.7-2.81-9.65-8.44-11.42-16.27c-2.58-11.4-0.09-26.36,6.65-40.03
			c2.49-5.03,5.4-9.67,8.67-13.79l0.21-0.28c7.04-8.85,15.37-14.99,23.44-17.3c5.54-1.6,10.81-1.29,15.24,0.88
			c5.21,2.57,9,7.55,10.95,14.4l-1.92,0.55c-1.79-6.29-5.22-10.84-9.91-13.16c-3.97-1.95-8.74-2.21-13.8-0.76
			c-7.59,2.17-15.47,7.97-22.21,16.35l0,0l-0.22,0.28c-3.26,4.08-6.18,8.69-8.65,13.7c-6.55,13.27-8.97,27.74-6.49,38.71
			c1.64,7.22,5.22,12.38,10.36,14.91c3.23,1.59,6.89,2.07,10.89,1.41l0.32,1.97C725.09,556.12,723.85,556.23,722.64,556.23z"/>
		<path d="M742.45,571.39l-0.12-0.01c-2.16-0.23-4.22-0.83-6.14-1.78c-5.21-2.58-9-7.56-10.95-14.4
			c-3.32-11.65-1.01-27.31,6.18-41.9c8.58-17.4,22.5-29.99,35.47-32.08c4.42-0.72,8.48-0.19,12.09,1.59
			c4.63,2.28,8.18,6.53,10.26,12.28l-1.88,0.68c-1.9-5.26-5.1-9.12-9.26-11.16c-3.23-1.59-6.89-2.07-10.89-1.41
			c-12.35,1.99-25.69,14.15-34,30.99c-6.97,14.15-9.23,29.28-6.04,40.46c1.79,6.28,5.22,10.83,9.91,13.16
			c1.71,0.84,3.55,1.37,5.47,1.58l-0.1,0.95V571.39z"/>
		<path d="M759.62,583.21c-3.55,0-6.83-0.83-9.71-2.49c-3.53-2.05-6.26-5.18-8.11-9.33h-0.01l-0.27-0.61
			c-4.99-11.95-2.12-30.22,7.31-46.54c10.19-17.66,26.05-29.63,39.45-29.79c3.66-0.05,7.06,0.78,10,2.48
			c4.82,2.79,8.21,7.72,9.79,14.27l-1.94,0.47c-1.45-6-4.51-10.5-8.85-13.01c-2.62-1.52-5.63-2.28-8.98-2.22
			c-12.73,0.15-27.89,11.72-37.75,28.79c-9.02,15.62-11.89,32.97-7.36,44.38l0.17,0.4c1.68,4.04,4.21,7.06,7.53,8.98
			c4.34,2.5,9.77,2.9,15.69,1.16l0.56,1.92C764.55,582.83,762.02,583.21,759.62,583.21z"/>
		<path d="M785.41,598.1c-3.55,0-6.83-0.83-9.71-2.49c-4.82-2.79-8.21-7.72-9.79-14.27c-2.91-11.95,0.35-27.73,8.72-42.21
			c8.36-14.48,20.4-25.19,32.21-28.65c6.46-1.9,12.42-1.44,17.25,1.34c4.82,2.79,8.21,7.72,9.79,14.27l-1.94,0.47
			c-1.45-6-4.51-10.5-8.85-13.01c-4.34-2.5-9.77-2.9-15.69-1.16c-11.32,3.32-22.92,13.68-31.04,27.73
			c-8.11,14.05-11.29,29.28-8.5,40.74c1.45,6,4.51,10.5,8.85,13.01c4.34,2.5,9.77,2.9,15.69,1.16l0.56,1.92
			C790.34,597.72,787.81,598.1,785.41,598.1z"/>
		<path d="M811.2,612.99c-3.55,0-6.83-0.83-9.71-2.49c-4.83-2.79-8.21-7.72-9.79-14.27c-2.9-11.95,0.35-27.73,8.71-42.21
			c8.36-14.48,20.41-25.19,32.22-28.65c6.46-1.9,12.42-1.44,17.25,1.34c4.82,2.78,8.2,7.72,9.78,14.27l-1.94,0.47
			c-1.45-6.01-4.51-10.51-8.84-13.01c-4.34-2.5-9.76-2.9-15.69-1.16c-11.33,3.32-22.93,13.68-31.05,27.73
			c-8.1,14.05-11.28,29.28-8.49,40.74c1.45,6,4.51,10.5,8.85,13.01c4.34,2.5,9.77,2.9,15.69,1.16l0.56,1.92
			C816.13,612.61,813.6,612.99,811.2,612.99z"/>
		<path d="M836.98,627.88c-3.55,0-6.83-0.83-9.71-2.5c-4.83-2.79-8.21-7.72-9.79-14.27c-2.9-11.95,0.35-27.73,8.71-42.21
			c8.36-14.48,20.4-25.19,32.21-28.65c6.46-1.9,12.42-1.44,17.25,1.34c4.82,2.79,8.2,7.72,9.79,14.26l-1.94,0.47
			c-1.46-6-4.52-10.49-8.85-13c-4.34-2.5-9.76-2.9-15.69-1.16c-11.32,3.32-22.92,13.68-31.04,27.73
			c-8.1,14.05-11.28,29.28-8.49,40.74c1.45,6,4.51,10.5,8.85,13.01c4.34,2.5,9.76,2.91,15.68,1.16l0.57,1.92
			C841.91,627.5,839.38,627.88,836.98,627.88z"/>
		<path d="M862.77,642.77c-3.55,0-6.83-0.83-9.71-2.49c-4.82-2.79-8.2-7.72-9.79-14.27c-2.91-11.95,0.35-27.73,8.71-42.22
			c8.36-14.48,20.4-25.19,32.2-28.66c6.47-1.9,12.44-1.43,17.25,1.35c4.81,2.79,8.2,7.72,9.79,14.26l-1.94,0.47
			c-1.46-6-4.52-10.49-8.85-13c-4.33-2.5-9.75-2.91-15.69-1.17c-11.32,3.33-22.93,13.7-31.04,27.74
			c-8.11,14.05-11.29,29.28-8.5,40.74c1.46,6,4.52,10.5,8.85,13.01c4.34,2.5,9.76,2.9,15.69,1.16l0.56,1.92
			C867.7,642.39,865.17,642.77,862.77,642.77z"/>
		<path d="M888.52,657.66c-3.55,0-6.79-0.84-9.68-2.51c-4.81-2.79-8.2-7.72-9.79-14.26c-2.91-11.97,0.35-27.75,8.71-42.23
			c8.36-14.48,20.41-25.19,32.21-28.65c6.46-1.9,12.42-1.44,17.25,1.34c5.86,3.39,9.5,9.76,10.53,18.43l-1.99,0.24
			c-0.95-8.02-4.25-13.87-9.55-16.93c-4.34-2.5-9.77-2.9-15.69-1.16c-11.33,3.32-22.93,13.68-31.05,27.73
			c-8.11,14.04-11.28,29.27-8.49,40.75c1.46,6,4.52,10.49,8.85,13c3.31,1.91,7.17,2.6,11.49,2.05l0.25,1.98
			C890.54,657.59,889.52,657.66,888.52,657.66z"/>
		<path d="M909.22,672.85c-4.36-0.18-8.15-1.48-11.28-3.84c-3.77-2.84-6.28-6.99-7.45-12.32c-2.77-12.51,2.35-29.32,13.34-43.87
			c9.29-12.29,21.21-20.99,32.69-23.88c7.84-1.96,14.67-0.96,19.76,2.88c3.14,2.38,5.41,5.68,6.76,9.81l-1.9,0.62
			c-1.22-3.73-3.26-6.71-6.06-8.83c-4.59-3.47-10.84-4.34-18.06-2.54c-10.89,2.73-22.69,11.39-31.58,23.14
			c-10.65,14.09-15.62,30.28-12.98,42.23c1.07,4.85,3.32,8.61,6.71,11.16c2.8,2.12,6.22,3.27,10.16,3.44L909.22,672.85z"/>
		<path d="M928.3,685.83l-1.09-0.01c-4.72-0.03-8.8-1.33-12.14-3.85c-3.14-2.38-5.41-5.68-6.76-9.81
			c-4.12-12.55,0.84-30.76,12.65-46.38s28.01-25.36,41.16-24.84c4.35,0.17,8.15,1.46,11.29,3.84c4.7,3.55,7.49,9.25,8.07,16.48
			l0.09,1.09l-1.09-0.01c-0.05,0-0.11,0-0.16,0c-12.38,0-27.49,9.43-38.55,24.06c-9.42,12.46-14.5,26.8-13.57,38.34L928.3,685.83z
			 M961.07,602.92c-12.38,0-27.38,9.34-38.51,24.06c-11.43,15.12-16.27,32.61-12.35,44.55c1.22,3.73,3.26,6.71,6.06,8.84
			c2.73,2.07,6.05,3.21,9.87,3.42c-0.57-11.81,4.63-26.14,14.04-38.59c11.15-14.76,26.41-24.39,39.21-24.84
			c-0.71-6.14-3.18-10.96-7.18-13.98c-2.81-2.13-6.23-3.28-10.17-3.44C961.72,602.93,961.4,602.92,961.07,602.92z"/>
		<path d="M946.62,705.23c-4.73,0-8.95-1.29-12.33-3.84c-4.7-3.56-7.49-9.26-8.08-16.49l1.99-0.16c0.54,6.64,3.06,11.85,7.29,15.05
			c5.14,3.88,12.53,4.5,20.81,1.73l0.63,1.9C953.32,704.63,949.85,705.23,946.62,705.23z"/>
		<path d="M998.59,639.75c-0.7-6.12-3.18-10.94-7.16-13.96c-2.99-2.26-6.68-3.43-10.94-3.46l0.01-2c4.71,0.03,8.79,1.33,12.14,3.86
			c4.43,3.35,7.18,8.65,7.94,15.32L998.59,639.75z"/>
		<path d="M946.62,705.23c-4.73,0-8.95-1.29-12.33-3.84c-4.7-3.56-7.49-9.26-8.08-16.49l1.99-0.16c0.54,6.64,3.06,11.85,7.29,15.05
			c5.14,3.88,12.53,4.5,20.81,1.73l0.63,1.9C953.32,704.63,949.85,705.23,946.62,705.23z"/>
		<path d="M998.59,639.75c-0.7-6.12-3.18-10.94-7.16-13.96c-2.99-2.26-6.68-3.43-10.94-3.46l0.01-2c4.71,0.03,8.79,1.33,12.14,3.86
			c4.43,3.35,7.18,8.65,7.94,15.32L998.59,639.75z"/>
		<path d="M976.25,727.7c-3.35,0-6.47-0.75-9.22-2.24c-7.03-3.82-11.09-11.97-11.41-22.96c-0.32-10.47,2.83-22.36,8.87-33.48
			c8.84-16.28,22.21-27.91,34.9-30.36c5.08-1,9.86-0.38,13.84,1.78c4.23,2.3,7.48,6.3,9.38,11.57l-1.88,0.68
			c-1.76-4.87-4.61-8.4-8.46-10.49c-3.61-1.96-7.82-2.5-12.5-1.58c-11.94,2.31-25.09,13.83-33.52,29.36
			c-5.87,10.81-8.94,22.34-8.63,32.46c0.3,10.25,3.98,17.8,10.37,21.26c3.84,2.08,8.35,2.55,13.4,1.39l0.45,1.95
			C979.92,727.48,978.05,727.7,976.25,727.7z"/>
		<polygon points="1020.49,680.13 1020.49,680.12 1022.49,680.12 		"/>
		<path d="M1028.56,724.01l-0.73-0.73h1.03L1028.56,724.01z M1027.85,723.3l-0.99-0.02L1027.85,723.3z"/>
		<path d="M999.26,740.21c-3.34,0-6.46-0.75-9.19-2.24c-4.22-2.29-7.47-6.29-9.39-11.55c-4.34-11.93-1.71-29.13,6.85-44.88
			c8.56-15.76,21.56-27.31,33.92-30.16c5.46-1.26,10.59-0.72,14.8,1.58c4.22,2.29,7.47,6.29,9.39,11.57l-1.88,0.69
			c-1.78-4.88-4.63-8.41-8.47-10.49c-3.83-2.09-8.34-2.55-13.4-1.38c-11.83,2.72-24.32,13.89-32.62,29.16
			c-8.3,15.26-10.88,31.83-6.73,43.24c1.77,4.87,4.62,8.39,8.47,10.48c3.78,2.06,8.42,2.54,13.4,1.38l0.45,1.95
			C1002.95,739.99,1001.07,740.21,999.26,740.21z"/>
		<path d="M1022.29,752.72c-3.33,0-6.45-0.75-9.2-2.25c-4.22-2.29-7.47-6.29-9.39-11.57c-4.34-11.92-1.72-29.11,6.84-44.87
			c2.85-5.24,6.19-10.05,9.95-14.29l0,0l0.25-0.29c7.34-8.21,15.77-13.74,23.73-15.57c5.46-1.27,10.58-0.72,14.8,1.58
			c4.22,2.29,7.47,6.29,9.39,11.56l-1.88,0.69c-1.78-4.87-4.62-8.4-8.47-10.48c-3.79-2.06-8.42-2.54-13.4-1.38
			c-7.49,1.72-15.46,6.93-22.47,14.7l-0.22,0.26c-3.75,4.2-7.1,8.98-9.94,14.2c-8.29,15.27-10.87,31.83-6.72,43.23
			c1.78,4.88,4.63,8.41,8.47,10.49c3.86,2.1,8.36,2.56,13.39,1.39l0.46,1.95C1025.98,752.5,1024.1,752.72,1022.29,752.72z"/>
		<path d="M1045.32,765.24c-3.33,0-6.43-0.75-9.19-2.25c-4.22-2.29-7.47-6.29-9.39-11.57c-2.79-7.67-2.74-17.75,0.16-28.39
			l0.08-0.26c1.51-5.45,3.73-10.91,6.61-16.22c8.56-15.76,21.56-27.32,33.93-30.17c5.46-1.25,10.58-0.71,14.8,1.58
			c3.81,2.07,6.74,5.39,8.72,9.9l-1.83,0.8c-1.79-4.08-4.43-7.09-7.84-8.94c-3.84-2.09-8.35-2.55-13.4-1.39
			c-11.83,2.73-24.33,13.91-32.62,29.17c-2.82,5.21-5,10.57-6.47,15.91v0.28l-0.11,0.12c-2.72,10.14-2.77,19.7-0.14,26.93
			c1.78,4.88,4.63,8.41,8.47,10.49c4.26,2.31,9.5,2.63,15.14,0.92l0.58,1.91C1050.22,764.85,1047.71,765.24,1045.32,765.24z"/>
		<path d="M1070.73,779.01c-2.53,0-4.96-0.47-7.21-1.41c-5.48-2.3-9.62-7.21-11.96-14.17c-3.82-11.39-2.41-26.98,3.78-41.73
			c7.8-18.58,21.38-32.1,34.6-34.42c3.94-0.69,7.65-0.32,11.02,1.09c3.99,1.68,7.24,4.69,9.65,8.95l-1.74,0.99
			c-2.19-3.87-5.12-6.59-8.69-8.09c-3.01-1.26-6.34-1.59-9.9-0.97c-12.37,2.17-25.68,15.53-33.1,33.22
			c-6,14.31-7.4,29.38-3.72,40.32c2.15,6.41,5.9,10.89,10.84,12.97c5.68,2.38,12.4,1.43,19.41-2.74l1.02,1.72
			C1079.97,777.57,1075.18,779.01,1070.73,779.01z"/>
		<path d="M1101.58,787.25c-2.05,0-4.05-0.32-5.95-0.97c-7.47-2.55-12.81-9.76-15.04-20.3c-2.19-10.36-1.11-22.75,3.03-34.9
			s10.86-22.62,18.92-29.49c8.21-6.99,16.84-9.44,24.32-6.88c1.78,0.61,3.46,1.49,4.98,2.62l-1.19,1.61
			c-1.36-1.01-2.85-1.79-4.44-2.34c-6.78-2.31-14.73,0-22.37,6.51c-7.79,6.64-14.3,16.8-18.33,28.61
			c-4.02,11.81-5.08,23.82-2.96,33.84c2.08,9.83,6.95,16.51,13.73,18.82c4.33,1.47,9.25,1.05,14.23-1.23l0.83,1.82
			C1108.03,786.49,1104.73,787.25,1101.58,787.25z"/>
		<path d="M1128.19,797.09c-1.81,0-3.58-0.26-5.29-0.78c-5.37-1.62-9.82-5.7-12.88-11.8c-5.48-10.99-5.88-27.04-1.07-42.95
			c4.33-14.35,12.24-26.48,21.7-33.26l1.17,1.62c-9.11,6.54-16.75,18.28-20.96,32.22c-4.67,15.43-4.31,30.93,0.95,41.47
			c2.8,5.59,6.83,9.32,11.66,10.78c2.42,0.73,4.97,0.88,7.6,0.45l0.32,1.97C1130.32,797,1129.25,797.09,1128.19,797.09z"/>
	</g>
</g>
</svg>
