<?xml version="1.0" encoding="utf-8"?>
<!-- Generator: Adobe Illustrator 29.6.1, SVG Export Plug-In . SVG Version: 9.03 Build 0)  -->
<svg version="1.1" id="레이어_1" xmlns="http://www.w3.org/2000/svg" xmlns:xlink="http://www.w3.org/1999/xlink" x="0px"
	 y="0px" viewBox="0 0 918.47 792.78" style="enable-background:new 0 0 918.47 792.78;" xml:space="preserve">
<style type="text/css">
	.st0{display:none;}
	.st1{clip-path:url(#SVGID_00000174572932346379857140000001811443379502096057_);}
	.st2{fill:#C0C8CE;}
	.st3{fill:#A2A7AA;}
	.st4{fill:#8898A5;}
</style>
<g id="레이어_2_00000154408353910882969910000002184705268463899055_" class="st0">
</g>
<g>
	<defs>
		<rect id="SVGID_1_" width="917.89" height="797.69"/>
	</defs>
	<clipPath id="SVGID_00000170964727062671053500000018050233261200821638_">
		<use xlink:href="#SVGID_1_"  style="overflow:visible;"/>
	</clipPath>
	<g id="레이어_3" style="clip-path:url(#SVGID_00000170964727062671053500000018050233261200821638_);">
		<g>
			<path class="st2" d="M333.71,416.98c-1.17-1.67-2.65-3.04-4.38-4.11c-1.75-1.11-3.77-1.91-5.97-2.4
				c-8.92-2.04-20.96,0.81-31.72,8.35c-7.7,5.4-13.63,12.36-16.7,19.62c-2.47,5.84-2.86,11.34-1.2,15.86
				c0.45,1.22,1.05,2.37,1.8,3.43c0.98,1.39,2.18,2.59,3.56,3.56c3.35,2.41,7.78,3.6,12.74,3.6c7.94,0,17.26-3.04,25.77-9
				c7.7-5.4,13.64-12.37,16.7-19.62c1.47-3.48,2.21-6.84,2.21-9.94C336.52,422.82,335.58,419.64,333.71,416.98z"/>
			<path class="st3" d="M332.47,435.49c-2.92,6.91-8.61,13.58-16,18.76c-15.14,10.6-32.76,11.65-39.29,2.33
				c-3.11-4.44-3.25-10.6-0.39-17.36c2.92-6.92,8.6-13.58,16-18.76c8.21-5.75,17.15-8.69,24.66-8.69c3.16,0,6.08,0.52,8.57,1.58
				c0.68,0.29,1.33,0.61,1.94,0.98c0.04,0.02,0.07,0.04,0.1,0.07c1.6,0.96,2.96,2.2,4.02,3.72
				C335.18,422.56,335.33,428.73,332.47,435.49z"/>
		</g>
		<g>
			<path class="st2" d="M457.22,529.15l-0.84,0.54l-0.76,0.65c-0.08-0.09-0.53-0.55-1.28-1.3c-5.12-5.19-24.54-24.67-40.55-40.72
				c-22.3-22.37-26.25-26.33-26.37-26.49c-3.39-4.22-9.25-6.11-16.48-5.3c-7.4,0.83-15.31,4.37-22.27,9.96
				c-6.97,5.59-12.13,12.55-14.54,19.59c-2.36,6.89-1.79,13.01,1.61,17.23c0.3,0.37,0.59,0.69,0.89,0.98l0.03,0.04l0.03,0.03
				c0.11,0.12,0.2,0.21,0.29,0.29l0.11,0.1l-1.32,1.5l-0.49-0.47l-0.1-0.11c-0.26-0.25-0.55-0.57-0.85-0.93
				c-0.05-0.05-0.1-0.11-0.15-0.17c-3.84-4.78-4.53-11.58-1.94-19.13c2.53-7.4,7.92-14.69,15.17-20.51
				c7.26-5.82,15.54-9.51,23.31-10.38c7.93-0.89,14.42,1.25,18.26,6.03c0.37,0.39,12.93,12.99,26.22,26.32
				c32.11,32.21,39.67,39.8,41.46,41.65C457.09,528.99,457.19,529.11,457.22,529.15z"/>
		</g>
		<g>
			<polygon class="st2" points="280.33,459.81 279.1,461.29 279.05,461.35 -224.38,39.99 -224.78,39.65 -224.37,39.98 
				-58.92,175.86 273.74,454.3 			"/>
		</g>
		<g>
			<polygon class="st2" points="410.93,571.63 410.9,571.66 410.9,571.67 409.6,573.11 408.53,572.14 342.08,512.33 335.77,506.25 
				335.28,505.78 335.18,505.67 334.27,504.8 334.33,504.74 335.66,503.36 336.63,504.29 336.66,504.33 336.69,504.36 
				336.98,504.65 337.09,504.75 343.44,510.87 409.36,570.21 410.92,571.62 			"/>
		</g>
		<g>
			<polygon class="st2" points="329.33,412.87 328.06,414.4 328.05,414.41 327.96,414.33 323.36,410.47 151.37,265.68 
				-176.09,-8.42 -174.81,-9.95 			"/>
		</g>
		<g>
			<polygon class="st4" points="645.67,563.02 645.17,563.22 630.84,568.92 628.98,569.66 586.43,586.58 584.93,587.18 
				584.19,585.33 585.12,584.96 601.32,578.51 603.28,577.74 643.75,561.63 644.93,561.16 			"/>
		</g>
		<g>
			<polygon class="st4" points="838.23,561.91 331.24,742.64 330.04,743.07 329.65,742.85 329.21,742.61 258.92,704.18 
				259.88,702.42 330.21,740.88 837.56,560.02 			"/>
		</g>
		<g>
			<polygon class="st4" points="335.95,773.13 333.97,773.43 333.66,771.4 329.21,742.61 329.14,742.13 331.11,741.82 
				331.24,742.64 335.77,771.94 			"/>
		</g>
		<g>
			<path class="st2" d="M454.34,529.04c-4.03,0.96-9.53,2.81-15.56,6.35c-9.1,5.35-20.84,15.56-29.42,34.82l-65.92-59.34l-6.35-6.12
				l-0.11-0.1l-0.29-0.29l-0.03-0.03l-0.03-0.04c-0.3-0.29-0.59-0.61-0.89-0.98c-3.4-4.22-3.97-10.34-1.61-17.23
				c2.41-7.04,7.57-14,14.54-19.59c6.96-5.59,14.87-9.13,22.27-9.96c7.23-0.81,13.09,1.08,16.48,5.3
				c0.12,0.16,4.07,4.12,26.37,26.49C429.8,504.37,449.22,523.85,454.34,529.04z"/>
			<path class="st4" d="M856.57,586.78l-0.87,0.31L334.87,774.38l-0.4-0.23l-79.99-45.2v-31.93l0.66-0.24l177.25-64.26l-28.09-22.24
				l0.05-26.43c1.26-4.22,2.66-8.12,4.18-11.71c0.27-0.66,0.55-1.3,0.83-1.93c8.58-19.26,20.32-29.47,29.42-34.82
				c6.03-3.54,11.53-5.39,15.56-6.35c0.84-0.2,1.62-0.36,2.32-0.49c2.66-0.49,4.29-0.55,4.46-0.55h0.28l21.86,12.73l0.49,0.28
				l-1.01,1.73l-1.37-0.8l-20.47-11.92c-3.17,0.21-33.21,3.27-49.98,41.6c-0.01,0.01-0.02,0.03-0.02,0.04v0.01
				c-1.68,3.84-3.23,8.03-4.6,12.61v25.03l27.37,21.66l1.8,1.43c0,0.01,0,0.01,0,0.01l0.97,0.76l-179.96,65.25v29.37l77.18,43.61
				l1.4,0.79l0.71-0.25l518.39-186.42l-6.41-24.09l-96.72-31.79c-4.62-1.57-9.69-1.54-14.29,0.09l-35.73,15.31l-1.45,0.62
				l-0.79-1.84l0.58-0.25l36.66-15.71c5.08-1.79,10.62-1.83,15.66-0.11l97.73,32.12L856.57,586.78z"/>
		</g>
		<g>
			<path class="st4" d="M444.3,614.53h-0.01c-0.02,0.14-0.08,0.27-0.17,0.39c-0.2,0.26-0.5,0.39-0.8,0.39
				c-0.21,0-0.42-0.07-0.61-0.21l-0.07-0.05l-32.99-25.37c-0.43-0.34-0.51-0.97-0.18-1.4c0.34-0.44,0.96-0.53,1.4-0.19l33.06,25.43
				C444.25,613.76,444.38,614.16,444.3,614.53z"/>
		</g>
		<g>
			<path class="st4" d="M457.22,596.11c-0.2,0.28-0.51,0.43-0.83,0.43c-0.19,0-0.39-0.06-0.56-0.18l-37.31-25.66
				c-0.46-0.31-0.57-0.94-0.26-1.39c0.32-0.46,0.94-0.57,1.39-0.26l37.31,25.66C457.42,595.03,457.53,595.65,457.22,596.11z"/>
		</g>
		<g>
			<path class="st4" d="M591.64,608.88c0.01,0.41-0.23,0.8-0.63,0.96l-66.5,26.1c-3.92,1.54-8.02,2.3-12.1,2.3
				c-5.77,0-11.5-1.52-16.65-4.54l-28.65-16.76c-1.91-1.11-4.07-1.72-6.26-1.75c-3.76-0.05-10.89,0.06-16.35,1.34
				c-6.74,1.58-8.67,13.22-9.03,15.87c0,0.01,0,0.01,0,0.01c-0.04,0.33-0.06,0.51-0.06,0.53c-0.06,0.55-0.55,0.94-1.09,0.9
				c-0.55-0.05-0.96-0.54-0.9-1.09c0.01-0.13,0.08-0.78,0.25-1.78c0.64-3.97,2.79-13.3,8.97-15.92c0.45-0.2,0.92-0.35,1.41-0.47
				c0.08-0.02,0.15-0.04,0.24-0.05h0.01c5.33-1.22,11.93-1.39,16.57-1.34c2.54,0.04,5.04,0.74,7.25,2.03l28.65,16.76
				c8.26,4.83,18.11,5.59,27.01,2.1l65.89-25.86l0.61-0.24c0.51-0.21,1.09,0.05,1.29,0.56
				C591.62,608.65,591.64,608.77,591.64,608.88z"/>
		</g>
		<g>
			<path class="st4" d="M588.9,598.45c-0.62-6.66-4.39-12.73-10.11-16.23l-46.44-28.42c-7.1-4.35-16.75-9.23-22.56-9.89l-19.82-2.45
				c-2.64-0.33-5.25,0.4-7.34,2.04c-2.09,1.64-3.41,4.01-3.72,6.65l-0.49,4.28c-1.29,11.2,1.14,22.72,6.84,32.43l26.05,44.41
				c0.28,0.47,0.12,1.09-0.35,1.37c-0.16,0.09-0.34,0.13-0.51,0.13c-0.34,0-0.68-0.17-0.86-0.49l-26.05-44.4
				c-5.92-10.09-8.45-22.05-7.11-33.67l0.5-4.29c0.36-3.17,1.94-6,4.44-7.98l-20.47-11.92c-3.17,0.21-33.21,3.27-49.98,41.6
				l0.01,0.01l-0.03,0.03v0.01c-1.68,3.84-3.23,8.03-4.6,12.61v25.03l27.37,21.66c0.64-3.97,2.79-13.3,8.97-15.92l-32.99-25.37
				c-0.43-0.34-0.51-0.97-0.18-1.4c0.34-0.44,0.96-0.53,1.4-0.19l33.06,25.43c0.32,0.24,0.45,0.64,0.37,1.01
				c5.33-1.22,11.93-1.39,16.57-1.34c2.54,0.04,5.04,0.74,7.25,2.03l28.65,16.76c8.26,4.83,18.11,5.59,27.01,2.1l65.89-25.86
				L588.9,598.45z M457.22,596.11c-0.2,0.28-0.51,0.43-0.83,0.43c-0.19,0-0.39-0.06-0.56-0.18l-37.31-25.66
				c-0.46-0.31-0.57-0.94-0.26-1.39c0.32-0.46,0.94-0.57,1.39-0.26l37.31,25.66C457.42,595.03,457.53,595.65,457.22,596.11z"/>
			<path class="st4" d="M591.7,608.47c0.01,0.15-0.01,0.29-0.06,0.41c-0.13,0.36-0.45,0.63-0.86,0.66
				c-0.56,0.05-1.03-0.36-1.08-0.92l-0.03-0.4l-0.77-9.77c-0.62-6.66-4.39-12.73-10.11-16.23l-46.44-28.42
				c-7.1-4.35-16.75-9.23-22.56-9.89l-19.82-2.45c-2.64-0.33-5.25,0.4-7.34,2.04c-2.09,1.64-3.41,4.01-3.72,6.65l-0.49,4.28
				c-1.29,11.2,1.14,22.72,6.84,32.43l26.05,44.41c0.28,0.47,0.12,1.09-0.35,1.37c-0.16,0.09-0.34,0.13-0.51,0.13
				c-0.34,0-0.68-0.17-0.86-0.49l-26.05-44.4c-5.92-10.09-8.45-22.05-7.11-33.67l0.5-4.29c0.36-3.17,1.94-6,4.44-7.98
				c0.01,0,0.01,0,0.02-0.01c0.59-0.46,1.22-0.87,1.87-1.2c2.12-1.12,4.53-1.56,6.96-1.26l19.8,2.45c4.09,0.47,9.42,2.69,14.05,4.99
				c0.63,0.31,1.24,0.63,1.83,0.94c3.31,1.73,6.09,3.38,7.5,4.24l46.44,28.43c1.99,1.22,3.77,2.72,5.28,4.44
				c0.47,0.52,0.9,1.06,1.31,1.62c2.49,3.38,4.07,7.43,4.46,11.7L591.7,608.47z"/>
		</g>
		<g>
			<path class="st4" d="M601.32,578.51l-16.2,6.45c-1.51-1.72-3.29-3.22-5.28-4.44l-46.44-28.43c-1.41-0.86-4.19-2.51-7.5-4.24
				l5.59-6.37c2.76-3.14,7.32-4.11,11.11-2.36l53.17,24.56c2.94,1.36,4.89,4.21,5.09,7.44L601.32,578.51z"/>
			<path class="st4" d="M603.36,579.11l-1.99,0.13l-0.05-0.73l-0.46-7.39c-0.2-3.23-2.15-6.08-5.09-7.44l-53.17-24.56
				c-3.79-1.75-8.35-0.78-11.11,2.36l-5.59,6.37l-0.85,0.97l-1.5-1.32l0.52-0.59l5.92-6.75c3.33-3.8,8.86-4.97,13.45-2.85
				l53.17,24.56c3.6,1.66,6,5.16,6.25,9.13l0.42,6.74L603.36,579.11z"/>
		</g>
		<g>
			<path class="st4" d="M715.16,557.49l-14.15-12.45l-1.66-1.47l-17.74-15.61c-1.59-1.41-3.72-2.04-5.75-1.74l-37.51,2.49
				c-4.33,0.65-7.77,3.51-9.2,7.65c-1.44,4.13-0.5,8.51,2.48,11.68l12.12,13.59l1.42,1.59l14.79,16.57l0.02,0.02
				c0.01,0.01,0.02,0.02,0.03,0.03c0.65,0.7,1.35,1.35,2.08,1.94c4.15,3.43,9.38,5.29,14.72,5.29c1.68,0,3.36-0.18,5.02-0.56
				l27.44-6.17c4.96-1.11,8.67-4.71,9.93-9.62C720.47,565.8,718.96,560.86,715.16,557.49z M717.27,570.22
				c-1.08,4.17-4.23,7.23-8.43,8.17l-27.45,6.17c-7.23,1.63-14.87-0.71-19.95-6.11l-28.34-31.76c-2.48-2.64-3.25-6.26-2.06-9.68
				c1.18-3.42,4.03-5.78,7.53-6.31l37.51-2.49c1.52-0.23,3.05,0.23,4.21,1.25l33.55,29.53
				C717.06,561.85,718.34,566.05,717.27,570.22z"/>
			<path class="st4" d="M717.27,570.22c-1.08,4.17-4.23,7.23-8.43,8.17l-27.45,6.17c-7.23,1.63-14.87-0.71-19.95-6.11l-28.34-31.76
				c-2.48-2.64-3.25-6.26-2.06-9.68c1.18-3.42,4.03-5.78,7.53-6.31l37.51-2.49c1.52-0.23,3.05,0.23,4.21,1.25l33.55,29.53
				C717.06,561.85,718.34,566.05,717.27,570.22z"/>
		</g>
		<g>
			<path class="st4" d="M331.24,742.64l506.99-180.73l-0.67-1.89L330.21,740.88l-70.33-38.46l-0.96,1.76l70.29,38.43l4.45,28.79
				l-77.18-43.61v-29.37l179.96-65.25l-0.97-0.76c0,0,0,0,0-0.01c0.36-2.65,2.29-14.29,9.03-15.87c5.46-1.28,12.59-1.39,16.35-1.34
				c2.19,0.03,4.35,0.64,6.26,1.75l28.65,16.76c5.15,3.02,10.88,4.54,16.65,4.54c4.08,0,8.18-0.76,12.1-2.3l66.5-26.1
				c0.4-0.16,0.64-0.55,0.63-0.96c0.05-0.12,0.07-0.26,0.06-0.41l-0.81-10.19c-0.39-4.27-1.97-8.32-4.46-11.7l42.55-16.92
				l4.58,10.07c0.76,1.66,2.4,2.71,4.22,2.71h0.13l24.18-0.66c4.15,3.43,9.38,5.29,14.72,5.29c1.68,0,3.36-0.18,5.02-0.56
				l27.44-6.17c4.96-1.11,8.67-4.71,9.93-9.62c1.27-4.92-0.24-9.86-4.04-13.23l-14.15-12.45l35.73-15.31
				c4.6-1.63,9.67-1.66,14.29-0.09l96.72,31.79l6.41,24.09L335.77,771.94L331.24,742.64z"/>
			<path class="st4" d="M660.01,579.84l-22.16,0.6c-1.06,0.02-2.03-0.58-2.47-1.54l-4.54-9.98l14.33-5.7l14.79,16.57l0.02,0.02
				C659.99,579.82,660,579.83,660.01,579.84z"/>
			<path class="st4" d="M662.45,581.77l-0.36,0.01l-24.18,0.66h-0.13c-1.82,0-3.46-1.05-4.22-2.71l-4.58-10.07l-0.39-0.87l1.82-0.82
				l0.43,0.95l4.54,9.98c0.44,0.96,1.41,1.56,2.47,1.54l22.16-0.6l2.39-0.07L662.45,581.77z"/>
		</g>
		<path class="st2" d="M323.36,410.47c-8.92-2.04-20.96,0.81-31.72,8.35c-7.7,5.4-13.63,12.36-16.7,19.62
			c-2.47,5.84-2.86,11.34-1.2,15.86L-58.92,175.86L-224.37,39.98l48.28-48.4l327.46,274.1L323.36,410.47z"/>
	</g>
	
		<g id="레이어_1_00000071534069625121624720000008536126372418945931_" style="clip-path:url(#SVGID_00000170964727062671053500000018050233261200821638_);">
		<path d="M291.84,464.89c-7.01,0-12.94-2.36-16.3-7.15c-3.52-5.02-3.73-11.88-0.6-19.29c3.07-7.26,9-14.22,16.7-19.62
			c16.04-11.24,34.91-12.06,42.07-1.84l0,0c3.52,5.02,3.73,11.88,0.6,19.29c-3.07,7.26-9,14.22-16.7,19.62
			C309.1,461.85,299.78,464.89,291.84,464.89z M317.45,411.77c-7.51,0-16.45,2.94-24.65,8.69c-7.4,5.18-13.08,11.85-16,18.76
			c-2.86,6.76-2.72,12.92,0.39,17.36c6.53,9.32,24.15,8.27,39.28-2.33c7.4-5.18,13.08-11.85,16-18.76
			c2.86-6.76,2.71-12.92-0.39-17.36l0,0C329.09,413.86,323.78,411.77,317.45,411.77z"/>
		<path d="M455.62,530.34c-0.67-0.74-23.49-23.63-41.83-42.02c-22.3-22.36-26.24-26.32-26.37-26.48c-3.39-4.23-9.24-6.11-16.48-5.3
			c-7.4,0.83-15.31,4.37-22.27,9.96s-12.13,12.55-14.54,19.59c-2.36,6.89-1.78,13,1.61,17.23c0.3,0.37,0.59,0.69,0.89,0.98
			c0.18,0.2,0.32,0.33,0.47,0.46l-1.33,1.49c-0.21-0.19-0.41-0.38-0.59-0.58c-0.3-0.29-0.65-0.67-1-1.1
			c-3.84-4.78-4.53-11.58-1.95-19.13c2.53-7.4,7.92-14.68,15.18-20.51c7.26-5.82,15.53-9.51,23.3-10.38
			c7.94-0.89,14.42,1.25,18.26,6.04c0.37,0.39,12.93,12.98,26.22,26.32c39.8,39.92,41.88,42.02,42.02,42.25l-1.68,1.08l0.84-0.54
			L455.62,530.34z"/>
		<rect x="109.04" y="97.41" transform="matrix(0.6418 -0.7668 0.7668 0.6418 -204.9097 198.4947)" width="2" height="442.39"/>
		<polygon points="409.6,573.11 342.08,512.33 334.27,504.8 335.66,503.36 343.44,510.87 410.93,571.63 		"/>
		<polygon points="328.05,414.41 327.46,413.92 0,139.83 1.28,138.29 329.33,412.87 		"/>
		<rect x="582.24" y="573.15" transform="matrix(0.9291 -0.3698 0.3698 0.9291 -168.7303 268.1039)" width="65.37" height="2"/>
		<polygon points="330.04,743.07 329.65,742.85 258.92,704.18 259.88,702.42 330.21,740.88 837.56,560.02 838.23,561.91 		"/>
		<rect x="331.56" y="741.8" transform="matrix(0.9883 -0.1527 0.1527 0.9883 -111.7888 59.6656)" width="2" height="31.68"/>
		<path d="M334.87,774.38l-0.4-0.22l-79.99-45.2v-31.94l0.66-0.24l177.25-64.26l-28.08-22.24l0.04-26.43
			c8.44-28.3,23.38-41.97,34.43-48.46c12.03-7.06,21.93-7.38,22.34-7.38l0.28-0.01l22.35,13.01l-1.01,1.73l-21.84-12.72
			c-3.49,0.24-39.52,3.92-54.6,54.26v25.03l30.14,23.86l-179.96,65.24v29.37l78.57,44.4l519.11-186.66l-6.41-24.09l-96.72-31.79
			c-4.62-1.58-9.7-1.54-14.29,0.08l-37.18,15.93l-0.79-1.84l37.24-15.96c5.08-1.8,10.62-1.84,15.65-0.12l97.74,32.12l7.16,26.91
			l-0.86,0.31L334.87,774.38z"/>
		<path d="M443.32,615.31c-0.21,0-0.43-0.07-0.61-0.21l-33.06-25.42c-0.44-0.34-0.52-0.96-0.18-1.4s0.96-0.52,1.4-0.18l33.06,25.43
			c0.44,0.34,0.52,0.96,0.18,1.4C443.92,615.18,443.62,615.31,443.32,615.31z"/>
		<path d="M456.39,596.54c-0.2,0-0.39-0.06-0.57-0.18l-37.31-25.66c-0.46-0.31-0.57-0.94-0.26-1.39s0.94-0.57,1.39-0.26l37.31,25.66
			c0.46,0.31,0.57,0.94,0.26,1.39C457.02,596.39,456.71,596.54,456.39,596.54z"/>
		<path d="M512.41,638.24c-5.77,0-11.5-1.53-16.65-4.54l-28.65-16.76c-1.91-1.12-4.07-1.72-6.26-1.75
			c-3.76-0.05-10.88,0.06-16.35,1.34c-7.58,1.77-9.08,16.26-9.09,16.41c-0.05,0.55-0.54,0.94-1.09,0.9
			c-0.55-0.05-0.95-0.54-0.9-1.09c0.06-0.65,1.66-16.06,10.63-18.16c5.38-1.26,12.12-1.45,16.83-1.39c2.53,0.03,5.04,0.73,7.25,2.02
			l28.65,16.76c8.26,4.83,18.11,5.6,27.01,2.1l66.49-26.1c0.51-0.2,1.09,0.05,1.3,0.57c0.2,0.51-0.05,1.09-0.57,1.3l-66.49,26.1
			C520.59,637.48,516.49,638.24,512.41,638.24z"/>
		<path d="M510.45,632.77c-0.34,0-0.68-0.18-0.86-0.49l-26.05-44.4c-5.92-10.09-8.44-22.05-7.1-33.67l0.49-4.28
			c0.37-3.18,1.95-6.02,4.47-7.99c2.51-1.98,5.65-2.85,8.82-2.46l19.81,2.45c7.71,0.88,19.84,8,23.37,10.17l46.44,28.43
			c6.25,3.82,10.38,10.46,11.06,17.76l0.8,10.19c0.04,0.55-0.37,1.03-0.92,1.08c-0.55,0.05-1.03-0.37-1.08-0.92l-0.8-10.18
			c-0.61-6.66-4.39-12.73-10.11-16.22l-46.44-28.43c-7.1-4.34-16.75-9.22-22.56-9.89l-19.82-2.45c-2.64-0.32-5.25,0.4-7.34,2.04
			c-2.09,1.65-3.41,4.01-3.72,6.65l-0.49,4.28c-1.29,11.19,1.14,22.71,6.84,32.43l26.05,44.4c0.28,0.48,0.12,1.09-0.36,1.37
			C510.8,632.73,510.62,632.77,510.45,632.77z"/>
		<path d="M601.37,579.24l-0.51-8.11c-0.2-3.23-2.15-6.08-5.09-7.44l-53.17-24.56c-3.79-1.75-8.35-0.78-11.1,2.35l-6.44,7.34
			l-1.5-1.32l6.44-7.34c3.33-3.8,8.86-4.97,13.45-2.85l53.17,24.56c3.61,1.67,6,5.17,6.25,9.13l0.51,8.11L601.37,579.24z"/>
		<path d="M676.81,587.07c-6.29,0-12.44-2.58-16.84-7.26l-0.02-0.02l-28.33-31.75c-2.98-3.17-3.92-7.55-2.48-11.69
			c1.43-4.14,4.88-7,9.21-7.64l37.51-2.49c2.03-0.3,4.15,0.32,5.75,1.74l33.55,29.53c3.8,3.37,5.31,8.31,4.04,13.23
			c-1.27,4.91-4.98,8.51-9.93,9.63l-27.44,6.17C680.17,586.89,678.49,587.07,676.81,587.07z M661.44,578.45
			c5.08,5.39,12.72,7.74,19.95,6.11l27.44-6.17c4.2-0.95,7.36-4,8.43-8.17c1.08-4.17-0.21-8.37-3.43-11.23l-33.55-29.53
			c-1.16-1.03-2.69-1.48-4.21-1.25l-37.51,2.49c-3.5,0.53-6.35,2.89-7.53,6.31c-1.19,3.42-0.41,7.04,2.07,9.68L661.44,578.45z"/>
		<path d="M637.78,582.44c-1.81,0-3.46-1.05-4.22-2.71l-4.98-10.93l1.82-0.83l4.98,10.93c0.44,0.97,1.41,1.56,2.47,1.54l24.55-0.67
			l0.05,2l-24.55,0.67C637.87,582.44,637.82,582.44,637.78,582.44z"/>
	</g>
</g>
</svg>
