<?xml version="1.0" encoding="utf-8"?>
<!-- Generator: Adobe Illustrator 25.0.0, SVG Export Plug-In . SVG Version: 6.00 Build 0)  -->
<svg version="1.1" id="Layer_1" xmlns="http://www.w3.org/2000/svg" xmlns:xlink="http://www.w3.org/1999/xlink" x="0px" y="0px"
	 viewBox="0 0 491.5 491.5" style="enable-background:new 0 0 491.5 491.5;" xml:space="preserve">
<style type="text/css">
	.st0{fill-rule:evenodd;clip-rule:evenodd;}
</style>
<g id="Layer_x0020_1">
	<g id="_249031776">
		<path id="_249033120" class="st0" d="M67.9,380c-7,0-12.7,5.7-12.7,12.7v32.6c0,7,5.7,12.7,12.7,12.7h355.7
			c7,0,12.7-5.7,12.7-12.7v-32.6c0-7-5.7-12.7-12.7-12.7H67.9L67.9,380z M423.6,447.4H67.9c-12.2,0-22.1-9.9-22.1-22.1v-32.6
			c0-12.2,9.9-22.1,22.1-22.1h355.7c12.2,0,22.1,9.9,22.1,22.1v32.6C445.8,437.5,435.8,447.4,423.6,447.4L423.6,447.4z"/>
		<path id="_249032952" class="st0" d="M69.9,380c-2.6,0-4.7-2.1-4.7-4.7v-72.6c0-10.4,3.5-19.4,10.7-27.4l59.9-67.1
			c0.9-1,2.2-1.6,3.5-1.6h27.1c2.6,0,4.7,2.1,4.7,4.7c0,2.6-2.1,4.7-4.7,4.7h-25L83,281.6c-5.7,6.3-8.3,13.1-8.3,21.1v72.6
			C74.6,377.9,72.5,380,69.9,380L69.9,380z M421.6,380c-2.6,0-4.7-2.1-4.7-4.7v-72.6c0-8.1-2.6-14.8-8.3-21.1L350.1,216h-25
			c-2.6,0-4.7-2.1-4.7-4.7c0-2.6,2.1-4.7,4.7-4.7h27.1c1.3,0,2.6,0.6,3.5,1.6l59.9,67.1c7.2,8.1,10.7,17.1,10.7,27.4v72.6
			C426.4,377.9,424.2,380,421.6,380z"/>
		<path id="_249032520" class="st0" d="M245.8,53.6c-71.6,0-136.1,19.8-191.6,59c-19.2,13.6-16.5,56.3-14.5,74
			c0.3,2.5,1.6,4.4,3.9,5.6c29.3,14.4,63.1,6.4,86.3-20.4l0,0c1.7-1.9,2.2-4.3,1.4-6.7c-4.7-15.6,0.8-29.5,15.9-40.4
			c42.4-30.4,154.7-30.4,197,0c15.1,10.9,20.6,24.8,15.9,40.4c-0.7,2.5-0.3,4.8,1.4,6.7c23.1,26.8,57,34.8,86.3,20.4
			c2.3-1.1,3.6-3,3.9-5.6c2.1-17.7,4.8-60.5-14.5-74C381.8,73.4,317.4,53.6,245.8,53.6L245.8,53.6z M73.7,208.8
			c-11.5,0-23.2-2.6-34.2-8.1c-5.1-2.5-8.5-7.3-9.1-13c-2.8-24.1-4.1-67,18.4-82.9c57.1-40.3,123.4-60.7,197-60.7
			s139.9,20.4,197,60.7c22.6,15.9,21.2,58.8,18.4,82.9c-0.7,5.7-4,10.4-9.1,13c-33.2,16.4-71.6,7.5-97.6-22.7
			c-3.8-4.4-5-10.1-3.3-15.7c3.5-11.6-0.5-21.4-12.4-29.9c-39.1-28.1-146.9-28.1-186,0c-11.8,8.5-15.9,18.3-12.3,29.9
			c1.7,5.6,0.5,11.3-3.3,15.7C119.7,198.1,96.8,208.8,73.7,208.8L73.7,208.8z"/>
		<path id="_249032928" class="st0" d="M245.8,171.3c-48.5,0-88,39.5-88,87.9c0,48.5,39.5,87.9,87.9,87.9
			c48.5,0,87.9-39.5,87.9-87.9C333.7,210.8,294.3,171.3,245.8,171.3L245.8,171.3L245.8,171.3z M245.8,356.7
			c-53.7,0-97.4-43.7-97.4-97.4s43.7-97.4,97.4-97.4s97.4,43.7,97.4,97.4C343.2,313,299.5,356.7,245.8,356.7L245.8,356.7z"/>
		<path id="_249033216" class="st0" d="M245.8,230.8c-15.7,0-28.5,12.8-28.5,28.5c0,15.7,12.8,28.5,28.5,28.5s28.5-12.8,28.5-28.5
			C274.3,243.5,261.5,230.8,245.8,230.8L245.8,230.8z M245.8,297.2c-20.9,0-38-17-38-38c0-20.9,17-38,38-38c20.9,0,38,17,38,38
			C283.7,280.2,266.7,297.2,245.8,297.2z"/>
		<path id="_249033240" class="st0" d="M245.8,188c-4.6,0-8.3,3.7-8.3,8.3s3.7,8.3,8.3,8.3s8.3-3.7,8.3-8.3S250.3,188,245.8,188
			L245.8,188L245.8,188z M245.8,214.1c-9.8,0-17.8-8-17.8-17.8s8-17.8,17.8-17.8s17.8,8,17.8,17.8S255.6,214.1,245.8,214.1
			L245.8,214.1L245.8,214.1z"/>
		<path id="_249033024" class="st0" d="M290.3,206.4c-2.1,0-4.3,0.8-5.9,2.4c-3.2,3.2-3.2,8.5,0,11.8c3.2,3.2,8.5,3.2,11.8,0
			c3.2-3.2,3.2-8.5,0-11.8C294.5,207.2,292.4,206.4,290.3,206.4z M290.3,232.5c-4.6,0-9.1-1.7-12.6-5.2c-6.9-6.9-6.9-18.2,0-25.2
			c6.9-6.9,18.2-6.9,25.2,0l0,0c6.9,6.9,6.9,18.2,0,25.2C299.4,230.8,294.8,232.5,290.3,232.5z"/>
		<path id="_249033048" class="st0" d="M308.7,250.9c-4.6,0-8.3,3.7-8.3,8.3c0,4.6,3.7,8.3,8.3,8.3c4.6,0,8.3-3.7,8.3-8.3
			C317.1,254.7,313.3,250.9,308.7,250.9L308.7,250.9z M308.7,277.1c-9.8,0-17.8-8-17.8-17.8c0-9.8,8-17.8,17.8-17.8
			s17.8,8,17.8,17.8C326.5,269.1,318.5,277.1,308.7,277.1L308.7,277.1z"/>
		<path id="_249033096" class="st0" d="M290.3,295.4c-2.2,0-4.3,0.9-5.9,2.4c-3.2,3.2-3.2,8.5,0,11.8c1.6,1.6,3.7,2.4,5.9,2.4
			c2.2,0,4.3-0.9,5.9-2.4c3.2-3.2,3.2-8.5,0-11.8C294.6,296.3,292.5,295.5,290.3,295.4z M299.5,313L299.5,313L299.5,313z
			 M290.3,321.6c-4.8,0-9.2-1.9-12.6-5.2c-3.4-3.4-5.2-7.8-5.2-12.6c0-4.8,1.9-9.2,5.2-12.6c3.4-3.4,7.8-5.2,12.6-5.2
			c4.8,0,9.2,1.9,12.6,5.2c6.9,6.9,6.9,18.2,0,25.2C299.5,319.7,295,321.6,290.3,321.6z"/>
		<path id="_249032664" class="st0" d="M245.8,313.9c-4.6,0-8.3,3.7-8.3,8.3c0,4.6,3.7,8.3,8.3,8.3s8.3-3.7,8.3-8.3
			S250.3,313.9,245.8,313.9L245.8,313.9z M245.8,340c-9.8,0-17.8-8-17.8-17.8s8-17.8,17.8-17.8s17.8,8,17.8,17.8
			S255.6,340,245.8,340L245.8,340L245.8,340z"/>
		<path id="_249031752" class="st0" d="M201.2,295.4c-2.2,0-4.3,0.9-5.9,2.4c-3.2,3.2-3.2,8.5,0,11.8l0,0c1.6,1.6,3.7,2.4,5.9,2.4
			s4.3-0.9,5.9-2.4c1.6-1.6,2.4-3.7,2.4-5.9c0-2.2-0.9-4.3-2.4-5.9C205.6,296.3,203.5,295.5,201.2,295.4L201.2,295.4z M201.2,321.6
			c-4.7,0-9.2-1.9-12.6-5.2l0,0c-3.4-3.4-5.2-7.8-5.2-12.6c0-4.8,1.8-9.2,5.2-12.6s7.8-5.2,12.6-5.2s9.2,1.9,12.6,5.2
			c3.4,3.4,5.2,7.8,5.2,12.6c0,4.8-1.9,9.2-5.2,12.6C210.5,319.7,206,321.6,201.2,321.6z"/>
		<path id="_249032472" class="st0" d="M182.8,250.9c-4.6,0-8.3,3.7-8.3,8.3c0,4.6,3.7,8.3,8.3,8.3s8.3-3.7,8.3-8.3
			C191.1,254.7,187.4,250.9,182.8,250.9z M182.8,277.1c-9.8,0-17.8-8-17.8-17.8c0-9.8,8-17.8,17.8-17.8s17.8,8,17.8,17.8
			C200.6,269.1,192.6,277.1,182.8,277.1L182.8,277.1z"/>
		<path id="_249032424" class="st0" d="M195.4,208.9c-3.2,3.2-3.3,8.5,0,11.8c3.2,3.2,8.5,3.2,11.8,0c1.6-1.6,2.4-3.7,2.4-5.9
			s-0.9-4.3-2.4-5.9C203.9,205.6,198.6,205.6,195.4,208.9L195.4,208.9z M201.2,232.5c-4.7,0-9.2-1.9-12.6-5.2
			c-6.9-6.9-6.9-18.2,0-25.2l0,0c3.4-3.4,7.8-5.2,12.6-5.2s9.2,1.9,12.6,5.2c3.4,3.4,5.2,7.8,5.2,12.6s-1.9,9.2-5.2,12.6
			C210.5,230.7,206,232.5,201.2,232.5L201.2,232.5z"/>
		<path id="_249031968" class="st0" d="M182.7,196.1c-2.6,0-4.7-2.1-4.7-4.7v-58.2c0-2.6,2.1-4.7,4.7-4.7h30c2.6,0,4.7,2.1,4.7,4.7
			v39.5c0,2.6-2.1,4.7-4.7,4.7c-2.6,0-4.7-2.1-4.7-4.7v-34.8h-20.5v53.5C187.5,193.9,185.3,196.1,182.7,196.1L182.7,196.1z"/>
		<path id="_249031872" class="st0" d="M308.8,196.1c-2.6,0-4.7-2.1-4.7-4.7v-53.5h-20.5v34.8c0,2.6-2.1,4.7-4.7,4.7
			s-4.7-2.1-4.7-4.7v-39.5c0-2.6,2.1-4.7,4.7-4.7h30c2.6,0,4.7,2.1,4.7,4.7v58.2C313.5,193.9,311.4,196.1,308.8,196.1L308.8,196.1z"
			/>
	</g>
</g>
</svg>
